<?xml version="1.0" encoding="UTF-8"?>
<svg width="24" height="32" version="1.1" viewBox="4 0 64 100" xmlns="http://www.w3.org/2000/svg">
<g transform="matrix(.076687 0 0 -.076687 0 77.991)">
<path d="m48-203v1136c0 30 17 36 37 36h765c30 0 36-16 36-36v-1135c0-30-15-37-35-37h-767c-30 0-36 16-36 36z" fill="#fff"/>
<path d="m229 894c36 0 59-2 71-5 11-5 18-14 20-26 2-18-4-31-19-41l-15-10v-109l12-14c21-26 20-49-1-68-4-5-8-9-9-16-1-6-2-23-2-49v-57l15-11c9-6 15-13 17-15 1-2 2-8 2-16 0-7 0-11-1-13-1-5-5-8-11-12l-10-10h-135l-12 10c-7 6-11 14-12 25 1 8 2 14 4 16 1 2 6 9 15 15l14 11v57c0 26 0 43-2 48 0 8-2 12-6 17-10 8-16 19-16 31-2 12 4 24 15 37l9 13v110l-14 10c-14 10-19 23-17 41 0 9 3 16 10 20 5 3 14 7 25 9 12 1 29 2 53 2zm479 0c23 0 41-1 53-2 20-2 32-12 35-29 3-18-3-31-17-41l-15-10v-110l11-13c22-26 20-49-1-68-5-5-6-9-8-17-1-5-2-22-2-48v-57l14-11c4-5 9-8 10-7 3 0 5-2 7-8l2-6v-10c0-10-4-19-11-25l-12-10h-135l-12 10-4 4-2 3-5 11c0 1-1 5-1 7 0 8 1 14 5 16 2 2 8 8 16 15l13 11v57c0 26 0 43-1 48 0 8-2 12-8 17-8 8-14 19-15 31 0 12 4 24 14 37l10 13v110l-14 10c-14 10-22 23-18 41 2 9 6 16 10 20 7 3 15 7 27 9 10 1 29 2 54 2zm-490-50v-60c-1-42-1-63 0-67 3-1 4-2 6-3s3-1 5 0h12v130zm478 0-1-60c-1-42 0-63 1-67 2-2 6-3 12-3h10v130zm-225-87c9 0 17-3 25-6 8-5 13-11 19-19 4-7 6-16 6-27 0-13-5-23-12-32-8-9-16-14-27-17-11-2-22-1-34 4-19 8-28 24-27 45 0 23 9 37 27 46 3 1 7 3 11 5 4 1 8 1 12 1zm-242-76c-4 0-6-1-8-3-3-3-3-7-3-17-1-9-2-14-1-18 0-5 4-8 5-10 2-1 5-2 7-1 7 0 10 1 11 4 1 2 1 9 1 21v24zm479 0c-6 0-10-1-11-3s-2-7-2-17c0-12 1-21 2-24 2-4 5-6 11-5 2 4 5 4 6 1 1-2 3-1 3 4l1 6v38zm-490-81v-60c-1-42-1-65 0-68 3-2 6-3 11-2l12 1v129zm478 0-1-60c-1-42 0-65 1-68 1-2 5-3 12-2l10 1v129zm-226-3c35 0 59-1 70-6 11-3 17-11 18-24 5-17-1-33-15-40l-15-11v-110l10-13c20-26 21-49-2-69-4-4-7-9-7-15-1-6-1-23-1-49v-57l13-10c9-7 14-12 16-15 4-2 5-9 5-19 0-7-5-16-12-25l-12-10h-135l-11 10c-9 9-12 18-12 25 0 10 1 17 2 19 1 3 8 9 18 15l14 10v57c0 26-2 43-3 49s-3 12-6 15c-23 21-24 43-3 69l12 13v110l-16 11c-15 7-19 23-17 40 2 13 10 21 19 24 11 5 34 6 70 6zm-11-49-1-61v-43c0-15 0-21 1-22 1-4 6-5 12-4l10 2v128zm11-161c-5 0-7-1-9-4-1-2-2-8-3-17-1-13-1-21 1-26 1-4 6-5 12-4 8 2 10 10 10 26v25zm-11-82-1-63c-1-40 0-62 1-65 1-4 6-6 12-4l10 3v129zm-230-2c36 0 59-2 71-6 11-4 18-12 20-25 2-19-4-32-19-43l-15-9v-109l12-14c10-12 14-24 14-36-1-12-5-22-15-32-5-5-8-10-9-16-1-5-2-22-2-49v-56l15-10c9-8 15-12 17-16 1-4 2-9 2-18 0-3 0-6-1-10 0-2-1-4-3-6-2-3-4-7-8-9l-19-10h-135l-3 10c-2 7-8 9-10 12-1 3-2 7-2 13 1 9 2 14 4 18 1 4 5 9 15 16l14 10v56c0 27 0 44-2 49 0 6-1 11-6 16-10 10-16 20-16 32-2 12 4 24 15 36l9 14v109l-14 9c-10 6-14 12-16 19-2 5-3 14-1 24 0 3 1 5 2 8 0 2 1 5 2 6 3 2 4 5 7 6 2 2 4 4 8 5s7 1 12 2c5 0 9 1 15 1 5 1 12 1 18 3h24zm479 0c23-2 41-3 53-3 20-2 32-12 35-28 3-19-3-32-17-43l-15-9v-109l11-14c10-12 13-24 13-36s-4-23-14-32c-5-5-6-10-8-16-1-5-2-22-2-49v-56l14-10c10-7 15-12 17-16s2-9 2-18-4-16-11-25l-21-10h-135l-3 10c-6 9-12 15-12 25 0 6 1 10 1 12 1 1 2 3 4 6 2 2 3 5 4 7 2 3 5 5 12 9l13 10v56c0 27 0 44-1 49 0 6-2 11-8 16-8 9-14 20-15 32 0 12 4 24 14 36l10 14v109l-14 9c-9 7-13 12-15 19-5 5-6 14-3 24 2 8 6 15 10 20 7 4 15 7 27 8 10 3 29 3 54 3zm-490-52v-59c-1-41-1-63 0-68 3-3 6-4 11-3l12 2v128zm478 0-1-59c-1-41 0-63 1-68 1-3 5-4 12-3l10 2v128zm-467-161c-4 0-7-2-8-4-3-1-3-6-3-15-1-14-1-23 0-26 4-5 7-6 11-5h7c1 2 1 2 2 3 1 0 2 2 2 4v7c1 3 1 6 1 10v26zm479 0c-6 0-10-2-11-4-1-1-2-6-2-15 0-14 0-23 2-26 1-5 5-7 11-5 5 1 9 3 9 6 1 2 1 8 1 18v26zm-490-82v-61c-1-39-1-61 0-65 3-2 4-4 6-4 2-1 3-1 5-1l12 1v130zm478 0-1-61c-1-39 0-61 1-65 0-2 1-4 3-4 3-1 6-1 9-1l10 1v130z" fill="#e5007f"/>
<path d="m0 933c0 55 35 84 85 84h765c55 0 84-34 84-84v-1135c0-55-34-85-84-85h-766c-55 0-84 34-84 84zm48-1136c0-20 6-36 36-36h767c20 0 35 7 35 37v1135c0 20-6 36-36 36h-765c-20 0-37-6-37-36v-1125z"/>
</g>
</svg>
