<?xml version="1.0" encoding="UTF-8"?>
<svg width="24" height="32" version="1.1" viewBox="4 0 64 100" xmlns="http://www.w3.org/2000/svg">
<g transform="matrix(.076687 0 0 -.076687 0 77.991)">
<path d="m48-203v1136c0 30 17 36 37 36h765c30 0 36-16 36-36v-1135c0-30-15-37-35-37h-767c-30 0-36 16-36 36z" fill="#fff"/>
<path d="m629 783c5-1 9-1 9-1 0 1 3 1 9 0l20-4 11-3 19-6c3-1 7-2 10-5 2-1 6-2 10-3 17-8 29-15 40-26s15-21 15-32c0-22-14-35-42-42-21-6-40-1-54 9-11 8-22 12-35 14-11 4-27 5-46 5s-37-2-55-6c-19-5-61-14-127-33-46-13-82-22-104-27-23-6-43-9-61-10-15 0-28 1-36 5-22 5-36 15-42 29-3 7-4 13 0 20 6 11 24 15 50 11 18-5 38-6 59-5 20 3 42 6 62 12 21 7 50 18 87 32 7 3 18 8 30 13 13 6 25 10 34 15 23 9 43 18 59 25 11 5 22 9 33 10 11 2 24 3 36 3zm-629 150c0 55 35 84 85 84h765c55 0 84-34 84-84v-1135c0-55-34-85-84-85h-766c-55 0-84 34-84 84zm48-1136c0-20 6-36 36-36h767c20 0 35 7 35 37v1135c0 20-6 36-36 36h-765c-20 0-37-6-37-36v-1125z"/>
<path d="m528 510c3 0 7-1 10-4s7-7 9-10c3-5 7-10 10-15 2-6 4-11 5-17s1-14 1-19c0-6-2-17-5-30-7-24-8-37-6-40 2-2 17-3 44-2 92 7 143 6 151-1 4-3 6-9 6-13 0-5-2-9-6-13-7-7-14-10-20-12-7-2-16-4-29-5s-34-3-65-4l-81-3-35-12c-73-29-118-45-138-50s-45-7-76-9c-36 0-58 2-68 4s-20 6-27 14c-5 3-7 6-9 8l-4 8c-2 3-2 6-2 10 0 9 4 16 10 19s28 1 64-8c40-8 77-11 107-8 7 1 14 2 17 4 3 1 4 4 5 8 8 13 4 24-13 29-7 4-12 7-13 10-1 2 7 13 21 34 6 9 12 18 19 28 6 8 11 15 14 19 4 7 6 10 9 12 2 3 3 4 5 5s6 1 11 1c8 1 13-1 17-9 2-4 4-10 5-15 1-6 1-12 1-22-1-8-3-18-6-29-7-28-6-41-2-41 2 0 4 4 7 11 10 28 17 48 21 59s4 20 3 25c-1 7-6 13-13 21l-11 14 25 23c18 18 28 25 32 25zm38-227c12 0 20-2 25-4 2-3 5-9 5-18 0-7-3-28-8-63-3-36-5-68-5-94 0-23 1-36 3-39 4-3 14-7 32-9 38-4 74-13 104-29 30-18 47-34 52-52 3-24-1-42-16-55-6-5-18-12-31-20-15-6-30-14-44-19-17-7-31-10-42-12-44-8-78-6-100 7-15 8-25 15-33 18-5 4-12 10-21 18-9 9-16 14-17 14-3 0-11-3-24-8-36-14-60-16-67-8-7 9-11 6-11-8 0-6 0-11-1-15-1-5-2-9-6-12-1-3-3-5-4-6-3-2-8 0-13 1-7 1-15 14-24 39-9 20-14 31-17 33s-13 2-29 0c-5-1-9-1-14-1-5 1-10 1-14 4-5 3-11 8-21 16-10 7-18 16-26 24-9 10-12 15-13 20-1 4-2 7-1 9 0 3 3 4 8 5 6 1 12 1 20 0 9-1 20-2 35-5 23-2 36-2 38-1 1 1 0 11-4 31-5 20-7 40-7 60 0 15 1 22 2 26 0 3 4 5 7 5 6 5 11 6 19 5 2-2 4-5 7-7l5-15c2-9 6-21 10-41 4-18 7-34 11-47l4-20 20 3c12 2 21 4 31 8 5 2 10 5 11 6 2 2 2 9 2 20 0 12 0 18-1 19-1 2-3 2-7 1s-8-1-13-1c-2 0-5-4-7-11-3-11-8-15-16-13-6 2-12 10-15 24-6 15-9 33-11 55-3 22-5 43-5 62s3 32 5 40c2 7 4 10 8 11 3 1 10 2 24 3 15 1 34 6 55 13 63 22 112 33 145 33zm-54-53c-7 0-16-3-29-5l-19-3v-33l19 3c13 1 21 3 25 5 5 3 6 6 6 10l3 15c1 4-1 8-5 8zm-105-21c-8 0-15-2-21-6s-9-9-10-13c-2-4 1-9 5-14 2-2 8-2 14-1 7 1 10 3 13 6 3 4 4 9 3 16 0 8-1 12-4 12zm105-41c-6 0-15-1-28-4-13-4-21-7-22-7-1-1-2-3-3-6-1-4-1-7-1-11v-15l14 1c4 2 9 3 14 4 7 1 10 2 14 3 5 2 7 3 8 7 1 1 4 5 4 12zm-119-25c-1 0-3 0-4-1-7-1-10-2-11-6-1-1-2-5-2-13 0-6 3-13 7-15 7 0 11 1 13 4 5 5 8 8 9 14 2 6 2 9-1 14l-2 2c-1 1-3 1-6 1zm113-51c-2 0-5 0-9-1-3 0-8 0-12-1-4 0-9-1-13-3-4-1-8-2-11-2-2-1-3-2-4-4 0 0-1-3-1-8-1-5-1-10-1-15 0-12 1-18 3-19s10 0 25 3c6 1 11 2 15 3 5 2 8 4 9 5 5 1 6 8 5 22 0 14-4 20-6 20zm77-78c0-7 1-18 4-33 4-16 5-25 5-30-1-7-4-12-9-18l-10-12 13 4c4 0 10 1 18 4 7 3 17 6 25 9 23 10 39 17 46 24 8 5 10 15 8 26-1 7-2 10-6 13-2 4-5 7-11 12s-14 7-19 9c-5 1-16 2-30 4l-34 1zm-80 8h-5c-1-1-3-2-5-3-9-2-18-6-29-9-11-2-15-6-15-12-2-3-2-7 1-11 2-2 6-3 9-3 1 0 3 0 5 1s6 2 10 4c5 2 8 5 12 7 12 5 19 10 22 12 4 4 4 8-1 11zm-106-38-7-3c-2-2-8-2-14-5-17-7-22-19-18-33l4-10 14 10c7 9 13 12 16 12 2 0 4 1 7 4 3 2 5 4 6 7 2 5 3 7 3 10 0 5 0 7-1 8 0 1-2 1-4 1zm103-33c-9-4-15-9-13-14 2-6 8-11 19-15 0-1 3-1 12-2h19c0 1-6 8-16 18-7 7-14 13-17 13z" fill="#e5007f"/>
</g>
</svg>
