<?xml version="1.0" encoding="UTF-8"?>
<svg width="24" height="32" version="1.1" viewBox="4 0 64 100" xmlns="http://www.w3.org/2000/svg">
<g transform="matrix(.076687 0 0 -.076687 0 77.991)">
<path d="m48-203v1136c0 30 17 36 37 36h765c30 0 36-16 36-36v-1135c0-30-15-37-35-37h-767c-30 0-36 16-36 36z" fill="#fff"/>
<path d="m381 831c5 0 11-1 17-3 7-3 13-7 20-11s13-10 20-17l12-12 9 7c6 3 13 8 19 10 5 3 12 6 17 8 7 2 12 3 19 4h20c17 0 31-1 38-4 8-5 14-11 18-21s4-25 1-43c-2-20-4-32-4-36s2-6 4-9c5-2 12-5 22-8 18-7 31-17 41-30s15-27 15-42c0-24-5-45-18-62-5-7-7-13-7-16 0-4 7-7 17-12 25-13 43-28 52-48 4-4 6-9 7-13 1-3 1-8 2-12v-18c0-23-5-41-16-54-12-12-31-22-56-27-13-4-19-8-19-13 0-12-3-17-7-17-1 0-2 0-3-1s-2-2-2-4c0-3-3-9-9-21-6-9-7-15-6-16 0-4 19 5 58 29 14 8 22 13 23 13s12 6 33 20c21 12 41 25 61 37 19 13 29 15 29 6 0-1-4-6-13-14s-20-17-33-26c-4-3-12-9-22-18l-17-13-5-4c1-1 15 4 43 15l4 2c32 14 48 16 48 9 0-3-8-9-23-16-15-8-29-15-42-22-18-10-50-28-97-53-9-6-17-10-25-15-6-3-11-5-12-5-2-2 0-6 5-10 4-3 7-6 11-4 3 1 12 5 26 14 44 23 87 41 129 53l19 4c4 1 8 2 10 2s3 0 4-1c0 0 1-2 1-3 0-3-3-7-7-9-6-2-15-6-28-11-25-8-55-21-88-40-33-18-50-30-50-35 0-2 4-6 9-12 6-7 12-13 21-21s17-14 22-19c32-23 63-37 94-44l22-5c10-2 13-7 10-14-2-1-12-2-29-3-16-1-51-3-101-3l-125-1v-1l-166-1v1l-144-3c-69-1-110-1-123 0-12 0-20 3-21 5-1 4 3 18 15 41 11 23 23 43 36 60 8 12 24 29 44 51 21 21 36 36 49 45 8 7 18 12 30 19 6 1 10 4 12 8 3 2 6 4 6 5s-1 2-4 3c-2 2-5 2-8 2h-13c-4-2-8-3-13-4-5-2-10-3-15-4-8-2-16-6-22-8-7-3-12-4-17-5-4-1-8-3-11-3s-5 2-6 4c-3 5 5 11 22 16l13 7c0 3-11 7-33 11-31 5-45 11-45 15 2 5 19 5 54 0 12-2 22-4 30-5 8 0 15-1 20-2h12c4 0 5 0 5 1 0 2-2 7-5 16l-4 15-37 1c-25 2-49 5-74 10-25 4-40 6-47 6-3 0-5 1-8 2-3 3-4 4-3 6 0 2 3 4 5 7 5 2 21 2 47 1l20-1h11 7c1 1 1 2 0 3-1 2-5 5-8 7-12 7-25 16-39 25-13 10-20 15-20 18s3 5 6 7 10 0 21-6c10-7 18-11 24-14l9-1v21c0 7 1 12 1 19 1 7 3 12 6 17 2 7 7 16 16 25 8 9 16 14 21 18 7 2 10 4 10 8 1 5-1 8-5 11-5 4-9 11-13 21s-6 21-7 31 0 20 2 31c3 11 5 20 9 25 3 7 7 13 14 19 9 10 22 16 41 18 9 2 14 4 14 6 0 3 0 14-2 33-3 23 5 43 26 64s43 31 67 31zm9-45c-1-1-1-2-1-7 1-4 3-14 6-32 4-20 9-30 13-31 9-4 14-4 19 0 1 1 2 2 3 5 1 2 1 6 2 9 0 3 1 8 3 13v16l-4 12c-1-1-2-6-3-12l-2-10c-5-15-9-17-15-8-3 4-5 12-8 24l-11 21zm101-2c-1 0-5-6-9-16-2-5-4-11-7-15-2-4-3-8-3-9 0-2-1-3-2-4-2 1-5 5-7 12-3 9-4 14-5 14l-1-10c-1-6-1-15-1-25 0-11 0-19 1-25 0-7 1-10 2-10 3 0 8 3 15 8 5 5 8 8 10 12 1 3 2 6 2 11 0 1 0 5 1 11 2 5 3 9 4 14 2 11 2 20 1 26 0 4 0 6-1 6zm-127-16c-1 0-2 0-2-2v-5c0-4 1-6 2-9 2-3 4-7 6-11 1-6 2-9 3-11 0-2 0-5-1-5-2 2-7 6-15 17-7 11-12 13-13 9-1-6 2-15 10-28 8-12 14-19 19-19l11 7c4 3 6 7 6 8 2 2 0 6-3 13-9 24-16 36-23 36zm154-4c-1 0-1-1-3-3l-11-22c-2-4-3-7-4-9s-1-6-3-8v-5c2-6 6-4 10 6 3 7 5 15 8 21 7 12 8 19 3 19zm14-21-10-22c-4-3-5-7-5-9 0-4 1-4 6 0 1 1 2 4 4 6s3 5 5 10c4 6 6 13 6 18l-1 5zm-204-14c-5-1-4-6 3-13 4-7 9-13 12-17l6-4c8-6 12-5 12 4 0 2-5 9-15 18-10 7-15 12-18 12zm231-5c-2 0-8-3-14-11-8-7-10-13-9-17 1-5 6-3 13 6 8 9 12 15 12 18s-1 4-2 4zm-231-23c-7-1-6-5 3-14l9-8c2-1 3-2 5-1 1 0 2 1 4 3 1 1-2 6-8 11-7 7-11 9-13 9zm241-1c-3 0-8-2-13-7-6-4-9-7-9-9l2-5c2-4 8-1 15 9 5 5 6 10 5 12zm-170-1c-9 0-15-2-20-6-5-3-9-9-13-17-3-9-4-16-3-22 1-5 4-10 10-17 5-5 11-10 15-12 7-2 13-2 20-1s12 3 17 9c6 5 11 12 13 20 1 7 1 16-2 24-4 7-8 12-14 15-6 5-14 7-23 7zm98-6c-13 0-22-4-29-14-12-17-10-34 4-49 10-9 19-14 28-14 10 0 17 5 26 12 3 4 6 6 7 9 1 2 3 5 4 8 0 2 1 4 1 8 0 7-2 15-6 22-4 6-9 12-15 14-6 3-13 4-20 4zm-97-8c11 0 18-6 22-16s0-19-11-27c-5-3-10-5-13-5-4 0-9 4-13 8-7 8-9 15-4 25 3 10 9 15 19 15zm99-8c3 0 6-1 11-3 13-8 14-19 5-33-1-2-2-3-4-4-3-2-5-3-7-3-3-1-5-1-8 0-2 0-5 1-6 2-3 1-5 2-7 5-3 3-4 6-5 9-2 4-2 7 0 12 1 3 2 6 5 9 6 4 10 6 16 6zm-208-21c8-4 15-7 20-9 6-1 11-2 16-2 4-1 8 0 12 1s5 4 5 9c0 3-6 7-21 7-6 1-13 2-20 2-7 1-13 2-18 3l-17 1zm320 7c-2 0-6-1-9-1-6-3-14-4-22-5s-14-2-20-4c-5-3-9-4-10-4-1-1-2-2-2-4-1-2-1-4-1-6s1-3 2-4c2 0 5-1 8-1 2 0 7 1 12 2 4 1 11 3 20 6 7 2 12 4 16 6 13 7 17 11 14 14h-4c0 1-2 1-4 1zm-346-26c-8 0-12-1-12-4 1-3 8-6 24-9 22-7 44-8 69-4l6 1c8 1 9 2 4 4-3 2-16 5-39 8-22 3-40 4-52 4zm314-10c-3 0-8-1-10-1-3-1-5-1-7-2-1 0-1-1-1-2v-3c1-2 3-3 3-3 1-2 9-3 26-3s26 1 32 2c6 2 8 5 8 7 0 3-12 5-36 5zm-310-17c-10 0-15-1-15-4-1-2 4-5 14-8 9-4 17-5 23-4 7 0 11 2 12 7 0 1-1 2-2 4-1 1-2 2-4 2-4 2-7 2-11 3h-17zm77-1c-3 0-7 0-14-2-7-3-13-8-18-15-4-8-6-15-6-24s2-17 7-23c4-7 12-10 20-12 9-2 18 0 28 3 4 1 10 5 15 13 5 7 7 13 7 20 0 16-8 29-25 36-2 1-4 2-7 2l-3 2zm192 0c-8 0-16-4-24-11-9-10-14-20-14-29s5-19 14-28c4-4 8-6 11-7 2-1 7-1 13-1 10 0 18 1 23 4 3 1 5 3 8 5 2 4 6 7 8 11 3 8 4 17 1 27-7 19-20 29-40 29zm-90 0c-8 0-16-4-23-10-8-7-12-16-15-26-1-5 0-13 5-21 4-8 9-13 13-15 8-4 15-6 25-4s18 5 22 9c7 7 10 14 10 22 1 8-1 16-5 24-4 7-10 13-18 17-4 2-9 4-14 4zm142-9c-7-1-7-6 0-11 1-1 2-2 3-4 3-1 4-1 6-1s4 0 6-1c3 0 5-1 6-1 2 0 4 1 7 1 2 1 3 1 5 1 1 1 2 3 3 4 4 1 5 3 5 5-1 2-9 3-24 5-6 1-10 2-14 2zm-140-7c3 0 7-1 10-3 2-1 4-5 7-8 2-3 3-8 3-13 0-6-1-9-2-11-1-3-4-6-6-8-10-5-19-5-27 2-6 5-8 10-9 17 0 7 2 12 6 16 6 6 11 8 18 8zm92-3c7 0 14-3 19-10 5-8 6-13 1-19-5-8-13-12-24-12-4 0-9 1-14 4-7 7-8 15-5 24 5 8 11 13 23 13zm-198 0c9 0 17-3 21-12 5-8 3-16-4-25-10-11-21-11-32 2-5 5-8 9-8 15-1 4 1 9 7 12 2 3 4 6 7 7 4 1 6 1 9 1zm-68-9c-4 0-4-3 0-11 1-2 3-4 8-3 5 0 7 2 7 5-1 2-4 6-10 8-1 1-3 1-5 1zm321-4c-3 0-4-3-5-7 0-3 0-7 2-9 3-2 6-2 11-2s8 2 8 5c0 2-1 3-3 5s-5 3-7 5c-3 2-5 3-6 3zm-90-59c-15 0-27-5-35-19-8-13-8-25 0-38 3-7 8-11 13-14 6-5 11-6 17-6 5 0 12 1 17 4 17 8 25 20 25 36 0 6-4 15-12 24-9 9-17 13-25 13zm98-5c-4 0-7-1-12-4l-14-7c-7-7-10-17-10-28s4-21 13-29c8-6 14-10 18-11s11 0 21 4c15 6 22 20 22 36 0 4 0 8-1 10s-2 6-3 8c-3 2-5 5-8 9-1 2-3 3-6 5l-6 3c-3 1-5 3-7 3-2 1-4 1-7 1zm-305 0c-5 0-9-1-11-1s-4-2-7-4c-2-1-5-4-8-7-7-9-10-18-10-27 0-5 0-11 1-15s3-8 5-10c2-4 6-6 10-8 11-8 23-9 35-3 16 5 24 17 24 36-1 25-15 39-39 39zm98 0c-14 0-25-8-32-22-8-15-6-28 2-40 13-16 28-21 45-13 5 1 9 3 12 7 3 5 6 9 7 15 3 5 4 11 3 17-2 8-5 16-9 21-5 7-11 10-20 12l-5 3zm108-10c2 0 6-1 11-2 7-5 10-10 10-18 0-10-4-18-14-22-10-6-18-5-23 2-7 8-9 14-8 22 1 7 5 12 15 17zm99-5c5 0 10-2 16-7 5-6 9-11 9-17 0-2-1-3-1-5-1-3-3-5-4-6-1-2-3-3-4-5-3-3-7-4-9-5s-5-2-8-2c-2 0-4 1-7 2s-6 2-8 5c-2 2-4 4-6 7 0 4-1 6-1 8 0 3 1 5 3 8s3 5 5 7c2 4 4 6 7 8 3 1 5 2 8 2zm-304-2c9-1 14-5 19-14 2-5 3-7 3-9s-1-4-2-7c-1-2-2-4-6-7-5-5-9-8-14-8-3-1-8 0-12 3-17 13-17 27 2 39 2 2 7 3 10 3zm94 0h5v-1c6 0 11-1 16-5 11-12 10-23-3-32-12-9-21-9-30 0-7 5-9 12-8 18 1 7 6 12 13 17 2 1 5 2 7 3zm-153-26c-1 0-5 0-9-1-5-2-8-3-11-3-5-1-7-2-10-3-2-2-3-3-3-4 0-3 3-6 11-7 6-1 14-1 22 1 5 1 7 5 7 10 0 4-1 7-4 7zm421-14c-4 0-7-2-10-5-2-2-3-6-2-9 1-4 4-5 11-3 6 1 10 2 11 3s0 3-2 8c-2 4-4 6-6 6zm-215-22c-15 0-26-7-33-23-10-16-7-32 9-45 16-14 33-14 48 0 9 6 12 15 12 28v12c-1 4-2 7-3 11-1 2-3 5-6 6-2 3-4 5-7 6-4 2-6 3-9 4zm-176-1c-1 0-3-1-5-2-3-1-7-2-11-3s-8-4-10-6c-3-2-4-3-4-5 0-1 2-2 4-4h10c4 2 8 3 12 4 6 1 8 5 8 10 0 2 0 3-1 4 0 1-1 2-3 2zm72 0c-4 0-8-1-11-2-3-2-8-3-10-7-3-2-6-5-9-8-2-4-4-8-5-11-2-5-2-9-2-14 0-6 2-14 6-21 6-6 11-12 18-13 8-3 13-5 14-5 2 0 7 2 15 5 5 2 12 8 17 15 6 7 8 14 8 22s-4 17-13 26-19 13-28 13zm203-3c-13-1-23-8-31-19-8-12-8-25-1-39 6-9 12-15 22-18s20-2 30 3c5 2 10 8 14 15 6 7 8 13 8 17 0 2-1 7-3 12-3 5-6 9-9 14-4 4-7 7-10 8-2 1-5 3-7 4s-4 2-6 2c-3 1-5 1-7 1zm63-8c-5 0-7 0-9-1-3-1-4-3-4-4 1-7 13-10 33-10h11l-10 8c-6 5-12 7-18 7zm-317-5c-2 0-8-4-17-9-8-6-12-10-12-13s3-4 12-6c5 0 10 0 12 2 2 1 4 5 5 10 0 3 2 5 2 8l1 4v3s-1 1-3 1zm157 0c12-1 19-9 20-22 0-4-3-9-8-15-5-5-10-8-15-8-4 0-8 3-12 9-9 8-10 17-3 26 1 2 4 4 6 5 1 1 3 3 5 4 3 0 5 1 7 1zm-107 0c1 0 3-1 6-2 4-2 7-3 12-6 3-2 5-5 6-9 1-3 1-8-1-11-1-4-3-8-6-11-8-8-17-10-25-4-16 9-18 21-6 35 3 2 5 4 7 6 3 1 5 2 7 2zm207-4c9 0 16-5 19-15 4-10 2-19-5-26-5-4-9-6-14-6-4 0-8 2-13 8-10 5-12 14-9 24 4 10 11 15 22 15zm49-15c-2-1-2-4 0-9 3-5 9-8 15-6 4 1 5 2 4 4-2 1-3 2-4 4-1 1-2 3-4 4s-3 2-6 2c-1 1-2 1-3 1zm-2-36c-7 0-9-3-7-7 2-3 6-3 11 0 2 1 2 2 2 2 0 1 0 1-2 2l-3 3zm-187-4c-20 0-29-2-29-6 0-1 3-1 7-3h17c5 2 9 2 10 3 1 3 1 5 0 6zm161-18c-7-2-14-4-20-8-4-3-6-8-5-12 2-5 9-8 22-9 12-1 23 0 31 4 5 4 6 7 4 11-4 9-14 14-28 14zm-226-22c-10-13-14-20-14-26s3-15 12-25c8-10 17-18 25-23 6-4 10-6 14-7 3-2 7-2 11-3 4 0 8 0 12 1 3 1 8 3 14 5 7 3 11 4 14 5 4 0 6 0 7-1 6-6 2-11-10-18-42-22-80-48-115-82-13-13-20-19-23-19-2 0-4-4-8-11s-4-13 1-17c3-3 8-7 16-10 8-2 18-4 31-7 2 0 15 3 40 7 24 5 45 7 63 6 82-6 125-7 131-1 3 2-11 17-41 48l-13 12c-4 5-8 8-11 11-4 3-7 6-10 9-4 3-6 6-9 8-2 2-4 3-4 4-2 1-3 2-4 2-2 0-13-6-34-17-32-18-48-22-48-12 0 3 7 9 22 21 15 11 30 19 46 27 15 9 24 16 27 21 4 6 5 15 4 29-1 13-4 24-8 33-4 10-10 18-19 27-8 10-16 15-22 16-5 2-20 3-44 3h-38zm142 9c-1 0-1-3 0-8 3-13 8-20 17-25 10-3 18-1 25 8 4 3 4 8 0 12s-11 7-18 9c-5 0-8 1-11 1-5 1-7 2-9 3zm-76-3c6 0 10-2 15-9 7-10 6-20-2-28-9-9-18-10-28-4-6 4-9 9-8 17 0 8 4 13 10 19 5 4 9 5 13 5zm132-41c-15 0-24-3-26-8-1-6 0-10 2-15 13-9 27-10 43-2 9 5 11 12 5 20-3 1-7 3-10 4-4 1-9 1-14 1zm-243-28c-9 0-16-1-21-5-4-2-7-5-7-11 0-7 10-12 31-12 6 0 11 0 15 1 3 1 6 4 10 7 3 3 4 5 4 6 0 2-1 5-4 7-5 4-14 7-27 7zm258-16c-13 0-20-4-20-12 0-2 1-4 2-6 2-4 4-6 7-7 2-1 6-2 9-3h11c3 0 6 0 11 1 4 1 7 2 9 3 17 11 11 19-20 23-3 1-6 1-9 1zm-47-11c-3 0-4-1-5-4-1-5-1-7 0-8 1-2 4-2 6 0 3 1 5 3 5 7-1 3-3 5-6 5zm-246-10h-8-5c-4-1-6-2-6-1-1 0-2 0-4-2l-5-3-2-4c-3-3-2-7 3-12 6-5 15-6 26-5s17 2 21 5c8 10 5 17-13 20-2 1-5 2-7 2zm80-4c-1 0-4-1-9-2-16-3-25-7-25-16 0-3 2-6 6-9 4-2 10-2 16-1 7 3 12 5 18 9 6 6 9 11 5 13-2 4-5 5-10 5zm169-16c-4-1-8-2-9-4-2-1-3-3-4-4 0-1 0-4 1-6s2-4 4-5c6-5 15-6 24-4 5 0 7 0 9 3 1 1 3 3 3 6 0 9-7 14-20 14zm80-2h-11c-3-1-6-2-8-4-5-2-7-6-6-10s4-9 10-11c13-7 26-6 40 1 5 3 7 7 7 11-1 6-3 9-8 10-4 1-7 2-11 3h-13zm-369-17c-4 0-9-1-13-3-6-1-9-4-10-10 0-6 2-9 4-12 3-1 10-2 24-2 12 0 20 2 24 5 2 2 3 4 3 7 0 9-10 15-32 15zm79-10c-2 0-4 0-7-1-5-2-8-3-12-4-13-4-15-11-8-17 3-4 9-4 16 1 11 6 17 13 18 18 0 2-2 3-7 3zm250-10c-8 0-12-1-16-2-3-2-4-3-3-6 1-2 4-5 11-11 11-9 22-10 32-3 5 3 7 6 5 11 0 6-10 11-29 11zm79-2c-5 0-10 0-14-2-1-1-3-2-3-2-13-3-15-9-6-16 11-10 25-12 41-6 3 2 5 4 7 6 3 2 4 4 5 6 0 3-1 4-2 6-6 5-15 8-28 8zm-434-25c-1-1-4-1-7-2l-8-3-6-5c-3-1-4-3-4-5-1-2-1-3 0-6 0-2 1-4 4-6 2-1 6-2 13-4 7-1 13-1 20 0 6 0 11 2 14 4 7 3 9 6 7 12-1 4-6 8-12 11-6 2-11 3-18 3 0 0-1 1-3 1zm392-9c-5 0-10-1-12-3-2-3-1-8 4-15 11-10 21-12 33-8 4 3 6 7 6 11s-2 7-6 9zm94-1c-1 0-2 0-3-1h-9c-8-1-12-4-16-7-3-4-4-8-2-11 1-4 6-7 13-9 7-1 11-2 15-2 2 0 7 1 15 2 13 4 18 10 12 15l-3 5-5 3c-2 1-3 2-4 2-2 1-3 1-5 2-3 0-5 1-6 1h-2zm-426-1c-10 0-12-3-10-12l4-2c5-4 8-3 11 2 3 9 1 12-5 12z"/>
<path d="m569 42 20 3c13 1 20 0 20-3 0-2-7-10-20-22l-8-6-4-5c-2-3-4-6-5-5 0 0-1-1-2-3l-1-3v-10c0-10 1-16 2-19 2-3 14-6 34-9 6-1 13-2 18-3 6-1 10-2 13-2 4-1 7-1 7-1 4-1 7-3 5-5 0-3-8-4-26-4-15 0-28-1-37-2-6 0-10-1-13-3-2-1-4-2-5-4-2-1-3-4-5-8-3-7-6-13-12-17-7-7-12-6-12 5l4 10c2 1 2 3 2 7s-7 3-21-4l-26-7c-7-1-11 1-10 6 0 3 6 7 16 10 19 8 21 12 9 16-6 1-8 3-7 7 0 5 10 6 27 4l14-2-2 19c0 20-8 33-21 41-5 1-8 5-10 9-2 5-2 9-1 12 0 1 2 1 4 2 2 0 6 0 8-1 6 0 11 2 14 6 4 3 4 7 0 11-1 3-4 5-11 5-6 1-22 1-44 1h-52l-3-36 12 3c12 1 19 2 21 2 2-1 4-2 4-5 0-4-7-11-22-20l-19-14-2-20v-10c0-2 0-4 2-5 1-3 2-4 3-5s2-2 4-2c7-2 15-5 25-7 9-2 15-5 16-11 0-2 0-4-1-5s-4-2-11-2c-8 0-16 1-22 3s-10 2-13 1c-3-2-8-7-15-14l-14-13c-9-6-12-5-11 5 1 4 3 9 5 12v4c0 4-9 3-27-3-7-1-11-2-14-3-4-2-6-2-8-1l-2 1v6c0 2 0 3 1 4 1 2 2 3 4 4s5 1 8 1c8 2 11 5 12 8 1 2-1 5-6 10-3 1-4 5-3 10 2 3 5 4 6 4 2 0 7-1 15-4 11-5 18-8 19-8 2 0 3 8 3 23 0 11-1 19-2 21-1 4-4 8-11 15-17 15-21 24-13 27 3 2 6 2 11 0-2-1-1-2 2-2l4-1h6c3 0 4 1 5 2s3 6 3 13v15l166 1z" fill="#e5007f"/>
<path d="m0 933c0 55 35 84 85 84h765c55 0 84-34 84-84v-1135c0-55-34-85-84-85h-766c-55 0-84 34-84 84zm48-1136c0-20 6-36 36-36h767c20 0 35 7 35 37v1135c0 20-6 36-36 36h-765c-20 0-37-6-37-36v-1125z"/>
</g>
</svg>
