<?xml version="1.0" encoding="UTF-8"?>
<svg width="24" height="32" version="1.1" viewBox="4 0 64 100" xmlns="http://www.w3.org/2000/svg">
<g transform="matrix(.076687 0 0 -.076687 0 77.991)">
<path d="m48-203v1136c0 30 17 36 37 36h765c30 0 36-16 36-36v-1135c0-30-15-37-35-37h-767c-30 0-36 16-36 36z" fill="#fff"/>
<path d="m0 933c0 55 35 84 85 84h765c55 0 84-34 84-84v-1135c0-55-34-85-84-85h-766c-55 0-84 34-84 84zm48-1136c0-20 6-36 36-36h767c20 0 35 7 35 37v1135c0 20-6 36-36 36h-765c-20 0-37-6-37-36zm380 494-5-7-4-6c-2-2-4-4-5-7-48-70-179-172-268-172l-5 1h-3c-8 1-12 2-12 4 0 4 8 9 24 17 26 10 54 25 76 42 18 11 41 29 58 41 26 23 79 75 79 80 0 9-64 111-103 153-7 8-17 21-26 38-11 15-16 26-16 29 0 6 6 5 9 5 6 0 15-1 28-8 12-5 17-7 20-7 4 0 6 2 34 7 39 9 79 19 117 32 1 6 2 22-2 30-1 2-4 3-10 3s-31-6-53-6c-14 0-27 2-33 10-11 10-10 20-10 22 0 5 2 9 5 10h8c4 0 7 0 10-1 18-5 40-5 62-1 16 2 21 6 21 22 0 37-25 90-43 121-16 28-24 47-24 57 0 4 1 6 3 9 3 3 7 4 13 4 15 0 38-8 71-21 31-14 52-22 64-27 23-4 37-23 37-30l-2-1c-3-11-19-28-42-38-12-7-19-12-22-16-3-16-3-28-3-44 3-15 4-14 10-14h4c5 1 15 6 26 15 24 16 27 17 36 17 5 0 10 0 23-8 26-12 28-17 28-24l-1-3c-10-13-69-30-86-33-1 0-3 0-6-1-31-9-32-9-32-22v-9c0-11 5-9 6-9 11 0 27 4 38 8 16 5 36 9 59 14l34 7 12-8c20-12 34-25 51-54 17-25 14-27 14-28 0-4-3-7-7-10-20-16-41-43-62-82-17-32-26-51-27-58l-2-4c0-6-7-10-11-12-4-3-20-4-32-4-32-4-39 1-24-14 13-15 44-42 58-52 29-21 61-44 65-44l2-1c3-3 8-3 13-7 8-5 30-14 65-28 83-33 107-52 107-71v-4l-4-6-22 10c-21 10-40 15-58 15-17 0-34-5-50-15-21-13-38-15-45-15-6 0-12 1-16 3-11 5-38 38-80 100-40 62-65 101-75 115l-11 11 3-139c3-92 5-149 8-170 3-15 4-28 4-40 0-13-3-28-7-42-6-15-15-22-30-22-9 0-17 5-23 15-8 11-16 39-23 81-7 64-30 112-67 145-11 9-16 14-16 16 4 0 7 0 11-2 17-3 42-16 71-41 5-4 10-8 17-8 5 0 7 31 7 96 0 59-1 90-3 90zm67 163c15 1 26 4 36 9 7 4 12 6 19 6s16-2 31-7c12-4 13-4 18 1 3 5 4 14 4 25 0 12-1 18-4 20l-21 1h-7c-58-1-88-4-94-11-1-3-2-11-2-24v-22zm-68 35c-2 1-4 1-6 1-19 0-109-15-118-29 0 0-1-1-1-2 0-6 21-35 27-35 1 0 18 2 50 8 22 3 32 5 32 5l16 2c4 3 4 16 4 20 0 12-3 30-4 30zm86-75c-35-4-35-3-36-15-1-2-1-6-1-10 0-6 1-20 2-32h57l10 14 11 20c3 5 8 13 13 20 3 6 6 7-10 7-11 0-26-1-46-4zm-159-25c0-3 0-6 6-14 14-28 24-27 33-27 6 0 29 2 34 4 2 2 3 11 4 27v25l-20-2c-9-1-23-4-27-5-5-2-11-3-18-3-8 0-12-2-12-5z"/>
</g>
</svg>
