<?xml version="1.0" encoding="UTF-8"?>
<svg width="24" height="32" version="1.1" viewBox="4 0 64 100" xmlns="http://www.w3.org/2000/svg">
<g transform="matrix(.076687 0 0 -.076687 0 77.991)">
<path d="m48-203v1136c0 30 17 36 37 36h765c30 0 36-16 36-36v-1135c0-30-15-37-35-37h-767c-30 0-36 16-36 36z" fill="#fff"/>
<path d="m583 858c3 0 6-2 11-3 6-2 10-7 10-15 0-11-4-20-9-32-7-10-13-18-20-23l-12-6c-4-3-8-4-14-6-5-1-9-2-12-4-43-11-77-19-102-27-24-6-45-13-64-19-22-8-41-12-54-14-13 0-24 2-33 6-5 2-13 8-19 18-7 7-11 14-11 20 0 5 2 9 7 12 5 4 12 6 23 6s26 1 42 4 37 7 63 15c74 20 124 38 148 51 19 10 36 17 46 17zm47-158c7 0 11 0 16-1 6-2 11-3 16-5 4-1 11-3 21-5 13-6 25-11 35-16 12-5 20-12 27-17 7-6 12-11 17-18 3-5 5-12 5-18 0-7-1-13-3-17-5-6-8-11-13-14s-12-7-19-9c-8-1-16-2-26-2s-17 0-20 1-10 5-15 11c-21 16-51 25-93 25-30 0-72-9-124-25-5-1-12-3-19-6-7-1-16-4-23-6-9-2-16-5-21-7-27-5-43-10-53-14-3-2-9-4-14-5-7-2-12-4-19-5-5-1-13-3-21-4-7-2-15-5-24-6l-26-2h-17l-25 2c-13 4-24 8-33 13-8 6-13 14-13 21 0 15 5 22 15 26 9 3 31 6 65 6 36 0 58 1 66 2 15 4 34 9 56 16 22 8 45 16 69 25 24 8 47 16 67 25 22 9 40 14 53 19 12 3 24 6 34 7 11 2 24 3 37 3z"/>
<path d="m524 508c4 0 7-3 12-7 5-5 9-11 13-18s6-14 8-22c2-7 2-14 2-20-1-5-2-16-6-29-5-25-6-38-4-40s15-2 43-2c92 7 141 7 150-1 4-3 7-8 7-13 0-6-3-9-7-13-10-9-20-14-32-16s-39-3-82-5l-81-4-35-12c-43-15-72-27-87-33-17-5-33-11-51-16-18-4-30-8-39-8-8-1-19-1-36-1-38-1-60 0-70 2-9 4-19 8-27 16-5 4-9 7-10 11-3 3-3 8-3 15v9c2 3 2 4 3 6s4 3 6 4c5 2 26 0 63-8 42-9 78-11 108-9 8 1 14 2 17 5 4 1 5 4 6 7 8 14 2 24-12 30-9 2-13 4-15 9-2 3 5 14 21 35 4 5 7 13 11 19 6 5 10 12 14 16 4 5 6 10 7 12 8 12 16 19 24 19 9 1 15-2 19-10 7-13 6-35 0-66-6-29-5-42-1-42 1 0 4 4 7 10 9 30 17 49 19 61 4 10 4 19 2 25 0 6-5 12-13 22l-10 13 27 23c17 17 27 26 32 26zm38-228c12 0 20-1 24-4 0-10 1-11 5-5 2 7 2 2 1-13l-1-22-7-40c-4-38-7-70-7-95 0-23 1-36 4-39 2-4 13-7 31-9 40-2 74-12 106-30 29-16 47-34 49-54 5-21 0-39-14-52-10-10-29-20-53-31-25-11-46-17-63-21-45-7-79-5-100 7-24 14-43 25-55 37-10 9-17 13-18 13s-9-2-22-7c-20-7-37-11-48-13-9-2-17 2-21 5-6 9-10 5-10-9 0-20-3-31-11-33-3-1-7 0-13 1s-14 15-26 40c-7 20-12 31-14 33-4 2-13 2-30 0-10-1-19-1-27 3-7 3-19 12-35 27s-26 26-28 32v10c0 2 2 3 8 5h21c8-2 21-3 36-5 22-2 34-4 36-2 1 2 1 12-3 32s-7 39-7 60c0 14 1 22 1 25 1 4 5 6 8 7 7 3 12 5 17 3 6-2 9-6 11-13 3-5 6-23 13-49 3-18 7-34 9-47l8-20 17 3c13 2 23 3 32 8 6 2 10 4 11 5 0 3 3 10 3 21 0 12 0 18-3 19 0 2-2 2-6 1-6-1-9-1-11-1-4 0-7-5-9-11-3-11-9-16-16-13-7 2-12 10-17 24-3 9-4 18-6 32-3 11-4 24-5 36-1 13-2 26-3 37 0 12 0 22 1 32 1 9 2 15 3 20l4 6 3 4s3 1 5 2c3 0 5 1 7 1s7 1 12 1c17 1 36 5 57 13 20 8 39 14 57 19 19 4 36 7 51 10s28 4 38 4zm-58-54c-3 0-12-2-25-4l-19-6v-30l19 3c12 1 19 2 24 4 5 3 6 7 6 10 0 2 1 5 1 8 2 2 2 4 2 8 2 5 0 7-8 7zm-103-21c-7 0-13-2-19-6-6-5-10-9-11-13s1-8 6-13c3-3 7-3 14-2 5 2 11 4 13 7s3 9 2 15c0 9-2 12-5 12zm103-40c-3 0-12-1-25-5-12-3-20-6-22-7-1 0-2-4-4-7-1-3-1-6-1-10v-14l16 1c4 1 8 2 14 3 6 2 10 3 13 4 6 2 8 3 9 6 2 1 3 6 3 12 0 12-1 17-3 17zm-112-25c-1 0-4-1-9-2-6-2-11-2-12-5 0-1-1-5-1-13-1-6-1-10 1-11 2 0 2-2 2-3-1-2 1-3 6-2h5l5 3c1 0 2 1 3 2 2 1 4 2 5 6 0 3 3 5 4 8v7c0 3 0 5-1 6zm102-51-8-1-8-2-9-2-9-1-5-3-3-2c-2-2-3-11-3-23 0-13 1-19 3-20 1-1 11 0 26 4 14 3 22 5 24 7 2 1 5 9 5 22 0 15-3 21-5 21zm83-78c-1 2-1 0 0-9l3-12 3-13c3-15 4-25 4-29-1-7-3-12-9-18l-8-12 10 1c9 2 23 8 43 15 25 8 41 17 48 23 7 7 10 17 7 28-1 6-3 10-5 13-3 3-8 7-12 12-11 7-27 11-50 12l-34 1zm-81 8c-1 0-3-1-9-3l-8-3-19-7c-11-2-17-6-18-11 0-4 1-7 4-11 2-2 4-3 7-3-5-4-2-3 10 3l18 9 14 6c3 1 6 3 7 6 2 2 2 4 2 6 0 1 0 3-1 5zm-99-37c-2 0-11-2-26-9-16-7-23-19-17-33l5-10 11 10c3 3 7 6 10 9 3 2 5 3 6 3 5 0 7 3 11 7 3 4 6 8 6 14s-1 9-6 9zm97-34c0-2-3-5-8-6-6-2-7-4-4-5 4-2 4-4 2-6s0-4 6-8c5-1 8-3 10-4 1-1 6-1 14-2h16l-13 17c-2 4-5 6-8 7-1 1-3 3-5 3-2 2-3 4-6 4z" fill="#e5007f"/>
<path d="m0 933c0 55 35 84 85 84h765c55 0 84-34 84-84v-1135c0-55-34-85-84-85h-766c-55 0-84 34-84 84zm48-1136c0-20 6-36 36-36h767c20 0 35 7 35 37v1135c0 20-6 36-36 36h-765c-20 0-37-6-37-36v-1125z"/>
</g>
</svg>
