<?xml version="1.0" encoding="UTF-8"?>
<svg width="24" height="32" version="1.1" viewBox="4 0 64 100" xmlns="http://www.w3.org/2000/svg">
<g transform="matrix(0 .076687 .076687 0 21.626 0)">
<path d="m1220-234h-1136c-30 0-36 17-36 37v765c0 30 16 36 36 36h1135c30 0 37-15 37-35v-767c0-30-16-36-36-36z" fill="#fff"/>
<path d="m84-282c-55 0-84 35-84 85v765c0 55 34 84 84 84h1135c55 0 85-35 85-85v-765c0-55-34-84-84-84zm1136 48c20 0 36 6 36 36v767c0 20-7 35-37 35h-1135c-20 0-36-6-36-36v-765c0-20 6-37 36-37zm-1029 429c1 6 1 10 1 10l3 22c0 3 1 7 2 11 10 41 33 78 68 109 44 40 91 56 149 56 119 0 220-98 220-217 0-98-59-181-152-215-23-7-46-10-69-10-79 0-155 43-194 112-5 12-7 17-7 17l-8 18c-11 24-13 50-13 77zm491-10c0 16 3 34 6 53 24 97 116 165 215 165 120 0 223-96 223-217 0-19-4-40-9-60-24-99-112-165-212-165-80 0-153 43-194 111-17 36-29 73-29 113zm-450-3c0-61 38-136 96-159 34-14 63-21 84-21 96 0 180 83 180 179s-81 181-178 181c-10 0-18-1-28-2-88-16-154-86-154-178zm494 0c0-63 31-134 93-159 36-14 64-21 85-21 97 0 181 81 181 179 0 13-1 26-5 37-20 83-89 144-175 144-8 0-18-1-27-2-90-17-152-84-152-178zm-480-1c0 91 72 168 165 168 51 0 79-11 117-47 35-33 52-72 52-115 0-91-69-171-163-171-93 0-171 69-171 165zm491 0c0 91 71 168 164 168 52 0 79-12 119-47 45-43 51-88 51-117 0-55-24-117-75-143-33-18-63-28-88-28-20 0-39 5-59 12-70 24-112 84-112 155zm-421 91c1-14 8-24 24-31 9-4 14-6 17-6 0 2-3 5-8 12-9 8-12 15-12 23 0 5 2 10 8 15 10 10 25 16 43 19 14 0 37-1 37-21 0-4-1-9-3-14-1-4-1-6-1-8 0-4 1-7 13 9 6 12 8 28 4 36 0 5-8 10-14 12-6 4-15 6-24 6-27 0-84-18-84-52zm494 0c0-14 7-24 22-31 7-4 12-6 15-6 1 0 1 0 1 1 0 2-3 5-9 11-6 7-10 14-10 22 0 21 36 32 52 34 3 1 7 1 10 1 18 0 27-9 27-24 0-4 0-7-1-11-2-5-2-8-2-9 0-3 2-6 10 10 4 8 6 16 6 24 0 4 0 8-2 12 0 4-5 9-12 12-7 4-15 6-25 6-27 0-82-19-82-52zm-361-10c7 14 16 20 25 20 10 0 20-6 31-20 13-14 20-28 20-39 0-1 5-15-20-24-6-1-10-1-14-1h-5c-3 0-6-3 11-7 7-3 14-4 19-4 3 0 10-1 19 11 12 10 13 23 7 39-9 20-21 38-38 54-3 4-15 8-15 8l-5 1c-2 1-4 2-7 2-21 0-30-11-33-36v-17zm493 0c6 15 15 22 24 22 22 0 49-42 49-62 0-7-2-19-19-23-6-1-11-1-17-1-4 0-7-3 10-8 8-2 15-3 23-3 1 2 12 9 17 11 9 10 8 17 8 18 0 6-2 13-4 21-9 23-36 65-65 65-20 0-29-11-30-36l-2-17zm-179-81c0-24 6-60 37-60 7 0 16 3 24 10 10 7 14 14 14 17l-1 1s-1 0-2-1c-1 0-9-4-16-9-12-5-15-5-22-1-18 12-18 33-18 52 5 37 18 40 26 40 6 0 11-2 17-7l15-4c0 2-4 8-13 15-12 15-25 14-26 14-5 0-11-4-20-11-7-7-12-19-13-35-1-7-2-10-2-10zm-492 0c0-28 6-47 19-55 7-5 13-8 20-8 1 0 8-3 21 13l15 17-1 1c-1 0-2 0-3-1-1 0-6-3-15-9-12-5-14-5-21-1-12 8-17 21-17 41v11c2 38 22 39 24 39 10 0 25-10 29-10h1l1 1c0 10-28 27-37 27-8 0-15-4-21-10-8-7-13-19-15-35zm87 0c0-24 7-38 23-44 15-6 26-9 33-9 27 0 51 27 51 53 0 7-2 16-5 26-9 15-22 24-42 26h-2l-5 1c-20 0-33-6-42-25-8-10-11-18-11-28zm494 0c0-24 7-38 23-44 14-6 26-9 32-9 15 0 27 7 39 22 7 10 12 21 12 31 0 27-22 49-48 52-25 0-36-2-51-24-5-10-7-20-7-28zm-479 0c0 20 2 21 20 37 5 3 10 5 16 5 9 0 31-3 39-25 3-5 5-11 5-17 0-23-21-38-42-38-11 0-21 4-30 12-5 8-8 16-8 26zm491 0c0 22 15 42 38 42 8 0 29-3 39-25 3-5 4-11 4-17 0-5-1-9-3-14-12-25-34-24-40-24-11 0-20 4-27 12-8 8-11 16-11 26zm-420-77c0-17 5-30 17-37 4-3 9-5 15-5 13 0 36 11 66 65 2 5 4 10 4 16 0 5-2 10-4 16-4 9-19 20-28 20-8 0-30-6-30-9 0-2 1-3 2-3h1c1 1 3 2 6 2 7 0 26-5 29-14 2-3 3-7 3-11 0-9-4-25-24-47-11-10-19-15-27-15-10 0-18 6-25 20l-5 15zm492 0c0-17 4-30 16-37 6-3 11-5 16-5 14 0 37 11 65 65 4 5 4 11 4 16 0 4 0 11-4 16-4 9-19 20-27 20-20 0-30-3-30-9 0-2 2-3 3-3h1c2 1 4 2 6 2 15 0 30-10 30-26 0-21-28-61-51-61-8 0-17 6-23 20l-6 15zm-620-13c0-1 0-6 5-11 6-13 11-17 37-27 29-12 39-12 45-12 8 0 16 1 27 10 7 7 10 13 10 21 0 7-2 14-6 22-1 3-2 4-4 6-3 6-6 9-7 9 0 0-1 0-1-5v-7c2-6 3-11 3-15 0-8-2-13-7-16-4-4-11-6-19-6-1 0-9-1-30 6-11 3-19 8-25 15-11 12-11 21 1 36l9 14h-1c-1 0-7-2-15-5-9-5-14-12-17-20-5-11-5-11-5-15zm496-11c14-23 59-39 85-39 6 0 13 1 26 10 5 5 8 13 8 20 0 8-2 15-6 23-1 3-7 15-9 15-1 0-3-1-3-2 0-2 2-5 4-10 1-5 2-9 2-13 0-17-10-25-27-25-9 0-37 4-55 21-13 13-13 22 1 37 7 6 8 14 8 13l-1 1c-1 0-6-2-13-5-10-5-16-12-20-20-1-8-2-12-2-15z"/>
</g>
</svg>
