<?xml version="1.0" encoding="UTF-8"?>
<svg width="24" height="32" version="1.1" viewBox="4 0 64 100" xmlns="http://www.w3.org/2000/svg">
<g transform="matrix(.076687 0 0 -.076687 0 77.991)">
<path d="m48-203v1136c0 30 17 36 37 36h765c30 0 36-16 36-36v-1135c0-30-15-37-35-37h-767c-30 0-36 16-36 36z" fill="#fff"/>
<path d="m0 933c0 55 35 84 85 84h765c55 0 84-34 84-84v-1135c0-55-34-85-84-85h-766c-55 0-84 34-84 84zm48-1136c0-20 6-36 36-36h767c20 0 35 7 35 37v1135c0 20-6 36-36 36h-765c-20 0-37-6-37-36zm419 1102c80 0 92-6 92-40 0-13-10-27-29-42-5-4-6-12-6-56v-54l13-13c15-19 15-49 0-66l-13-14v-53c0-28 1-46 3-51 2-7 9-14 21-23 14-15 14-35-3-50-6-6-14-10-27-11-23 0-52-2-73-2h-22c-5 2-10 3-14 3l-3-1c-5 0-14 5-14 5l-8 7c-5 7-9 14-9 24 0 1-2 12 10 25 13 9 21 16 22 23 1 5 2 23 2 51v53l-11 14c-18 17-18 47 0 66l11 13v80c0 22-3 28-6 30-18 16-26 29-26 42 0 37 10 40 90 40zm-13-111v-35c0-37 1-35 11-35h13v131h-22zm3-153 11 3c9 0 10 0 10 23s-1 26-10 26l-11 2zm-3-91v-34c0-38 1-37 9-37h1l3 1h1l10 1v130h-22zm13-238c56 0 75-1 85-13 9-11 15-37-22-66-4-4-6-24-6-59v-54l13-12c10-13 11-17 11-35 0-15-3-18-11-32l-13-14v-53c0-28 1-47 3-52 2-7 9-13 21-22 8-9 11-18 11-24 0-20-23-37-41-37-23 0-49-2-64-2-21 0-57-1-70 14-6 6-9 14-9 24 0 1-3 15 10 25 12 10 21 15 22 22 1 5 2 24 2 52v53l-11 14c-11 14-14 18-14 32 1 12 6 23 14 35l11 12v54c0 35-2 55-6 59-18 15-26 28-26 40 0 17 3 29 15 34 10 4 35 5 75 5zm-13-109v-35c0-39 1-36 9-36 1 0 3 1 5 1l10 1v129h-22zm3-155 11 3c9 1 10 4 10 27s-1 23-10 23l-11 2zm-3-91v-26c0-23 1-35 2-39 0-5 7-5 12-5l10 1v131h-22z"/>
</g>
</svg>
