<?xml version="1.0" encoding="UTF-8"?>
<svg width="24" height="32" version="1.1" viewBox="4 0 64 100" xmlns="http://www.w3.org/2000/svg">
<g transform="matrix(.076687 0 0 -.076687 0 77.991)">
<path d="m48-203v1136c0 30 17 36 37 36h765c30 0 36-16 36-36v-1135c0-30-15-37-35-37h-767c-30 0-36 16-36 36z" fill="#fff"/>
<path d="m0 933c0 55 35 84 85 84h765c55 0 84-34 84-84v-1135c0-55-34-85-84-85h-766c-55 0-84 34-84 84zm48-1136c0-20 6-36 36-36h767c20 0 35 7 35 37v1135c0 20-6 36-36 36h-765c-20 0-37-6-37-36zm433 982c17 0 30-15 44-48 20-32 34-87 34-90s0-4-1-5c-3-8-14-12-33-12-22 0-28-4-36-27 0-1-1-3-2-4-6-15-9-27-9-33s2-9 5-9 5 1 7 2c8 7 40 35 40 39l4 8c2 2 5 3 8 3 11 0 37-17 45-38 0-9-1-16-6-24-9-14-36-26-64-35-24-6-38-10-42-14-4-3-7-7-9-13-4-9-6-20-8-34 0-9-2-22-2-26v-2c0-2 1-3 4-3 17 0 44 20 94 65 30 29 37 23 38 23 7 0 16-4 28-14 4-4 6-9 6-15 0-7-2-15-6-25-6-10-9-16-9-20 0-1-3-5 10-5 14 0 32-10 54-31 35-40 68-96 68-128 0-14-12-45-35-92-16-30-30-62-36-71-13-32-66-138-107-138-7 0-15 3-25 10-1 0-17 13-17 13l-6 8c-8 11-46 43-59 47-3 1-5 2-7 4-1 2-1 3-1 4 0 4 2 6 7 6s16-2 33-7c16-5 28-7 38-7 13 0 10-2 25 20 7 14 22 42 42 83s33 70 41 89c8 20 12 33 12 38 0 23-39 95-63 95-2 0-6 0-15-8l-48-68c1 0 11-2 27-5h2c3 0 16-4 16-4l9-1c3-1 4-1 4-2 4-3 6-6 6-10s-1-9-5-13c-6-8-10-9-43-11-49-5-60-6-61-19-1-3-2-6-2-8 0-4 3-5 7-5 5 0 12 1 20 3 18 3 29 4 35 4 10 0 41-4 41-18 0-4-1-7-4-10-4-5-17-9-39-11-22-3-37-5-45-8l-14-4-2-51c-1-34-2-52-5-54s-5-2-8-2c-4 0-8 1-14 4l-16 7v39c0 38 0 40-5 41-6 0-14-2-24-7-11-5-20-8-28-8-6 0-12 2-17 7-5 4-8 8-8 11 0 5 4 8 13 10 14 2 62 22 68 26 2 2 4 12 4 16s-2 14-4 14-13-5-31-12c-15-7-24-10-32-10-7 0-13 3-21 10-3 3-5 6-5 8s-3 4 29 16c23 10 24 10 24 18-1 6-5 16-14 28l-5 6c-5 7-10 11-15 11-1 0-4 0-5-1-12-1-71-26-71-36l12-26c3-8 6-17 10-24 15-30 53-112 53-145 0-2 5-16-19-29-10-8-17-8-22-8-4 0-11-1-16 7-4 1-19 30-31 58-31 72-63 137-94 196-10 18-14 29-14 34 0 11 10 16 29 16 13 0 32-10 56-31 13-16 17-14 20-14 11 0 71 23 71 34 0 7-36 30-61 47-26 11-39 24-42 36v1c0 6 6 9 20 9 4 0 13-1 29-3 15-1 41-22 78-63 10-12 16-16 22-16 5 0 10 3 16 6 6 4 9 7 10 10 2 6 6 39 12 98l2 27-12-1c-32-5-57-9-72-9-14 0-21 2-22 7 0 7 13 10 52 22 5 1 7 1 7 1l19 4c5 0 11 5 13 5l15 4v41c0 62-5 109-12 139 0 24 43 87 68 87zm22-430c-16 0-106-27-106-42 0-1 0-4 5-8 1-3 8-13 12-23 8-12 14-19 17-19s13 2 26 8c25 6 22 9 36 34 5 10 13 34 13 37 4 12 5 13-3 13z"/>
</g>
</svg>
