<?xml version="1.0" encoding="UTF-8"?>
<svg width="24" height="32" version="1.1" viewBox="4 0 64 100" xmlns="http://www.w3.org/2000/svg">
<g transform="matrix(.076687 0 0 -.076687 0 77.991)">
<path d="m48-203v1136c0 30 17 36 37 36h765c30 0 36-16 36-36v-1135c0-30-15-37-35-37h-767c-30 0-36 16-36 36z" fill="#fff"/>
<path d="m584 870c5 0 9-3 12-7 7-3 7-13 1-27-3-11-6-20-10-25-3-5-6-9-12-13-4-3-18-6-44-14-25-8-47-13-66-18-6-1-18-3-35-9-16-5-33-9-50-15-42-14-65-21-70-21-6 0-14 4-22 8-10 5-16 9-21 17-7 6-9 12-10 18s0 10 4 14c1 1 7 2 14 2 7 2 17 3 26 4 28 2 67 10 117 25 51 16 91 30 123 45 19 9 33 16 43 16zm-12-102c12 0 17-6 15-19-1-7-2-14-5-21s-7-13-10-19c-5-5-8-9-10-13-12-8-44-19-99-33-62-15-102-27-116-36 0-1-4-3-10-4-5-1-12-4-17-5-7-1-13-2-19-4-7-2-9-3-9-2l-3 2c-2 0-6 1-9 2-5 1-11 2-18 8-5 5-8 11-11 17-3 7-4 13-4 18 0 3 0 5 1 8 0 2 2 3 6 4 3 1 6 2 13 3 4 3 11 3 21 3 22 2 42 6 63 14 20 7 34 13 46 16-1-1 1-1 7 1l9 4 9 3c3 1 6 1 9 2 5 2 9 3 12 6 4 1 7 1 13 3 5 1 9 4 14 5 5 3 10 4 13 5 4 1 7 1 10 2h6c3 0 13 5 28 13 21 12 36 17 45 17zm-5-122c9 0 20 0 31-1 12-1 21-4 29-5 13-4 28-9 44-14 45-11 72-24 81-38 10-15 10-31 0-51s-22-28-39-28c-2 0-5 1-12 3-4 2-10 4-16 8-7 2-13 7-20 11-8 5-14 8-22 13-28 18-55 33-80 39-31 8-93-7-188-46-34-13-62-22-86-27-14-3-32-6-53-6-22 0-37 1-45 5-5 2-9 4-13 6-2 4-3 7-3 12 0 14 13 22 37 30 47 11 83 19 108 22 25 7 37 10 35 8-3-3 12 1 45 12l47 13 46 15c14 5 27 10 36 14 7 4 20 5 38 5z"/>
<path d="m520 508c7 0 12-4 19-14 8-10 12-20 14-31 4-12 2-29-3-50-6-21-8-34-8-38 2-3 17-4 45-3 92 6 143 6 152-1 4-3 6-9 6-14s-2-9-6-13c-10-8-20-14-32-15-12-2-40-5-82-6l-83-2-34-12c-41-17-71-29-86-34-17-6-33-11-51-17-19-4-31-7-39-8h-37c-36-1-59-1-70 3-9 2-17 6-26 14l-7 6c-2 0-3 2-4 6l-1 5v9c0 7 0 11 1 13 1 3 3 5 6 7 6 2 28 0 64-8 42-9 78-12 108-9 14 3 22 6 24 13 5 13 1 23-13 28-9 2-14 6-16 10-1 3 7 14 21 34 7 10 12 18 20 28 6 9 10 16 13 21 7 12 15 17 24 18 9 0 14-3 19-10 2-2 3-4 3-7 1-4 1-6 1-9 1-4 1-7 1-10 0-5 0-9-1-12 0-4 0-8-1-14 0-4-1-8-3-14 0-1 0-2-1-3-5-26-6-39-2-39 1 0 2 1 5 4 2 2 2 3 3 5 15 41 23 66 24 76s-3 21-15 32l-10 13 25 24c19 17 29 24 33 24zm39-225c12 0 19-3 24-6l1-2 2-2c0 2 1 2 1-2l1-4v-7c0-1 0-4-1-6v-10c0-2-1-8-1-13s-2-10-3-16c-1-4-1-10-1-18-6-38-8-69-8-94v-27c0-5 1-9 4-12 4-5 6-6 10-7 4 0 10-1 21-2 40-3 74-13 105-31 30-16 48-33 50-52 4-22 0-41-14-54-10-9-29-20-53-30-25-11-46-17-64-21-45-7-78-4-100 7-16 8-26 15-33 19s-14 10-21 17c-10 10-17 16-18 16s-10-4-22-9c-38-14-61-17-69-8l-4 5c-4 1-5-4-5-15 0-7-1-14-3-21-2-6-6-9-9-11-3-1-8-1-13 2-7 1-14 13-25 39-9 20-15 31-17 33s-12 3-28 0c-9-1-19-1-28 2-4 2-13 9-22 17-8 8-18 16-26 24-9 9-13 15-14 20v8c0 4 3 5 8 5 6 1 13 1 20 0 10 0 21-1 37-4 21-3 35-3 36-2s1 12-2 32c-2-1-1 2-3 11l-3 12-1 13-1 11v11c0 10 1 19 1 22s1 6 3 8c1 1 2 1 5 3 2 1 4 3 6 3 2 1 4 1 6 1s5 0 5-1c2 0 5-1 6-3 0-1 2-2 3-4s3-6 4-10c0-5 3-11 4-18 1-5 4-15 6-26 2-8 4-17 6-26s4-16 4-21l6-19 18 2c13 1 24 2 33 6 6 3 10 5 11 8 1 2 1 9 1 20 0 10 0 16-1 18 0 2-2 3-6 2-5-1-9-2-11-2-5 0-7-3-10-10-4-12-8-15-16-14-6 2-12 10-16 24-7 24-11 54-13 88-2 35-1 58 3 70 3 5 6 10 10 11 2 0 9 1 21 2 3 0 6 1 10 1 4 1 7 1 12 2 3 1 7 4 11 5s9 2 13 3c3 1 6 1 10 2 30 11 58 20 83 25 26 6 47 8 64 8zm-57-56c-6 0-15 0-28-4l-17-5v-30l17 1c13 2 21 4 26 7 3 1 4 3 5 4 1 2 2 3 2 5 0 5 0 9 2 15 1 5-1 7-7 7zm-105-22c-4 0-8-1-12-1-3-1-6-3-8-5-5-5-6-7-8-9-1-2-2-5-1-8 0-2 2-4 5-7 1-1 6-2 9-2 4-2 7 0 10 1s6 4 9 6c2 3 3 8 2 14 0 8-2 11-6 11zm89-40-21-5c-7-2-10-3-12-5-3-2-4-8-4-17v-15l16 2c9 3 18 4 26 6 4 2 7 5 11 6 1 3 2 6 2 14l-1 12-1 4zm-97-23c-3 0-6-1-9-2-7-2-11-3-12-4 0-3-1-6-1-14 0-5 0-10 1-11 0-1 1-2 2-3s2-2 4-2c7 0 11 2 15 4 3 3 5 9 8 14 1 6 0 10-2 14-2 3-3 4-5 4zm109-51c-26-2-43-5-49-11-1-1-2-3-2-9-1-5-1-9-1-15 0-12 1-17 3-18 2-2 11 0 25 2l24 6c4 3 6 11 5 25 0 14-3 20-5 20zm76-78c0-8 1-18 4-34 5-15 6-25 6-29-1-7-3-12-9-19l-9-11 10 1c-1 0 0 0 6 1 5 1 7 4 6 4 0 0 3 0 7 2l8 2 8 3c4 1 6 3 9 3 18 6 30 13 37 16 7 4 14 9 16 14 2 6 2 12 1 21 0 4-1 7-2 9-1 3-4 5-7 8-2 1-5 4-8 7-6 5-13 8-18 9s-16 3-31 4l-34 2zm-81 8c-1 0-3-1-9-3-8-4-16-7-27-10-5-2-8-2-10-3-4-1-5-3-6-4-1-2-2-3-2-5-2-3 0-7 2-11 4-2 6-3 9-2 3 0 13 3 28 11 8 4 14 7 17 10 3 2 5 3 7 6 1 2 0 4-4 8 0 1-1 2-2 2-1 1-2 1-3 1zm-99-37c-2 0-11-2-26-9-17-8-22-19-18-33 2-6 5-11 6-11 0 0 4 5 11 11 2 2 4 6 6 7 1 1 5 2 6 3 2 1 3 2 4 2 5 0 8 2 11 6s6 9 6 15c0 3-3 7-6 9zm97-34c-10-5-15-9-13-14 3-6 8-10 18-15 0-1 6-2 13-3h18c0 1-3 8-13 18-8 8-14 14-19 14z" fill="#e5007f"/>
<path d="m0 933c0 55 35 84 85 84h765c55 0 84-34 84-84v-1135c0-55-34-85-84-85h-766c-55 0-84 34-84 84zm48-1136c0-20 6-36 36-36h767c20 0 35 7 35 37v1135c0 20-6 36-36 36h-765c-20 0-37-6-37-36v-1125z"/>
</g>
</svg>
