<?xml version="1.0" encoding="UTF-8"?>
<svg width="24" height="32" version="1.1" viewBox="4 0 64 100" xmlns="http://www.w3.org/2000/svg">
<g transform="matrix(.076687 0 0 -.076687 0 77.991)">
<path d="m48-203v1136c0 30 17 36 37 36h765c30 0 36-16 36-36v-1135c0-30-15-37-35-37h-767c-30 0-36 16-36 36z" fill="#fff"/>
<path d="m271 807c39 0 73-12 102-37 30-26 47-58 54-97 5-32-1-64-18-95-16-30-41-53-70-68-18-7-38-12-62-13-23-1-40 0-49 4-26 8-48 22-66 39-31 31-47 67-47 108-1 41 14 77 43 111 24 25 54 40 90 47h11l6 1zm-1-31c-22 0-38-2-50-9-29-14-50-34-62-59-5-11-8-20-10-26-1-5-2-15-2-30 0-17 1-28 2-33 2-6 4-14 9-23 9-18 21-33 36-46 16-12 32-20 51-23 20-3 38-3 57 1 26 7 45 19 62 38 18 17 29 38 33 64 5 27 1 55-13 80-15 26-36 45-62 57-12 7-29 9-51 9zm1-9c20 0 38-3 52-11 34-17 55-46 63-83 8-38-1-71-28-100-22-24-48-37-81-39-17 0-31 2-42 6-47 16-74 48-79 95-3 18-1 35 4 52 4 17 13 32 25 45 13 13 27 23 43 29 7 1 10 2 10 3s4 2 11 2l10 1zm-2-16c-19 0-32-5-38-13-7-9-6-19 4-31 6-7 9-9 10-8 2 0 2 2-1 8-8 13-7 22 3 27 5 2 13 4 27 4 12 0 21-3 25-6 2-4 4-8 4-11 1-4-1-9-4-14l-3-9s2 0 5 2c5 2 9 7 13 16 4 7 4 15-2 20-6 9-21 14-41 15zm66-32c-10 0-17-6-23-16l-3-6c-2-7-1-8 6-1 12 8 20 10 28 3 4-6 9-13 12-23s3-18 1-24-7-8-16-8c-8-1-11-3-8-8 7-3 12-4 19-4 5 1 11 3 15 7s6 11 5 23-5 23-10 35c-6 11-12 17-18 20-1 0-2 1-4 1-1 0-3 1-4 1zm-125 0c-10 0-19-8-27-23-6-11-10-22-10-32-1-9 0-17 5-23 3-6 9-9 16-9 8 0 15 2 19 5l8 7-12-2c-11-1-19 2-21 7-4 7-3 17 2 31 1 5 3 8 5 11 1 5 4 7 7 8 2 2 4 3 8 3 2 1 5 0 7-1 4-1 7-2 10-4 6-6 8-8 8-6s-1 6-3 10c-2 2-5 5-6 8-1 2-3 4-4 4-2 1-4 3-6 4s-4 2-6 2zm59-31c-6 0-13-2-19-7-5-3-9-8-13-14-2-5-4-12-3-19 0-6 3-13 8-20 8-8 18-14 29-14 11-1 21 3 29 13 1 0 1 1 3 5l3 5 1 7c1 2 1 4 1 5 0 19-9 31-27 38-3 1-7 1-12 1zm2-9c6 0 13-3 20-10 7-5 10-12 10-17 0-7-3-14-10-20-6-7-12-10-19-10-2 0-4 1-6 1-2 1-6 1-7 2-13 8-18 18-15 32s12 22 27 22zm-58-51c-6 0-11-2-18-6-6-5-10-9-10-13s2-7 4-11 4-8 9-13c3-3 6-7 11-9 21-18 38-23 50-14 2 2 5 5 6 8 1 2 2 7 2 12 0 11-1 17-3 18-1 0-3-4-4-8 0-7-2-11-5-15-3-5-8-7-13-7s-11 3-20 10c-9 5-15 12-18 18-2 4-3 7-3 9s1 5 4 8c-1 0 1 2 6 6l6 4 4 2zm118-6c8-5 11-10 11-16 0-5-6-12-14-18-11-12-21-17-29-17-8 1-13 7-15 18-3 6-5 9-7 4-3-10-3-19 3-27 4-4 7-6 10-7s8-2 12-1c5 1 10 3 17 6 1 2 2 3 4 4l8 4c2 2 4 4 7 6 2 2 4 4 5 4 11 11 15 21 12 31s-11 15-24 15h-11zm327-367c38 0 72-14 102-39 28-25 47-57 53-96 5-33 0-64-17-95-16-31-40-53-70-68-17-8-38-12-62-13-24 0-41 1-50 4-26 9-48 22-65 40-31 30-46 66-47 107-1 42 13 78 44 110 7 9 15 16 25 22 9 6 20 11 30 16 11 5 22 7 33 8 9 3 17 4 24 4zm-1-32c-21 0-38-4-52-9-14-8-26-17-36-25-11-10-19-23-24-36l-8-16c-1-6-2-10-2-16-1-4-1-13-1-24 0-15 0-25 1-31 1-5 3-13 8-22 14-27 35-47 61-61 28-12 55-15 85-7 24 5 45 17 61 36 16 18 27 40 32 65 5 27 1 53-12 80-15 25-34 44-61 57-13 5-31 9-52 9zm0-8c21 0 39-3 53-11 35-18 56-46 63-85 8-37-2-70-28-99-22-24-49-37-80-39-18-1-32 1-44 5-46 17-72 49-78 94-5 28 1 53 14 78 14 24 34 40 59 49 12 6 25 8 41 8zm-1-17c-19 0-32-4-38-13-8-9-6-19 4-32 6-5 9-9 11-9 1 2 0 4-3 8-7 14-7 24 3 29 6 2 15 3 28 2 13 0 21-2 24-4 4-4 5-7 5-10 0-5-1-9-4-16-2-4-4-7-4-9 0-1 2 0 6 3 2 0 5 2 7 5s4 7 5 11c4 7 4 13-2 20-5 9-19 13-40 13l-2 2zm-59-32c-10-1-19-9-28-25s-12-32-10-44 10-18 22-18c7 0 13 3 18 6l8 7-13-3c-21-2-27 11-17 38 1 5 4 11 6 14 3 3 6 6 9 8 4 1 8 1 11 0 4-1 7-2 10-6 6-6 9-7 9-4l-4 9c-6 11-13 17-21 18zm124-2c-9 0-16-4-21-13-1-3-2-5-3-8-3-7-1-7 4-2 6 5 9 8 12 9 4 1 6 2 9 1s6-3 8-7c6-4 9-12 12-22 2-10 2-17 0-23-1-5-6-7-16-7-8-2-10-4-6-8 13-8 24-7 33 3 2 2 3 6 5 8 1 3 1 6 0 13-2 8-3 17-6 24-3 8-7 16-11 21-4 6-8 9-11 10zm-65-28c-14 0-25-7-32-21-6-14-5-27 5-39 7-9 17-14 29-14 11-1 21 3 28 13 2 1 4 3 4 5 1 3 3 5 4 8v9c0 19-8 31-25 35-2 1-4 3-6 3-2 1-6 1-7 1zm1-9c7 0 15-4 21-10 7-7 10-13 10-20 0-4-3-11-10-18-6-7-13-11-17-11-3 0-5 0-8 1-3 2-6 3-8 4-12 7-16 17-14 32 3 14 12 22 26 22zm-56-51c-7 0-13-2-20-8-6-5-10-10-10-14 0-3 2-9 8-15 4-7 10-13 18-18 4-4 10-8 14-10s9-4 13-5c5-2 9-2 12 0 4 0 7 1 10 3 6 4 8 11 8 21l-3 17c-1-1-4-4-5-7 0-7-1-12-4-16s-8-6-13-6c-1 0-4 0-6 1-3 0-5 1-7 3-2 1-4 3-7 6-2 1-5 3-8 4-2 2-4 4-5 7-3 2-4 4-5 5-1 5-2 8-2 10 0 1 1 4 2 8 1 2 3 4 6 6 3 3 5 4 6 4 4 1 6 2 6 2zm116-8c15-7 14-19-1-35-9-7-16-12-22-13-6-2-11-2-16 0-3 3-6 8-9 14-2 9-4 10-5 6-3-10-2-18 4-27 8-10 20-11 37-3 4 2 8 5 13 10 5 3 10 8 12 10 11 11 14 21 11 31s-11 15-24 15h-11z"/>
<path d="m468 533c25 0 49-6 71-18 21-11 40-27 55-48 16-20 26-44 29-69 6-33 0-64-16-95-18-31-41-53-72-67-17-8-38-12-61-13h-30c-8 1-15 2-18 3-28 9-51 22-68 40-30 31-46 67-47 108 0 41 14 77 44 109 23 26 53 42 91 47 6 1 14 3 22 3zm0-31c-6 0-11 0-16-1h-10c-3 0-6-2-10-3-2-1-5-2-7-2-3-1-6-2-9-3-29-15-49-34-61-60-9-15-12-35-12-58 0-16 0-26 1-31 1-6 5-13 9-22 10-19 22-34 37-46 16-13 32-20 51-24 19-3 38-3 58 2 24 6 45 18 61 36 17 19 28 40 33 65 5 28 0 54-14 79-14 26-34 46-61 59-5 2-10 3-14 5-4 1-10 3-14 3-6 1-12 1-22 1zm8-9c3 0 5 0 9-1l12-2 11-4c4-1 7-2 11-4s7-5 10-7c5-2 8-5 11-9 4-3 7-5 10-8 8-7 12-11 16-16 3-4 5-9 7-13 3-5 4-10 6-18 9-25 8-52-2-79-4-11-11-23-23-35-12-14-25-22-37-27-5-3-12-5-20-8-7-1-14-2-22-2-6-1-14-1-22 0-7 0-14 1-18 3-19 7-35 16-49 29-21 21-32 46-34 78-1 36 10 65 32 88 22 20 47 33 78 35h10 4zm-8-17c-20 0-35-4-41-13-8-9-6-20 4-32 7-5 11-9 15-9 0 0 0 2-4 7-2 3-3 8-4 12-1 3-1 8 0 10 1 3 2 5 5 8 6 2 15 3 27 3s20-1 24-4c8-7 9-15 1-27-3-3-3-7-3-7 0-3 4-1 13 7 10 11 12 20 7 29s-16 14-33 16zm-64-32c-3-1-6-2-11-5-4-2-8-7-11-13-4-8-7-15-9-22-3-8-5-15-5-21 0-14 6-22 18-26l6-3 12 5c9 4 12 6 12 8s-3 3-12 2c-10-2-17 0-20 6s-2 16 2 31c3 11 9 17 17 21 6 3 13 1 19-6 5-5 8-8 9-6 1 1 0 5-3 12s-9 12-15 15l-5 2zm126 0c-3 0-5-1-8-2s-5-2-7-5-3-6-5-8c-4-7-5-11-4-12 1-4 4-2 8 4 3 6 10 8 16 7 7-1 13-6 16-13 8-16 11-27 8-36s-9-13-22-12c-2 1-4 2-5 2-10-1-9-4 5-11 13-5 23-3 30 7 8 8 8 22 2 42-8 22-17 34-27 37zm-62-31c-10 0-19-3-27-11-8-6-11-15-11-25 0-15 7-26 20-33 14-7 28-7 40 2 10 6 15 17 15 31 0 7-2 13-5 20-5 5-10 10-18 13-4 2-9 3-14 3zm0-8c6-1 12-4 18-8 5-3 7-8 8-12 2-6 2-11 1-16s-3-10-5-12c-5-4-10-6-18-8-7-1-12-1-16 2-4 2-6 4-8 5s-4 3-5 6c-1 2-2 4-2 6s-1 5-1 7c0 11 6 20 16 26 5 3 9 4 12 4zm-58-51c-7 0-14-2-20-7-5-5-7-10-7-16 0-4 1-7 3-11 3-5 7-9 11-14 4-4 9-7 14-11 6-4 11-6 17-9 5-3 10-4 14-4 7 0 12 2 17 7 4 4 6 11 6 19-1 11-3 17-6 18-1 0-1-2-1-7s-1-8-2-11c-3-5-5-7-7-9s-6-4-9-4-11 4-20 10c-10 6-15 11-17 15-7 12-4 21 7 27l10 7zm117-7c15-9 13-21-2-35-8-7-14-11-20-14s-12-3-15 0c-5 1-7 5-8 12l-2 5c-1 10-2 12-6 7-5-12-3-23 5-32 7-9 20-9 35-2 8 4 16 11 25 18 9 8 12 17 12 25 0 7-2 13-6 16-5 5-11 7-19 7h-9z" fill="#e5007f"/>
<path d="m0 933c0 55 35 84 85 84h765c55 0 84-34 84-84v-1135c0-55-34-85-84-85h-766c-55 0-84 34-84 84zm48-1136c0-20 6-36 36-36h767c20 0 35 7 35 37v1135c0 20-6 36-36 36h-765c-20 0-37-6-37-36v-1125z"/>
</g>
</svg>
