<?xml version="1.0" encoding="UTF-8"?>
<svg width="24" height="32" version="1.1" viewBox="4 0 64 100" xmlns="http://www.w3.org/2000/svg">
<g transform="matrix(.076687 0 0 -.076687 0 77.991)">
<path d="m48-203v1136c0 30 17 36 37 36h765c30 0 36-16 36-36v-1135c0-30-15-37-35-37h-767c-30 0-36 16-36 36z" fill="#fff"/>
<path d="m0 933c0 55 35 84 85 84h765c55 0 84-34 84-84v-1135c0-55-34-85-84-85h-766c-55 0-84 34-84 84zm48-1136c0-20 6-36 36-36h767c20 0 35 7 35 37v1135c0 20-6 36-36 36h-765c-20 0-37-6-37-36zm418 1099c38 0 63-3 73-8 10-4 16-15 16-32 0-19-2-22-28-41-5-5-5-10-5-57v-54l14-15c8-8 10-19 10-32 0-18-2-21-10-33l-14-13v-53c0-29 1-47 2-52 1-7 9-13 21-22 17-15 17-35 0-52l-5-5c-2-1-4-1-4-2h1c0-1-14-2-14-2h-7c-13 0-26 0-43-1-8-1-17-1-24-1-18 0-52 0-66 14-13 14-14 37 0 49 15 13 17 9 21 22 1 5 3 10 3 14 0 1-1 0-1 38v53l-11 13c-8 12-12 15-12 33 0 13 4 23 12 32l11 15v80c0 22-2 27-4 31-3 0-16 14-16 14l-5 4c-2 3-3 4-3 4l-2 5v4l-2 6c0 13 1 30 15 36 11 5 37 8 77 8zm-13-110c-1-12-1-23-1-33 0-8 1-31 1-35 2-1 8-2 13-2h10v130h-23zm1-154 11 3c10 0 11-2 11 25v13l-2 6c-2 5-2 5-8 5l-12 2zm-1-91c-1-21-1-37-1-47 0-23 1-22 7-22 3-1 5-1 7-1l10 2v128h-23zm-229-238c45 0 61 1 77-6 13-5 15-12 15-34 0-12-11-23-30-39-4-3-4-23-4-59v-54l12-12c15-18 15-48 0-66l-12-14v-54c0-28 1-47 2-52 1-7 9-13 22-22 13-13 14-36-2-51-9-9-14-10-28-10-11 0-26 0-42-1-6-1-13-1-20-1-10 0-21 1-33 2-24 0-29 2-38 13-11 13-12 35 1 48 12 9 19 15 21 22 1 5 3 24 3 52v53l-12 15c-8 9-12 19-12 31 0 20 3 19 12 35l12 12v54c0 36-3 55-8 59-16 15-26 27-26 39 0 17 6 28 16 33s34 7 74 7zm478 0c40 0 65-2 75-7 11-5 15-16 15-33 0-13-2-25-27-39-3-4-4-23-4-58v-55l9-12c8-10 13-20 13-35 0-16-1-20-13-31l-9-14v-54c0-28 1-47 2-52 1-7 7-13 20-22 12-13 12-36-1-51-15-13-39-10-72-11-7-1-15-1-25-1-27 0-75 0-75 38 0 1-2 12 12 25 0 1 1 2 2 3 10 7 16 12 18 19 1 5 3 20 3 42v64l-12 14c-18 18-18 48 0 66l12 12v54c0 36-3 55-7 59-17 15-27 27-27 39 0 17 5 28 16 33 9 5 34 7 75 7zm-490-110c0-40 1-62 2-65 0-4 6-4 11-4l11 1v129h-23zm478 0v-35c0-37 1-35 6-35 2 0 5 0 7 1l11 1v129h-22zm-474-153 9 2c1 1 4 2 4 2 3 0 3-2 4-2s3 12 3 12v13c-1 24-1 25-11 25l-9 2zm477 0 10 2c10 2 11 3 11 26s-1 24-11 24l-10 2zm-481-92c0-41 0-63 1-67 1-2 6-3 12-3l11 2v131h-23zm478 0v-34c0-38 1-36 10-36h3l11 2v131h-22z"/>
</g>
</svg>
