<?xml version="1.0" encoding="UTF-8"?>
<svg width="24" height="32" version="1.1" viewBox="4 0 64 100" xmlns="http://www.w3.org/2000/svg">
<g transform="matrix(.076687 0 0 -.076687 0 77.991)">
<path d="m48-203v1136c0 30 17 36 37 36h765c30 0 36-16 36-36v-1135c0-30-15-37-35-37h-767c-30 0-36 16-36 36z" fill="#fff"/>
<path d="m0 933c0 55 35 84 85 84h765c55 0 84-34 84-84v-1135c0-55-34-85-84-85h-766c-55 0-84 34-84 84zm48-1136c0-20 6-36 36-36h767c20 0 35 7 35 37v1135c0 20-6 36-36 36h-765c-20 0-37-6-37-36zm588 870c0 1 0 1 1 1 3 0 17-5 17-5l10-5c16-5 79-53 94-66 9-9 14-18 15-24-1-21-31-20-51-20s-48 1-85 4c-16 1-32 1-46 1-29 0-55-1-77-5-3-1-5-2-8-2s-5 1-5 2c0 3 8 9 20 15 18 9 25 19 25 23 0 1-1 2-2 3-1 2-20 3-54 3h-33c-9 0-33-3-49-7-9-3-22-6-41-12-37-7-83-22-97-24-43-13-66-20-67-20-8 0-37 17-37 26 0 2-1 7 7 11 5 3 41 12 78 20 48 9 93 20 138 30 100 25 160 39 181 44 20 5 37 7 51 7zm-150-131c26-2 46-6 62-12 16-8 13-12 13-13 0-3-2-7-6-12-6-9-11-13-13-14-3-3-7-9-13-21-5-6-13-20-13-29 0-2 0-4 9-4 7 0 16 3 30 10 12 7 22 11 30 11 31 0 136-76 148-105 1-3 1-5 1-8 0-8-2-15-31-52-54-70-97-129-126-216-11-26-18-34-46-34-13 0-24 0-29 3-4 3-19 4-44 4-38 0-77-1-115-7-1-3-8-3-12 0-9 2-13 9-13 22 0 3 0 6 1 10v9c0 10-1 20-4 26-3 14-21 58-51 134s-49 121-57 137c-5 10-7 20-7 26 0 14 11 19 23 19 2 0 4 0 5-1 13-2 37-25 44-44 13-24 14-21 16-21 5 0 18 4 38 11l38 12-1 17c0 10-1 23-3 37-5 30-7 54-7 61 0 13 4 30 20 30 1 0 7 2 14-10 5-7 10-37 16-93 1-20 4-22 11-22 1 0 1-1 30 7l25 8 2 33c0 29 0 37-4 54-3 7-5 13-5 19 0 9 6 14 15 15 2 1 5 3 9 3zm58-146c-14-1-34-6-36-22-2-8-5-30-8-69-4-26-6-69-9-95-2-36-5-70-5-78 0-13 1-31 5-31 3 0 6 2 9 6l3 6v-1s3 4 8 13l6 12 8 17c13 22 24 43 25 44 7 10 26 43 54 99 12 28 14 36 14 42 0 22-44 57-65 57zm-94-22c-9-2-19-6-27-9-7-1-11-2-12-2-1-1-2-6-2-15 0-12 2-33 4-62 9-90 13-142 13-158 0-26 1-31 14-31 8 0 12 4 13 10 1 5 2 28 4 68 0 29 3 95 4 129 3 29 4 49 4 60 0 7 0 11-1 12h-4zm-86-26c-1 0-4-1-10-4-32-9-49-17-51-23 0-5 1-10 3-15 16-40 36-98 60-176 7-29 10-33 18-33h7l-2 34c-2 29-6 72-13 129-6 56-9 85-10 88z"/>
</g>
</svg>
