<?xml version="1.0" encoding="UTF-8"?>
<svg width="24" height="32" version="1.1" viewBox="4 0 64 100" xmlns="http://www.w3.org/2000/svg">
<g transform="matrix(.076628 0 0 -.076628 -.0085143 77.931)">
<path d="m48-203v1136c0 30 17 36 37 36h765c30 0 36-16 36-36v-1135c0-30-15-37-35-37h-767c-30 0-36 16-36 36z" fill="#fff"/>
<path d="m551 828c37-1 66-2 87-6 20-4 42-11 64-22 16-6 31-15 44-27s24-23 32-35c8-11 12-22 12-30 0-17-23-45-69-83-7-6-12-9-15-13-6-4-8-6-9-7-6-5-23-21-56-42l-26-17-21 9c-16 7-31 13-47 17-17 4-31 5-44 2-17-1-38-5-61-14-24-9-43-17-57-27-6-5-13-8-21-11-5-4-10-5-12-5-4 0-30 22-73 66-24 29-47 53-72 74-24 21-39 37-43 49-6 10-14 21-23 30-11 10-14 15-7 16 8 2 8 6 3 9s-3 4 8 2l15-3 24-8c22-11 35-15 40-15 3 0 14 4 35 13 56 24 119 45 188 67 19 4 35 8 45 9s29 2 59 2zm13-52c-1 0-2 0-4-1-8-1-11-13-13-34-2-5-3-13-5-23-1-10-2-20-3-26s-2-12-2-18c-3-6-3-13-4-18v-16-18l22-5c31-3 52-5 65-7l5 4c5 3 8 8 13 12 27 27 42 51 45 69 2 8-4 19-15 32-10 12-24 23-41 32-18 10-34 15-51 16zm-103-7c-8 0-13-3-15-7s-3-20-3-45v-22c0-4 0-9-1-13v-12c0-3 0-7-1-11 0-4-1-7-1-10-1-2-1-5-1-9l-3-32c1-1 5-1 14 2 9 1 14 2 15 3l1 4c3 11 2 16 3 13 0-2 0 5 1 20l1 22v63c-2 23-6 34-10 34zm-93-32c-2 0-4-1-6-1-1 0-3-1-5-1l-29-9c-13-6-25-9-35-13-11-5-17-7-20-8-2-3 3-10 17-23 6-5 16-14 27-27 12-13 22-25 32-37 9-11 13-16 13-18 1-8 7-11 13-12 3 1 5 4 6 12 2 8 2 33 1 72-2 40-4 62-7 65h-3z"/>
<path d="m532 505c6 0 12-4 19-13 8-11 12-21 13-32 2-8 3-15 2-21 0-5-2-16-4-30-6-23-8-36-6-38 3-2 17-3 44-2 91 6 142 6 151-1 4-3 6-9 6-13 0-6-1-10-6-14-9-9-21-13-33-15-11-2-39-3-81-4l-83-5-34-12c-53-21-90-34-109-40-20-6-38-11-51-14s-31-4-53-4c-37-1-60 0-70 2-9 2-17 8-26 16-9 6-14 15-14 25 0 11 4 16 8 20 6 2 11 2 18 1 5-1 22-3 47-9 42-9 78-12 107-9 8 1 15 2 18 5 2 1 5 4 6 7 3 6 3 12 1 18-2 5-7 9-13 11-9 3-15 5-16 10-1 3 6 14 21 35 15 20 25 36 32 48 3 6 6 9 9 11 2 2 4 3 6 4 4 2 6 2 10 2 3 4 6 3 9 1l5-4 5-6c6-13 6-35 0-66-6-29-6-42-2-42 2 0 5 3 7 10 15 40 23 64 24 75 0 10-4 20-15 32l-11 13 28 24c17 16 27 24 31 24zm39-225c4 0 11-2 14-3 4-1 8-2 10-4 3-2 5-7 5-16 0-8-2-29-7-64-2-10-4-22-5-33-1-13-2-24-2-35 0-10-1-19-1-27 0-21 1-34 4-37 3-5 14-7 32-9 40-6 74-14 104-31 31-16 48-33 51-53 4-22 0-39-14-53-11-9-29-19-54-30-24-10-46-18-63-21-45-7-79-4-99 7-7 2-13 4-16 7s-6 5-10 7c-3 2-5 3-8 4-3 2-5 4-7 5-2 2-4 4-6 5-2 4-5 6-8 8-11 10-17 14-18 14-3 0-10-3-22-7-21-8-37-11-48-15-10-1-18 0-21 7-7 8-10 5-10-10 0-20-3-30-11-32-3-1-8-1-14 0-1 1-3 2-4 3-3 2-4 4-6 6-2 3-4 8-7 12-2 4-4 10-8 20 0 1-1 2-2 5-6 17-10 26-13 28s-12 2-23 0h-6c-10-2-20-1-28 3-6 3-19 12-35 27-15 15-25 26-27 32v9c0 3 2 4 8 5h20c9-1 20-2 35-4 24-3 36-3 38-2 1 1 0 12-4 32-4 19-6 39-6 58 0 14 0 23 1 26 1 4 4 6 8 7 3-1 5 0 5 3 1 3 3 3 7 1s5-2 6-1c0 2 1 1 4-1l3-4 3-7c1-2 2-5 4-10 1-5 1-11 2-16 1-7 4-15 5-23 2-8 5-17 7-27 2-8 2-16 4-22l5-17 19 2c5 0 8 0 12 1s8 2 11 2c5 1 8 1 10 2 2 5 6 6 7 5 1-2 2-1 3 3l2 8v12c0 8-3 14-7 21-3-1-5-2-7-2-2-2-3-2-7-2-2-1-4-4-6-8-3-11-9-16-17-13-6 2-11 8-16 23s-9 34-11 56c-2 21-3 42-3 61 0 20 0 33 4 41 1 3 3 5 3 6 1 2 3 3 6 5 3 1 5 1 7 1 4 0 8 1 15 2 5 0 11 0 16 2 8 1 14 3 21 5 8 2 13 4 20 6 29 10 57 19 82 24 26 6 47 10 64 10zm-57-55c-6 0-13-2-27-4l-19-7v-29l18 1c13 2 21 4 26 6 3 1 4 2 5 5 1 2 1 3 1 5 0 5 0 9 2 15 1 5 0 8-6 8zm-105-23c-6 0-13-2-20-5-12-10-14-18-5-26 5-2 9-3 16-2 5 0 11 2 13 7 2 4 2 9 2 15-1 8-2 11-6 11zm105-38c-6 0-13-1-27-5-12-3-20-5-23-7 0-1-1-4-2-7s-2-7-2-10v-14l16 1c9 2 19 4 28 7 2 1 5 1 6 2 2 2 4 4 5 6v10 12zm-113-26c-3 0-6-1-9-2-6 0-8-1-10-2-1 0-2-1-3-4v-11c0-7 0-12 1-13 1-3 3-4 6-4 7 0 11 2 15 6 11 9 13 17 6 27-1 2-3 3-6 3zm107-49c-2-1-4-1-7-2-8-1-13-2-14-2s-5-1-12-4l-11-2-4-2c-2-2-2-12-2-25 0-11 0-17 2-19 2-1 12 0 25 5 2 0 6 0 12 2l9 2 3 1c3 1 5 7 6 13v22c-1 7-3 10-6 10 1 0 0 1-1 1zm77-79c0-8 2-19 7-34 3-15 4-25 3-30 0-6-3-12-8-17l-10-12 11 1c8 2 23 8 43 15 25 8 41 17 47 23 8 7 10 17 9 28-1 5-2 9-5 12-5 5-8 8-14 13-5 3-12 7-17 8-6 2-17 2-32 2l-34 3zm-80 8c-1 0-4-1-9-4-3-1-9-2-13-4-6-2-10-4-15-5-6-2-10-3-12-5-3-2-4-4-5-7 0-3 1-5 1-7 1-2 2-4 5-5 1-3 3-3 5-3 3 1 12 6 26 13 10 5 16 7 18 9 3 2 6 5 8 7 1 2 0 5-2 7s-3 3-4 3c-1 1-2 1-3 1zm-98-37c-3-2-12-4-27-9-18-7-23-19-18-33l6-10 11 10c6 9 13 12 16 12s7 2 10 6c3 5 6 9 6 15 0 5-2 9-4 9zm99-35-4-2c-9-2-14-6-12-12 1-5 8-12 18-14 19-5 30-6 31-2 0 0-6 5-13 15-8 10-16 15-20 15z" fill="#e5007f"/>
<path d="m1 933c0 55 35 84 85 84h765c55 0 84-34 84-84v-1135c0-55-34-84-84-84h-3-247c-156 0-249-2-296-2-140 0-213 1-220 1-55 0-84 34-84 84v2 578c0 380-2 548 0 556zm85 36c-20 0-36-6-36-36l-1-1125v-11c0-20 6-36 36-36h767c20 0 35 7 35 37v1135c0 20-6 36-36 36h-754z"/>
</g>
</svg>
