<?xml version="1.0" encoding="UTF-8"?>
<svg width="24" height="32" version="1.1" viewBox="4 0 64 100" xmlns="http://www.w3.org/2000/svg">
<g transform="matrix(.076687 0 0 -.076687 0 77.991)">
<path d="m48-203v1136c0 30 17 36 37 36h765c30 0 36-16 36-36v-1135c0-30-15-37-35-37h-767c-30 0-36 16-36 36z" fill="#fff"/>
<path d="m0 933c0 55 35 84 85 84h765c55 0 84-34 84-84v-1135c0-55-34-85-84-85h-766c-55 0-84 34-84 84zm48-1136c0-20 6-36 36-36h767c20 0 35 7 35 37v1135c0 20-6 36-36 36h-765c-20 0-37-6-37-36zm213 1100h14c62 0 76-5 76-40 0-13-9-25-27-41 0 3 0 3-1 3 0 0-2-5-3-12-1-10-1-15-1-15v-87l11-14c9-11 12-17 12-32 0-13-5-25-12-33l-11-13v-54c0-29 1-47 2-51 2-7 10-12 21-23 10-9 11-20 11-25 0-7-2-16-12-25-8-8-17-12-30-12h-56c-22 0-63 0-77 14-9 12-10 35 2 48 1 0 2 1 4 2 10 8 16 14 17 21 1 4 2 18 2 44v61l-11 13c-11 12-12 14-12 33 0 14 4 23 12 32l11 14v55c0 45-1 50-5 56-18 16-26 28-26 41 0 17 5 27 16 32s34 8 73 8zm413 0h15c64 0 77-5 77-40 0-13-10-25-28-41 0 3-1 3-1 3-1 0-3-5-4-12-2-10-1-15-1-15v-87l12-14c12-11 12-17 12-32 0-13-5-25-12-33l-12-13v-54c0-29 1-47 4-51 1-7 8-13 20-23 9-10 10-20 10-25 0-7-1-16-12-25-7-8-16-12-28-12h-57c-23 0-64 0-77 14-10 12-11 35 1 48 13 10 21 16 22 23 1 4 2 22 2 51v54l-11 13c-10 12-13 17-13 33 0 14 6 23 13 32l11 14v55c0 41-1 52-6 56-18 16-26 28-26 41 0 36 11 40 89 40zm-425-111c0-40 0-61 1-64 1-4 5-6 12-6l10 1v130h-22zm413 0c0-40 1-61 2-64 2-4 6-6 12-6l10 1v130h-22zm-411-152 11 1c9 0 10 2 10 26 0 22-1 21-10 25l-11 1zm415 0 10 1h5c1-1 1-1 2-1s3 9 3 9v18c0 22-1 21-10 25l-10 1zm-417-91c0-43 0-65 1-68 1-2 4-3 9-3h13v130h-22zm413 0c0-43 0-65 1-68 1-2 6-3 10-3h13v130h-22zm-402-238c58 0 74-1 84-13 9-11 16-38-20-67-4-4-5-23-5-58v-54l11-13c12-15 12-15 12-34 0-13-5-25-12-32l-11-14v-53c0-28 1-47 2-52 2-7 9-13 21-23 18-21 8-61-31-61h-5l-19-1h-32c-22 0-63 0-77 14-12 14-12 35 2 48 7 8 10 12 13 12 1 0 1-2 3-2s3 5 5 15c1 10 2 14 2 14v89l-12 14c-14 17-14 47 0 66l12 12v55c0 35-1 55-5 58-19 16-29 27-29 39 0 19 6 31 18 36 10 4 35 5 73 5zm416 0c39 0 65-1 74-5 11-5 16-17 16-36 0-12-11-23-28-39-4-3-6-23-6-58v-55l12-12c11-14 12-15 12-34 0-13-5-25-12-32l-12-14v-53c0-28 2-46 4-52 2-7 8-13 20-23 18-21 7-61-30-61 0 0-4 0-13-1h-44c-23 0-64 0-77 14-10 14-12 36 2 48 13 11 20 16 21 23 1 5 2 24 2 52v53l-11 14c-17 17-17 47 0 66l11 12v55c0 35-2 54-6 58-18 15-26 27-26 39 0 19 4 31 16 36 10 4 35 5 75 5zm-427-110c0-41 0-63 1-66s4-4 9-4h13v130h-22zm413 0c0-41 0-63 1-66s6-4 10-4h13v130h-22zm-411-154 11 1c9 0 10 3 10 27 0 23-1 25-10 25l-11 1zm415 0 10 1c2 3 4 3 5 3s2-3 2-3c2 0 3 12 3 12v14c0 24-1 26-10 26l-10 1zm-417-91c0-40 0-63 1-68 0-1 7-2 12-2l10 1v131h-22zm413 0c0-40 1-63 2-68 0-1 5-2 12-2l10 1v131h-22z"/>
</g>
</svg>
