<?xml version="1.0" encoding="UTF-8"?>
<svg width="24" height="32" version="1.1" viewBox="4 0 64 100" xmlns="http://www.w3.org/2000/svg">
<g transform="matrix(.076687 0 0 -.076687 0 77.991)">
<path d="m48-203v1136c0 30 17 36 37 36h765c30 0 36-16 36-36v-1135c0-30-15-37-35-37h-767c-30 0-36 16-36 36z" fill="#fff"/>
<path d="m0 933c0 55 35 84 85 84h765c55 0 84-34 84-84v-1135c0-55-34-85-84-85h-766c-55 0-84 34-84 84zm48-1136c0-20 6-36 36-36h767c20 0 35 7 35 37v1135c0 20-6 36-36 36h-765c-20 0-37-6-37-36zm493 915c23 0 68-70 68-92 0-7-6-16-19-29-14-12-23-21-25-26-1-4-2-38-2-87 0-15-1-28-1-39 0-21 1-34 3-38 0-1 1-1 2-1 5 0 15 7 30 22 16 14 25 27 28 39 7 17 15 27 24 33 6 3 12 5 18 5 10 0 23-5 41-16 18-10 27-24 29-41l1-3c0-18-12-26-67-32-24-3-50-14-78-32l-6-3c-9-6-14-11-17-14-5-4-7-17-7-37 0-8 0-16 1-27v-12c5-66 10-84 20-95 6-6 14-10 28-11 7-1 16-2 28-2 23 0 56 3 97 10 29 3 40 1 40-15 0-1 0-5 6-17-9-20-27-38-46-46-19-4-81-11-128-11-48 0-74 6-93 57-5 16-8 40-10 75-4 28 1 60-5 67 0 5 0 8-1 9 0 2-1 2-2 2-5 0-16-8-32-21l-21-17v-30c0-32-7-55-19-69-9-9-12-12-19-12-12 2-17 13-17 37v21c0 9 3 10-12-2-7-5-15-11-24-19-16-13-37-30-47-38-9-9-23-22-39-37-35-29-48-39-77-41-6-1-11-1-15-1-5 0-10 0-13 2-9 3-22 18-22 32 0 15 4 21 34 58 28 34 52 87 71 160 1 2 1 4 2 7 4 17 7 29 7 36 0 3 3 5-19 30l-1 1-1 2c-34 39-47 61-47 70 0 4 2 7 12 7 5 0 13-1 22-3 21-6 130-39 130-68 0-24-26-40-46-49-9-4-14-6-15-18-1-10-4-33-7-70s-5-59-5-64c0-3 2-5 6-5 5 0 15 3 27 9 12 9 24 14 27 14 2 0 13 8 25 17l24 15v117l-1 116-20 34c-17 28-26 50-26 64 0 10 4 16 11 19 3 1 6 1 11 1 32 0 88-30 104-58 1-2 2-4 2-7 0-11-17-35-18-46-4-11-6-125-6-144 0-26 1-42 2-47h1c2 0 10 4 23 11 12 8 21 14 26 19 3 3 4 10 5 19s2 29 3 61c4 47 5 87 5 119v45l-18 15c-22 20-18 27-18 27 0 7 6 19 17 33 12 21 45 55 51 55z"/>
</g>
</svg>
