<?xml version="1.0" encoding="UTF-8"?>
<svg width="24" height="32" version="1.1" viewBox="4 0 64 100" xmlns="http://www.w3.org/2000/svg">
<g transform="matrix(.076687 0 0 -.076687 0 77.991)">
<path d="m48-203v1136c0 30 17 36 37 36h765c30 0 36-16 36-36v-1135c0-30-15-37-35-37h-767c-30 0-36 16-36 36z" fill="#fff"/>
<path d="m619 907c8 0 19 0 34-1 49-6 78-20 82-41 3-16-2-30-21-38-17-11-42-10-71 3-19 7-30 10-34 10-3 0-6-1-12-2-4-3-10-6-17-8-8-2-14-5-22-9-6-3-13-5-20-8-7-4-12-6-15-8-5-3-12-9-16-12-5-4-8-6-11-9-6-4-9-14-13-24-5-12-7-18-7-24 0-4 3-6 10-6 5 2 14 6 20 11 5 5 11 13 16 21 4 12 15 19 31 19 20 0 33-7 38-20v-19c1-12 1-22 1-35 0-29 0-52 1-69l3-25 57-30c61-30 98-51 110-59s18-18 18-30c0-10-1-19-6-29-4-9-9-14-13-14s-8 0-15-1-13-1-18 0c-5 2-12 7-21 13-8 6-20 13-36 24-17 11-34 21-51 32s-30 20-39 24c-6 3-11 4-15 5-7 3-12 5-15 6-5 0-7 1-8 1-14 0-58-15-130-45-19-8-34-14-42-18-9-5-15-9-22-16s-13-9-17-9c-4 1-12 7-21 14-10 8-16 16-17 24-1 6 1 26 4 60l3 33c0 14-5 16-13 10-55-40-107-67-152-83-11-4-19-7-24-7-5-1-8 0-10 1-9 4 1 13 25 28 30 18 62 41 90 70 31 31 53 59 68 88 1 8 3 10 4 10 3 0 3 4 3 10 0 7 1 11 2 10 1 0 1 2 0 9v10l-2 11c0 2-1 5-3 9-2 7-3 10-3 14-1 3-1 5 0 9 0 4 1 8 3 14 9 26 23 41 44 51 7 2 12 3 16 3 5 0 8-1 12-2s8-3 11-8c4-3 6-7 8-14l11-17h33c17 1 30 2 37 4 7 1 23 9 47 21 14 5 26 13 40 19 12 6 21 9 24 11 6 3 9 5 11 7 5 3 7 6 8 10 4 7 13 11 27 11zm-223-96c-2 0-3-3-4-7-1-5-3-13-5-21-6-21-15-54-34-100 9-5 27-1 54 10 11 5 17 7 19 9 2 3 6 11 10 21 2 6 3 13 4 18s2 8 2 12c-1 6-7 14-20 28-3 2-6 6-10 11l-8 11-2 3c0 3-2 5-6 5zm127-118c-5-5-13-7-20-8-7-2-14-4-19-5-6-3-10-3-12-3l-11-5c-6-10-15-41-23-95l-3-13 13 2c2 0 7 1 12 2 3 1 7 2 12 3 7 3 11 4 15 5l19 7 12 7c4 3 7 17 9 40 2 4 3 12 3 30l1 24v12zm-112-42c-4 0-5-1-7-2-3-1-7-3-10-5-4-3-11-4-15-6l-27-11 1-41 3-39c1-9 6-14 14-13 6 4 13 17 24 42 21 49 25 74 17 74z"/>
<path d="m525 502c4 0 7-1 10-4l10-10c2-5 6-9 8-15 4-4 5-11 6-16 1-8 2-16 2-21 0-6-2-17-6-30-5-23-8-36-5-39s15-3 43 0c92 5 142 5 152-3 2-3 5-7 5-13 0-5-2-9-5-13-4-6-11-9-14-11s-10-3-20-5c-7-1-18-3-28-3-12-2-28-3-53-3l-80-2-36-12c-73-29-119-44-138-51-19-4-44-7-76-7-36-1-58-1-68 2-9 2-18 7-28 14-5 6-10 9-11 11-2 4-3 9-3 17 0 5 0 11 1 13 2 2 5 3 9 5 7 3 27 0 65-7 16-5 36-8 57-9 21-2 36-1 49 0 11 1 19 5 24 12 8 13 1 23-13 28-10 4-14 7-15 10-1 4 5 15 21 35 15 20 26 37 33 49 5 7 8 12 12 14 3 2 6 2 13 2 7 1 13-1 16-9 6-5 8-15 8-25 0-11-2-24-8-40-4-29-5-42-1-42l7 10c14 39 23 63 24 74 1 10-4 21-13 32l-11 14 25 23c8 7 15 14 21 18s10 7 11 7zm38-225c12 0 20-3 24-6 5-4 6-9 6-17s-3-29-7-63c-1-11-2-23-3-34-1-13-2-24-2-35-1-10-1-20-1-27 0-21 1-34 4-38 2-3 13-6 32-9 39-4 73-14 104-30 31-17 47-33 50-53 5-23-1-41-15-53-4-4-12-8-22-15-9-5-20-11-31-15-12-4-23-9-35-13-11-4-22-7-29-8-44-8-77-6-100 6-23 14-41 26-53 38-11 9-16 13-18 13-4 0-10-2-22-8-39-14-61-16-69-7-7 8-10 5-10-10 0-19-5-30-12-32-4-1-8-1-14 0s-14 14-24 40c-1 2-2 4-3 7-6 15-10 24-13 26-5 3-11 3-22 0h-8c-8-2-17-1-26 4-5 3-6 4-6 3 0-2-3 1-8 5l-8 7-10 9-8 7-7 8c-4 2-6 6-8 9-1 2-3 4-4 5-1 3-3 4-3 6-1 3-1 5-1 10 1 2 4 3 9 4h20c9-1 20-2 35-4 9-1 19-1 25-2 9 0 12 0 12 1 2 1 1 11-3 32-1 6-2 16-4 29-1 11-1 21-1 28 0 14 0 23 1 26 0 2 3 5 7 9 5 2 10 3 18 1 3-1 5-5 6-7 3-2 4-7 6-14 2-8 6-21 10-41 2-7 3-16 5-26 1-9 4-16 6-22l4-20 20 5c2 0 5 0 9 1 3 0 5 1 7 1 4 1 6 1 9 2s4 1 6 1c5 2 8 5 9 6 3 2 3 4 4 6 0 4 2 9 2 16l-3 13c0 6-3 9-6 7-5-2-10-3-12-3-4 0-8-2-9-9-3-11-7-15-15-13-7 2-12 10-17 24-4 9-6 19-8 32-2 11-4 24-5 36-1 14-2 27-2 37 0 12 1 22 1 31 1 10 2 17 5 21 2 6 4 9 6 10 3 2 11 3 24 5 7 0 15 1 27 3 10 4 21 6 28 10 31 10 58 18 85 24 27 5 46 10 61 10zm-55-55c-6 0-15-2-28-5l-19-5v-31l19 2c13 2 22 4 26 6 2 2 4 6 6 11 0 3 0 8 2 14 1 6 0 8-6 8zm-104-22c-9 0-14-2-20-6-6-5-10-8-11-13-1-3-1-7 5-13 2-2 5-1 8-2 5 0 8 0 11 1 4 1 8 2 9 5s2 6 2 10c0 5 0 9-1 12 0 4-1 6-3 6zm104-40c-5 0-13-1-27-4-12-3-21-4-22-7-1-1-1-3-2-7s-2-7-2-10v-14l15 1c10 2 20 4 26 6 6 1 9 3 9 6 1 2 3 6 3 13zm-114-25c-2 0-5 0-8-1-7-1-10-2-12-4-1-2-1-7-1-13 0-8 3-15 9-17 4 0 9 1 13 4s6 7 8 14c2 5 1 12 0 14zm109-50c-6 0-15-1-28-5-14-3-20-5-22-5 0-1 0-5-1-10 0-4-1-10-1-17 0-10 1-16 4-18 2-1 9 0 25 4 13 4 21 6 24 6 4 2 5 11 5 24-1 14-3 21-6 21zm77-78c0-8 2-19 4-34 3-16 4-24 4-30-1-6-3-12-8-17l-9-12 12 1c9 2 23 7 43 15 11 3 18 6 24 9 7 4 12 7 17 10 5 2 9 5 10 7 1 4 2 8 4 12 0 5 0 9-2 13-1 9-7 17-16 25-6 1-8 2-7 3s0 2-6 3c-6 0-7 1-6 2 3 0-1 2-7 2l-11 1h-12l-34 2zm-80 7c-3 0-6-1-9-2-10-3-19-6-30-11-11-3-15-6-15-12-1-2-1-4 0-5 1-3 2-6 4-7 2-2 5-2 7-2l10 3 16 10c12 5 19 9 22 11s3 7-1 11c-1 2-2 3-2 4h-2zm-100-37c-4 0-11-3-27-9-17-6-23-18-18-32l6-10 1 1c1 1 3 2 5 4 2 1 4 3 6 5l16 10c2 0 4 0 5 3 2 1 3 3 5 5 2 1 4 5 5 8 1 2 1 4 1 6 0 5-1 8-5 9zm101-34c-3 0-4 0-5-1-9-3-14-8-12-13 1-6 8-11 19-13 2-1 7-2 12-4 4-1 9-2 11-2 4 0 6 1 7 2 0 2-4 6-14 17-9 9-15 14-18 14z" fill="#e5007f"/>
<path d="m0 933c0 55 35 84 85 84h765c55 0 84-34 84-84v-1135c0-55-34-85-84-85h-766c-55 0-84 34-84 84zm48-1136c0-20 6-36 36-36h767c20 0 35 7 35 37v1135c0 20-6 36-36 36h-765c-20 0-37-6-37-36v-1125z"/>
</g>
</svg>
