<?xml version="1.0" encoding="UTF-8"?>
<svg width="24" height="32" version="1.1" viewBox="4 0 64 100" xmlns="http://www.w3.org/2000/svg">
<g transform="matrix(.076687 0 0 -.076687 0 77.991)">
<path d="m48-203v1136c0 30 17 36 37 36h765c30 0 36-16 36-36v-1135c0-30-15-37-35-37h-767c-30 0-36 16-36 36z" fill="#fff"/>
<path d="m227 894c28 0 47-1 59-3 13-2 22-7 25-11 6-6 8-14 8-28 0-10-10-24-30-39-1 7-2 3-3-8l-1-17v-87l12-14c8-8 11-19 11-31v-10c0-4 0-7-1-9-1-3-2-4-3-8-4-1-5-3-7-6l-12-13v-56c0-28 1-46 2-50 1-6 9-13 21-23 8-7 11-14 11-24s-3-19-11-25c-8-9-16-12-28-12s-27-2-43-2h-26c-10 0-20 0-27 2-19 1-31 6-38 13-3 4-6 7-7 12-2 3-2 8-2 13 0 4 0 9 3 12 1 3 3 7 7 11 1 0 2 0 4 2 9 9 15 15 16 21 3 4 4 18 4 45v61l-12 13c-5 6-10 10-11 14-2 3-2 10-2 19 0 12 5 23 13 31l12 14v55c0 21-1 36-1 43-2 8-3 12-6 14-18 15-27 29-27 39 0 19 5 29 15 34 11 5 35 8 75 8zm478 0c27 0 48-1 60-3s20-7 25-11c3-6 6-14 6-28 0-10-10-24-28-39-1 7-1 4-3-8l-3-17v-87l12-14c8-8 12-19 12-31v-10c0-4-1-7-1-9-1-3-4-4-5-8l-6-6-12-13v-56c0-28 2-46 4-50 1-6 8-12 20-23 6-7 10-14 10-24s-5-18-11-25c-8-8-17-12-29-12h-21c-6 0-14 0-20-2h-26c-10 0-20 0-28 2-21 1-33 5-38 13-5 4-8 9-9 15-1 7 0 12 1 19 1 4 6 10 10 14 12 11 19 17 21 23 1 4 2 22 2 50v56l-13 13c-5 5-8 10-10 14-1 3-2 10-2 19 0 12 3 23 12 31l13 14v74c0 5 0 10-1 13v11c0 4-1 6-1 8-1 1-1 3-2 3 0 1-2 1-4 3-17 14-26 29-26 39 0 19 6 29 16 34s34 8 75 8zm-490-112c-1-39 0-61 1-64 2-4 6-5 12-5l10 1v130h-22zm478 0c-1-39 0-61 1-64 1-4 5-5 12-5l11 1v130h-24zm-474-151 9 2c8 0 10 7 10 25 0 10 0 17-1 20-1 1-3 4-9 5l-9 1zm477 0 10 2h5c0-4 3-2 4 3l2 7v15c0 10-1 17-2 20-2 1-5 4-9 5l-10 1zm-481-91c-1-42-1-64 1-68 1-2 6-3 12-2h10v130h-22zm478 0c-1-42 0-64 1-68 1-2 5-3 12-2h11v130h-24zm-466-239c41 0 66-2 77-6 8-6 15-16 15-34 0-12-10-25-30-39-1 5-2 3-2-8l-2-16v-89l12-13c8-10 12-20 12-34 0-13-4-24-12-32l-12-13v-53c0-29 1-47 2-52 2-5 9-13 21-24 8-5 11-14 11-24s-3-17-11-25-16-11-28-11-27 0-43-1c-8-1-15-1-25-1-11 1-21 1-28 1-19 2-32 8-38 13-7 9-10 18-10 26 1 9 5 17 11 22 13 10 18 19 20 24s4 23 4 52v53l-12 13c-10 8-13 19-13 32 0 14 3 24 13 34l12 13v55c0 35-2 54-7 58-17 15-27 27-27 39 0 13 3 22 6 27 5 6 13 9 24 11 12 1 33 2 60 2zm478 0c27 0 48-1 60-2 12-2 20-5 25-11 3-5 6-14 6-27 0-12-10-25-28-39-3-5-6-23-6-58v-55l12-13c8-10 12-20 12-32 0-9-1-15-2-19-3-4-5-9-10-15l-12-13v-53c0-29 2-47 4-52 1-5 8-14 20-24 6-5 10-14 10-24s-4-17-11-25-17-11-29-11h-12l-15-1h-14c-7-1-16-1-26-1-10 1-20 1-28 1-21 2-33 8-38 13-7 9-10 18-9 26 0 9 4 18 11 22 12 11 19 19 21 24 1 5 2 23 2 52v53l-13 13c-9 9-12 19-12 32 0 14 3 24 12 34l13 13v55c0 22-1 36-2 42 0 8-2 12-6 16-16 14-26 27-26 39 0 9 0 14 2 19 1 4 4 8 7 11 3 4 9 6 15 7 8 1 17 2 26 2 10 0 23 1 41 1zm-490-110c-1-40-1-62 1-66 1-4 6-5 12-4h10v130h-22zm478 0c-1-40 0-62 1-66s5-5 12-4h11v130h-24zm-474-153 9 2c3 3 5 3 6 1 1-3 2-1 3 4l1 5v15c0 12 0 19-1 21-1 3-3 4-9 4l-9 2zm477 0 10 2c4 0 8 1 9 3 2 3 2 10 2 22s-1 19-2 21c-2 3-5 4-9 4l-10 2zm-481-91c-1-40-1-63 1-67 1-3 6-4 12-3l10 1v130h-22zm478 0c-1-40 0-63 1-67 1-3 5-4 12-3l11 1v130h-24z"/>
<path d="m468 598c20 0 36 0 47-2 11-1 20-4 27-6 8-2 12-8 13-12s2-12 2-22c0-14-5-24-18-33l-15-7v-110l12-13c19-23 18-46-1-70-5-6-7-12-8-18s-3-21-3-46v-56l16-12c9-5 14-11 15-14 1-2 2-9 2-18 0-3 0-5-1-8 0-4-1-6-2-8l-9-9-9-10h-135l-12 10c-6 6-8 9-10 12-1 5-2 8-2 13 0 7 1 10 2 15 1 3 2 5 4 7 3 2 7 7 14 10l13 12v85c1 5 1 11-1 17l-3 10-4 8c-21 24-22 47-1 70l9 13v110l-12 7-8 6-5 5c-4 4-4 5-5 7s-2 4-2 7c0 4-1 6-1 8 0 10 1 18 3 22s7 10 14 12c8 2 16 4 28 6 11 1 26 2 46 2zm-11-113c-1-39-1-61 0-64s5-4 11-3h12v130h-23zm11-100c-5 0-9-2-10-3-1-2-2-7-3-18 0-12 1-20 2-24 2-4 6-5 11-4 6 0 9 2 11 4 1 1 1 8 1 22v23zm-11-143c-1-16-1-30-1-43s1-21 1-22c1-3 5-6 11-3l12 1v128h-23z" fill="#e5007f"/>
<path d="m0 933c0 55 35 84 85 84h765c55 0 84-34 84-84v-1135c0-55-34-85-84-85h-766c-55 0-84 34-84 84zm48-1136c0-20 6-36 36-36h767c20 0 35 7 35 37v1135c0 20-6 36-36 36h-765c-20 0-37-6-37-36v-1125z"/>
</g>
</svg>
