<?xml version="1.0" encoding="UTF-8"?>
<svg width="24" height="32" version="1.1" viewBox="4 0 64 100" xmlns="http://www.w3.org/2000/svg">
<g transform="matrix(.076687 0 0 -.076687 0 77.991)">
<path d="m48-203v1136c0 30 17 36 37 36h765c30 0 36-16 36-36v-1135c0-30-15-37-35-37h-767c-30 0-36 16-36 36z" fill="#fff"/>
<path d="m0 933c0 55 35 84 85 84h765c55 0 84-34 84-84v-1135c0-55-34-85-84-85h-766c-55 0-84 34-84 84zm48-1136c0-20 6-36 36-36h767c20 0 35 7 35 37v1135c0 20-6 36-36 36h-765c-20 0-37-6-37-36z"/>
</g>
</svg>
