<?xml version="1.0" encoding="UTF-8"?>
<svg width="24" height="32" version="1.1" viewBox="4 0 64 100" xmlns="http://www.w3.org/2000/svg">
<g transform="matrix(.076687 0 0 -.076687 0 77.991)">
<path d="m48-203v1136c0 30 17 36 37 36h765c30 0 36-16 36-36v-1135c0-30-15-37-35-37h-767c-30 0-36 16-36 36z" fill="#fff"/>
<path d="m392 897c10 0 23-3 37-11s28-17 38-27c7-6 12-11 14-15 1-3 2-8 2-17 0-12-4-23-12-33-9-11-13-19-15-26-3-9-2-14 3-15 4-2 16 0 35 8 20 8 34 15 44 22 24 16 44 25 59 25 18 0 49-10 94-29 0-1 4-4 11-6l9-3h5c2 0 9-4 18-12 2 0 5-1 6-5 1-3 4-4 5-4 2 1 2 0 3-4l2-7v-4c0-3-2-5-2-7-1-2-1-5-2-9-1-2-2-5-5-7-3-8-7-15-9-19-2-3-6-7-9-10s-6-5-10-6c-3 0-6-2-13-2-11 0-25 5-40 16-49 27-79 44-96 47-8 2-35-3-81-19-45-13-80-27-103-39l-19-10h32c3 0 7-1 10-1 2-1 6-1 9-2 2-2 5-3 8-4 10-5 21-13 36-26 12-12 19-22 19-25 0-9-7-19-22-28-14-11-35-21-60-31s-54-19-83-27c-28-4-51-10-66-13-17-4-31-4-41-3-11 0-18 2-24 6-1 1-4 2-5 2-9 8-10 13-4 15 1 0 5 0 10 1 6 0 11 2 20 3 10 1 24 3 38 8 17 3 33 9 49 15 16 7 26 13 35 19 12 9 19 14 24 21 4 5 4 13 2 22 0-2-1 0-2 3v5c0-1-1 2-1 5l-2 7v21l-14-5c-11-2-22-2-33 0-8 1-21 6-39 14-15 9-25 15-27 20-3 3-3 6-3 10 1 4 3 7 5 11 2 3 6 3 11 5 14 6 29 8 45 3 5-2 11-3 17-4 7-1 11-1 15-1 7 0 20 2 41 9 20 4 32 7 34 10 3 6 5 16 0 28-3 13-11 29-21 44-8 13-15 25-17 36s-2 21 1 32c1 4 2 9 3 11 2 2 5 4 8 8 2 2 5 3 9 4h14zm89-224c25 0 66-17 120-51 60-38 81-74 64-107-3-12-12-20-22-25-11-6-20-7-25-3-6 2-19 18-44 48-25 29-37 44-38 45-16 15-32 33-48 51-15 17-24 27-24 31 0 7 7 11 17 11z"/>
<path d="m512 498c3 0 7-2 10-5 5-5 10-11 14-18s6-15 7-21c3-14 1-29-2-51-1-2-2-6-3-10-6-18-7-26-2-30 2-2 12-2 30 0h11c94 6 144 6 153-2 2-2 3-5 4-9 1-2 1-5 0-8-1-4-1-7-4-10-10-10-21-13-33-15-11-2-38-3-81-6l-83-2-34-12c-54-19-90-33-109-40-20-7-38-12-51-14s-32-5-55-5c-35-1-58 0-68 3-8 2-17 6-27 14-6 5-9 9-10 12-1 2-3 8-3 15 0 5 2 9 3 12s3 6 6 7c6 2 27 0 64-7 42-11 78-13 107-8 7 1 13 1 16 2s6 5 8 9c3 6 3 12 1 17-2 6-8 9-14 11-10 3-15 7-16 10s6 13 21 35c7 10 13 18 20 28 6 8 11 15 13 19 6 8 9 12 12 15s7 4 13 4c8 1 15-2 17-10 4-3 6-10 6-15 1-7 1-13 0-22 0-8-1-18-4-28-1-1-2-2-2-3-5-26-6-38-1-38l6 8c16 40 24 65 25 75 0 10-4 22-14 33l-11 13 27 24c4 4 8 9 14 12 4 4 8 7 11 9 3 1 5 2 8 2zm38-226c12 0 20-1 22-4 5-3 7-9 6-18 0-6-3-28-7-62-2-16-4-33-5-52-1-18-2-34-2-44 0-22 2-35 5-38 2-3 13-7 31-8 40-5 74-15 106-32 29-16 46-32 49-51 4-24 0-42-14-54-8-6-18-13-32-20s-30-13-45-19c-16-6-31-9-42-11-44-9-76-7-100 5-23 13-40 24-52 36-11 10-17 17-18 17-3 0-10-4-24-9-37-13-59-17-67-8-8 8-11 5-11-11 0-18-3-28-12-30-3-1-6-1-12 0-6 2-13 14-25 39-1 1-1 3-2 7-7 16-11 25-14 26-4 2-10 2-23 0h-5c-10-1-19-2-27 3-7 4-8 6-7 5 0-1-2 1-10 5l-9 8-28 30c-3 2-5 4-7 6-1 2-2 3-2 5-1 4-1 8-1 10 1 3 3 5 9 5 6 1 12 1 19 0 9 0 20-2 36-3 23-4 36-6 38-3 1 1 0 11-5 31-1 8-3 19-4 31-1 11-1 21-1 28v20c0 2 0 5 1 6 0 1 1 2 1 3 2 2 2 2 3 2 2 0 3 1 4 2 2 2 4 2 9 4 3 0 5 0 8-2 3 0 4 0 5-2l4-4c1-2 2-6 3-10 2-4 3-11 5-18 1-5 4-15 6-26 3-20 7-36 10-49l5-20 19 4c7 0 11 1 18 3 6 2 11 3 15 4 1 1 4 2 5 2 4 2 7 11 7 24-1 8-4 15-7 21-2-1-5-1-7-2h-5c-4-1-6-4-9-10-2-8-6-12-10-14-4-1-9 0-12 4-3 5-7 11-10 20-8 24-12 54-14 88-2 35-1 58 4 71l2 4c0 2 2 3 3 3 1 1 2 2 4 3 1 0 2 0 4 1 3 0 5 1 7 1s5 0 11 1c16 1 35 7 56 13 62 22 112 33 147 33zm-57-53c-7 0-14-1-29-5l-17-5v-31l17 2c6 1 12 2 17 3 4 2 7 2 10 3 4 2 6 6 6 9 0 4 1 8 2 14 0 7-1 10-6 10zm-104-22c-8 0-15-3-20-6-7-4-10-9-11-13-1-3 0-8 4-13 6-1 10-2 16-2 5 1 11 2 12 6 1 0 2 2 3 7v12c0 4 0 5-1 6s-2 3-3 3zm104-40c-6 0-13-1-28-4-12-3-20-5-20-7l-6-19v-13l17 1c9 2 18 4 25 7 4 1 6 2 7 3 2 2 3 4 3 6 2 2 2 5 2 11zm-118-24c-1 0-3-1-4-2-3-2-6-4-8-1-2 1-3 0-4-5l-1-4v-8-12c1-2 2-3 3-3 0-1 2-1 6-1s8 1 13 4c3 2 5 8 6 13 4 7 3 11 0 16l-7 2c-1 1-2 1-4 1zm112-52c-5 0-14-1-27-4-13-2-20-4-21-5-1-4-2-13-2-26 0-12 1-17 2-18 2-3 12 0 26 3 15 4 21 5 23 7 2 1 3 2 3 3 2 3 2 4 2 7s0 6 1 8v11c-1 2-1 6-3 8 0 1-1 3-1 4 0 2-2 2-3 2zm77-84c0-2 1-4 1-8 0-3 1-5 2-9 2-4 2-7 2-9 3-11 5-19 5-25 0-4-1-7-2-13-1-3-3-6-8-11l-10-12 13 2c8 3 24 8 43 15 24 9 40 16 46 23 8 5 10 15 8 27-1 10-7 18-16 25-5 4-10 6-14 7-3 1-6 2-12 2-5 1-13 2-24 2l-34 1zm-89 12c-3-1-8-3-13-4-5-3-10-6-15-7-2-1-6-1-8-2-1 0-3-1-4-2-3-1-4-3-4-3-1-1-1-3-1-5-2-3 0-8 2-11 3-2 6-3 9-3 2 0 11 4 27 13l15 6c3 3 5 4 7 5 1 2 3 3 3 6 0 1-2 4-3 6-2 2-4 4-6 4zm-91-34c-1 0-2-1-2-1-1-1-3-1-5-2-4-1-6-3-8-4-1-1-6-2-10-3-4-2-8-3-10-5-2-3-5-5-6-6-3-2-4-4-4-6-1-3-1-5-1-6 0-2 0-6 2-9l6-11c1 0 2 1 4 4 2 2 5 4 8 6s5 6 10 8c3 2 5 3 6 3 4 0 8 2 10 7 5 4 6 11 6 15s-1 8-6 10zm99-35s-1 0-2-1c-9-3-13-8-12-13 1-7 8-11 18-14l16-4c1-1 3-1 6 0h7l2 1c0 1-4 6-14 17-8 8-14 14-18 14h-1z" fill="#e5007f"/>
<path d="m0 933c0 55 35 84 85 84h765c55 0 84-34 84-84v-1135c0-55-34-85-84-85h-766c-55 0-84 34-84 84zm48-1136c0-20 6-36 36-36h767c20 0 35 7 35 37v1135c0 20-6 36-36 36h-765c-20 0-37-6-37-36v-1125z"/>
</g>
</svg>
