<?xml version="1.0" encoding="UTF-8"?>
<svg width="24" height="32" version="1.1" viewBox="4 0 64 100" xmlns="http://www.w3.org/2000/svg">
<g transform="matrix(.076687 0 0 -.076687 0 77.991)">
<path d="m48-203v1136c0 30 17 36 37 36h765c30 0 36-16 36-36v-1135c0-30-15-37-35-37h-767c-30 0-36 16-36 36z" fill="#fff"/>
<path d="m302 839c17 1 34-2 51-9 17-6 32-15 45-27 13-13 23-27 32-42 17-36 20-72 7-108-13-37-37-64-73-83-17-8-34-12-55-12-9-1-18-1-25 0-9 0-15 1-20 3-27 7-49 21-68 42-18 21-29 44-33 71-4 25-2 49 6 72 8 22 22 42 43 59 20 17 44 28 72 33 5 0 12 1 18 1zm329 0c16 1 33-2 51-9 16-6 31-15 45-27 14-13 24-27 31-42 17-36 19-72 7-108-12-37-35-64-71-83-11-4-20-8-26-10-6-1-16-2-29-2-9-1-18-1-26 0-9 0-15 1-20 3-26 7-48 21-67 42s-30 44-33 71c-4 25-2 49 6 72 7 22 22 42 41 59 20 17 45 28 72 33 6 0 12 1 19 1zm-334-26h-8c-3-2-5-2-9-2-13-3-24-7-34-13-10-5-19-13-29-23-18-22-28-47-28-78 0-20 2-35 7-45 25-48 62-70 112-68 11 1 20 3 26 4 6 2 13 4 22 8 28 16 47 38 55 68 9 31 8 59-5 87-5 6-11 15-21 25s-19 18-27 22c-5 2-11 6-17 8s-12 4-19 5c-7 2-13 2-19 2zm336 0c-7 0-14 0-23-2-13-3-24-7-34-13-10-5-19-13-29-23-20-22-30-47-29-78 0-20 3-35 8-45 23-48 61-70 110-68 18 1 35 5 49 12 27 16 46 38 56 68 9 31 7 59-8 87-1 4-5 10-10 16s-11 12-17 18c-7 5-13 10-18 13-9 5-17 9-26 11-10 2-20 4-29 4zm-326-9c20 0 38-6 54-18 18-13 32-29 39-47 9-19 11-39 8-59-4-21-13-38-29-53-11-13-22-21-33-26-24-10-46-13-69-8-7 2-13 5-20 8-5 3-11 6-16 11-6 3-10 8-16 13-15 17-24 34-27 55-5 32 2 60 20 83 19 24 45 37 77 40 3 1 7 1 12 1zm329 0c19 0 38-6 55-19 18-12 31-28 39-46 8-19 10-39 6-59-4-21-13-38-27-54-11-12-22-20-33-25-23-10-46-13-69-8-10 3-19 8-28 12-9 6-18 12-25 20-15 17-24 34-28 55-4 32 3 60 21 83 19 24 44 38 75 40zm-332-17c-16 0-27-2-33-8-6-4-10-8-10-13s4-11 10-17l9-8c2 0 1 3-3 10-3 4-6 9-6 10 1 2 4 5 8 10 3 3 10 5 19 6 9 0 16-1 23-3 8-3 11-8 11-13 0-1-1-6-4-12-3-4-4-7-4-9 1-2 5 1 11 9 11 14 11 25 0 32-5 4-15 6-31 6zm330 0c-4 0-10 0-14-1-5 0-9-1-12-2-4-1-7-2-9-5-5-4-7-8-7-13s2-11 7-17l11-8c2 0 1 3-3 10-4 4-6 9-6 10 0 2 2 5 6 10 7 5 18 7 33 5s22-6 22-15c0-1-1-6-5-12-2-4-3-7-3-9 1-2 5 1 11 9 11 14 11 25 0 32l-7 3c1 1-1 2-6 2l-8 1zm-274-27c-5-1-8-3-11-5s-6-5-7-9c-6-8-7-12-6-12 2 0 5 1 8 6 2-1 5 0 8 4 3 5 5 5 8 2 2-3 4-4 6-3 2 2 4 0 6-5 1-6 2-9 4-9 1 0 2-2 2-8l1-9v-9c0-3 0-5-1-6-1-2-3-4-4-5-4-3-10-3-16-1h-6c-5 1-2-1 8-7s18-5 26 3c6 5 8 13 6 22 0 5-2 10-4 15-1 6-3 10-5 15-2 4-5 8-7 12-1 2-3 4-5 5-4 3-7 4-11 4zm-115 0c-12 0-22-13-29-36-4-12-5-20-5-24 1-4 3-9 9-14 4-5 8-7 11-7 2 0 7 1 14 5l10 5h-8c-6-1-11 0-15 3-5 1-7 4-7 6-1 2-1 6 0 13 1 14 6 24 14 30s16 5 21-2l5-4c2-2 3-2 3 1 0 4-1 7-3 10l-10 10c-5 3-8 4-10 4zm328 0c-11 0-19-13-27-36-4-12-6-20-6-24 2-4 4-9 8-14 5-5 9-7 11-7 3 0 8 1 14 5 6 2 10 4 12 5h-10c-5-1-10 0-16 2-4 4-6 9-5 20 2 14 6 24 14 30s15 5 22-2l3-4c4-2 5-2 5 1 0 5-4 9-9 15-7 5-11 9-16 9zm116 0c-3-1-7-3-10-5s-6-5-7-9c-6-8-7-13-6-13s5 2 8 7c2 2 5 3 8 4s5 1 7 1 5 0 7-2c2-1 3-3 5-5 1-3 3-6 4-9 1-2 2-6 3-8 1-3 1-5 1-9v-9c-1-3-2-5-3-6 0-2-1-4-2-5-6-3-11-3-16-1h-6c-6 1-4-2 6-7 7-4 12-5 16-5 2 1 6 3 12 8 5 5 7 13 5 22-1 8-2 14-5 21-3 6-5 12-8 16-3 5-7 8-10 10-2 3-5 4-9 4zm-387-28c-5 0-11-2-17-5-7-5-11-9-14-15-4-11-3-22 3-31 5-10 13-15 23-16 11-1 20 2 30 9 9 12 12 24 6 37-5 14-16 21-31 21zm330 0c-4 0-9-1-13-3s-8-5-11-8c-4-2-6-5-7-9-5-11-4-22 1-31 7-10 14-15 24-16s19 2 30 9c10 12 12 24 6 37-6 14-17 21-30 21zm-330-9c5 0 10-1 15-4 4-2 7-6 10-10 2-6 2-10 1-16-3-8-7-15-14-18-7-4-15-4-25 1-7 3-10 9-11 19 0 9 2 17 9 22 3 4 9 6 15 6zm330 0c8 0 14-3 20-10 4-5 6-12 5-20-2-8-6-15-14-18-8-4-15-4-24 1-5 2-8 5-10 10s-4 11-2 16c1 6 4 11 7 15l7 3c2 1 3 2 5 2 2 1 4 1 6 1zm-383-44c-2-1-6-2-10-4s-7-6-11-9c-3-4-4-7-4-9 0-9 10-20 29-33 5-4 11-8 16-9 7-1 12-2 17-1 4 0 7 2 10 7 1 2 2 5 2 10v12c0 3-1 5-2 6-3-1-4-3-4-5 0-6-1-10-5-14-3-4-7-6-10-6-2 0-9 3-20 10-11 8-16 14-18 22-1 7 4 12 13 17l8 6zm106-6c2-3 5-4 7-6l4-4c1-1 1-3 1-4 0-12-9-21-27-29-9-5-16-6-21 0-5 4-7 8-7 14 0 1-1 2-3 4-2-4-3-9-3-14 0-6 2-10 5-13 9-11 23-10 43 3 0 1 1 2 4 4 4 3 5 4 6 4 0 1 1 2 4 4l4 3 3 3c6 8 8 15 3 22-3 6-10 11-20 13l-14 2zm224 6c-4-1-10-3-17-8-5-5-8-9-8-14 0-9 8-20 27-33 8-7 17-10 26-10 9-1 15 1 17 7l2 5 2 8c1 2 1 4 0 7 0 2-2 3-2 5-1 1-1 2-1 3-2-1-3-3-4-5 0-6-2-10-5-14s-6-6-9-6-9 3-20 10c-11 8-18 14-19 22-1 7 2 12 11 17l10 6zm106-6c6-6 10-10 11-14 0-3-1-6-2-9-1-2-3-5-5-7-3-2-6-6-10-8-3-2-6-4-10-5-8-5-15-6-19 0-6 4-8 8-8 14 0 2 0 4-1 5 0 1-1 1-4-1-2-4-2-9-2-14 1-6 2-10 6-13 9-11 23-10 43 3 0 0 2 2 5 6l6 4 9 8c5 8 7 15 4 22-3 6-10 11-22 13l-12 2z"/>
<path d="m303 429c18 0 33-2 46-7 18-6 36-16 51-33 16-15 28-33 36-51 4-12 6-28 7-48 0-20-2-35-7-47-9-30-27-53-52-71-11-8-17-11-17-12s1-2 3-3c1-2 3-3 6-5 2-2 5-4 8-6 25-17 43-40 52-69 5-13 7-30 7-49-1-20-3-36-7-49-8-18-19-34-35-50-14-14-30-25-49-32-25-9-52-12-80-6-17 4-36 12-52 24-18 12-31 27-40 43-19 32-24 66-16 103 8 36 27 65 57 85 4 3 7 6 11 8 4 3 5 5 5 5 0 1-1 2-5 4l-12 9c-25 18-42 41-52 71-2 4-5 11-6 19 0 9-1 18-1 26 0 9 1 16 1 25 1 9 4 16 6 21 14 41 42 70 84 87 13 5 29 7 51 7zm329-1c19 0 34-1 45-6 20-6 38-16 53-32 15-15 28-33 34-52 6-12 8-28 8-48s-2-35-7-47c-10-30-27-53-52-71-12-8-17-11-17-12s0-2 1-2c1-1 2-3 4-4 1-1 4-3 5-4 2-2 5-3 7-4 25-17 42-40 52-69 5-13 7-30 7-49 0-20-2-36-8-49-4-12-10-23-19-34-8-10-18-20-29-28-10-9-22-15-34-20-27-9-53-12-80-6-12 2-24 6-36 13s-23 14-33 24-18 20-26 30c-17 32-23 66-14 103 8 36 26 65 56 85 12 7 18 12 18 13s-6 5-18 13c-24 18-42 41-52 71-3 6-5 16-6 27-1 12-1 23 0 35 1 13 3 21 6 29 6 19 17 36 32 52 16 15 32 26 52 35 6 2 13 5 23 6 9 1 18 1 28 1zm-330-26c-17-1-34-4-47-8-24-13-42-29-55-52-6-11-9-19-10-23-1-6-1-16-1-31 0-21 3-39 11-53 12-22 28-39 48-50 16-6 32-11 51-11 18-1 35 2 52 10 25 11 44 30 56 56 7 12 9 29 9 48 0 20-2 35-9 47-6 12-12 23-23 33-10 10-21 18-33 23-13 8-30 11-49 11zm330 0c-9 0-16 0-21-1-4 0-9-1-13-3-5-1-9-3-13-4-26-13-43-29-56-52-4-8-7-13-8-18-2-3-3-8-4-12v-24c0-21 4-39 12-53 13-22 28-39 48-50 15-6 32-11 51-11 18-1 36 2 50 10 27 11 47 30 59 56 2 0 4 5 5 15l2 13v20c0 20-2 35-7 47-12 26-31 44-58 56-13 8-28 11-47 11zm-332-8c18 1 34-3 49-10 15-8 28-19 38-32 10-15 17-30 20-48 7-36-4-67-31-93s-58-36-94-28c-32 7-56 24-72 52s-19 58-7 91c1 7 6 15 12 23 7 9 15 17 23 24 9 6 18 11 26 14 11 4 23 7 36 7zm329 0c26 1 49-8 70-25 21-16 33-38 38-65 5-36-6-67-32-93-27-26-58-36-93-28-11 1-21 6-30 10-10 5-18 11-25 19-8 6-13 14-18 23-4 9-9 19-11 27-2 10-3 20-3 31 1 11 2 22 5 33 4 7 8 15 15 23 6 9 14 17 23 24 9 6 17 11 24 14 12 4 24 7 37 7zm-329-15c-18 0-29-4-35-13-6-8-5-18 4-28 2-2 5-3 6-4 2-1 3-2 4-2 1-1 2-1 2-1 1 1 0 3-2 5-1 1-2 4-2 6-1 3-1 5-1 7 0 4 0 6 1 7 0 2 1 5 2 7 2 2 11 3 23 3 13 0 21-2 26-8 4-4 4-10 1-16l-2-10c2 0 6 3 9 9 5 5 7 11 7 15 0 3-1 7-2 9-2 2-5 4-7 7-3 2-7 4-12 4-4 1-10 2-15 3zm330 0c-10-1-19-3-28-5-16-10-16-21-3-36 6-6 10-8 11-7s0 2-2 5c-3 2-4 7-4 13s1 10 5 14c1 1 3 2 7 2 6 1 10 1 16 1 11 0 20-2 25-7 5-4 5-11 0-17l-1-10c2 0 5 1 7 4 2 2 4 6 6 10 3 3 4 8 4 10 0 13-14 21-39 23zm-385-30c-3 0-6-1-8-2s-3-2-5-3c-2-2-5-4-7-8-2-2-3-6-5-10s-4-8-5-14c-3-10-4-19-2-25 1-7 4-11 11-15 4-2 9-2 15-1 7 1 11 4 14 8l-11 1c-20-1-24 13-10 42 3 9 9 13 15 13 7 0 12-2 14-8l4-3c2-1 3-1 3 2s-1 7-3 10c-4 4-6 7-10 9-3 2-7 3-10 3zm328 0c-12 0-22-13-28-37-8-20-5-33 9-40 4-2 8-2 15-1s11 4 13 8l-10 1c-11 0-16 3-18 11-3 7 0 18 5 31 6 9 11 13 18 13 6 0 12-2 15-8 5-4 6-5 6-1 0 5-2 10-8 16-7 4-11 6-17 6zm-213-1c-6 0-13-2-17-8-5-6-8-11-8-14 1-3 4-3 8 1 8 9 17 10 24 4 8-8 12-19 12-34 0-7-1-11-3-14-1-2-6-3-15-3-14 1-15-1-1-8 13-4 23-2 28 7 4 4 6 10 6 15 0 3-1 8-4 16-2 6-4 13-7 20-4 5-6 10-8 13-4 4-9 5-15 5zm329 0c-6 0-12-2-16-8-6-6-8-11-8-14s2-3 8 1c7 9 16 10 24 4 8-8 12-19 12-34 0-7-1-11-3-14-4-2-8-3-15-3-14 1-15-1-2-8 12-4 22-2 29 7 1 2 2 4 3 8 1 2 2 5 2 7 0 3-1 5-1 7-1 2-1 5-2 9-1 2-2 5-4 9-1 4-3 7-5 11-1 2-2 5-3 7-1 3-2 5-3 6-5 3-9 5-16 5zm-387-25c-4 0-9-1-13-3-3-2-7-5-10-8-11-11-14-23-9-37 6-14 17-20 32-20 6 0 10 0 13 2 4 1 7 4 12 8 11 12 13 25 6 38-6 13-18 20-31 20zm330 0c-4 0-9-1-13-3s-8-5-12-8c-11-11-14-23-7-37 5-14 16-20 32-20 9 0 16 3 24 10 10 12 12 25 6 38-7 13-17 20-30 20zm-329-11c7-1 14-3 18-9 10-11 9-22-1-32-11-11-22-12-33-3-7 7-10 12-10 19-1 6 1 13 7 17 4 6 11 8 19 8zm329 0c7-1 13-3 20-9 9-11 7-22-4-32-9-11-20-12-32-3-6 7-9 12-9 19-2 6 1 13 5 17 4 6 11 8 20 8zm-54-44c-6 0-11-2-17-6-5-4-7-8-7-14 0-8 6-18 18-29 14-11 25-16 33-16 7 0 14 2 17 5 2 3 4 6 4 10 2 5 3 9 2 14 0 4-2 6-3 7-2-1-3-3-4-6 0-10-5-16-12-16-9-1-18 4-28 11-8 9-12 15-13 19 0 5 3 10 10 13l11 8zm-330 0c-6 0-12-2-16-6-6-4-8-8-8-14 0-8 7-18 20-29s24-16 32-16c6 0 13 1 16 5 4 4 6 9 7 17s0 12-3 14c-1-1-3-3-4-6 0-10-4-16-13-16-8-1-18 4-27 11-9 9-13 15-14 19 0 5 4 10 10 13l12 8zm107-8c13-6 13-16 0-30-9-9-17-14-25-14s-13 5-16 14c0 0-1 2-2 3-2 4-3 5-4 4-1 0-1-4-1-12 0-4 1-9 3-13 2-5 5-7 10-8 4-1 9-1 14 1 6 1 12 4 18 8 9 6 15 13 20 20 5 6 7 11 7 15 0 6-2 10-7 14s-10 6-17 6h-11zm330 0c13-6 13-16 0-30-5-4-9-7-13-9-5-4-9-5-13-5-3 0-6 1-9 5-4 2-5 5-6 9l-2 3c-2 4-3 5-6 4-1 0-2-4-2-12 0-11 6-18 14-20 10-3 21 0 34 8 18 13 27 25 27 35 0 2 0 4-2 7-1 3-3 5-6 6-2 1-4 4-7 5s-6 2-9 2h-11zm-383-116c-12 0-20-1-26-2-7-2-13-4-21-6-24-13-42-29-55-53-8-14-11-32-11-53s3-39 11-53c12-22 28-39 48-50 34-16 67-17 103-1 25 11 44 30 56 56 7 12 9 29 9 48 0 20-2 35-9 47-12 26-31 44-56 56-13 8-30 11-49 11zm330 0c-20 0-35-3-47-8-8-4-14-7-19-10-6-5-10-8-13-12-5-5-9-9-13-14s-7-11-11-17c-8-14-12-32-12-53s4-39 12-53c13-22 28-39 48-50 33-16 67-17 102-1 27 11 46 30 58 56 5 12 7 29 7 48 0 20-2 35-7 47-12 26-31 44-58 56-13 8-28 11-47 11zm-332-8c18 1 34-3 49-10 15-8 28-19 38-32 10-15 17-30 20-48 7-36-4-67-31-93s-58-36-94-28c-32 7-56 24-72 52-16 29-19 58-7 91 1 7 6 15 12 24 7 8 15 16 23 23 9 6 18 11 26 14 11 4 23 7 36 7zm329 0c26 1 49-8 70-25 21-16 33-38 38-65 5-36-6-67-32-93-27-26-58-36-93-28-33 7-57 24-73 52-15 29-18 58-9 91 4 7 8 15 15 24 6 8 14 16 23 23 9 6 17 11 24 14 12 4 24 7 37 7zm-329-15c-18 0-29-4-35-13-6-8-5-18 4-28 2-2 5-3 6-4 2-1 3-2 4-2 1-1 1-1 2-1v2c-1 1-1 3-2 4-2 1-3 6-3 13 0 5 1 9 3 13 1 1 3 2 8 2 5 1 10 1 15 1 13 0 21-2 26-7 4-5 4-9 1-16l-2-11c2 0 6 3 9 9 5 5 7 11 7 15 0 7-3 12-9 16s-15 6-27 7zm330 0c-10 0-19-2-28-5-16-10-16-21-3-36 6-6 10-8 11-7s0 2-2 5c-3 2-4 7-4 14 0 5 1 9 5 12 3 3 11 4 23 4 13 0 21-2 25-7 5-5 5-11 1-17-3-7-4-10-2-10s7 3 10 9c5 5 7 11 7 15 0 13-14 21-39 23zm-385-29c-3 0-6-2-9-4-3-1-5-3-9-6-2-4-4-7-6-10-3-5-5-10-6-18-6-20-3-33 9-40 4-2 9-2 15-1 7 1 11 4 14 8l-11 1c-20-1-24 13-10 42 3 9 9 13 15 13 7 0 12-2 14-8l4-3c2-1 3-1 3 2 0 5-2 10-8 16-4 4-10 8-15 8zm115 0c-6-3-11-5-17-10-5-6-8-11-8-14 1-3 4-3 8 1 8 9 17 10 24 4 8-8 12-19 12-34 0-7-1-11-3-14-1-2-6-3-14-3-15 1-16-1-2-8 13-4 23-3 28 7l6 15c0 5-2 14-8 26-4 11-8 18-11 23-4 4-9 7-15 7zm213 0c-12-2-22-14-28-38-3-10-5-19-3-25 1-7 5-11 12-15 4-2 10-2 16-1 7 1 10 4 12 8l-10 1c-11 0-16 3-18 11-3 7 0 18 6 31 2 5 6 10 7 11 2 1 5 2 10 2 6 0 12-2 15-8l2-3c3-1 4-1 4 2 0 5-2 10-8 16-7 4-11 8-17 8zm116 0c-3 0-5-2-9-4-3-1-5-3-7-6-6-6-8-11-8-14s2-3 8 1c7 9 16 10 24 4 9-8 12-19 12-34 0-7-1-11-3-14-4-2-8-3-15-3-14 1-15-1-2-8 12-4 22-2 30 7l2 4 1 6c0 2 1 4 1 5 0 5-2 14-7 26-5 11-8 18-11 23-3 2-5 3-7 4-3 1-5 3-9 3zm-59-27c-1 0-2 0-5-1l-6-2-6-4c-2-1-4-2-6-4-6-8-9-17-10-25 0-8 3-16 10-22 6-7 14-10 25-10 9 0 16 3 24 10 10 12 12 25 6 38-7 13-17 20-30 20 0 0-1 1-2 0zm-328 0c-3 0-6-1-9-1-2-1-5-3-7-4-2-2-5-4-7-6-11-11-14-23-9-37 6-14 17-20 32-20 10 0 18 3 25 10 11 12 13 25 6 38-6 13-18 20-31 20zm1-11c7-1 14-3 18-9 10-11 9-22-1-32-11-11-22-12-33-1-10 7-12 16-9 27 3 10 12 15 25 15zm329 0c4 0 9 0 12-2 2-1 6-3 8-7 9-11 7-22-4-32-9-11-20-12-32-1-9 7-12 16-8 27 3 10 11 15 24 15zm-384-44c-6 0-12-2-16-6-6-4-8-8-8-14 0-8 7-18 20-27 13-12 24-17 32-17 6 0 13 1 16 4 4 4 6 9 7 17s0 12-3 14c-1-1-3-3-4-6 0-5-1-9-3-11-3-3-5-5-10-5-3-1-8 0-12 2-6 3-11 5-15 9-16 13-17 24-4 32l12 8zm107-8c13-6 13-16 0-28-9-9-17-15-25-15-8-1-13 4-16 13l-2 3c-2 5-3 7-4 5-1-1-1-5-1-13 0-11 4-18 13-20 9-3 20 0 32 8 19 13 27 25 27 35 0 6-2 10-7 14s-10 6-17 6h-11zm223 8c-6 0-12-2-17-6s-7-8-7-14c0-4 2-9 5-13 3-6 8-10 13-14 6-6 13-9 18-13 7-3 11-4 15-4 7 0 14 1 17 4 3 4 6 9 6 17 1 8 0 12-3 14-2-1-3-3-4-6 0-10-5-16-12-16-9-1-18 4-28 11-8 9-12 15-13 19 0 5 3 10 10 13l11 8zm107-8c3-2 5-3 8-5 2-3 3-5 3-8 0-2-1-4-3-8-3-2-5-4-8-7-6-7-12-11-18-14-5-2-11-2-15-1-5 2-7 7-8 13-1 0-2 2-2 3-2 5-3 7-6 5-1-1-2-5-2-13 0-11 6-18 14-20 10-3 21 0 34 8 18 13 27 25 27 35 0 3-1 7-3 9-4 3-6 7-10 8-3 2-7 3-11 3h-11z" fill="#e5007f"/>
<path d="m0 933c0 55 35 84 85 84h765c55 0 84-34 84-84v-1135c0-55-34-85-84-85h-766c-55 0-84 34-84 84zm48-1136c0-20 6-36 36-36h767c20 0 35 7 35 37v1135c0 20-6 36-36 36h-765c-20 0-37-6-37-36v-1125z"/>
</g>
</svg>
