<?xml version="1.0" encoding="UTF-8"?>
<svg width="24" height="32" version="1.1" viewBox="4 0 64 100" xmlns="http://www.w3.org/2000/svg">
<g transform="matrix(.076687 0 0 -.076687 0 77.991)">
<path d="m48-203v1136c0 30 17 36 37 36h765c30 0 36-16 36-36v-1135c0-30-15-37-35-37h-767c-30 0-36 16-36 36z" fill="#fff"/>
<path d="m0 933c0 55 35 84 85 84h765c55 0 84-34 84-84v-1135c0-55-34-85-84-85h-766c-55 0-84 34-84 84zm48-1136c0-20 6-36 36-36h767c20 0 35 7 35 37v1135c0 20-6 36-36 36h-765c-20 0-37-6-37-36zm660 1099c38 0 63-3 74-8 10-5 15-16 15-34 0-13-9-25-27-41-1-4-2-5-3-5l-1 4s0-4-2-15v-94l11-14c9-8 12-17 12-33 0-12-4-22-12-32l-11-15v-52c0-28 2-46 3-51 1-7 7-14 20-26 8-5 11-11 11-19 0-3 2-14-11-29-9-9-14-10-29-10-12 0-26-1-41-2h-17c-23 0-62-1-76 15-11 13-12 35 2 45 6 10 10 14 13 14l1-2c3 0 5 5 7 16 1 10 2 14 2 14v87l-12 15c-9 12-11 15-11 32 0 13 3 24 11 33l12 13v53c0 36-1 55-4 58-19 16-29 28-29 41 0 19 5 33 25 38 16 5 31 4 67 4zm-479 0c81 0 91-6 91-42 0-13-9-25-26-41 0 2-1 5-1 5-2 0-3-13-4-13l-1 2s-1-6-1-14c-1-9-1-15-1-15v-76l12-13c17-17 15-46 0-65l-12-15v-52c0-28 1-46 3-51 2-7 9-14 21-26 6-5 11-12 11-22 0 0 3-32-39-37-13 0-27 0-44-1h-35c-6 0-12 0-17 1-20 1-32 6-36 14-16 13-16 35 0 45 14 15 16 11 20 24 3 7 4 12 4 16 0 1-1-1-1 37v52l-13 15c-10 12-11 15-11 32 0 13 2 24 11 33l13 13v53c0 36-3 55-6 58-19 16-29 28-29 41 0 18 6 29 17 34s36 8 74 8zm238 0c65 0 80-4 89-24 5-10 5-28-3-36-5-4-13-13-23-23-4-3-6-22-6-58v-53l13-13c10-10 11-15 11-33 0-17-3-20-11-32l-13-15v-62c0-23 1-36 3-41 2-7 7-13 17-21l4-5c14-10 14-32-3-48-6-5-14-9-27-10-12 0-26-1-42-2h-16c-23 0-63-1-76 15-5 7-9 13-9 22 0 1-2 13 10 23 13 12 21 19 22 26 1 5 2 23 2 51v52l-12 15c-10 12-13 15-13 32 0 13 4 24 13 33l12 13v53c0 36-2 55-6 58-18 16-27 28-27 41 0 27 8 33 31 38 12 3 32 4 60 4zm-248-112c-1-11-2-21-2-31 0-8 2-31 2-35 2-3 5-4 10-4l11 2v130h-21zm235-44c0-26 1-24 6-25 3-1 5-1 8-1l10 2v130h-24zm241 44v-44c0-26 0-24 4-25 2-1 6-1 9-1l10 2v130h-22zm-474-152h8c11 4 11 3 11 25v15c0 10-2 9-11 12h-8zm236 0h11c9 4 10 3 10 26s-1 24-10 26h-11zm240 0h11c11 4 10 3 10 26s1 24-10 26h-11zm-478-92c-1-21-1-36-1-47 0-10 0-18 1-19 2-2 5-3 10-4l11 1v130h-21zm235-66c3-4 9-4 14-4l10 1v130h-24zm241 66c0-41 0-62 1-66 1-3 4-4 12-4l10 1v130h-22zm-466-237c41 0 66-2 77-7 9-5 14-16 14-33 0-12-9-24-26-39-6-4-8-23-8-59v-54l12-14c17-17 17-47 0-64l-12-14v-54c0-29 1-47 3-52 2-7 10-12 21-22 7-7 11-14 11-23 0-24-16-39-39-39h-44c-12-4-38 0-52 0-20 1-32 5-36 14-10 8-12 18-12 24s2 13 12 24c11 9 18 15 20 22 2 5 3 23 3 52v54l-13 14c-15 17-15 47 0 64l13 14v54c0 36-2 56-6 59-18 16-29 27-29 39 0 17 6 28 17 33s36 7 74 7zm238 0c40 0 65-2 75-7 11-5 16-16 16-33 0-15-6-22-28-39-4-4-6-23-6-59v-54l13-14c9-10 11-15 11-33 0-12-4-24-11-31l-13-14v-54c0-29 1-47 2-52 1-7 8-13 22-22 14-14 15-36-3-51l-4-6c-3-5-14-5-23-5h-42c-8-1-16-1-25-1-19 0-54 0-67 15-8 8-8 18-8 23 0 7 2 14 11 25 12 9 19 15 20 22 1 5 2 23 2 52v54l-12 14c-17 17-17 47 0 64l12 14v54c0 36-2 55-6 59-18 15-27 27-27 39 0 17 5 28 16 33 10 5 35 7 75 7zm241 0c38 0 63-2 74-7 10-5 15-16 15-33 0-12-10-23-27-39-4-3-6-23-6-59v-54l11-14c11-11 12-15 12-33 0-12-3-24-12-31l-11-14v-54c0-29 2-47 3-52 1-7 7-13 20-22 9-11 11-20 11-25 0-6-2-16-11-26-8-8-17-11-29-11h-41c-8-1-16-1-22-1-20 0-57 1-71 15-7 8-9 18-9 24s1 13 11 24c1 0 3 0 4 1 9 8 16 14 17 21 1 5 2 18 2 42v64l-12 14c-14 17-14 47 0 64l12 14v54c0 36 0 56-4 59-18 16-29 27-29 39 0 18 1 28 17 34 14 6 29 6 75 6zm-489-111c-1-20-1-36-1-46 0-11 0-17 1-18 2-5 6-6 7-6s2 1 3 2h11v130h-21zm235-64c2-3 7-4 14-4h10v130h-24zm241 64c0-40 0-61 1-64 0-4 2-5 5-5 1 0 5 0 7 1h10v130h-22zm-474-152 8 2c11 0 11 1 11 25 0 22 0 21-11 25l-8 2zm236 0 11 2h4c0-2 1-2 1-2 3 0 5 14 5 14v13c0 15-3 24-10 25l-11 2zm240 0 11 2c11 0 10 1 10 25 0 22 1 21-10 25l-11 2zm-478-92c-1-21-1-35-1-47 0-11 0-18 1-20 2-1 6-3 8-3h13v131h-21zm235-67c3-1 7-3 11-3h13v131h-24zm241 67c0-41 0-62 1-66 1-3 3-4 9-4h13v131h-22z"/>
</g>
</svg>
