<?xml version="1.0" encoding="UTF-8"?>
<svg width="24" height="32" version="1.1" viewBox="4 0 64 100" xmlns="http://www.w3.org/2000/svg">
<g transform="matrix(.076687 0 0 -.076687 0 77.991)">
<path d="m48-203v1136c0 30 17 36 37 36h765c30 0 36-16 36-36v-1135c0-30-15-37-35-37h-767c-30 0-36 16-36 36z" fill="#fff"/>
<path d="m0 933c0 55 35 84 85 84h765c55 0 84-34 84-84v-1135c0-55-34-85-84-85h-766c-55 0-84 34-84 84zm48-1136c0-20 6-36 36-36h767c20 0 35 7 35 37v1135c0 20-6 36-36 36h-765c-20 0-37-6-37-36zm447 815c-1-4-1-7-1-10 0-12 4-17 12-17 14 0 39 103 39 127 0 19 9 28 24 28 24 0 39-39 39-60 0-3 0-7-2-11-1-7-14-28-40-63-23-30-34-45-34-48s-1-5-1-5c0-5 8-19 23-40 7-12 20-24 21-24 12 0 36 38 36 49 0 4 9 19 12 19 1 0 4-2 4-2l7-6c9-8 16-19 19-31 0-24-14-32-34-41-24-14-21-15-21-20s2-9 15-24c32-48 67-90 113-126 19-13 58-67 66-71 14-14 36-52 36-71 0-4 0-16-7-16l-5 2c-7 1-13 7-22 11-13 8-30 17-49 26-32 16-62 33-90 51-13 9-25 31-37 68-1 2-19 44-19 47-6 10-19 30-37 61-17 29-27 44-28 44s-3-4-6-13c-9-22-18-53-27-77-9-25-16-41-17-47l-1-3c-4-3-5-6-5-8 0-3 5-4 8-4 9 0 36 7 53 19 10 5 19 8 27 8 11 0 26-13 26-24 0-10-11-18-33-24-18-5-21-5-21-16-1-3-1-7-1-12 0-12 4-39 9-42 17 0 52 8 67 16l7 4c5 6 10 2 22-3 5 0 25-10 32-17 12-6 15-7 15-20 0-3 0-5-1-7-3-5-30-9-82-10l-64-4-3-35c-1-24-2-39-4-44-9-41-117-95-152-95-6 0-12 1-12 8 0 3 0 5 1 7 2 2 5 6 9 10 4 3 11 9 20 15 31 17 41 31 56 54l6 9 11 27c5 13 10 32 10 34 0 6-12 9-36 9-37 0-37-2-37-7 0-27-32-99-45-125-14-23-23-36-30-38-8-3-12-4-15-4-11 0-22 4-36 14-15 8-66 49-66 67 0 2 0 2 1 3 0 0 1 1 2 1 2 0 8-1 16-5s17-9 21-9c5 0 13-1 22-4 5-1 9-1 12-1 21 0 53 73 53 90 0 5-2 7-5 7-5 0-64-34-84-47-21-17-51-32-72-33-17 0-20-1-35 12-9 8-14 16-17 24-4 9-6 18-6 23 0 4 1 7 3 9h1c2 0 11-2 28-7 17-4 29-6 36-6 2 0 5 0 8 1 4 1 20 7 49 20 20 11 48 23 56 25 32 12 49 22 52 28 1 3 2 6 2 10 0 7-3 14-10 22l-9 12-28-17c-20-10-33-17-38-21-7-10-30-21-41-23-8 0-14 1-14 10 0 3 1 6 3 10 13 16 59 52 114 83 22 12 22 13 22 25 0 10-3 14-10 14-22 0-34-6-54-27-24-29-55-56-92-83-25-19-74-43-84-43-9 0-14 2-14 6 0 6 11 17 34 33 67 44 128 107 175 172l5 10-40 38c-26 25-39 42-40 49 0 13 1 12 4 12 2 0 6 0 10-1h2c16 0 31-13 66-42 12-8 19-16 23-16 5 5 40 76 40 82 0 1 0 1-2 1-5 0-17-2-36-6-24-6-39-10-44-11h-8c-6 0-9 1-11 2-5 4-5 7-5 8 0 4 3 8 7 8 3 0 13 7 31 18 18 12 32 23 46 33 20 13 31 27 43 48 30 41 38 47 47 57 13 5 14 5 21 2 15-9 23-25 23-49 0-7-1-16-3-26zm-25-194c1 10 3 28 4 52 2 22 3 35 3 40s2 7 6 7c2 0 4-1 7-4l8-4c0 4-25 35-30 37-3-2-15-17-33-45-34-58-57-94-69-107-3-3-5-5-5-8v-1c0-1 1-2 2-2 3 0 9 3 18 9 13 9 25 13 35 13 9 0 17-3 24-10 1-1 8-12 8-12l2-2c0-8-19-25-30-29-12-3-20-7-20-20 0-5 3-9 19-9 9-1 19-3 19-4 3-1 4-2 5-2 4 0 7 4 9 13 2 8 5 22 9 42 4 15 6 38 9 46zm-36-154c0 1 0 2 1 4 7 6 7 17-1 20-2 0-5 0-10-1-9-1-19-3-32-9-13-5-20-9-20-11 0-3 16-20 28-36 11-29 15-26 30-26 6 0 14 0 22 1 24 0 38 5 39 6 1 2 2 6 2 15 0 5 0 12-1 21v32l-9 2c-8 0-16-5-26-15-13-16-14-15-15-15s-2 2-4 4c-3 2-4 4-4 8zm175-136c16-1 36-6 60-16 46-16 56-26 56-51 0-19-8-35-25-47-10-9-28-10-35-10-6 0-10 1-14 3-9 5-22 21-34 42-2 3-4 6-6 10l-14 22c-2 4-4 7-6 10-12 17-12 21-12 27v4c2 5 5 7 11 7h10c1 0 4 0 9-1z"/>
</g>
</svg>
