<?xml version="1.0" encoding="UTF-8"?>
<svg width="24" height="32" version="1.1" viewBox="4 0 64 100" xmlns="http://www.w3.org/2000/svg">
<g transform="matrix(.076687 0 0 -.076687 0 77.991)">
<path d="m48-203v1136c0 30 17 36 37 36h765c30 0 36-16 36-36v-1135c0-30-15-37-35-37h-767c-30 0-36 16-36 36z" fill="#fff"/>
<path d="m242 865c39 0 73-15 101-45 9-9 18-21 25-35 9-15 13-25 13-33l2-6 21 9c26 13 55 18 86 12 31-5 57-18 77-40 9-9 16-20 25-36 9-15 13-26 13-32 0-3 7-2 21 5 26 11 51 15 75 14 25-1 48-10 69-25 22-16 38-36 49-60 3-10 5-14 6-13s2-3 3-12l1-12v-19c0-22-3-41-10-56-8-20-20-37-35-50-14-13-31-22-51-29-12-4-27-5-45-5-17 0-32 1-45 5-2 2-7 3-10 5-4 1-8 3-12 4-3 2-6 5-8 6-10 5-19 13-26 23-9 10-17 20-23 31-6 10-10 20-13 30-1 5-2 8-3 9-1 0-4-1-10-4-8-5-19-10-33-13-13-3-26-5-40-5-28 0-54 7-77 20-14 9-26 22-38 39-12 16-19 32-22 46-3 10-7 13-14 8-13-9-32-16-56-18s-44-1-62 6c-34 11-59 32-77 61-17 30-23 63-17 97 7 36 24 64 50 85 27 22 57 33 90 33zm-3-27c-11 0-21-2-30-6-10-2-20-6-29-12-8-5-17-13-24-21-29-32-37-69-24-110 14-42 41-67 84-79 17-3 33-3 51 0 36 10 63 32 79 67 4 8 7 14 7 20 1 6 2 15 2 26 0 18-3 36-11 51-21 42-56 64-105 64zm9-8c43-4 73-25 92-64 11-26 12-53 1-79-10-28-28-48-53-60-8-4-18-7-28-8-10-2-21-3-30-2-12 2-20 4-28 7-25 10-44 28-56 52-7 15-10 31-10 47 0 11 0 20 2 26 1 5 4 13 10 23 19 38 50 58 91 58zm-6-19c-18 0-29-2-33-5-6-4-8-9-8-16 0-5 2-11 8-15 5-8 7-10 8-9s1 4-1 9c-7 14-2 23 14 25 15 4 27 3 35-3 9-5 10-13 3-24-3-3-4-6-3-7 1-2 4 0 11 9 9 11 9 21 0 31-6 3-17 5-34 5zm55-27c-7 1-12-3-17-12l-4-11c0-1 2 0 8 5 2 1 4 4 7 5 2 1 5 1 6 1 5-1 10-6 14-13 6-8 8-16 8-23 1-7 0-14-4-17s-8-5-15-3h-7c-6-2-4-4 7-8 11-5 20-2 27 4 3 5 5 11 5 22-2 15-7 27-13 37-7 8-13 13-22 13zm-113 0c-1 0-2 0-4-1h-3c-5-2-8-5-9-7-2-3-5-6-7-10s-4-10-5-17c-6-17-6-30 1-38 5-5 11-7 18-4 3 0 6 0 9 2 4 1 5 2 6 3 0 1-1 2-6 4-7-2-12 0-15 3-7 4-7 14-2 28 4 15 11 23 18 25 5 1 9-1 15-6 2-3 5-5 7-5 3 0 2 5-6 14-6 6-11 9-17 9zm57-25c-13-2-23-8-29-20-7-12-6-25 2-36 8-8 17-14 25-14 10-1 19 3 28 12 8 9 10 18 8 29-3 11-9 19-21 24l-4 2-4 1c-2 0-3 2-5 2zm0-10c5 0 9-2 13-4s7-5 10-10c5-11 4-21-4-28-2-4-4-6-8-7s-7-2-10-2-6 0-9 1-6 2-9 5c-2 2-3 4-4 5-2 2-3 4-3 7-1 2-1 4-1 7 0 8 2 15 8 19 4 4 11 7 17 7zm222-6c-32 0-60-13-84-39-29-31-37-69-24-111s41-67 84-77c8-2 14-3 19-4h13c4 1 10 2 19 4 12 2 23 8 33 13 10 7 20 13 27 22 8 9 15 19 20 31 7 13 9 28 9 46 0 13 0 21-2 27-1 5-5 13-8 24-22 42-57 64-106 64zm0-8c4 0 6-1 8-2 14 0 28-3 39-9 12-4 22-12 32-21 8-10 15-19 20-32 13-25 14-51 4-79s-29-47-55-59c-7-5-17-7-27-9-11-1-21-3-32-1-10 0-19 2-25 5-26 11-44 29-56 53-4 7-6 11-8 17-1 4-2 8-2 13-1 4-1 11-1 17 0 11 0 20 1 26 1 5 4 13 10 22 4 9 11 17 17 25 7 8 13 13 21 18s17 9 26 12c8 3 18 4 28 4zm2-18c-17 0-28-3-34-8-9-8-9-18 0-30 7-8 10-10 11-8s0 4-3 9c-7 15-2 23 15 27 15 2 26 1 33-6 9-5 10-13 4-22-2-4-4-6-4-8 3-2 6 0 12 8 9 12 9 22 0 30-5 5-16 8-34 8zm-177-13c-2 0-1-1 3-4 4-4 7-7 9-7 1 0 2 0 3-2 1-1 1-3 1-4 0-2 0-6-1-8 0-3-1-5-2-8-3-5-9-9-16-14s-14-8-19-8c-2 0-6 1-7 4-2 2-4 4-5 7-2 4-2 7-2 11 0 5-2 6-4 3-7-11-5-21 5-30 4-6 10-8 16-7 7 1 15 6 24 12 11 8 18 15 22 22 5 8 5 15 2 20-5 7-11 10-21 12-5 1-7 1-8 1zm-92-1h-4-8c-7-2-13-5-16-11-11-16 1-33 34-50 12-6 22-6 30 2 2 3 4 9 5 16 1 8 0 14-3 16 0 0-1 0-2-1v-4c0-7-2-13-5-16s-7-5-13-5c-4 2-11 4-18 9-11 7-17 15-18 21-1 8 3 13 12 17 8 4 9 6 6 6zm326-14c-4 0-7 0-10-2-2-2-6-6-7-10-3-6-5-10-5-12 0-1 3 1 7 4 6 6 10 8 15 8 4-1 10-6 14-12 4-8 7-16 8-23 0-8-1-14-6-18l-15-3h-5c-6-1-5-4 7-8 10-4 19-3 25 3s7 12 7 23c-2 15-7 26-14 36s-15 14-21 14zm-114 0c-2 0-4-1-9-2-7-5-14-16-20-33-6-18-5-31 2-38 3-3 6-5 8-5 3 0 6 0 10 1 7 1 12 2 16 5 0 2-2 3-7 4-7-1-12 0-16 3-5 3-6 13-2 28 6 15 11 23 20 25h4c2-1 3-2 4-3 2 0 3-3 6-5s5-2 6-2c3 0 2 3-4 12l-6 6c-2 1-3 2-5 3s-5 1-7 1zm57-27c-13 0-23-6-29-18s-5-24 3-35c7-9 15-15 25-15 10-1 18 4 26 11 7 10 11 19 9 30-3 10-9 18-20 24-3 1-5 1-7 3h-7zm2-7c8 0 16-6 20-16 7-11 6-20-2-27-3-3-6-6-10-7-3-2-5-3-8-3-4 0-7 1-9 2-4 1-7 2-10 5-5 5-8 12-8 19 0 8 3 15 8 19 0 0 1 1 4 2l5 3 4 2c1 0 3 1 6 1zm221-3c-31 0-57-11-78-32-21-22-33-49-35-82-3-26 5-50 23-72 17-21 38-35 65-42 6-1 11-2 15-3h10 11c3 1 9 2 14 3 37 9 64 31 82 67 2 7 4 14 7 19 1 7 2 16 2 27l-2 19-3 14c-1 4-4 10-7 18-22 42-56 64-104 64zm-10-9c4 0 7 0 10-1h7c11 0 21-1 30-5 8-4 17-9 25-13 9-5 15-12 22-19 5-7 11-16 15-25 12-25 14-52 3-79-10-28-29-48-56-60-7-4-16-7-26-9-11-1-21-2-31-1-10 0-19 2-26 6-14 5-25 13-33 22-9 7-17 18-24 31-4 8-7 16-9 22-2 5-3 14-3 25 0 8 1 14 1 19 2 3 4 7 5 12 1 4 3 10 6 16 7 12 15 23 25 32 9 9 20 16 32 21 8 4 17 5 27 6zm11-18c-16-1-27-3-33-8-10-7-10-17 0-29 6-8 9-10 10-8 1 1 0 3-3 9-7 14-2 23 14 26 16 2 27 1 35-5s9-14 4-22c-4-5-5-7-4-8 1-2 5 0 10 8 10 12 10 22 0 29-4 6-15 8-33 8zm-273-16c-2 0-5 0-8-2-7-1-12-4-16-9-6-8-5-17 2-26 6-10 17-17 33-24 12-8 22-7 29 1 2 2 3 6 4 10s2 9 2 13c0 6-1 8-3 9-1 0-2 0-2-1-1-1-1-3-1-4 0-12-4-17-10-19-7-2-15 0-26 7s-16 15-17 21c-2 8 2 14 10 17l5 3c3 2 3 4-2 4zm95 0c-1 0 0-2 3-5 4-3 8-4 10-4 1 0 2-1 3-5 1-2 1-5 1-8 0-4-2-7-4-10-2-6-8-10-16-15-7-4-13-6-17-6s-6 0-8 2-3 4-5 8c-2 3-3 6-3 11s-1 5-3 3c-7-11-5-22 3-32 10-9 24-6 43 8 10 6 18 14 21 22 5 7 5 14 1 20-3 5-10 8-21 11zm234-11c-5 0-11-4-16-13-4-5-6-9-4-12 0-1 2 1 7 5 2 2 5 4 7 5 2 2 4 2 6 2 9-2 15-9 20-25 5-14 4-24-3-27 0-2-2-3-3-3-1-1-4-1-6-2-2 0-4 0-5 1h-5c-7-1-5-3 6-8 10-4 19-3 26 4 5 5 7 12 5 23-3 14-7 25-14 35-6 10-13 15-21 15zm-112 0c-3 0-7-2-10-4-4-1-9-4-12-10-2-4-6-11-9-22-5-17-4-31 3-37 5-6 11-7 18-6s11 4 14 7c2 1-1 2-6 3-1-1-3-1-6-1-2 1-4 1-5 2-1 0-4 1-4 3-6 3-6 13-2 27 6 16 11 23 19 25 2 0 4 0 7-2 2-1 4-3 6-5 5-2 7-2 8-2 4 0 2 3-4 12-6 6-11 10-17 10zm56-28c-7 0-15-2-22-9-6-5-10-13-11-21-1-9 1-16 8-23 3-7 9-10 14-13 7-2 12-2 19 0 5 1 12 5 16 10 9 10 12 19 9 30-1 9-7 17-20 24 0 1-2 1-4 2h-5zm0-8c10 0 18-4 23-14 5-12 4-21-4-28-12-12-23-13-35-3-6 4-8 11-8 20 0 2 0 4 1 7 0 2 1 5 2 6 1 2 3 5 4 6 1 2 3 3 5 4s5 1 6 2h6zm-48-45c-2 0-6 0-10-1-1 0-5-1-8-3-3-3-7-5-7-7-11-15 2-33 35-50 6-4 12-6 15-5 5 0 9 2 12 7 5 3 7 8 8 16 1 9 0 13-3 16 0 0-1 0-3-2-1-1-2-3-2-4 0-11-2-17-9-19-6-2-14 0-24 8-11 7-17 14-19 21-2 8 3 13 11 16l5 3c4 3 3 4-1 4zm97-4c5-4 9-5 10-5 2 0 4-3 4-9 1-5 0-9-3-14-4-5-9-10-17-14-6-5-13-7-19-7-8 0-13 7-13 21l-2 5c0 1 0 0-1-2-8-12-7-22 3-32 2-3 7-5 10-5 5-1 9 0 15 2 4 2 11 6 16 11 18 11 27 22 27 32 0 11-8 18-24 21h-8z"/>
<path d="m297 394c48 0 86-19 114-57 8-10 14-18 17-27 4-10 7-20 9-30 1-11 2-22 1-34s-2-22-3-30c-2-7-4-14-8-21-5-10-12-22-24-35-11-13-22-23-31-29l-12-8 13-7c46-31 67-73 65-128-1-21-6-39-13-54-7-16-17-30-31-43-13-13-28-22-42-27-7-3-17-6-28-7-11-3-22-4-32-4s-18 1-27 4c-24 5-45 17-63 34-30 29-45 64-45 105 0 25 5 47 16 68 11 20 28 37 49 52l12 7-10 8c-8 4-17 12-29 24-11 13-18 23-22 29-13 24-18 51-16 78 2 29 11 53 27 75 15 18 31 32 51 42 20 9 41 15 62 15zm329 0c48 0 85-19 115-57 19-25 28-56 27-91-2-9-3-16-3-21-1-6-2-11-3-16-2-4-3-8-6-14-5-10-13-22-24-35s-22-23-32-29l-11-8 12-7c47-31 69-73 67-128-2-21-6-39-13-54-4-7-10-14-15-22-6-8-11-15-18-21-5-6-12-11-20-17-7-4-15-9-22-10-11-5-26-8-44-10-17-2-32-1-42 3-12 2-23 6-34 12-11 5-21 13-30 22-15 15-26 32-34 47-7 17-11 36-11 58 0 50 23 90 66 120l13 7-10 8c-9 4-18 12-30 24-11 13-19 23-22 29-12 24-18 51-16 78 3 29 11 53 26 75 11 12 22 22 34 31s25 16 39 19c14 4 27 7 41 7zm-329-27c-16 0-32-3-49-12-44-21-66-55-66-100 0-31 10-57 30-79 8-8 16-16 25-22 10-5 19-10 28-13 10-2 21-3 36-2 14 1 27 2 38 5l7 5c3 1 6 3 10 5 4 1 7 4 10 6 2 2 6 4 7 6 31 28 44 62 38 102-5 40-26 69-64 87-15 9-32 12-50 12zm329 0c-17 0-35-3-50-12-42-21-64-55-64-100-1-31 9-57 30-79 7-8 16-16 25-22 8-5 18-10 27-13 9-2 20-3 36-2 15 1 27 2 36 5 6 3 11 6 19 9 6 5 12 9 16 13 32 28 44 62 39 102-6 40-27 69-63 87-15 9-32 12-51 12zm-329-10c12 0 23-1 32-3s16-6 23-10c8-4 15-11 23-19 6-5 9-11 13-17 4-7 7-14 9-20 2-7 4-13 6-20 1-7 1-14 1-21-1-8-3-14-4-21-2-7-4-13-6-20-4-6-8-13-12-19-5-6-10-12-17-16-7-6-14-10-22-13-7-4-15-7-24-9-8-1-17-2-24-2-8 0-16 1-24 2-19 5-36 15-49 30-15 14-23 29-28 47-4 17-4 35 0 54 5 19 15 34 30 47 19 20 43 30 73 30zm329 0c19 0 33-2 45-8 9-4 20-12 31-25 10-9 17-19 23-31 4-11 7-23 8-35 0-12-1-25-5-37-3-13-9-24-18-34-3-5-8-9-12-13-3-3-8-6-13-10-6-3-11-5-17-7-5-4-11-6-16-7-6-1-11-2-18-3h-18c-5 0-11 1-15 2-26 8-47 22-62 43s-21 45-20 70c3 26 14 48 32 65 21 20 46 30 75 30zm0-15c-16 0-28-4-33-10-6-5-8-9-8-12 1-4 3-9 8-16 5-6 9-10 11-9 0 0 0 4-3 8-10 19-1 28 25 28 20 0 30-6 30-17 0-6-2-10-4-12-2-1-4-3-4-7 2-1 3 0 5 3 11 7 16 15 16 22l-8 12c-3 3-5 5-8 6-2 2-6 3-9 3-3 1-9 1-18 1zm-329 0c-17 0-29-4-33-10-6-5-8-9-8-12 0-5 2-9 9-16 5-6 9-10 10-9 0 0 0 4-3 8-9 19-2 28 25 28 20 0 30-6 30-17 0-6-2-10-4-12-2-1-3-3-3-7 0-1 1 0 3 3 11 7 17 15 17 22l-8 12c-4 4-8 6-11 8-4 1-12 2-24 2zm56-28c-7 0-13-4-18-14l-4-10c1-4 3-3 8 4 4 6 10 7 14 6 5 0 10-5 15-12s7-16 7-25c0-7-1-13-3-15-2-1-7-2-16-2h-10c-2 0-3-1-3-2l6-4c3-1 6-3 9-4 5-2 7-3 8-3 2 1 4 1 7 2 2 1 5 2 8 3 5 3 7 12 6 25-1 7-2 13-4 18-1 6-2 10-5 14-2 4-4 7-7 10s-5 5-8 7c-3 1-7 2-10 2zm330 0c-1 0-4 0-5-1-2 0-3-1-5-2l-5-5-3-6-4-10c0-4 2-3 7 4 4 6 9 7 15 6 5 0 10-5 15-12 4-7 7-16 7-25 0-7-1-13-4-15-2-1-6-2-15-2s-13-1-13-2l3-3 14-6c3-1 5-2 7-2 1 1 2 1 5 2s5 2 7 3c6 3 7 12 7 25-1 16-6 28-12 37-7 10-14 14-21 14zm-442 0c-3 0-5-1-8-2-3 0-7-3-10-9-3-4-7-11-10-19-3-7-4-15-4-22-2-12 1-21 6-24 8-5 17-5 27 0l10 6-10 2c-7-2-12-1-17 3-5 5-7 11-4 19 1 10 3 16 7 22 5 5 9 9 14 10 5 0 11-1 15-6l8-6c1 1 0 5-5 12-4 10-11 14-19 14zm321-2c-4 0-9-7-15-18-5-10-9-21-9-32-1-12 1-21 7-24 6-5 15-5 25 0l11 6-11 2c-6-2-13-1-16 3-5 5-6 11-5 19 1 5 2 10 5 14 2 6 4 9 6 11s6 5 8 6 5 1 9 0 6-2 10-5l6-6c3 1 1 5-3 12-5 10-12 14-20 14zm-263-25c-2 0-4 0-8-1-2 0-4-2-6-2-3-1-5-2-6-3-2-1-4-3-5-4-3-1-4-4-5-6-2-2-3-4-3-5-1-3-1-5-2-8v-7-6c1-2 2-6 2-9 4-6 9-10 13-13 1-1 6-2 11-2 6-2 11-2 17 0l12 3c5 4 10 10 12 16 2 8 1 15-1 22s-7 14-13 18c-5 4-11 7-18 7zm327 0c-11 0-19-6-27-17-8-10-9-22-2-34 0-2 2-4 4-8 3-2 4-4 6-5 5-2 12-4 21-4 8 0 15 2 18 5 7 4 10 10 12 16 3 8 3 15 0 22-2 7-5 14-12 18-5 4-12 7-20 7zm-329-9c7 0 13-3 18-8 8-8 10-16 6-27s-13-17-24-17c-5 0-10 2-17 9-8 9-10 19-5 27 4 10 12 16 22 16zm329 0c7 0 13-3 19-8 7-8 8-16 3-27-4-11-12-17-22-17-5 0-11 2-16 9-8 9-10 19-6 27 5 10 12 16 22 16zm-379-45c-17 0-26-7-26-21 0-7 5-16 16-26 24-23 43-26 54-10 4 7 5 13 4 19 0 3-2 5-3 6-3 8-4 6-5-5 0-4-2-9-7-13-4-3-9-3-13-2-7 1-13 5-20 12-8 7-11 12-11 18-1 5 2 11 9 15l12 7zm94-1c-1 0 0 0 3-2 6-2 10-5 14-11 3-3 4-7 3-13-1-3-7-8-14-14s-13-10-18-11c-5-2-9-1-14 2-4 3-6 7-6 12v8c-1 2-1 3-2 3-3-1-5-5-6-11-1-9 0-16 7-22 6-5 13-7 23-4 7 2 15 7 25 16s17 17 17 26c1 14-7 22-22 22h-2zm236 1c-9 0-16-1-20-6-4-4-7-9-7-15 0-4 1-6 1-8 2-2 4-4 6-8 1-3 4-6 9-10 25-23 44-26 55-10l3 10v9c-1 3-2 5-2 6-3 8-4 6-6-5 0-4-2-9-6-13-5-3-9-3-13-2-7 1-14 5-20 12-8 7-12 12-13 18 0 5 4 11 11 15l11 7zm100 0-6-1c-2 0 0 0 3-2 2-1 4-3 6-4 4-2 6-4 8-7 3-4 5-8 1-14-2-2-6-7-13-13-8-6-14-10-19-11-5-2-10-1-13 2s-5 7-5 12l-2 9c-1 1-2 2-3 2-1-1-2-5-4-11-1-9 1-16 6-22 6-5 14-7 25-4 5 2 14 7 25 16 10 9 16 17 16 26 2 14-6 22-24 22zm-380-124h-15c-3-1-7-1-11-2-4 0-7-1-11-2-3-2-6-5-12-8-44-21-66-55-66-100 0-31 10-57 30-79 15-17 34-29 53-34 9-3 21-4 36-3 14 1 27 3 38 5 12 6 23 13 34 22 31 29 44 62 38 102-5 40-26 69-64 87-9 6-17 9-24 10-5 2-14 2-26 2zm329 0c-17 0-35-3-50-12-42-21-64-55-64-100-1-31 9-57 30-79 15-17 34-29 52-34 9-3 20-4 36-3 15 1 27 3 36 5 13 6 25 13 35 22 32 29 44 62 39 102-6 40-27 69-63 87-10 6-18 9-24 10-6 2-14 2-27 2zm0-10c32 0 58-11 76-32 14-13 21-27 27-44 5-15 5-32 2-47-3-17-10-32-21-47-12-16-28-27-49-35-22-6-42-8-60-3-36 11-62 33-75 67-16 43-8 81 25 111 21 20 46 30 75 30zm-329 0c31 0 57-11 78-32 7-7 13-15 18-25 4-9 7-18 10-28 2-10 2-20 1-28-1-10-4-20-8-30-3-9-9-19-15-27-11-16-28-27-50-35-21-6-42-8-60-3-40 12-66 37-77 77s-1 74 30 101c19 20 43 30 73 30zm0-15c-17 0-29-2-33-8-9-9-9-19 0-29 5-7 10-11 10-10 1 0 1 4-2 8-9 19-2 28 25 28 20 0 30-6 30-17 0-2-2-4-2-6-1-4-1-5-2-6-2-1-3-3-3-7l3 3c11 7 17 15 17 22 0 1-1 3-2 5-2 4-4 6-6 9-5 6-18 8-35 8zm329 0c-16 0-28-2-33-8-10-9-10-19 0-29 5-7 9-11 10-10 1 0 0 4-2 8-10 19-1 28 25 28 20 0 30-6 30-17 0-2-1-4-1-6-1-4-1-5-2-6-3-1-5-3-5-7l5 3c11 7 16 15 16 22 0 1-1 3-2 5-1 4-4 6-6 9-6 6-17 8-35 8zm-273-28c-7 0-13-4-18-14-3-5-4-8-4-10 1-4 3-3 8 4 4 6 10 7 14 6 5 0 10-5 15-12s7-15 7-24c0-8-1-14-3-16-2-1-7-2-16-2h-11c-1 0-2-1-2-2s3-4 10-6c7-3 11-4 14-4 1 0 4 0 6 1s5 2 8 4 5 5 5 7c1 3 1 9 1 18-2 15-6 27-12 36-7 10-13 14-22 14zm214 0c-2 0-3-1-5-1-4-1-9-8-15-18-5-11-9-22-9-33-1-12 1-21 7-24 6-5 15-5 25 0l11 8h-11c-6-2-13-1-16 3-5 5-6 11-5 19 2 14 8 24 15 30 7 4 15 3 23-4l6-6c3 1 1 5-3 12-5 10-12 14-20 14zm116 0c-1 0-4-1-6-1-2-1-4-3-6-5-4-1-5-5-6-8-3-5-4-8-4-10 0-4 2-3 7 4 4 6 9 7 15 6 5 0 10-5 15-12 4-7 7-15 7-24 0-8-1-14-4-16-2-1-6-2-15-2s-13-1-13-1c0-1 1-2 4-5 3-1 7-3 11-4 3-2 7-2 9-2h3l5 2c2 1 3 2 4 3 4 2 7 5 7 7 1 3 0 9 0 18-1 15-6 27-12 36-7 10-14 14-21 14zm-442 0c-3 0-5-1-8-1-3-1-7-4-10-10-3-4-7-11-10-19-3-7-4-15-4-22-2-12 1-21 6-24 8-5 17-5 27 0 5 2 8 6 10 8h-10c-7-2-12-1-17 3-5 5-7 11-4 19 2 14 6 24 14 30 7 4 14 3 22-4 4-4 7-6 8-6 1 1 0 5-5 12-4 10-11 14-19 14zm58-27c-7 0-13-3-20-7-18-12-22-26-13-44 4-6 9-10 13-13 1-1 6-2 11-2 6-2 11 0 17 0l12 3c5 4 10 10 12 16 2 8 1 15-1 22s-7 14-13 19c-3 1-6 3-9 5-4 1-7 1-9 1zm327 0c-3 0-7-1-13-3-4-1-8-4-11-7-3-4-5-8-8-11-2-5-3-9-3-15 0-4 2-10 6-15 0-2 2-4 4-8 3-2 4-4 6-5 5-2 12-4 21-2 8 0 15 2 19 4 5 2 8 7 10 11 2 5 4 11 4 15 0 6-2 10-5 16-2 5-5 10-10 14-5 3-12 6-20 6zm-329-9c7 0 13-3 18-8 8-8 10-16 6-27s-13-17-24-17l-5 1-5 3c-2 2-5 3-7 5-8 9-10 19-5 29 4 8 12 14 22 14zm329 0c7 0 13-3 19-8 7-8 8-16 3-27-4-11-11-17-22-17-2 0-4 1-7 2-5 2-7 5-9 7-8 9-10 19-6 29 5 8 12 14 22 14zm-49-44c-5 0-8-1-11-2-4-2-6-3-9-5l-6-6c0-3-1-6-1-9 0-1 0-3 1-6l2-3 2-5c1-2 3-4 4-5 2-1 5-4 7-7 25-23 44-25 55-10l3 9v10c-1 3-2 6-2 7-3 7-4 5-6-6 0-2-1-5-3-9-2-3-4-5-8-5-3-1-6-1-8 0-7 0-14 4-20 11-8 7-12 12-13 18 0 5 4 11 11 15l11 8zm-330 0c-17 0-26-8-26-22 0-7 5-16 16-26 24-23 43-25 54-10 4 6 4 11 4 19 0 3-2 6-3 6-3 8-4 6-5-5 0-4-2-9-7-12-4-4-9-4-13-2-7 0-13 4-20 11-8 7-11 12-11 18-1 5 2 11 9 15l12 8zm94-2 3-2c6-2 10-5 14-9 4-5 5-10 3-15l-8-9c-3-3-8-6-12-10-5-3-9-5-12-6-4 0-7-1-10 0-2 0-5 2-7 5s-3 6-3 9v9c-1 1-1 2-2 2-3-1-5-5-6-11-1-9 0-16 7-22 6-5 13-7 23-4 7 2 15 7 25 16s17 17 17 26c0 6-1 12-6 16-4 5-10 7-16 7h-2zm336 2-6-2c-2 0 0 0 3-2l4-3 5-3c1-1 3-2 5-5 3-4 5-8 1-13-1-2-3-5-7-9-5-3-9-6-14-10-4-3-7-5-11-6-5-1-10-1-13 2s-5 7-5 12 0 7-2 9c-1 1-2 2-3 2-1-1-2-5-4-11-1-9 1-16 6-22 6-5 14-7 25-4 5 2 14 7 25 16 10 9 16 17 16 26 0 6-1 12-5 16-4 5-10 7-19 7z" fill="#e5007f"/>
<path d="m0 933c0 55 35 84 85 84h765c55 0 84-34 84-84v-1135c0-55-34-85-84-85h-766c-55 0-84 34-84 84zm48-1136c0-20 6-36 36-36h767c20 0 35 7 35 37v1135c0 20-6 36-36 36h-765c-20 0-37-6-37-36v-1125z"/>
</g>
</svg>
