<?xml version="1.0" encoding="UTF-8"?>
<svg width="24" height="32" version="1.1" viewBox="4 0 64 100" xmlns="http://www.w3.org/2000/svg">
<g transform="matrix(.076687 0 0 -.076687 0 77.991)">
<path d="m48-203v1136c0 30 17 36 37 36h765c30 0 36-16 36-36v-1135c0-30-15-37-35-37h-767c-30 0-36 16-36 36z" fill="#fff"/>
<path d="m766 542 12-13c9-9 13-19 13-27s-6-17-17-25c-5-7-7-10-9-10-3 1-3-1-5-6l-3-8v-11c0-9 1-15 3-19 1-4 4-9 8-15 1-2 4-4 5-7 1-1 1-5 3-7 0-2 1-5 1-8 1-2 1-4 1-8 0-12-3-21-10-29-6-7-11-19-11-35 0-12 1-18 3-22 1-3 5-6 10-9 14-10 20-20 20-31 1-11-5-20-17-28-6-4-12-8-20-8s-26-1-56-1h-62l-10 11c-7 5-11 13-12 19-1 8 0 16 3 21 6 8 11 12 20 18 4 3 8 5 9 8 1 4 2 10 2 21s-1 19-2 22-6 7-10 10c-10 8-13 17-13 28 0 12 3 24 13 35 8 9 12 21 12 34 0 8-1 14-2 18-2 3-7 7-13 12-16 10-21 23-18 41 1 4 2 6 4 8s3 5 4 8c2 1 4 3 8 4 4 3 10 5 19 6 9 2 26 3 55 3zm-234 0 12-13c9-10 14-19 14-26 0-8-6-17-17-26-7-7-12-12-13-16-2-4-4-10-4-19 0-13 4-25 11-34 4-4 6-8 7-13s2-10 2-17c0-12-2-21-9-29-6-7-11-19-11-35v-14c-1-1 0-3 3-8l3-5 9-4c12-10 17-20 17-31 2-11-4-20-16-28-6-4-12-8-21-8-7 0-25-1-54-1h-63l-10 11c-3 2-6 5-9 10-1 3-2 6-2 9-1 5-1 8 0 11 0 5 1 7 2 10 3 3 6 8 9 10 2 2 7 5 11 8 4 4 8 5 9 8 2 4 2 10 2 21s-1 19-2 22c-2 3-4 7-10 10-9 8-13 17-13 28 0 12 4 24 13 35 7 9 12 21 12 34 0 8-1 14-2 18-3 3-7 7-14 12-15 10-19 23-17 41 1 4 2 6 4 8 1 2 3 5 5 8 1 1 3 3 7 4 7 5 32 9 73 9zm-239 0 13-13c3-6 6-10 8-14 3-4 3-8 3-12 0-9-7-17-17-26-8-6-13-12-14-16-2-4-2-10-2-19s0-15 2-19c1-4 3-9 8-15 3-3 5-6 6-10 1-2 1-5 4-8v-12-12c-3-4-3-6-4-8-1-4-3-7-6-9-7-7-10-19-10-35 0-10 4-19 14-31 12-10 20-20 20-31s-8-21-20-28c-4-6-12-8-18-8-8-1-27-1-56-1h-61l-12 11c-6 6-9 13-10 19-1 8 0 16 3 21 4 8 10 12 19 18 2 2 5 3 7 5 1 1 2 3 4 7v17c0 11 0 19-2 22-1 3-5 6-9 10-11 8-16 17-16 28 0 12 5 24 16 35 7 9 11 19 9 34 0 8-1 14-1 18-1 3-6 7-12 12-15 10-20 23-17 41 1 8 6 16 13 20 9 6 33 9 74 9zm175-51c-1 0-4 0-5-1-2-1-2-4-2-6s-2-9-3-18c0-15 1-23 3-27 0-4 3-6 9-6 5 2 9 11 9 30v20c-2 6-5 8-11 8zm-240 0c-4 0-6-1-7-4-2-3-2-9-2-21-2-15-2-23 0-28 3-3 6-5 10-5 6 2 8 11 8 30 0 14 0 21-1 24 0 3-2 4-8 4zm473 0c-3 0-5-1-6-4s-2-9-3-21c0-9 0-16 1-21 0-4 1-8 2-9 2-3 4-3 9-1h2c1-1 3-5 4 8l1 20v20c-1 6-4 8-10 8zm-485-113c0-13 1-21 3-25 3-4 6-5 10-5 6 1 8 11 8 29 0 12 0 19-1 21 0 2-3 5-9 6l-11 1zm242-16c0-3 1-6 3-9 0-3 2-4 3-4 1-1 4-1 6-1 4 1 5 3 6 6s3 9 3 23c0 12-2 19-3 21s-3 4-8 6l-10 1zm234 16c0-13 0-21 1-25s4-5 11-5c2-1 1-1 3 0h1c1 2 1 3 2 9l1 6v27c0 4-1 6-2 8s-2 4-3 4c0 0-2 2-5 2l-9 1zm-469-57c0 1 0 0-2-5l-2-6v-13c-2-14-2-24 0-29 3-3 6-4 10-4 6 1 8 10 8 28 0 19-2 29-9 29h-4zm245 0c-4-1-6-1-7-5 0-2-2-8-3-19 0-14 1-24 3-29 0-3 3-4 9-4 5 1 9 11 9 28 0 14-2 22-3 24-1 4-3 5-8 5zm233 0c-3 0-5-1-6-5-1-2-2-8-3-19 0-14 0-23 1-29 1-3 4-5 11-5 2 1 4 2 5 3 0 1 0 3 1 8 0 3 1 10 1 18 0 19-3 29-10 29zm-169-154 12-13c7-6 10-9 11-12s3-8 3-14c0-5-2-9-4-13s-5-7-13-13c-7-6-12-12-13-15-2-3-4-9-4-19 0-13 5-23 11-32 7-9 9-19 9-33 0-6 0-12-1-16-1-3-3-7-8-12-6-7-11-17-11-35v-14c0-2 2-5 3-9 1-2 2-4 3-4 2 0 5-2 9-5 12-8 17-18 17-29 2-12-4-21-16-29-9-6-34-9-75-9h-63l-10 11c-11 10-14 18-12 30 2 14 10 21 23 29l6 2c0 3 1 3 3 2 0-1 1 0 1 6l1 6v11c0 14-4 27-12 34-8 8-13 17-13 29s4 24 13 35c7 7 12 18 12 31v7c0 9-5 16-16 23-15 10-19 24-17 42 1 5 4 9 7 12 1 3 4 6 9 9s11 6 19 6c9 1 26 1 54 1zm-239 0 13-13c3-6 6-9 8-12 3-3 3-8 3-14 0-8-6-17-17-26-7-6-13-12-14-15-2-3-2-9-2-19 0-8 0-15 2-19 1-5 3-10 8-13 6-10 10-19 10-33 0-6-1-12-3-16-2-3-3-6-7-12-8-6-10-17-10-35 0-12 0-19 1-23 1-2 7-5 13-9 12-8 19-18 19-29 0-12-7-22-19-29-6-7-33-9-74-9h-61l-12 11c-9 10-12 18-10 30 1 14 10 21 22 29 2 1 5 2 7 3 1 2 2 6 4 9v15c0 12 0 20-2 22-1 3-5 8-9 12-11 7-16 17-16 29s5 24 16 35c7 7 11 18 9 31 0 10-1 17-1 19-1 2-6 6-12 11-15 10-20 24-17 42 1 8 6 16 13 21 7 3 12 6 21 6 8 1 26 1 53 1zm411 0h62l12-13c6-6 10-9 11-12 1-4 2-8 2-14 0-8-6-17-17-26-5-4-10-8-12-11-2-2-4-6-4-8 0-3-1-8-1-15v-11c0-2 1-4 3-8 1-3 2-5 2-7 2-3 4-4 6-6 6-10 10-19 10-33 0-4 0-8-1-10 0-4-1-7-3-9s-5-5-6-9c-7-6-11-17-11-35 0-8 1-14 1-17 0-2 2-6 4-8s5-4 8-7c14-8 20-18 20-29 1-12-5-21-17-29-9-6-33-9-75-9h-63l-10 11c-11 10-14 18-12 30 2 14 10 21 23 29 4 2 8 4 9 6 1 4 2 10 2 21v14c0 4-1 7-2 8-1 2-3 3-5 6-2 2-2 4-5 6-10 7-13 17-13 29s3 24 13 35c8 7 12 18 12 31v12c0 2-1 4-2 6s-2 4-5 6c-2 1-4 4-8 6-16 10-20 24-18 42 1 5 4 9 6 12s5 6 10 9c9 0 13 2 7 3-4 1-1 3 12 3l21 1zm-476-50c-4 0-6-1-7-3-2-3-2-10-2-21-2-14-2-24 0-27 3-5 5-6 9-5 6 0 8 1 8 5 1 2 1 11 1 22 0 15 0 23-1 26 0 2-2 3-8 3zm241 0c-6 0-10-8-11-24 0-14 1-24 3-27 0-5 3-6 9-6 5 1 9 10 9 30 0 18-4 27-10 27zm235 0c-6 0-8-1-9-3-1-3-2-10-3-21 0-14 0-24 1-27 1-5 4-6 11-5 3 0 5 1 6 5 0 2 1 11 1 22 0 15-1 23-1 26-1 2-3 3-6 3zm-488-111c0-15 1-24 3-27 3-4 6-5 10-4 6 1 8 10 8 27v16c1 3 0 4-1 7l-2 4h-7l-11 2zm242 0c0-15 1-24 3-27 0-4 3-5 9-4 4 0 5 1 6 6 1 3 3 10 3 21v16c1 3 0 5-3 7l-2 4h-6l-10 2zm234 0c0-15 0-24 1-27 1-4 4-5 11-4 3 0 5 1 6 6 0 3 1 10 1 21v16c2 3 0 5-2 7l-3 4h-5l-9 2zm-464-59c-5 0-9-8-9-23-2-15-2-25 0-28 3-6 5-7 9-6 5-3 7-3 8 2l1 8v20c0 13 0 20-1 24 0 2-2 3-8 3zm240 0c-4 0-6-1-7-2 0-3-2-10-3-21 0-15 1-25 3-28 0-5 3-7 9-6 4 0 5 1 6 6 1 2 3 9 3 24 0 17-4 27-11 27zm233 0c-3 0-5-1-6-3s-2-9-3-20c0-15 0-25 1-28 1-6 4-7 11-6 2 0 4 1 5 2 0 1 0 5 1 8 0 3 1 10 1 20 0 17-3 27-10 27z"/>
<path d="m468 911c30 0 50-1 60-3 11-2 18-7 24-16 10-14 6-30-11-46-5-4-9-10-11-12-2-3-3-5-4-8v-15c0-13 2-24 9-34 5-5 6-13 8-19 2-8 3-15 0-21-1-8-3-12-8-16-7-8-9-21-9-37v-17c1-3 1-5 2-8 1-2 3-3 7-5 24-12 30-29 17-49-6-9-14-15-25-16-11-2-33-3-65-3-39 0-61 2-69 8-4 4-10 11-12 19-1 9-1 16 2 22 2 4 4 7 7 9 3 3 7 5 11 8 3 3 6 5 8 8 1 2 4 4 4 6 1 2 1 9 1 18 0 15-4 26-11 31-6 7-11 12-13 21-1 9-1 16 1 24 2 9 7 15 14 22 5 5 9 15 9 28 0 10-1 18-3 20-2 3-6 6-13 12-7 5-13 12-16 17-2 8-2 16-1 26 4 10 11 18 22 21 10 4 32 5 65 5zm0-49c-3-1-6-12-10-30v-28h22v28l-1 22c-2 4-5 8-11 8zm-10-113c0-13 1-22 3-25 0-3 3-5 9-3 4 0 5 1 6 4 1 2 3 10 3 22v14c0 2-2 4-3 8-1 2-1 3-2 4h-6l-10 2zm0-84c0-6 0-13 1-20 0-5 2-9 2-10 1-1 6-1 10-1 5 0 8 1 8 3 1 4 1 12 1 26-1 17-5 28-12 28l-10 2z" fill="#e5007f"/>
<path d="m0 933c0 55 35 84 85 84h765c55 0 84-34 84-84v-1135c0-55-34-85-84-85h-766c-55 0-84 34-84 84zm48-1136c0-20 6-36 36-36h767c20 0 35 7 35 37v1135c0 20-6 36-36 36h-765c-20 0-37-6-37-36v-1125z"/>
</g>
</svg>
