<?xml version="1.0" encoding="UTF-8"?>
<svg width="24" height="32" version="1.1" viewBox="4 0 64 100" xmlns="http://www.w3.org/2000/svg">
<g transform="matrix(.076687 0 0 -.076687 0 77.991)">
<path d="m48-203v1136c0 30 17 36 37 36h765c30 0 36-16 36-36v-1135c0-30-15-37-35-37h-767c-30 0-36 16-36 36z" fill="#fff"/>
<path d="m447 830c6 0 11-2 16-6 5-5 12-13 23-25 18-20 32-35 43-48 6-8 10-13 14-18 3-4 5-10 7-14 1-5 1-9 0-12-2-4-4-7-7-11-4-4-7-7-13-11-11-8-17-16-20-21-2 3-3 0-4-9l-2-13-3-35c-1-3-1-7-1-15l1-10 1-4c9 0 35 9 77 27 31 14 52 20 63 20 8 0 13-1 16-3 5-3 14-10 27-22 15-16 31-33 46-52 16-19 25-32 30-41 2-5 3-10 3-11s-2-4-6-9c-6-5-15-9-26-10s-19-2-23-4c-4-1-8-3-11-8-4-3-10-11-18-23s-13-19-14-21c-2-2-7-8-12-17l-10-16-8-12c-2-2-4-6-6-7-2-2-4-4-4-5-11-15-16-27-17-38 0-2-1-3-2-4-2-1-4-2-9-3-6-1-11-3-19-3-8-1-20-1-34-1h-26c-15-1-25-4-28-9-4-6-5-41-5-108 0-65 3-110 6-134 5-41 5-73-1-96-4-15-6-29-8-40-2-7-4-15-8-23-2-6-5-13-10-19-3-4-5-7-7-7-1 0-2 1-5 2-1 1-2 2-3 2-7 9-11 73-14 193-3 94-5 156-6 186l-2 48-10 1c-7 1-20 0-42-1-38-5-57 1-57 16-1 10-9 22-22 38-13 14-36 34-67 59-25 20-38 32-40 36 0 1-1 3-2 7 0 5-1 10-1 17s-2 12-2 19c0 11 2 19 2 25s1 10 2 12 2 5 3 7c3 4 9 4 15 1s17-13 34-30l28-29 18 6c3 1 10 3 17 7 9 2 17 5 24 8 16 7 35 15 56 21l34 12v62c1 40 0 63-2 72 0 4-1 10-6 14-3 5-9 10-15 18-10 9-17 15-18 19s-2 9-2 19c0 24 9 43 28 61 15 14 27 21 36 21zm160-284c-15 0-36-4-62-9-28-7-43-11-46-16-3-2-4-15-6-40-1-26-2-50-3-72 0-23 0-36 1-42 1-1 3-1 8-2h15 18l17 22c11 15 26 34 42 57 10 12 17 22 22 31 7 9 11 17 15 23 3 7 5 12 6 17 1 4 2 9 2 14l-2 17zm-276-81c-8-3-12-5-16-6-2-3-4-4-6-6-3-2-3-5 0-9 2-4 4-7 6-11 3-3 7-10 14-18 14-18 24-31 29-37 14-16 24-24 30-24 4 0 8 0 12 1 6 1 10 2 13 3l14 4-3 69c-2 47-3 71-4 71z" fill="#e5007f"/>
<path d="m0 933c0 55 35 84 85 84h765c55 0 84-34 84-84v-1135c0-55-34-85-84-85h-766c-55 0-84 34-84 84zm48-1136c0-20 6-36 36-36h767c20 0 35 7 35 37v1135c0 20-6 36-36 36h-765c-20 0-37-6-37-36v-1125z"/>
</g>
</svg>
