<?xml version="1.0" encoding="UTF-8"?>
<svg width="24" height="32" version="1.1" viewBox="4 0 64 100" xmlns="http://www.w3.org/2000/svg">
<g transform="matrix(.076687 0 0 -.076687 0 77.991)">
<path d="m48-203v1136c0 30 17 36 37 36h765c30 0 36-16 36-36v-1135c0-30-15-37-35-37h-767c-30 0-36 16-36 36z" fill="#fff"/>
<path d="m420 848c4 0 9 0 14-3l5-3c0 1 2 0 7-4l6-5 7-6c3-2 3-6 5-8 1-2 5-5 7-9 7-12 19-29 35-51 18-22 31-39 40-46 12-11 26-25 47-39 19-13 40-25 62-35l13-5c-2 0 1-1 10-5 9-3 11-4 9-4-2 1 0 0 9-2 9-4 12-5 10-4-3 0 2-2 11-5l14-4 20-5c22-5 34-13 35-18 2-6 0-9-3-12-3-2-12-3-29-3-16-1-34-1-52 0-18 0-33 2-39 3-31 6-59 13-89 26-25 10-47 24-68 40-20 18-39 37-59 63-8 11-18 22-27 32-10 11-18 18-26 25-9 8-15 12-20 14-21 10-31 19-31 29 0 13 9 24 26 32 14 7 32 12 51 12zm-99-165c7 0 16-3 28-11 10-5 22-16 34-30 25-24 34-44 25-59-4-7-31-18-79-37-8-3-17-8-28-12-16-10-35-17-55-24-21-7-40-12-58-16-19-3-32-5-42-3h-9c-1 1-2 2-2 3-2 1-2 4-2 6 0 3 2 5 3 8 1 2 6 4 10 5 22 7 53 23 88 46 1 1 4 3 10 6l6 3 5 2c1 1 2 1 3 1 3 0 9 7 18 18 8 11 15 19 17 28 1-2 2 0 3 3l2 6 5 20c1 2 1 3 1 4 0 3 0 7 2 12 1 3 2 6 1 8 0 2 0 4 3 7l3 3 3 2c1 0 2 1 5 1z"/>
<path d="m521 497c7 0 12-4 19-14 8-10 12-20 14-31 4-12 3-29-3-50-1-2-2-7-3-12-5-17-6-26-2-28 3-2 13-3 30-2 6 1 9 1 12 1 93 6 143 6 153-1 3-2 5-9 4-14 0-6-2-10-4-14-11-8-21-14-33-16-11-1-40-4-82-5l-80-1-37-14c-73-28-118-43-138-49-19-6-44-8-76-8-36-1-58 0-68 1-9 3-17 7-27 16-8 6-13 16-13 26 0 11 3 17 9 19s27 2 63-7c18-4 36-7 57-9s38-2 51 0c12 2 19 5 24 11 5 14 2 25-12 30-10 3-14 6-16 10-2 3 5 14 20 35 5 5 8 11 12 18 6 5 9 12 12 17 5 6 6 9 9 13 7 10 15 16 25 17 8 0 14-2 18-9 3-6 5-15 5-26 0-12-1-25-5-41-6-26-7-41-2-41 1 0 2 2 3 3 2 2 4 4 4 7 15 40 23 64 24 75 0 10-5 20-14 31l-11 14 25 24c8 8 16 13 21 18 7 4 10 6 12 6zm40-225c4 0 10-2 14-3 5-2 7-1 8-2 5-3 6-9 6-19-1-8-4-28-7-61-1-11-2-23-4-34-1-13-2-24-2-35-1-10-1-20-1-28 0-22 1-35 5-38 2-4 13-6 30-8 41-3 75-14 106-31 29-16 47-33 50-52 3-23-1-41-15-53-5-4-12-9-22-16-9-6-20-10-31-15-12-6-22-9-34-13-11-3-22-6-31-8-44-7-78-5-100 7-23 12-40 24-53 35-10 10-16 14-18 14s-10-2-24-6c-20-8-34-12-45-14-10-1-17 0-22 5-5 8-9 6-9-9 0-19-3-29-12-33-2-1-6-1-13 1-6 2-14 14-25 40-8 20-13 31-17 33-3 3-12 2-28 0-9-1-19 0-26 2 2-2-3 1-14 10l-14 12-16 15c-5 5-10 10-13 14s-5 7-6 9c-1 4-1 8-1 11 1 3 3 4 9 5h19c9-1 20-2 37-5 23-2 35-3 36-2 2 2 1 12-3 31-2 5-4 12-4 20-1 6-1 14-2 21v18 27c1 2 4 5 9 7l5 2h12c5-1 8-5 10-12 2-5 7-23 12-49l4-13c1-5 2-8 2-13 1-5 1-8 2-11 1-5 2-8 3-11l5-20 19 2c13 2 22 6 32 8 5 2 8 4 9 5 1 2 2 4 3 8v14c0 7-2 13-6 21-6-2-10-3-12-3-4 0-7-4-9-11-3-11-9-14-17-12-6 2-11 10-15 23-8 23-11 53-13 88-2 36-1 59 2 71 2 5 6 9 8 10 4 2 12 2 24 2 7 1 15 3 26 6s21 6 29 9c30 10 58 19 84 24 28 6 49 10 64 10zm-57-57c-7 0-16-1-29-2l-17-5v-31l17 1c6 1 11 2 16 3s7 2 10 4c1 2 3 3 5 4 1 2 2 3 2 5 0 1 0 4 1 6v8c1 5-1 7-5 7zm-104-21c-8 0-14 0-20-4-7-5-10-9-11-14 0-5 0-8 4-12 5-5 10-5 16-4 5 2 8 4 13 8 2 3 3 8 3 15-1 8-3 11-5 11zm104-38c-6 0-13-1-26-4-14-4-20-7-23-9-3-3-5-8-5-17v-15l17 3c8 1 18 4 25 7 5 1 9 3 10 5 2 3 3 7 3 14l-1 12zm-123-26c-9-3-13-9-13-19 0-7 1-12 2-13 1-2 3-3 6-3s5 1 8 1c2 1 5 2 7 4 3 1 4 7 6 12 2 6 3 10-1 14l-7 4zm116-48c-1-2-4-2-7-3l-12-2-14-3c-4 0-7-1-9-2-4-2-5-3-5-4-2-2-3-11-3-24 0-12 1-17 3-19 2-1 10 0 25 5 15 3 22 4 25 5 2 1 4 7 4 13 1 8 1 16 0 22-2 7-3 10-4 10 0 0 0 2-3 2zm78-80c0-3 0-8 1-15s2-13 4-19c4-15 5-25 5-29-1-7-3-12-9-18l-9-13 11 2c8 2 24 8 43 16 23 7 40 16 46 22 8 7 10 16 8 28 0 3 0 6-1 8 0 1-1 2-4 4-2 1-4 3-6 6l-5 5c-11 8-28 12-50 12l-34 2zm-80 7c-2 0-5-1-9-2-8-2-17-6-28-10-10-3-16-7-17-12-2-5-2-9 2-11 3-2 6-3 8-3 1 0 5 0 11 2 5 2 10 5 17 9 12 6 18 11 22 13 3 2 3 6-1 11-2 2-3 3-5 3zm-100-37c-1 0-3 0-5-1-2 0-5-2-8-3-2-1-8-3-12-5-9-3-16-9-19-13-2-5-3-10-1-19 2-2 4-5 5-8 0-1 2-2 3-2l10 10c8 8 14 11 16 11 5 0 8 2 11 7 5 4 6 9 6 15 0 5-1 8-6 8zm101-33c-1 0-2-1-4-2-7 0-11-5-12-8-2-3-1-7 3-10 2-4 8-8 14-10 4-1 9-2 15-2 4-1 8-1 13-1 2 0 4 1 4 2s-4 7-15 15c-7 10-13 16-18 16z" fill="#e5007f"/>
<path d="m0 933c0 55 35 84 85 84h765c55 0 84-34 84-84v-1135c0-55-34-85-84-85h-766c-55 0-84 34-84 84zm48-1136c0-20 6-36 36-36h767c20 0 35 7 35 37v1135c0 20-6 36-36 36h-765c-20 0-37-6-37-36v-1125z"/>
</g>
</svg>
