<?xml version="1.0" encoding="UTF-8"?>
<svg width="24" height="32" version="1.1" viewBox="4 0 64 100" xmlns="http://www.w3.org/2000/svg">
<g transform="matrix(.076687 0 0 -.076687 0 77.991)">
<path d="m48-203v1136c0 30 17 36 37 36h765c30 0 36-16 36-36v-1135c0-30-15-37-35-37h-767c-30 0-36 16-36 36z" fill="#fff"/>
<path d="m300 870c74-5 141-63 141-140 0-42-27-96-61-120l-10-4 10-6c35-27 61-70 61-115 0-8-3-22-6-42s-16-40-39-62l-19-18 19-20c23-22 36-42 39-62 3-18 6-32 6-41 0-44-26-89-61-115l-10-4 10-7c37-26 60-70 60-115 0-18-6-41-16-69-12-29-37-51-76-64-16-7-32-10-49-10-78 0-143 60-143 140 0 47 21 91 60 118l9 7-9 4c-35 26-61 71-61 115 0 45 12 72 45 103l20 20-20 18c-32 31-45 59-45 103 0 42 25 92 61 116l9 6-9 4c-36 26-62 72-62 117 0 22 9 49 26 80 17 33 48 53 96 60h5l13 3zm330 0c31-2 60-13 87-34 34-30 52-64 52-106 0-47-20-93-60-120l-9-4 9-6c38-25 59-69 59-114s-11-72-42-105l-20-18 20-20c22-22 34-42 37-62 4-18 5-33 5-42 0-46-22-87-59-114l-9-4 9-7c36-25 59-71 59-115 0-18-5-41-17-69-11-29-35-51-74-64-16-7-33-10-50-10-78 0-142 61-142 140 0 48 20 91 61 118l8 7-8 4c-38 26-61 69-61 115 0 9 1 23 5 41 3 20 17 40 40 62l17 20-17 18c-33 31-45 58-45 103 0 21 4 41 14 62 12 22 27 40 47 54l8 6-8 4c-20 14-35 32-47 55-9 21-14 43-14 64 0 7 2 20 5 38 8 48 69 92 115 100 8 0 16 3 25 3zm-333-30c-17 0-33-3-48-8-24-13-40-27-52-52-17-26-17-76 0-107 18-39 59-61 101-61 48 0 84 26 105 68 11 27 11 69 0 95-12 24-31 43-57 57-14 5-29 8-49 8zm329 0c-48 0-78-18-102-60-9-18-10-22-10-52 0-21 3-39 10-55 12-22 29-38 50-48 28-16 49-13 51-13 47 0 87 25 107 68 12 27 12 69 0 95-13 22-32 44-56 57-17 8-24 8-50 8zm-434-112c0 63 47 105 108 105s105-51 105-111c0-18-11-53-37-74-21-19-44-28-69-28-12 0-22 2-34 5-29 9-50 28-64 56-6 14-9 29-9 47zm434 105c58 0 108-46 108-105 0-57-47-108-105-108-43 0-77 23-98 61l-6 11c-4 0-4 21-4 21v15c0 59 47 105 105 105zm-329-15c-21 0-38-8-39-16 0-4-1-6-1-7 0-6 11-23 17-23 0 0 1 0 1 2s-6 9-6 15c0 5 1 17 28 17 21 0 31-5 31-14 0-3-2-8-4-12-1-2-2-4-2-5 0 0 0-1 2-2 1 0 4 2 7 5 6 5 8 12 8 17s-1 19-27 23zm329 0c-23 0-41-11-41-23 0 0 0-7 9-16 3-4 5-7 7-7 0 0 1 0 1 2 0 1-1 3-3 6 0 18 1 26 27 26 20 0 31-5 31-14 0-3-1-8-3-12-2-3-3-4-3-5 1-2 1-2 2-2 2 0 5 2 8 5 4 5 6 11 6 16 0 6-2 20-26 24zm-55-29c-8 0-12-4-19-11-7-8-10-20-14-31-1-6-2-11-2-15 0-5 1-10 3-13 4-7 13-9 19-9 2 0 9-1 17 6 5 4 4 4 3 4 0 0-2-1-4-1-4 0-12 1-17 1-6 2-9 8-9 15 0 13 10 40 25 40 11 0 21-12 20-12 1 0 3 5-6 17-6 5-11 9-16 9zm-330 0c-14-1-25-15-32-42-2-5-2-9-2-12 0-6 2-12 5-16 3-7 12-9 19-9 2 0 9-1 14 6 6 4 4 4 3 4 0 0-2-1-4-1-2-1-4-1-6-1-3 0-6 1-10 2-6 2-8 7-8 14 0 6 2 16 7 26 4 10 10 15 17 15 5 0 11-3 15-7 1-3 2-4 3-4 1-1 1-1 2-1 0 10-11 25-23 26zm115 0c-7 0-12-4-17-10l-7-12c0-2 0-3 1-3 2 0 4 1 6 5 4 4 8 5 12 5 2 0 11 1 19-13 3-8 5-17 7-25 0-15-8-17-24-17l-8 1c0-1 2-2 6-4 5-4 10-6 16-6 1 0 12-2 17 9 2 3 4 9 4 14 0 18-11 56-32 56zm327 0c-5 0-9-4-15-10-5-7-7-11-7-14 0-1 1-1 1-1 2 0 3 1 6 5 5 4 9 5 13 5 2 0 12 1 17-13 4-6 7-18 7-25 0-13-7-18-16-18-2 0-4 1-6 1l-8 1c0-6 20-10 20-10 14 0 23 9 23 23 0 4-1 8-2 14-7 28-17 42-33 42zm-389-28c-17 0-30-15-30-33 0-21 15-35 30-35 2 0 11-1 27 11 7 7 11 14 11 23 0 4-2 11-7 21-4 9-15 13-31 13zm329 0c-17 0-29-15-29-33 0-21 14-35 28-35 2 0 13-1 29 11 7 7 11 14 11 23 0 4-2 11-7 21-4 9-15 13-32 13zm-324-9c12 0 25-14 25-25 0-12-13-27-25-27-5 0-11 2-18 8-5 5-8 11-8 19 0 6 1 25 26 25zm327 0c14 0 28-14 28-25 0-9-18-27-27-27-13 0-25 15-25 27 0 6 2 25 24 25zm-382-45c-13 0-24-9-24-20 0-12 13-24 29-35 20-11 25-9 26-9 5 0 9 2 13 5l3 5c4 6 5 12 5 16s-1 7-5 8c-1 0-2-1-3-4 0-21-13-17-14-17-9 0-17 4-27 12-9 11-13 16-13 20 0 2 1 7 10 12l12 7zm330 0c-13 0-24-9-24-20 0-18 36-44 54-44 11 0 19 9 19 23 0 3-1 10-2 11-2 0-3-1-4-4 0-21-14-17-15-17-8 0-17 4-25 12-8 7-13 13-13 19 0 5 4 9 10 13l9 7zm-227 0c-2 0-3 0-3-2l3-1c16-8 22-28-2-39-7-6-14-9-21-9-3 0-16-1-16 17 0 1-1 2-4 3-2-4-3-8-3-12 0-13 7-21 20-21 5 0 11 1 20 5 15 10 36 28 36 39 0 10-15 20-26 20zm330 0c-3 0-4 0-4-1l2-2c15-5 15-12 15-17 0-14-23-31-36-31-3 0-16-1-16 17 0 3-1 5-3 6 0 0 0-1-1-3-3-4-5-9-5-13 0-6 2-10 6-15 4-4 8-5 15-5 6 0 12 1 21 5 7 5 10 7 10 7l8 8c9 8 16 18 16 24 0 11-12 20-24 20zm-380-111c-17 0-33-3-48-8-22-10-39-27-52-51-17-29-17-78 0-108 8-22 26-37 47-48 31-16 53-12 56-12 17 0 32 3 46 9 22 12 47 34 57 59 2 0 4 4 5 11 1 9 2 13 3 13s1 5 1 15v14l-2 14c0 8-3 19-7 26-12 25-31 44-57 58-14 5-29 8-49 8zm329 0c-18 0-34-3-47-8-28-16-38-24-55-51-9-20-10-25-10-54 0-21 3-39 10-54 13-21 29-36 50-48 28-16 50-12 53-12 63 0 114 49 114 114 0 12-1 30-9 47-13 24-32 44-56 58-20 8-21 8-50 8zm-329-7c60 0 107-46 107-106 0-19-5-50-36-80-28-24-56-27-71-27-11 0-21 2-32 5-29 10-50 29-64 57-6 14-9 28-9 45 0 59 45 106 105 106zm329 0c59 0 108-46 108-106 0-19-6-50-36-80-29-24-57-27-72-27-41 0-77 25-95 62-10 16-11 22-11 30 0 5 0 10 1 16 0 33 11 57 36 79 16 13 46 26 69 26zm-329-16c-21 0-38-8-39-15 0-4-1-6-1-7 0-5 3-10 8-15 4-5 7-8 8-8 0 3 0 6-1 9-2 3-3 5-3 8 0 5 1 17 28 17 21 0 31-4 31-14 0-3-2-7-4-11-1-4-2-6-2-7s0-1 2-2c7 0 15 16 15 22 0 5-1 18-27 23zm329 0c-10 0-18-1-25-4-10-5-16-11-16-18 0-5 4-10 9-15 3-5 5-8 7-8 0 0 1 0 1 2 0 1-1 3-3 7 0 2-1 3-1 5 0 7 2 20 28 20 20 0 31-5 31-15 0-3-1-6-3-10-2-5-3-7-3-8 1-1 1-1 2-1 2 0 5 2 8 5 4 6 6 11 6 16s-2 19-26 24zm-385-28c-14-2-25-17-32-43-2-4-2-8-2-12 0-6 2-11 5-15 5-12 15-10 16-10 7 0 12 2 17 5l4 7-5-2c-6 0-10 1-16 2-6 2-8 6-8 12 0 15 8 40 25 42 2 0 10-4 10-4l7-8c2 0 2 1 2 2 0 10-12 24-23 24zm115 0c-7 0-12-3-17-11l-7-12c0-1 0-2 1-2 2 0 4 1 6 3 4 5 8 7 12 7 2 0 11 1 19-12 3-9 5-17 7-26 0-12-6-18-17-18-1 0-4 1-7 1-8 3-8 2-8 2 0-1 2-3 6-7 5-3 10-5 16-5 1 0 12-2 17 10 2 3 4 8 4 13 0 18-12 57-32 57zm215 0c-8 0-12-5-19-12-7-6-10-20-14-31-1-5-2-11-2-15 0-13 8-22 21-22 7 0 13 2 18 5l4 7-5-2h-8c-9 0-18 5-18 15 0 13 9 41 25 41 11 0 21-12 20-12 1 0 3 4-6 17-6 6-11 9-16 9zm112 0c-7 0-22-16-22-23 0-1 1-2 2-2s3 1 5 3c5 5 9 7 13 7 17 0 24-24 24-38 0-12-5-18-16-18-2 0-4 1-6 1-8 3-8 2-8 2 0-1 9-11 14-11 3 0 5-1 5-1 13 0 24 9 24 23 0 19-13 57-35 57zm-389-27c-17 0-30-17-30-34s4-27 14-30c8-5 15-7 19-7 17 0 35 19 35 36 0 4-2 12-7 21-4 9-15 14-31 14zm329 0c-17 0-29-17-29-34 0-21 15-36 30-36 1 0 11-2 27 11 7 7 11 16 11 24 0 4-2 12-7 21-4 9-15 14-32 14zm3-10c9 0 15-3 20-9 5-5 7-11 7-15 0-6-3-13-10-19-4-5-9-8-14-8s-11 3-18 7c-5 4-8 11-9 18 0 16 13 26 24 26zm-327 0c12 0 25-13 25-25 0-6-3-12-8-18-6-5-11-8-17-8-5 0-11 3-18 7-6 6-8 13-8 18 0 16 11 26 26 26zm374-47c1 0 1-1 2-2 15-2 15-16 15-17 0-4 0-11-15-21-8-6-15-8-21-8-3 0-16-3-16 16 0 4 0 5-1 7-1 0-2-2-3-4-2-5-4-8-4-12 0-1-1-7 7-16 3-4 7-6 14-6 5 0 11 2 20 6 15 9 34 31 34 38 0 10-12 20-24 20zm-429 1c-13 0-24-10-24-20s10-22 29-35c11-6 19-9 27-9 4 0 9 2 12 5 10 7 5 41 0 26 0-21-13-17-15-17-14 0-37 16-37 31 0 5 2 10 8 14l12 5zm100-1 3-2c17-5 20-26-2-38-7-6-15-8-21-8-3 0-16-3-16 16 0 2-1 2-4 3-2-5-4-8-4-12 0-13 7-22 20-22 6 0 12 1 21 5 15 13 36 28 36 39 0 10-13 20-26 20zm230 1c-14 0-24-10-24-20 0-19 36-44 54-44 6 0 10 2 14 5 1 1 2 3 3 7 3 6 4 11 4 15s-1 8-4 9c-2 0-3-1-4-5 0-21-14-17-16-17-8 0-16 4-24 12-8 7-13 13-13 19 0 5 4 10 10 14l9 5zm-277-107c-17 0-33-3-48-8-24-12-40-27-52-52-17-26-17-77 0-106 10-22 26-39 47-49 18-10 36-14 54-14 46 0 85 28 105 69 11 27 11 69 0 95-9 25-34 44-57 55-17 9-23 10-49 10zm329 0c-18 0-34-3-47-8-26-12-40-27-55-52l-5-8c-1-5-1-8-2-8l-1 1c-1 0-2-15-2-15v-22c0-21 3-39 10-54 12-22 29-39 50-49 18-10 36-14 53-14 45 0 86 29 105 69 12 27 12 69 0 95-13 24-32 44-56 57-17 7-24 8-50 8zm-329-7c63 0 108-49 108-111 0-20-12-54-37-74-21-19-44-29-69-29-11 0-22 3-34 6-29 10-50 29-64 56-6 14-9 29-9 47 0 31 11 57 35 79 20 16 46 26 70 26zm329 0c58 0 108-46 108-105 0-56-48-109-105-109-11 0-23 3-34 6-29 10-50 29-64 56-10 17-11 25-11 33 0 4 0 8 1 14 0 34 9 52 36 79 18 16 43 26 69 26zm-329-16c-9 0-37-3-39-15 0-4-1-6-1-7 0-6 11-23 17-23 0 0 1 0 1 2 0 1-1 3-3 6-3 3-4 5-4 7 0 1 0 3 5 11 3 5 8 7 24 7 21 0 31-4 31-13 0-4-2-8-4-12-1-2-2-4-2-5s1-2 1-2c2 0 4 1 8 4 14 20 7 36-19 40zm329 0c-9 0-17-1-25-4-10-6-16-11-16-18 0-4 12-23 16-23 0 0 1 0 1 2 0 1-1 3-3 6-1 7-2 10 2 17 5 7 8 8 25 8 20 0 31-5 31-14 0-4-1-7-3-11-2-3-3-5-3-7 3 0 6 1 10 4 14 20 6 35-20 40zm-385-29c-14-1-25-14-32-43-2-4-2-7-2-10 0-7 2-13 5-17 5-9 15-8 16-8 7 0 12 2 17 6l4 4h-5c-3-1-5-1-8-1-10 0-16 3-16 14 0 13 8 42 24 42 4 0 8-2 11-3s4-8 8-9c1 0 3 4-6 16l-5 6c-4 3-7 3-11 3zm115 0c-7 0-12-3-17-9l-7-14c0-1 0-1 1-1 2 0 3 1 6 5 4 4 8 5 12 5 2 0 11 1 19-13 0 0 6-24 7-25 0-14-7-17-14-17-3 0-6 0-10 1h-7c0-1 1-2 5-4 5-4 10-6 16-6 14 0 21 10 21 23 0 17-12 55-32 55zm215 0c-22 0-35-38-35-57 0-15 7-21 22-21 6 0 12 2 17 6l4 4h-5c-1-1-3-1-5-1-1 0-7 1-12 1-9 3-9 21-2 40 6 11 12 15 18 15 11 0 21-12 20-12 1 0 4 4-8 16-4 7-9 9-14 9zm112 0c-9 0-22-15-22-23 0-1 1-1 1-1 2 0 3 1 6 5 5 4 9 5 13 5 2 0 12 1 17-13 4-7 7-18 7-25 0-14-7-17-13-17-4 0-6 0-9 1h-8c0-1 1-2 3-4 7-5 14-8 19-8 6 0 11 3 17 10 2 4 4 9 4 15 0 19-13 55-35 55zm-389-27c-17 0-30-16-30-33 0-19 9-26 21-32 4-3 8-4 12-4 8 0 16 5 24 11 22 25 10 58-27 58zm329 0c-17 0-29-16-29-33 0-23 13-35 30-35 8 0 18 3 27 10 20 25 8 58-28 58zm3-9c9 0 15-3 20-9 5-5 7-10 7-15 0-7-3-13-10-19-8-10-14-9-16-9-13 0-25 16-25 28 0 14 14 24 24 24zm-327 0c12 0 25-13 25-25 0-11-16-27-26-27-4 0-11 3-17 8-5 5-8 11-8 19 0 6 1 25 26 25zm-55-46c-13 0-24-9-24-20s10-21 29-33c11-6 19-9 27-9 5 0 9 1 12 4 6 7 7 19 7 22 0 4-1 7-4 8-1-1-2-2-3-5 0-21-13-18-15-18-13 0-40 20-40 33 0 3 3 4 11 12l12 6zm330 0c-15 0-24-7-24-20 0-17 37-42 54-42 6 0 10 1 14 4 5 7 6 19 6 22 0 4-1 7-3 8-2-1-3-2-4-5 0-21-14-18-16-18-8 0-16 4-24 13-14 11-14 14-14 19 0 3-1 8 11 13l9 6zm-230-2 3-1c13-4 15-12 15-17s-1-12-17-21c-7-6-14-9-21-9-3 0-16-1-16 17 0 1-1 2-4 3-6-6-3-22 2-28 3-3 8-5 13-5 17 0 58 27 58 43 0 11-13 20-26 20zm329 0c1 0 2 0 3-1 13-4 14-12 14-16 0-14-21-31-35-31-4 0-17-1-17 17 0 3 0 4-1 6-1 0-2-1-3-3-4-3-4-7-4-10 0-4 1-10 7-18 3-3 6-5 11-5 7 0 14 3 23 7 15 5 34 28 34 36 0 11-12 20-24 20zm-376-108c-17 0-33-3-48-9-23-15-39-22-52-51-17-29-17-78 0-107 10-22 26-39 47-48 18-9 36-14 54-14 46 0 85 28 105 69 11 26 11 68 0 94-12 24-31 43-57 57-14 6-29 9-49 9zm329 0c-46 0-78-20-102-60-3-8-5-12-6-12-2 0-4-22-4-22v-19c0-44 17-83 60-102 18-9 35-14 52-14 45 0 88 28 106 69 12 26 12 68 0 94-13 26-31 44-56 57-17 8-24 9-50 9zm-329-7c28 0 51-8 71-26 47-42 52-118 0-160-21-19-43-28-67-28-61 0-109 46-109 108 0 60 45 106 105 106zm329 0c59 0 108-46 108-106 0-55-46-108-103-108-44 0-81 23-100 63-9 15-11 23-11 32 0 4 0 9 1 13 0 59 46 106 105 106zm-329-16c-21 0-38-8-39-16 0-3-1-5-1-6 0-5 3-10 8-17 4-4 7-6 8-6s2 0 2 1c0 3-6 11-6 16s1 17 28 17c21 0 31-5 31-14 0-3-2-7-4-12-1-3-2-5-2-6s1-2 1-2c2 0 4 2 8 5 6 6 8 12 8 17s-1 19-27 23zm329 0c-27 0-39-11-39-22 0-5 8-23 13-23 1 0 2 0 2 1 0 2-1 4-3 7 0 3-1 4-1 6 0 7 2 20 28 20 20 0 31-6 31-15 0-3-1-6-3-11-2-3-3-5-3-7 4 0 7 1 10 4 4 6 6 11 6 16 0 6-2 20-26 24zm-385-28c-14-1-25-16-32-43-2-17-3-19 3-29 5-9 15-8 16-8 7 0 12 2 17 5l4 4-5-1h-5c-4 0-7 0-11 1-6 3-8 8-8 15s2 15 7 25c4 14 6 16 17 16 5-1 10-3 15-7 1-1 2-2 3-2 1-1 1-1 2-1 0 4-2 9-7 14-5 9-11 11-16 11zm330 0c-15 0-24-20-33-43-1-6-2-11-2-14 0-2 0-5 3-15 8-9 17-8 18-8 7 0 13 2 18 5l4 4-5-1c-4 0-12 1-17 1-6 3-9 8-9 15s2 15 7 25c5 14 8 16 17 16 6-1 11-3 15-7 3-3 5-5 6-5s3 5-6 17c-6 7-11 10-16 10zm-215 0c-13 0-24-17-24-22 0 0 0-1 1-2 2 0 3 1 6 4s7 5 11 5c3 0 12 0 20-12 3-9 5-17 7-26 0-13-7-19-16-19-2 0-5 1-8 1h-7c0-1 1-2 5-4 5-3 10-5 16-5 1 0 12-1 17 8 2 5 4 9 4 15 0 18-12 57-32 57zm327 0c-11 0-22-18-22-23 0-1 1-1 1-1 2 0 3 1 6 4 4 3 7 5 11 5 3 0 14 0 19-12 1 0 5-11 5-11l1-4c1-3 1-5 1-5v-6c0-16-9-19-15-19-2 0-4 1-7 1h-8c0-5 20-9 19-9 7 0 15 3 20 8 2 5 4 9 4 15 0 19-13 57-35 57zm-389-27c-17 0-30-15-30-35 0-16 4-26 14-30 8-4 16-6 20-6 17 0 34 17 34 34 0 22-16 37-38 37zm329 0c-17 0-29-15-29-35 0-21 14-35 29-35 18 0 39 14 39 34 0 23-18 36-39 36zm-324-11c12 0 25-14 25-25 0-10-18-26-26-26-4 0-10 2-17 7-5 5-8 11-8 18 0 6 1 26 26 26zm327 0c14 0 28-14 28-25 0-10-18-26-27-26-4 0-9 2-16 7-6 5-9 11-9 18 0 6 2 26 24 26zm-382-45c-13 0-24-11-24-20 0-11 10-22 29-35 11-6 19-9 27-9 4 0 9 2 12 5 6 5 7 18 7 21 0 5-1 8-4 10-1 0-2-3-3-7 0-18-13-16-15-16-9 0-17 5-26 12-8 7-11 14-11 19s2 9 8 14l12 6zm330 0c-14 0-24-11-24-20 0-19 36-44 54-44 6 0 10 2 14 5 5 5 6 18 6 21 0 5-1 8-3 10-2 0-3-3-4-7 0-18-14-16-16-16-12 0-37 19-37 31 0 5 4 9 10 14l9 6zm-230-1 3-2c18-9 18-25 0-38-8-5-17-8-23-8-3 0-16-3-16 14 0 1-1 2-4 3-2-4-4-7-4-11 0-12 8-22 20-22 6 0 12 2 21 6 17 10 36 31 36 39 0 9-13 20-26 20zm329 0c1 0 1-1 2-2 21-9 20-25 2-38-9-5-17-8-23-8-3 0-16-3-16 14l-1 8s-1-1-3-5c-3-3-4-7-4-11 0-5 2-11 7-16 3-4 7-6 14-6 5 0 11 2 20 6 15 10 34 31 34 39 0 9-12 20-24 20zm-673 957c0 55 35 84 85 84h765c55 0 84-34 84-84v-1135c0-55-34-85-84-85h-766c-55 0-84 34-84 84zm48-1136c0-20 6-36 36-36h767c20 0 35 7 35 37v1135c0 20-6 36-36 36h-765c-20 0-37-6-37-36z"/>
</g>
</svg>
