<?xml version="1.0" encoding="UTF-8"?>
<svg width="24" height="32" version="1.1" viewBox="4 0 64 100" xmlns="http://www.w3.org/2000/svg">
<g transform="matrix(.076687 0 0 -.076687 0 77.991)">
<path d="m48-203v1136c0 30 17 36 37 36h765c30 0 36-16 36-36v-1135c0-30-15-37-35-37h-767c-30 0-36 16-36 36z" fill="#fff"/>
<path d="m0 933c0 55 35 84 85 84h765c55 0 84-34 84-84v-1135c0-55-34-85-84-85h-766c-55 0-84 34-84 84zm48-1136c0-20 6-36 36-36h767c20 0 35 7 35 37v1135c0 20-6 36-36 36h-765c-20 0-37-6-37-36zm600 899v54c0 36-2 55-8 58-17 15-27 28-27 40 0 17 6 29 15 33 10 5 31 8 67 8 3 0 15-1 37-1s37-2 48-7c10-4 15-16 15-33 0-12-8-25-27-40-5-4-7-14-7-58v-54l12-13c10-12 12-15 12-34 0-16-2-19-12-33l-12-14v-53c0-28 2-46 3-50s6-13 21-24c14-11 16-34-2-48-9-12-69-14-85-14-24 0-64 0-75 15-5 7-10 13-10 19 0 4-21 29-77 86l-75 76-71-72c-35-35-56-56-61-63-7-8-10-15-10-23 0-22-18-35-40-35h-20c-8 0-16 0-23-1-8-2-17-2-26-2-27 0-74 0-74 38 0 1-3 14 11 24 13 12 20 20 21 24 2 4 3 22 3 50v53l-12 14c-15 14-13 18-13 33 0 13 4 25 13 34l12 13v54c0 36-3 55-8 58-17 15-26 28-26 40 0 17 4 30 15 35s35 6 75 6c40-1 66-3 77-8 9-4 15-16 15-33s-6-21-30-40c0 3-1 4-1 4s-1-3-1-8l-2-12c0-5-1-8-1-8v-88l13-13c9-13 11-16 11-34 0-23-24-43-24-56 0 0 0-1 1-1 3 0 22 17 57 49 31 32 58 61 58 62-2 2-5 4-8 6-11 6-22 20-22 35 0 24 8 35 31 38 12 2 31 2 59 2 79 0 92-3 92-40 0-19-9-30-24-35-1-1-7-3-7-6 0-4 20-26 63-68l64-63v16c0 10-4 19-14 28-9 14-11 18-11 33 0 13 3 25 11 34zm44 37c0-26 2-24 6-24 1-1 3-1 7-1l11 1v130h-24zm-476 106-1-61v-45c0-26 0-24 5-24 2-1 4-1 8-1l10 1v130zm246-138-19-17 17-17 15 16zm254-33c0 4-5 9-5 9h-6l-9 2v-55l9 2c7 2 11 10 11 27zm-478-15c0 22-1 24-10 24l-9 2v-55l9 2c2-1 3-1 3-1 2 0 3 5 4 5l1-1 2 10zm268 1-17-18 150-147c1 0 5 4 5 6 3 4 4 8 4 14 0 3-24 27-72 75zm-91 0-66-65c-30-30-50-49-56-56-6-9-9-17-9-22l3-14c1 0 25 23 72 69l71 70-9 9zm301-82c0 22 0 24-8 24h-4c-10-1-12-1-12-34 0-6-1-13-1-18 0-9 0-17 12-27l13-15zm-500 23-2-81 13 12c13 12 13 13 13 40l-2 29zm432-459-64-63c-42-42-63-62-63-66 1-2 4-4 7-8 15-4 24-16 24-35 0-18-5-28-16-34s-37-8-75-8c-57 0-75 5-84 14-5 6-7 15-7 28 0 19 7 31 22 35 3 4 5 6 8 8 0 4-20 23-58 60-9 9-14 15-19 20-20 19-34 30-37 30s-5-8 11-26c15-17 14-48 0-65l-13-13v-57c0-35 2-53 5-56 20-15 30-28 30-40 0-18-5-30-15-34-11-4-37-5-77-5-50 0-65 1-74 5-11 6-16 18-16 34 0 14 4 22 26 40 5 3 8 21 8 56v57l-12 13c-18 17-18 48 0 64l12 14v55c0 29-1 46-4 51-2 4-8 12-20 24-14 10-11 23-11 24 0 9 3 16 10 23v1c0 3 18 10 18 10l22 2h82c19-1 32-4 40-12 8-9 11-15 11-24 0-8 4-14 10-23 6-8 27-28 61-62l71-72 75 76c58 58 77 80 77 86 0 2 3 17 12 19 6 8 22 11 48 12 9 1 20 1 32 1v1c18 0 71 0 80-15 9-9 9-19 9-25 0-7 0-17-9-22-14-12-20-20-21-24-1-5-3-22-3-51v-55l12-14c15-17 16-47 0-64l-12-13v-54c0-37 3-56 7-59 20-18 27-25 27-40 0-18-5-30-15-34-11-4-36-5-76-5-32 0-54 1-66 4-16 4-25 14-25 35 0 12 10 25 27 40 5 4 8 14 8 59v54l-14 13c-9 12-11 15-11 33 0 17 2 21 11 31s13 20 14 31zm-142-80c1 0 25 23 72 70 34 34 54 55 60 63 5 8 7 13 7 18 0 3 0 6-2 8-15 0-123-113-141-134-5-5-8-9-8-14 0-1 0-2 1-3zm-222 142c0-5 3-12 9-21 14-17 119-121 122-121 1 0 4 3 7 8 2 1 2 2 2 4 0 4-2 8-6 13-4 6-24 25-59 61-47 47-71 70-72 70zm432-38 1 46-13-12c-13-12-13-13-13-44 0-18 0-35 4-36l10-2 11 2zm-501-4c0-27 1-41 3-42 1-1 4-2 10-2 11 0 7 2 12 30 0 28-1 28-13 40l-12 14zm501-100c0 23-1 25-11 26h-9v-51h9c10 4 11 2 11 25zm-488-25c9 4 10 2 10 25s-1 25-10 26h-9v-51zm234 11-11-7-8-9 17-18 15 16zm254-43h-24v-95c0-36 0-35 13-35l11 1zm-478 0h-22l-1-60v-35c0-19 0-29 1-31 2-2 6-3 12-4l10 1z"/>
</g>
</svg>
