<?xml version="1.0" encoding="UTF-8"?>
<svg width="24" height="32" version="1.1" viewBox="4 0 64 100" xmlns="http://www.w3.org/2000/svg">
<g transform="matrix(.076687 0 0 -.076687 0 77.991)">
<path d="m48-203v1136c0 30 17 36 37 36h765c30 0 36-16 36-36v-1135c0-30-15-37-35-37h-767c-30 0-36 16-36 36z" fill="#fff"/>
<path d="m599 894c9 0 17-2 22-5 6-3 9-7 11-13 9-24 5-44-12-59-4-2-16-7-35-9-25-1-42-5-51-10-8-5-16-16-24-34-8-22-14-46-18-73-4-29-4-48 1-59 12-35 47-52 103-50l26 4 2 25c2 16 0 38-3 66s-3 42-1 43c4 0 18-17 38-54 18-33 27-52 30-55 1-1 3-4 7-6 5-3 10-5 14-7 17-9 25-22 25-41 0-9-1-15-4-20-4-3-10-8-22-14s-26-11-46-13c-21-3-42-6-63-6-22 0-39 3-53 6-7 2-10 3-10 3s-5 1-12 3l-13 7-22 12c-5 1-7 3-10 7-4 2-7 4-9 6s-6 4-8 6c-6 6-11 13-14 19-6 6-8 14-9 20-2 7-2 16-2 25-1 33 4 71 19 109l1 6 4 19c1 1 1 4 1 5 2 7 2 12 1 13s-3 1-7 0c-4 0-7-1-9-3-4-4-6-9-9-21-6-19-11-31-16-39-4-5-14-16-29-31-34-34-79-64-135-89-26-12-47-19-61-21-12-1-19-1-22 1-3 1-3 4 0 10 2 3 16 12 46 26 59 28 96 60 117 97l8 12-12 7c-18 14-28 23-29 30-2 8 0 12 3 15 4 3 11 6 22 10 15 5 22 8 25 10 2 2 3 19 3 47v31c0 6 0 9 1 11 2 3 4 5 8 7 7 6 24 4 46-5 23-10 37-22 40-38 1-7 3-10 6-12 7 0 22 5 45 17s41 22 54 32c17 12 29 20 39 20z"/>
<path d="m509 498c7 0 12-4 19-13 8-11 13-21 16-32 0-7 2-15 2-21 0-5-3-16-7-29-6-23-8-37-6-40 4-2 18-2 45-1 36 2 70 4 99 2 31 0 48-1 53-3 3-3 4-9 4-14 0-6-2-10-5-14l-16-10c-3-1-6-3-10-4-5-2-9-2-13-2-4-1-11-1-18-1-7-1-16-1-23-2-9 0-20-2-33-2l-83-1-36-14c-52-19-88-32-107-39-20-7-37-12-51-14-13-2-32-4-55-4-35-1-58 0-68 3-8 1-17 6-27 14-6 4-10 8-11 11-2 4-3 9-3 14 0 7 1 12 1 14 2 3 5 5 9 6 6 3 27 0 64-8 41-9 76-11 106-7 4 0 7 1 8 1 4 1 6 1 7 1 2 1 3 1 4 2 1 0 3 2 4 3 0 1 1 2 1 3 3 7 3 13 1 19-2 5-7 8-13 11-10 3-15 8-16 10-1 3 7 14 21 35 7 9 12 18 20 28 6 7 10 15 13 19 8 12 17 17 25 18 9 0 15-2 17-9 9-14 9-36 0-67-5-26-6-40-1-40 2 0 5 3 7 9 15 40 22 64 23 75 1 10-2 21-13 31l-10 13 26 25c6 8 14 13 20 18 6 4 9 6 10 6zm40-225c12 0 20-1 23-5 2-2 3-3 5-6 0-1 1-5 1-11 0-7-1-14-3-24-1-7-2-22-4-41-5-37-7-68-7-94 0-23 2-36 5-39 2-5 13-7 31-8 40-3 74-14 105-31 29-15 47-32 50-52 4-23 0-41-14-53-10-10-29-20-54-31-24-11-46-17-65-20-17-3-37-4-57-3-19 1-34 4-43 9-23 13-40 24-52 35-3 4-6 5-7 6 0 1-2 3-5 4l-5 3-2 3c-3 0-10-3-23-8-21-7-35-11-46-13-9-1-17 0-21 4-4 5-8 6-9 5-1-2-2-5-2-14 0-19-3-29-12-33h-5c-3 0-5 0-7 2-6 1-14 13-25 39l-2 8c-5 11-8 17-10 21-2 5-12 7-27 5-3-1-5-1-7-1-9-1-19 0-27 2-4 2-12 9-20 17-11 8-19 16-27 25-8 10-13 15-14 19-1 3-1 7-1 10 1 3 3 4 9 5h19c9-1 20-2 36-5 23-2 36-3 38-2 1 2 0 12-5 31-1 6-3 12-4 20-1 6-1 15-2 22v18c0 15 0 22 1 26 1 2 4 5 9 8l8 1h9c5-1 8-5 9-12 2-5 7-23 14-49 3-19 7-35 10-48l5-19 18 2c13 1 23 4 32 8 7 1 10 3 11 7 1 2 1 9 1 19v19c-1 1-3 2-6 1l-11-2c-5 0-7-3-9-10-2-8-6-11-9-13-5-1-10 0-14 4-3 4-7 11-9 19-8 24-12 54-14 88-2 36-1 59 4 71 2 5 5 9 7 10 3 1 11 2 24 2 15 2 34 7 56 15 62 21 112 34 146 34zm-58-57h-9c-5-1-10-1-17-2l-19-4v-33l19 3c3 0 7 0 10 1 4 1 6 2 9 2 2 2 4 2 4 3 6 3 8 6 8 9 0 4 1 8 2 15 1 4-1 6-7 6zm-102-19c-8 0-15-3-20-6-7-5-10-9-11-13-1-6 0-10 4-13 5-4 9-5 16-3 5 1 11 3 13 7 0 2 1 5 2 7v9c0 4 0 6-1 8s-2 2-3 2zm97-41c-2 0-4 0-7-1-3 0-5-1-9-1-3-1-7-1-9-2-2-2-4-3-8-3-2-1-5-1-6-2-2 0-2-1-2-3-4-2-5-8-5-17v-14l14 2c4 0 7 2 9 2 4 0 7 1 11 2 2 1 6 2 7 3 3 1 5 3 7 4s3 3 3 5c2 2 2 5 2 10l-2 15zm-111-24c-2 0-3-1-5-2-3-3-7-4-8-1-1 1-2 0-3-3l-1-6v-19c0-2 0-3 1-4h8c4 0 8 1 12 2 4 3 5 9 7 14 2 6 3 10 0 14-2 3-4 4-7 4-1 1-2 1-4 1zm112-51c-5 0-14-1-27-4-14-3-21-5-22-8-1-2-1-11-1-24 0-12 1-17 3-18 1-2 11 0 25 2 14 3 21 6 23 7 2 2 3 7 5 14 1 7 2 15 0 22-1 6-3 9-6 9zm78-78c0-8 1-19 5-34 2-15 4-24 3-29 0-7-3-12-8-18l-11-13 13 2c10 2 24 7 44 13h-2c25 10 41 19 47 25 8 7 10 16 8 29-1 8-6 16-16 23-10 8-27 11-49 12l-34 1zm-81 7c-2 0-4-1-9-3-2 0-5 0-8-1-4-1-7-3-10-4-4-1-8-2-11-3-7-3-10-4-12-6-3-2-4-4-6-7 0-3 1-6 2-8 2-3 2-4 5-5 2-1 4-1 6-1s11 3 26 11c19 10 27 18 21 24-1 2-2 3-4 3zm-100-37c-2 0-11-4-26-9-18-9-23-19-18-32l6-10 3 2c3 3 6 5 9 8 3 2 5 6 10 8 3 2 5 3 6 3 4 0 8 2 10 7 5 4 7 11 7 15 0 6-2 8-7 8zm96-35c-8-1-12-7-11-14 1-5 8-10 18-14 4-2 8-2 12-2 6-1 9-1 13-1s5 1 6 2c0 1-4 7-14 15-8 9-16 15-20 15z" fill="#e5007f"/>
<path d="m0 933c0 55 35 84 85 84h765c55 0 84-34 84-84v-1135c0-55-34-85-84-85h-766c-55 0-84 34-84 84zm48-1136c0-20 6-36 36-36h767c20 0 35 7 35 37v1135c0 20-6 36-36 36h-765c-20 0-37-6-37-36v-1125z"/>
</g>
</svg>
