<?xml version="1.0" encoding="UTF-8"?>
<svg width="24" height="32" version="1.1" viewBox="4 0 64 100" xmlns="http://www.w3.org/2000/svg">
<g transform="matrix(.076687 0 0 -.076687 0 77.991)">
<path d="m48-203v1136c0 30 17 36 37 36h765c30 0 36-16 36-36v-1135c0-30-15-37-35-37h-767c-30 0-36 16-36 36z" fill="#fff"/>
<path d="m230 842c39 0 73-15 101-44l16-17 17 17c29 29 62 44 103 44 40 0 75-15 102-44l17-17 16 17c17 18 37 31 60 38 22 6 44 7 66 4 21-4 42-13 60-27 20-16 36-34 47-57 6-15 10-34 10-56 0-15 0-26-3-32-1-6-4-14-7-24-27-56-70-84-130-84-21 0-41 3-59 10-16 8-33 19-46 34l-14 17-16-17c-6-8-14-13-22-20-8-5-15-10-24-14-9-3-18-7-28-8-10-2-20-2-29-2-21 0-41 3-59 10-16 8-32 19-45 34l-16 17-13-17c-11-10-21-19-32-25-10-7-22-11-34-15-12-3-25-4-41-4-18 0-33 1-44 6-33 12-58 33-76 64-18 29-23 61-18 94 7 36 24 64 50 86 28 21 57 32 91 32zm-3-27c-33 0-60-13-83-39-30-32-39-69-26-110 13-42 42-67 85-77 17-5 33-5 50-1 19 4 36 12 49 23s23 25 32 43c2 5 5 10 6 14 1 5 2 9 2 13 1 6 1 12 1 19 0 19-3 35-11 51-21 42-56 64-105 64zm474 0c-30 0-59-13-83-39-29-32-37-69-24-110 14-42 42-67 85-77 8-2 14-4 18-5h13c5 1 11 3 19 3 19 5 34 13 47 24 14 11 25 25 32 43 7 12 10 27 10 46s-4 35-11 51c-22 42-56 64-106 64zm-238 0c-32 0-59-13-81-39-20-21-30-45-31-73-1-26 6-50 23-72 18-22 40-37 67-42 8-2 13-4 18-5h13c4 1 11 3 19 3 19 5 34 13 47 24s24 25 34 43c5 12 7 27 7 46v13c-1 7-1 10 0 10s0 2-2 8l-2 9-6 11c-23 42-56 64-106 64zm10-8c42-4 73-25 92-64 12-25 13-52 2-79-10-28-28-48-54-60-9-4-18-6-28-9-11-1-21-1-31-1-10 1-19 4-27 7-26 10-44 27-56 52-5 9-7 16-9 23-1 5-2 14-2 24 0 8 0 14 1 19 0 4 1 9 3 13 1 4 3 10 8 17 9 18 22 33 38 43 17 10 34 15 55 15zm-238 0c21-2 40-9 55-19 16-11 28-26 37-45 5-12 8-25 9-40 0-14-2-27-7-39s-12-25-21-34c-9-11-20-20-33-26-14-6-27-10-43-10-17-1-30 1-42 7-26 10-44 27-56 52-7 15-11 31-11 47v14c0 4 1 8 2 11 1 4 2 7 3 11 2 4 3 8 6 13 21 38 51 58 93 58zm476 0c42-4 73-25 92-64 11-25 11-52 1-79-10-28-28-48-53-60-12-6-28-10-44-10-17-1-31 1-42 7-25 10-44 27-56 52-5 9-7 16-9 23-1 5-2 14-2 24v14c0 4 1 8 2 11 0 4 2 7 3 10 1 5 4 9 7 14 6 12 14 23 23 32 9 7 20 14 31 19 12 5 24 7 37 7zm-481-19c-18 0-30-2-35-5-4-5-6-9-6-15s2-11 6-16c6-7 9-10 10-9 1 2 0 4-3 9-7 14-1 23 15 26 15 3 26 1 35-4 7-6 8-13 3-22-2-6-3-8-3-9 2-2 5 1 9 9 11 11 11 21 0 31-3 3-14 5-31 5zm237 0c-10 0-18 0-23-1-4-1-8-2-11-4-9-10-9-20 0-31 6-7 9-10 10-9 1 2 0 4-3 9-7 14-2 23 14 26 5 0 10 1 15 1 4 0 9-1 12-1 3-1 6-3 9-4 2-1 3-3 5-6 1-3 1-5 1-8 0-4-2-6-3-8-3-6-4-8-3-9 1-2 4 1 10 9 3 3 5 7 6 11 1 3 1 8 0 10-1 3-3 6-6 10-5 3-16 5-33 5zm238 0c-11 0-19 0-23-1-6-1-9-3-11-5-3-3-5-6-6-9-1-2-1-7 0-10 1-4 3-8 7-11 3-6 6-8 8-9 2 2 0 4-2 9-6 14-2 23 15 26 8 1 17 1 25 0 8-2 12-5 14-10s1-9-1-16c-3-6-4-8-3-9 1-2 4 1 10 9 10 11 10 21 0 31-5 3-16 5-33 5zm-533-27c-3 0-6 0-10-1-7-6-14-16-18-32-5-12-7-21-6-26 0-4 2-9 7-13 5-5 11-8 17-5 2 0 5 0 7 1s4 2 5 2c1 1 3 1 4 2 0 1-1 2-6 3-8-1-13 0-16 4-6 4-6 14-1 28 4 15 11 22 18 25 4 1 8-2 15-6l5-4c5 0 2 4-4 13l-6 5c-1 2-3 3-5 4h-6zm113 0h-6c-2-1-4-2-7-5-2-2-3-4-4-7l-4-10c0-3 2-1 7 4 5 4 10 7 14 6 8-3 14-10 19-25 5-14 4-24-2-28 0-1-1-3-4-3l-6-1h-10c-7 0-5-2 6-7 10-5 19-3 26 4 1 0 4 1 5 6l1 6v10c-2 10-5 19-8 27-4 7-8 13-13 17-4 5-9 6-14 6zm123 0c-1 0-4 0-7-1-9-6-16-16-22-32-3-12-4-21-4-26 0-4 2-9 8-13 2-2 3-4 5-5 1 0 4 0 6-2 1 0 3 0 5 2 4 0 7 0 9 2 3 1 6 2 7 3s-1 2-7 3c-7-1-12 0-14 4-7 4-8 14-2 28 4 15 9 22 18 25 5 1 9-2 14-6 3-3 5-4 7-4 5 0 4 4-4 13-3 3-6 5-9 7s-7 2-10 2zm115 0c-7 1-13-2-18-12l-4-10c0-3 3-1 9 4 4 4 9 7 13 6 9-3 14-10 20-25 4-14 3-24-3-28l-15-4h-7c-5 0-3-2 8-7 10-5 19-3 27 4 4 4 6 11 4 22-2 16-7 28-13 36-7 9-14 14-21 14zm123 0c-2 0-5 0-6-1-7-4-11-7-14-11-3-6-5-13-8-21-3-7-4-11-4-15-1-3-1-6-1-10 0-3 0-5 1-7 1-3 4-5 6-7 4-5 11-8 17-5 4 0 7 0 9 2 4 1 6 2 7 3 0 1-2 2-7 3-2 0-5 0-9 1-3 0-4 2-5 3-7 4-8 14-2 28 4 15 10 22 18 25 5 1 9-2 14-6 3-3 5-4 7-4 4 0 2 4-5 13-6 7-11 9-18 9zm114 0c-4 0-7-1-9-2-3-3-7-6-8-10-3-6-4-10-4-10 0-3 2-1 6 4 7 4 11 7 15 6 8-3 14-10 19-25 4-14 4-24-2-28-3-4-8-5-14-4h-7c-6 0-5-2 7-7 6-3 11-3 14-3 5 0 8 4 11 7 6 4 8 11 7 22-1 3-2 8-2 11-1 3-2 7-3 10-2 3-4 6-5 9 0 2-2 4-3 6-1 3-3 5-6 6-2 2-3 4-5 6-1 1-3 1-6 2h-5zm-532-26c-13 0-23-6-28-18-7-14-6-26 2-37 8-9 16-14 25-14 10-1 19 3 26 13 6 5 10 11 10 18 1 7-2 14-5 20s-9 11-16 14c-4 2-8 4-14 4zm237 0c-7 0-14-3-21-8-6-7-11-15-11-23-1-7 2-16 7-24 8-9 16-14 25-14 9-1 18 3 26 13 9 8 11 18 9 28-1 11-8 18-20 24-2 1-6 1-7 2-2 1-5 2-8 2zm239 0c-6 0-10-1-15-4-4-2-7-6-11-10-2-3-4-8-6-12-1-6-1-10 0-16 0-4 2-8 5-13 8-9 16-14 25-14 10-1 19 3 27 13 9 8 11 18 9 28-4 11-10 18-21 24-5 2-9 4-13 4zm-234-8c1 0 2 0 4-2l6-3 10-10c4-11 3-21-5-28-12-11-23-13-35-3-2 1-4 4-6 5-1 2-2 4-3 7 0 3-1 5-1 8 0 2 1 5 1 7 1 2 2 4 3 5 2 3 4 5 6 7 4 4 10 5 17 5 1 2 2 2 3 2zm-242 0c10 0 18-6 24-15 5-11 4-21-4-28-12-11-24-13-36-3-6 5-8 11-8 19 0 3 0 7 1 9 1 3 2 5 5 8 1 2 3 4 5 5 1 1 3 2 7 3h6zm476-2c9 0 17-4 22-13 5-10 4-20-3-28-5-6-11-8-17-9-7 0-13 2-20 6-4 5-8 11-8 19 0 4 1 8 4 11 1 2 3 6 5 8 2 3 6 4 8 5s5 1 9 1zm-524-44h-5c-1-1-2-1-3-1l-6-3c-3-1-4-2-6-3-2-3-3-4-4-5-11-15 1-33 34-49 13-7 22-6 30 1 3 3 4 9 5 16 1 9 0 13-2 16-1 1-2 1-3 0v-5c0-11-4-17-10-20-7-2-16 0-26 8-4 3-7 6-11 9-3 3-4 5-5 9-1 2-2 4-2 8 0 2 1 4 3 7 2 2 4 5 8 5 10 5 11 7 3 7zm96 0c-2 0-1-1 1-4 5-3 9-6 10-6 2 0 3-1 4-4 1-2 1-5 1-9-1-3-2-6-4-9-3-5-8-11-16-15-7-4-14-7-17-7-11 0-16 7-16 21 0 1-1 2-3 4-6-13-6-22 3-31s24-7 43 6c8 6 14 11 18 17s7 11 7 15c0 5-3 9-6 14-3 4-10 6-17 7zm142 0c-2-1-5-1-10-1-2-1-5-2-9-4-3-2-4-5-5-7-11-16 1-33 33-49 12-7 22-6 29 1 3 2 5 5 6 10 1 4 1 8 1 13-1 5-2 8-2 9-1 1-2 1-3 0s-2-3-2-5c0-5 0-10-3-13-1-3-3-5-6-7-4-1-7-1-11 2-4 1-9 3-14 6-11 7-17 14-18 21-3 8 2 13 11 17l4 3c5 3 3 4-1 4zm95 0c-1 0 0-1 2-4 2-2 4-3 6-4 2-2 3-2 4-2 2 0 3-2 4-4s1-5 0-9c0-3-1-6-3-9-3-5-9-11-15-15-8-4-15-8-20-8-9 0-13 8-13 22 0 4 0 5-2 6 0 0-2-1-3-2-8-13-5-22 5-31 7-9 22-8 40 5 11 8 19 16 24 23 4 7 4 15 1 20-5 6-11 9-24 11zm141 0h-2c-1-1-4-1-6-1-6-2-12-5-16-11-10-16 2-33 35-49 12-7 22-7 29 1 3 3 5 9 6 16 1 9 0 13-3 16-1 1-2 1-2 0s-1-3-1-5c0-7-1-12-5-16-3-4-6-5-12-5-5 1-11 4-19 9-11 7-16 14-17 21-1 8 2 13 11 17 10 5 11 7 2 7zm97 0c-2 0-1-1 2-4 5-4 8-6 10-6s5-3 5-8c0-6-2-10-4-14-3-3-6-7-11-10-3-3-8-6-12-8-5-3-9-5-12-5-10 0-16 8-16 22 0 5-1 6-2 4-7-13-6-22 5-31 7-9 22-8 40 5 10 8 18 16 21 23 5 7 5 15 2 20-4 6-10 9-21 11-4 1-6 1-7 1zm-45-507c22 0 44-5 65-17 28-16 49-38 64-69 6-15 10-34 10-56v-25c-1-5-3-10-4-15-1-4-4-10-6-17-27-55-71-84-130-84-15 0-28 2-40 4-12 4-24 9-35 16s-21 15-31 26l-13 16-16-16c-13-15-28-27-45-34-18-8-38-12-58-12-21 0-41 4-59 12-16 7-32 19-45 34l-16 16-13-16c-28-31-65-46-107-46-18 0-33 2-45 6-32 13-57 34-75 63-18 30-24 62-18 96 5 23 14 44 28 62 14 19 31 33 51 42s41 13 62 13c39 0 73-14 101-44l16-17 17 17c28 30 62 44 103 44 40 0 75-14 102-44l17-17 16 17c23 24 50 40 81 44 7 1 15 1 23 1zm-5-28c-30 0-59-13-83-38-29-33-37-69-24-111 14-41 42-66 85-77 16-4 33-5 50-2 19 6 34 14 47 25 14 10 25 24 32 43 4 5 6 10 7 13 1 4 1 9 2 14 0 6 1 11 1 18 0 19-4 35-11 51-22 43-56 64-106 64zm-474 0c-33 0-60-13-85-38-28-33-37-69-24-111 13-41 42-66 84-77 18-4 34-5 51-2 12 4 23 8 34 14 10 6 19 14 27 23 8 8 15 19 20 31 4 7 7 15 7 21 1 5 2 13 2 24 0 19-3 35-11 51-21 43-56 64-105 64zm236 0c-32 0-59-13-82-38-29-33-38-69-25-111 14-41 42-66 84-77 12-3 20-5 25-5 6 0 15 1 26 3 12 4 23 8 34 14 10 6 19 14 26 23 8 8 15 19 21 31 3 7 5 15 6 21 1 5 1 13 1 24 0 13 0 22-1 27-1 6-5 14-9 24-22 43-56 64-106 64zm10-8c42-2 73-24 92-64 12-25 13-52 2-80-10-27-28-47-54-59-7-2-13-6-21-7s-16-2-22-3c-8 0-14 0-22 1s-15 3-21 7c-26 10-44 26-56 52-5 9-7 17-9 23-1 5-2 13-2 23-2 3-2 8 1 15l2 10 3 11c1 4 2 8 6 13 9 18 22 32 38 43 17 10 34 15 55 15zm-238 0c21-1 40-8 55-19 16-11 28-25 37-45 12-25 13-52 2-80-10-27-28-47-54-59-14-6-27-9-43-10-17 0-30 2-42 8-26 10-44 26-56 52-7 14-11 30-11 47s4 33 11 48c21 39 51 58 93 58zm476 0c42-2 73-24 92-64 11-25 11-52 1-80-10-27-28-47-53-59-12-6-28-9-44-10-17 0-31 2-42 8-25 10-44 26-56 52-5 9-7 17-9 23-1 5-2 13-2 23 0 12 1 20 2 25 2 6 5 15 10 24 20 39 49 58 91 58zm-483-18c-17 0-28-2-33-6-10-9-10-19 0-30 6-8 9-11 10-10 1 2 0 5-3 11 0 3-1 5-2 9 0 2 0 4 2 6 1 4 3 6 5 7 4 1 7 2 10 2 10 2 18 2 26 0 7-2 13-5 14-10 2-4 1-10-2-15-2-6-3-9-3-10 2-2 5 1 11 10 9 11 9 21 0 30-3 2-7 3-14 4-5 1-13 2-21 2zm239 0c-18 0-29-2-34-6-9-9-9-19 0-30 6-8 9-11 10-10 1 2 0 5-3 11-2 5-3 11 0 15 2 6 7 8 14 9 16 3 27 2 36-3 7-6 9-13 3-22-3-6-4-9-3-10 1-2 4 1 10 10 10 11 10 21 0 30-5 4-16 6-33 6zm237 0c-8 0-15-1-20-2-7 0-11-2-12-4-11-9-11-19 0-30 3-6 6-9 8-10 2 2 0 5-2 11-6 13-2 21 15 24 15 3 26 2 34-3 7-6 9-13 4-22-3-6-4-9-3-10 1-2 4 1 10 10 10 11 10 21 0 30-2 2-7 3-13 4-7 1-14 2-21 2zm51-27c-2 0-3-1-4-3-3-2-7-5-8-10-3-6-5-9-5-11s3 0 7 5c7 5 11 8 15 6 4-1 10-5 14-13 5-7 7-15 8-23 0-8-1-13-5-18-1-1-4-1-6-2h-8-7c-6 0-5-3 7-7 11-5 20-4 25 4 6 4 8 11 7 23-2 14-7 25-13 34-7 10-14 15-22 15h-5zm-232 0c-7 1-13-4-18-13-3-6-4-9-4-11s3 0 9 5c4 5 9 8 13 6 9-1 14-8 20-24 4-14 3-24-3-30l-15-2h-7c-5 0-3-3 8-7 10-5 19-4 27 4 4 4 6 11 4 23-2 14-7 25-13 34-7 10-14 15-21 15zm-238 0c-3 0-4 0-6-1-2 0-4-2-7-4-2-2-3-4-4-8l-4-11c0-2 2 0 7 5s10 8 14 6c8-1 14-8 19-24 5-14 4-24-3-30-2-2-8-3-14-2h-6c-6 0-4-3 7-7 10-5 19-4 26 4 5 4 7 11 6 23-1 3-2 8-3 12-3 6-4 9-5 12-2 5-3 8-5 10-3 4-5 7-8 8-2 2-4 4-7 4-3 2-5 3-7 3zm123 0c-1 0-4-1-7-1-9-6-16-17-22-34-2-7-3-14-3-18-1-5-1-8 0-11s3-5 7-8c4-7 10-9 16-7 4 0 7 1 9 3 3 2 6 3 7 4s-1 2-7 3c-7-1-12 0-14 2-7 6-8 16-2 30 4 16 9 23 18 24 5 2 9-1 14-6 3-2 5-5 7-5 5 0 4 5-4 15-6 5-12 9-19 9zm-236 0c-3 0-6-1-10-3-7-4-14-15-20-32-3-12-5-19-4-24 0-5 2-10 7-13 4-7 11-9 17-7 2 0 5 1 7 3 2 1 4 1 5 2 1 0 3 1 4 2 0 1-3 2-6 3-8-1-13 0-16 2-6 6-6 16-1 30 4 16 11 23 18 24 4 2 8-1 15-6l5-5c5 0 2 5-4 15-2 2-5 4-8 6s-6 3-9 3zm468-3c-10-4-17-15-22-32-3-7-4-14-4-18-1-5-1-8 0-11 0-3 2-5 6-8 4-7 11-9 17-7 8 1 13 4 16 7 0 1-2 2-7 3-6-1-12 0-14 2-7 6-8 16-2 30 4 16 10 23 18 24 5 2 9-1 14-6l7-5c4 0 2 5-5 15-6 5-11 9-18 9zm-175-24c-7 0-14-2-21-9-6-5-9-13-11-21-1-8 2-16 7-24 8-10 16-14 25-15 9 0 18 4 26 13 9 9 11 18 9 29-1 10-8 18-20 23-5 3-10 4-15 4zm-237 0c-13 0-23-5-28-19-7-12-6-24 2-35 8-10 16-14 25-15 10 0 19 4 26 13 6 5 10 11 10 19 1 6-2 13-5 20-3 5-9 9-16 13-4 3-8 4-14 4zm476 0c-13 0-22-5-29-19-7-12-6-24 2-35 8-10 16-14 25-15 10 0 19 4 27 13 5 5 9 11 9 19 1 6 0 13-5 20-3 5-8 9-16 13-5 3-9 4-13 4zm-476-9c10 0 18-4 24-13 5-12 4-21-4-30-12-11-24-11-36-1-6 5-8 10-8 19 0 2 0 5 1 7 0 2 1 4 2 6 2 2 3 4 5 6 2 1 3 2 5 3 1 1 4 2 6 2 1 1 3 1 5 1zm239 0c5 0 9-1 13-3 3-3 6-7 10-10 4-12 3-21-5-30-12-11-23-11-35-1-2-1-3 0-4 4l-3 5-2 7v5l2 7c0 2 1 3 3 5 1 1 2 4 4 6 4 3 10 5 17 5zm237 0c9 0 17-4 22-13 6-12 5-21-3-30-12-11-24-11-37-1-1 2-3 5-4 8-3 3-4 7-4 10 0 4 1 8 4 11 1 3 3 7 5 9s6 4 8 5 5 1 9 1zm-50-44c-2 0-4-1-8-1-6-2-12-6-16-11-10-16 2-33 35-51 12-5 22-5 29 1 3 4 5 9 6 18 1 8 0 13-3 16-1 1-2 1-2 0 0-2-1-4-1-6 0-4 0-9-3-12-1-4-3-7-6-8s-7 0-11 1c-6 3-10 5-16 7-6 5-12 10-14 15-3 5-4 9-2 14 1 4 4 7 10 10 10 5 11 7 2 7zm-474 0c-2 0-5-1-8-2-8-1-13-5-16-10-11-16 1-33 34-51 12-5 22-5 30 1 2 4 4 9 5 18 1 8 0 13-3 16 0-2-1-4-2-6 0-7-3-12-5-15-3-4-8-6-13-5-4 0-11 4-18 8-11 8-17 14-18 22-2 7 3 12 11 17 10 5 11 7 3 7zm96 0c-2 0-1-2 1-4 5-5 9-7 10-7 2 0 4-2 4-8 1-4 0-8-3-13-2-4-6-7-9-11-4-3-9-5-13-7-5-4-9-5-11-5-10 2-14 9-16 21 0 1-1 2-3 3-8-11-6-21 3-31 5-4 11-6 18-5s14 5 25 12c10 8 17 16 21 23 5 7 5 13 1 19s-11 10-20 12h-6zm142 0c-2 0-5-1-10-2l-5-2-6-5-3-3c-11-16 0-33 33-51 6-4 13-5 16-5 5 1 9 3 13 6 4 4 6 9 7 18 1 8 0 13-2 16h-3c-1-2-2-4-2-6 0-11-3-18-9-20-7-1-15 1-25 8-11 8-17 14-18 22-3 7 2 12 11 17 10 5 11 7 3 7zm95 0c-1-1 0-3 2-4 2-2 4-5 6-5 1-1 3-2 4-2 5-4 7-11 1-21-2-4-5-7-10-11-4-3-9-5-13-9-6-2-9-3-12-3-9 0-13 7-13 21 0 3-2 6-2 6 0 1-2 0-3-3-8-11-6-21 5-31 7-8 22-6 40 7 8 7 15 12 19 18 6 5 8 11 8 15 0 6-2 10-7 13-4 4-10 7-19 7-3 1-5 2-6 2zm238 0c0-1 1-2 2-4 5-5 8-7 10-7 1 0 1-1 2-2s3-3 3-6c0-2 0-4-2-7 0-2-1-5-2-6 0-1-2-3-5-6l-6-6-5-4c-3-1-5-2-7-2-3-2-5-3-8-4-1-1-3-1-4-1-4 0-8 2-11 7-2 3-5 9-5 14 0 6-1 7-2 3-7-11-6-21 5-31 7-8 22-6 40 7 5 3 8 7 12 10s6 7 8 10c3 3 4 7 5 9 1 3 1 6 1 9-1 2-2 4-5 6-1 2-4 5-7 6-4 1-8 3-12 3-4 1-6 2-7 2z"/>
<path d="m705 509c40 0 76-15 106-47 30-34 41-75 33-121-9-47-36-81-79-102-14-7-33-11-53-12-47-2-84 13-113 45l-12 16-18-18c-14-14-29-25-43-32-14-6-32-10-52-11-15 0-30 1-44 5-13 3-25 7-36 14-12 6-22 15-33 26l-12 16-18-18-13-12-14-11c-5-3-9-6-13-8-10-4-19-6-24-9-7-1-18-2-32-2-14-1-25-1-32 0s-13 2-22 5c-18 7-35 18-51 34s-27 34-34 53c-12 33-12 65 0 96 11 28 29 51 53 68s52 25 81 25c20 0 38-3 55-11 16-6 32-17 47-33l17-16 12 12c26 32 61 48 106 48 39 0 73-14 103-44l17-16 11 12c9 10 20 19 31 25 11 8 23 13 35 17 13 4 26 6 41 6zm-473-27c-49 0-83-21-104-63-18-34-19-68-3-100 15-33 42-54 79-63 17-5 32-5 49 0 44 10 72 36 86 77s6 78-24 110c-23 26-51 39-83 39zm238 0c-50 0-84-21-106-63-15-34-17-68-1-100 15-33 41-54 78-63 16-5 32-5 50 0 28 6 52 20 68 42 17 22 24 46 23 74-1 26-11 50-29 71-8 9-16 16-26 22-9 6-17 10-27 12-10 4-20 5-30 5zm236 0c-48 0-82-21-104-63-16-34-17-68-2-100 15-33 42-54 79-63 16-5 32-5 50 0 43 10 72 36 85 77s5 78-23 110c-25 26-52 39-85 39zm-474-8c9 0 17-1 27-3 9-4 18-7 26-12s15-11 22-19c6-8 13-17 17-25 8-16 11-31 11-48 0-16-3-32-11-47-6-14-15-25-25-33-10-10-23-17-36-20-24-8-43-9-60-4-24 7-43 19-56 37s-21 37-22 62c-1 16 0 30 4 43 5 12 12 23 24 36 11 11 24 19 37 24 13 7 27 9 42 9zm238 0c42 0 73-20 92-59 8-16 11-31 11-48 0-10-1-18-2-23-1-6-4-14-10-24-6-14-14-25-25-33-11-10-22-17-35-20-23-8-43-9-62-4-22 7-41 19-54 37s-22 37-23 62c0 12 0 22 2 30 1 9 4 17 9 25 4 7 11 15 19 24 11 11 23 19 36 24 13 7 28 9 42 9zm236 0c43 0 74-20 93-59 6-10 9-18 10-24 2-5 3-14 3-24 0-16-5-32-13-47-7-14-15-25-26-33-10-10-22-17-36-20-21-8-41-9-60-4-11 5-21 9-31 16-9 6-17 13-24 21-7 9-12 18-15 29-4 9-7 20-7 33-1 16 0 30 4 43 6 12 14 23 25 36 11 11 23 19 37 24 13 7 27 9 40 9zm-478-16c-18 0-30-5-36-13-7-7-5-16 3-26 6-7 10-10 12-9s0 3-2 6c-2 5-2 11-2 16 0 6 3 9 12 11 19 7 33 5 41-4 3-5 2-12-1-24-1-2-2-3-2-4 0-2 3 0 7 5 11 11 14 21 7 31-2 3-7 5-13 7-7 2-16 4-26 4zm237 0c-12 0-21-3-27-6-8-3-11-8-12-14 0-6 2-11 7-19 4-4 7-8 10-9 1 1 1 3 0 6-3 5-4 11-4 16 0 6 4 9 14 11 7 4 15 5 23 2 9-1 15-3 18-6 3-5 2-12-1-24-1-2-2-3-2-4-1-2 2 0 8 5 9 11 12 21 6 31-2 2-5 4-8 5s-7 3-13 3c-5 1-12 3-19 3zm239 0c-18 0-30-5-37-13-6-7-5-16 5-26 4-7 7-10 10-9 1 1 1 3-2 6-2 5-3 11-3 16 0 6 5 9 14 11 19 7 32 5 40-4 3-5 3-12-2-24 0-2 0-3-1-4 0-2 2 0 8 5 11 11 13 21 7 31-2 2-5 4-9 5-3 1-7 3-13 3-4 1-11 3-17 3zm-531-28c-3 0-7-2-12-6-3-3-8-8-11-15s-6-14-9-25c-4-14-2-23 5-30 6-7 15-7 27 0 6 1 8 3 8 4 0 3-3 3-9 1-11-1-17 3-20 10-2 7 0 17 6 30 5 10 10 14 15 17 5 1 9-1 12-6 6-4 9-6 10-6s1 3-2 9c-4 11-11 17-20 17zm114 0c-3 0-7-1-10-3-2-3-6-6-9-9-3-8-4-11-4-12s3 0 8 4c3 2 5 3 7 3 2 2 3 2 6 3h3c8-3 14-12 18-28 3-16 2-25-6-26l-4-3h-7c-1 0-3 0-4 2-3 0-4 1-5 1-2 0-2-1-1-4 1-2 3-4 9-6 9-4 18-4 24 2 5 2 7 7 8 11s1 10-1 18c-1 6-4 14-7 22-3 7-6 13-12 18-5 5-10 7-13 7zm124 0c-3 0-5-1-7-2-3 0-4-2-6-4-2-1-4-3-6-6-3-3-4-7-6-9-1-3-2-8-4-11-1-4-3-9-4-14-3-14-2-23 5-30 5-7 15-7 27 0 6 2 9 3 8 4 0 3-3 3-10 1-7-1-12 0-14 4-4 3-5 7-5 14 1 7 4 14 7 22 3 7 7 11 10 13 2 3 5 4 9 4 3 0 6-1 9-6 4-4 7-6 9-6s2 3-2 9c-5 11-12 17-20 17zm112 0c-2 0-4-1-6-2-2 0-4-2-5-5-2-2-4-3-6-5-4-8-5-11-5-12 1-1 4 0 10 4 6 5 11 7 15 6 8-3 14-12 18-28 3-16 2-25-6-26-5-3-11-3-16 0h-4c-3 0-4-1-3-4 2-2 6-4 11-6 6-3 10-3 13-3 4 2 7 3 11 5 4 1 6 4 7 8 1 3 1 7 1 12 0 3-1 9-2 14-1 6-3 11-6 18-3 6-7 12-13 17-4 5-9 7-14 7zm125 0c-6 0-12-4-18-12-6-9-10-20-14-34-3-14-2-23 5-30 5-7 15-7 27 0 6 2 9 3 8 5 0 2-3 2-10 0-6-1-12 0-15 4-3 3-6 7-5 14 0 7 4 14 8 23 5 9 9 13 13 16 5 1 10-1 15-6 4-4 6-6 7-6 4 0 4 3-1 9-5 11-12 17-20 17zm113 0c-2 0-6-1-9-3-3-3-5-5-8-9-4-8-5-11-5-12s2 0 9 4c3 2 5 3 8 5 4 1 6 1 7 1 9-3 16-12 18-28 3-16 1-25-6-26-4-3-10-3-15 0h-4c-3 0-4-1-3-4 1-2 5-4 10-6 6-3 11-3 14-3 4 2 8 3 11 5 3 1 5 4 6 8s2 7 2 12c0 3-1 9-2 14-1 6-3 11-7 18-2 3-4 7-6 10s-4 6-6 7c-2 3-4 5-6 5-4 1-6 2-8 2zm-533-28c-2 0-4 0-5-1-2 0-5-1-8-2-2-1-4-2-5-4-3-3-4-5-6-6-12-13-13-27-2-42 11-13 24-17 40-12 14 6 22 16 22 32 0 8-3 16-7 21-3 6-9 9-16 11-3 1-5 2-6 2-2 1-4 1-7 1zm239 0c-6 0-10-1-14-3s-9-5-13-11c-11-13-11-26 0-41 6-6 11-12 18-13 5-2 13-2 21 1 14 6 22 16 22 32 0 8-2 16-6 21-4 6-9 9-16 11-5 2-8 3-12 3zm238 0c-10 0-19-4-27-14-12-13-12-26-1-41 7-6 12-12 19-13 5-2 13-2 21 1 14 6 21 16 21 32 0 8-1 16-6 21-4 6-10 9-16 11zm-237-8c4 0 7-2 11-4 3-2 5-4 8-7 3-4 5-8 6-13 1-11-3-19-14-25-11-5-21-4-29 3-6 6-8 13-7 20 0 8 4 13 8 18 3 2 7 3 10 4 2 1 6 2 7 4zm238 0c13 0 22-8 25-24 1-11-3-19-15-25-11-5-21-4-28 3-5 6-8 13-8 20 0 8 4 13 9 18 6 3 11 6 17 8zm-475-2c5 0 11-1 15-5s8-10 9-17c1-11-3-19-14-25-11-5-21-4-29 3-6 6-8 13-7 20 0 8 4 13 10 18 5 3 10 5 16 6zm423-43c-1 0-3 0-6-1l-7-3-7-4c-2-1-3-4-4-6-7-12 0-25 22-40 17-13 32-16 41-8 5 3 7 8 7 17 0 11-1 17-3 16-2 0-3-4-3-9-3-16-11-19-29-9-20 9-26 19-23 30 1 2 5 5 12 10 8 4 9 6 3 6 0 1-1 1-3 1zm-233 0c-14 0-24-5-29-14-6-12 1-25 22-40 7-5 14-8 18-11 5-1 9-2 12-2 4 0 8 1 12 5 5 3 7 8 7 17 0 12-1 17-4 16-2 0-3-2-3-8-2-6-3-10-5-12-2-3-4-5-9-5-4 0-9 3-15 7-7 3-13 9-18 14-4 6-6 11-5 16 1 0 2 1 3 2 1 2 2 3 4 6 3 1 4 2 5 3 8 4 9 5 4 5zm-239-1c-13 0-22-5-29-13-5-12 3-25 24-40 18-13 32-16 40-8 6 3 8 8 8 17 0 12-1 17-4 16-1 0-3-2-3-8-1-7-2-10-3-13-2-2-5-4-10-4-3 0-9 3-15 7-19 9-27 19-22 30 1 2 4 5 12 10 7 4 8 6 2 6zm93-1 7-5c15-9 15-19 0-32-8-9-15-13-22-15-5-1-11 2-15 7-3 4-6 10-6 14l-3 3c-2-4-3-7-3-10-1-4 0-8 1-12s3-7 5-9c7-7 18-7 32 0 7 3 14 7 18 12 6 5 10 10 13 14 4 6 6 9 5 13l-5 10c-1 3-3 4-4 5-1 2-3 3-6 4-2 1-3 1-5 2h-5-3zm238 0 6-5c16-9 16-20-1-33-16-15-27-18-35-7-2 1-3 4-4 7s-1 6-1 7l-3 6-2-3c-1-4-2-7-3-10 0-4 0-8 1-12s3-7 7-9c3-5 7-6 12-6 4 0 11 1 20 6s18 12 25 20c7 7 10 15 10 19-1 6-5 10-10 15-5 4-10 6-17 6h-1zm242 1-6-1 10-5c13-9 13-20-3-33-16-15-28-18-36-7-4 4-7 10-7 14 0 5-1 6-2 3-2-4-3-7-3-10 0-4 0-8 1-12s3-7 4-9c8-7 19-7 35 0 8 5 16 12 24 20 7 7 10 15 9 19 0 6-2 10-8 15-5 4-11 6-17 6z" fill="#e5007f"/>
<path d="m0 933c0 55 35 84 85 84h765c55 0 84-34 84-84v-1135c0-55-34-85-84-85h-766c-55 0-84 34-84 84zm48-1136c0-20 6-36 36-36h767c20 0 35 7 35 37v1135c0 20-6 36-36 36h-765c-20 0-37-6-37-36v-1125z"/>
</g>
</svg>
