<?xml version="1.0" encoding="UTF-8"?>
<svg width="24" height="32" version="1.1" viewBox="4 0 64 100" xmlns="http://www.w3.org/2000/svg">
<g transform="matrix(.076687 0 0 -.076687 0 77.991)">
<path d="m48-203v1136c0 30 17 36 37 36h765c30 0 36-16 36-36v-1135c0-30-15-37-35-37h-767c-30 0-36 16-36 36z" fill="#fff"/>
<path d="m295 891 10-10c9-9 14-18 14-27 0-5-1-11-4-14-3-2-7-7-13-13-9-6-15-11-16-14s-1-9-1-19c0-14 4-24 11-33 4-5 5-10 7-17 1-3 2-8 2-14 0-8-1-13-2-17-2-3-4-7-7-12-8-8-11-18-11-35 0-7 0-13 1-17 0-3 1-6 2-8 1-3 5-4 11-6 11-10 19-20 19-30 0-12-6-20-18-30-10-4-35-8-75-8h-63l-11 11c-11 9-13 19-11 31s10 21 22 27c6 2 9 5 11 7 1 4 1 11 1 23 0 11 0 19-1 21-2 3-5 6-11 10-10 8-15 17-15 30 0 11 5 24 15 34 8 8 12 20 12 33v11c0 2 0 5-3 8-1 2-2 3-3 4-3 1-4 5-9 8-13 10-20 22-17 40 2 11 8 15 15 20 5 3 11 5 19 6h54zm471 0 14-10c7-9 11-18 11-27s-6-17-17-27c-8-6-12-11-14-14-1-3-2-9-2-19 0-13 3-25 9-33 7-9 12-20 12-31 0-12-5-20-12-29-6-7-9-18-9-35 0-7 0-13 1-17 0-3 1-6 3-8 1-3 5-4 8-6 14-10 21-20 21-30 0-12-6-20-18-30-9-4-33-8-76-8h-62l-12 11c-7 9-10 19-8 31s8 21 21 27c7 3 10 13 11 30 0 11-1 19-2 21 0 3-3 6-9 10-10 8-15 17-15 30 0 11 4 24 15 34 4 4 6 6 7 8 1 5 1 7 2 10v15c0 9 0 15-1 18-1 2-4 6-11 13-16 9-22 22-18 40 2 11 6 16 16 20 7 4 31 6 74 6zm-538-49c-4 0-6-1-6-3-1-2-1-8-3-21-2-8-2-15 0-21 2-5 2-8 3-9 1-2 3-2 8-2 4 2 6 3 7 6 1 2 1 11 1 24 0 14 0 21-1 23s-3 3-9 3zm475 0c-5 0-8-1-8-3-1-2-2-8-2-21-1-14-1-23 1-26 1-4 4-6 9-6 4 2 6 3 7 6v24 23c-1 2-3 3-7 3zm-484-111c0-15 0-23 2-26 1-4 4-6 9-4 3 4 5 4 6 1 0-4 1-1 2 4v36c0 4 0 8-1 10-1 1-2 2-3 2s-2 1-6 2h-9zm473 0c0-15 0-23 2-26 1-4 4-6 11-4 3 1 4 4 5 6v21 16c0 8-2 11-8 12h-10zm-464-58c-3 0-6-8-9-24-2-14-2-24 0-27 3-6 6-7 11-6 5 0 7 10 8 28 0 15 0 23-1 25-1 3-3 4-9 4zm475 0c-5 0-7-1-8-4-1-2-2-9-2-20-1-14-1-24 1-27 1-6 4-7 9-6 2 2 4 5 5 0 1-2 1-1 2 6v22 25c-1 3-3 4-7 4zm-473-147h65l10-11c9-9 14-18 14-27 0-6-1-10-4-13-3-4-7-8-13-13-9-8-15-13-16-15s-1-9-1-20c0-12 3-23 11-32 3-5 6-11 7-15 2-5 2-9 2-18 0-10-2-20-9-27s-11-18-11-36v-18l2-6 6-3c0-1 3-2 6-5 11-9 19-18 19-30 0-9-6-20-18-27-10-5-35-7-75-7h-63l-11 8c-12 8-13 20-11 32 2 11 10 20 22 28 3 1 8 3 8 4 1 3 3 5 4 7v16c0 11 0 19-1 22-2 3-5 7-12 12-4 3-9 10-11 17-3 7-3 15 0 23 2 7 7 14 11 23 9 9 13 20 13 31s0 17-3 20c-1 2-7 6-12 11-15 11-21 25-17 43 1 3 2 9 5 11 3 4 6 6 10 9 7 1 8 2 5 3s-1 2 8 2l14 1zm536 0 14-11c6-9 11-18 11-27 0-10-6-17-17-26-8-8-12-13-14-15-1-2-2-9-2-20 0-12 3-23 9-32 7-10 12-20 12-31 0-12-5-21-12-29-6-6-9-18-9-36 0-11 1-18 1-21 1-3 5-7 11-11 14-9 21-18 21-30 0-9-6-20-18-27-9-5-33-7-76-7h-62l-12 8c-7 10-10 20-8 32 2 11 8 20 21 28 6 1 8 3 9 7 1 2 2 9 2 20 0 9 0 14-1 19 0 3-1 5-3 7-1 2-3 5-8 7-3 2-5 5-9 10-3 4-4 8-5 13v14c1 4 2 7 5 13 4 4 6 11 10 14 3 5 5 7 6 7 1-1 2 2 3 6v18c0 11 0 17-1 20-1 2-4 6-11 11-16 11-22 25-18 43 1 3 2 9 4 11 2 4 6 6 12 9 4 3 11 5 19 5 9 1 28 1 55 1zm-538-50c-4 0-6-1-6-3-1-2-1-9-3-20-2-14-2-25 0-29 3-3 6-5 11-4 4 1 6 3 7 5s1 12 1 24v21c-1 4-3 6-10 6zm475 0c-4 0-6 0-7-1s-2-4-2-6c-1-3-1-8-1-16-1-14-1-25 1-29 1-3 4-5 9-4 4 1 6 3 7 5v24 21c0 4-2 6-7 6zm-484-112c0-14 0-22 2-27 1-2 4-3 9-2 6 0 8 10 8 26 0 19-2 28-10 29h-9zm473 0c0-14 0-22 2-27 1-2 4-3 11-2 3 0 5 10 5 26v16 7c-1 2-1 5-2 5s-3 0-6 1h-10zm11-57c-4 0-6 0-7-1s-2-4-2-7c-1-2-1-8-1-15-1-9-1-14-1-19s0-8 1-10 2-3 4-3c1-2 5-2 6-2 4 0 6 2 7 5v24 19c0 7-2 9-7 9zm-475 0c-2 0-3 0-4-1-1 0-2-1-2-3-1-3-1-5-3-7v-12c-2-14-2-25 0-29 3-5 6-6 11-5 2-2 3-2 4 2 1 2 2 3 2 2 1-2 1 0 2 4v40c-1 7-3 9-10 9zm67-153 10-13c1-2 4-6 5-8 2-2 4-3 5-5 2-1 3-3 3-7 0-1 1-3 1-5 0-7-1-10-4-13-3-5-7-10-13-14-9-7-15-11-16-17-1-3-1-8-1-17 0-14 3-26 11-35 3-4 5-7 6-13 2-5 3-9 3-16 0-13-3-23-9-29-8-8-11-20-11-36 0-11 0-19 1-22s4-6 13-10c11-7 19-18 19-28 0-13-6-22-18-31-10-5-35-8-75-8h-63l-11 12c-11 9-13 19-11 32 2 9 10 20 22 25 6 3 9 5 11 8 1 3 1 11 1 21 0 12 1 18-1 22-1 4-5 7-11 10-10 8-15 18-15 30 0 11 5 24 15 33 8 9 12 21 12 35v12c-1 3-3 5-4 10-2 2-7 4-11 7-15 9-20 23-17 42 2 8 7 15 15 19 4 5 11 6 19 7s26 2 54 2zm471 0 14-13c5-6 6-10 8-13 1-3 3-8 3-12 0-10-6-19-17-27-8-7-12-11-14-17-1-3-2-8-2-17 0-14 3-26 9-35 4-4 7-7 9-13 1-5 3-9 3-16 0-13-5-23-12-29-6-8-9-20-9-36 0-11 1-19 1-22 1-3 5-6 11-10 14-7 21-18 21-28 0-13-6-22-18-31-9-5-33-8-76-8h-62l-12 12c-8 9-10 19-8 32 2 9 8 20 21 25 7 3 10 14 11 29 0 12-1 18-2 22s-4 6-9 10c-11 7-15 18-15 30 0 11 5 24 15 33 5 6 7 12 8 16 1 3 1 8 1 19v12c-1 3-2 5-3 10-1 2-4 4-9 7-16 9-22 23-18 42 2 8 7 14 16 20 8 5 31 8 74 8zm-63-50c-4 0-6 0-7-1s-2-5-2-7c-1-3-1-8-1-17-1-15-1-23 1-26 1-7 4-8 9-7 4 0 6 2 7 7v24 18c0 7-2 9-7 9zm-475 0c-3-1-6-11-9-25-2-15-2-23 0-26 3-7 6-8 11-7 4 0 6 2 7 7 1 2 1 10 1 24v18c-1 7-3 9-10 9zm-9-113c0-14 0-23 2-26 1-2 4-3 9-2 6 0 8 8 8 26 0 12 0 19-1 23-1 3-3 4-9 4l-9 1zm473 0c0-14 0-23 2-26 1-2 4-3 11-2 3 0 5 8 5 26v13 10c-1 2-1 3-2 3-1 1-3 1-6 1l-10 1zm4-56c-1-1-1-4-1-5l-2-7v-13c-1-16-1-23 1-30 1-3 4-4 9-4 4 0 6 2 7 4v24 25c-1 2-3 5-7 5h-6c0 1-1 1-1 1zm-468-1c-4 0-6-3-6-5-1-3-1-8-3-19-2-16-2-23 0-30 3-3 6-4 11-4 3 0 5 1 6 2 0 1 1 3 2 9v17c0 15 0 22-1 25-1 2-3 5-9 5z"/>
<path d="m468 891h47c9-1 18-2 22-6 6-2 12-4 16-10 6-8 6-17 4-23-2-9-7-15-16-22-7-9-12-14-14-17-2-4-3-10-3-21 0-13 4-24 11-31 7-9 11-21 11-31 0-13-4-20-11-29-7-7-11-18-11-35 0-12 1-19 3-23 1-2 3-5 9-7 23-12 30-27 15-48-2-4-5-9-8-12-3-2-9-4-16-5-8-1-15-3-24-3-10 0-24-1-39-1-28 0-44 1-51 1-8 2-13 3-19 6-2 2-4 5-7 11-2 4-4 6-5 10 0 4-1 8-1 13 0 3 0 6 2 9 4 7 10 12 19 18 4-1 6 1 8 6l4 8v32c0 4-1 6-4 8-2 1-4 5-7 8-10 10-14 20-13 33 0 12 4 24 15 34 2-1 3 1 5 6l4 9v13c0 11-1 17-4 20-1 3-4 6-9 13-7 2-12 5-16 10-3 3-4 8-4 14-1 6 0 11 2 18 2 12 9 18 20 21 10 2 31 3 65 3zm2-49c-4 0-6-1-8-3-1-2-4-11-4-25l-1-28h23l-1 28c0 14-1 23-1 25-1 2-5 3-8 3zm-13-111c0-11 0-17 1-20 0-4 3-7 4-7 3-2 5-3 9-3 1 3 2 3 3 1 2-3 2-1 3 3l1 5v34c0 8-4 11-10 12h-11zm0-83c0-5 0-10 1-13v-12c0-5 3-6 4-6l9-1c5 0 7 0 7 2 1 4 1 12 1 26 0 10 0 18-1 21 0 4-4 8-10 9h-11zm11-122c30 0 51-1 61-3 9-2 17-7 24-14 9-14 6-31-12-47-7-8-12-13-14-16-2-2-3-9-3-20 0-12 4-24 11-31 7-11 11-21 11-33 0-10-4-19-11-27-7-6-11-18-11-35 0-13 2-20 3-22 2-3 3-6 9-7 23-14 30-29 15-50-3-7-8-11-14-13-4-3-13-4-23-4-13-1-28-1-50-1-41 0-63 2-70 5l-5 7c-4-1-5 1-6 9l-2 9v10c0 4 1 7 2 9 2 5 10 11 19 17 5 3 7 5 8 9 3 2 4 9 4 20 0 15-5 26-11 34-10 9-14 19-13 32 0 12 4 22 15 33 4 5 9 17 9 29 0 11-1 17-4 20-1 2-3 7-9 11-16 12-22 25-18 43 2 11 9 19 20 22 10 2 31 4 65 4zm2-50c-4 0-6-1-8-3-1-2-4-10-4-25l-1-28h23l-1 28c0 10 0 17-1 20 0 6-4 8-8 8zm-13-112c0-14 1-22 4-27 1-2 5-3 10-2 5 0 7 10 7 26v16c0 3-1 5-1 7-1 2-1 5-3 5-1 0-3 0-6 1h-11zm0-83 5-29 9-3c5 0 7 1 7 4 1 2 1 12 1 26-1 18-5 29-11 29h-11zm11-127c30 0 51-1 61-3 9-3 17-8 24-18 10-14 6-28-12-44-5-6-11-9-12-12-2-5-4-7-4-9 0-3-1-7-1-13 0-14 4-26 11-35 3-5 7-12 8-20 3-7 3-14 0-22-1-5-5-12-8-15-7-9-11-21-11-38 0-7 1-12 1-15 0-5 2-8 3-9s3-3 8-5c23-13 30-28 14-48-2-7-7-10-13-13-4-3-13-5-23-6-13-1-28-2-50-2-41 0-63 3-70 8-2-1-3 0-5 5-2 7-4 8-5 8s-2 2-2 6l-1 9v8c0 2 1 4 2 6 2 6 9 13 19 17 4 4 7 7 8 10 3 3 4 11 4 21 0 16-5 27-11 32-10 9-14 20-13 32 0 13 4 25 15 35 4 5 9 15 9 29 0 8-1 12-1 14-3 3-3 5-5 10-1 2-4 4-7 7-17 9-22 24-18 44 2 11 9 17 20 22 10 2 31 4 65 4zm2-50c-4 0-7 0-8-3-3-5-4-13-4-29l-1-27h23l-1 27c0 16-1 24-1 29-1 2-5 3-8 3zm-13-127c0-3 0-6 1-10 0-2 3-3 4-4 2 0 3-1 4-1 2-1 3 0 5 1 5 0 7 8 7 26 0 12-1 19-1 23-1 3-4 4-9 4l-11 1zm0-70c0-7 0-13 1-18 0-8 3-11 4-12l9-1c5 0 7 1 7 3 1 2 1 12 1 24-1 20-5 31-11 32l-11 1z" fill="#e5007f"/>
<path d="m0 933c0 55 35 84 85 84h765c55 0 84-34 84-84v-1135c0-55-34-85-84-85h-766c-55 0-84 34-84 84zm48-1136c0-20 6-36 36-36h767c20 0 35 7 35 37v1135c0 20-6 36-36 36h-765c-20 0-37-6-37-36v-1125z"/>
</g>
</svg>
