<svg xmlns="http://www.w3.org/2000/svg" width="200%" height="200%" viewBox="0 190 200 100" preserveAspectRatio="none">
  <path fill="#f4f0eb" d="m114.85 281.64.347-.139.32.32-1.014-.042zm-2.684-.247-.044-.031-21.432-.31-14.022-.564-7.409-.534-7.408-.482-5.292-.3-5.82-.494-6.88-1.068-4.762-.065-4.664-.86.117-.447.117-.446-3.91-.367-.251-.469-.251-.469-2.535-.701-2.382-1.091 1.853-.172.446-.435-3.092-1.118-.767-.434-.184-.69-.185-.69.798-.306-.292-.352-.292-.352.174-.174.174-.174h-.617v-.53h.859l-.66-.793h-.71l-.271-.508-.272-.508.657-.267-.529-.437-.17-1.323-.857-.661h1.255l-.974-.867-.974-.866v-.384l1.72-.008.692-.439-.997-.876-.998-.876-.149-.976h.526v-.688l-.605-.605-.062-.788-.062-.788 1.206-.303 2.566.31-3.492-2.146-.674-.813 1.255-.008-.529-.388-.736-.939.836.321.459-.256.458-.256-1.678-.868v-.78l.529-.067.529-.132.895-.066-.832-.662-.169-.727-.169-.728h.604l-.329-.397-.33-.397.198-.04.529-.118.529-.118 2.646-.027-2.117-.747-3.307-1.11v-.485l1.984-.008-.364-.231-.365-.231.21-.34.21-.338-.881.338v-.474l.926-.242-1.165-.062-.211-.35-.212-.35-.926-.341v-.508l.802.102.803.102-.157-.254-.156-.253h.808l-.148-.386-.149-.387-.504-.16-.505-.16v-.494l.926-.002.069-1.19.068-1.189h-.534v-1.02l.866-.866-.601-.6v-.943l1.323-.332v-.183l-.63-1.383-.92-.384-.92-.384.507-.384.507-.383 1.19-.016v-.53h-1.026l-.17-.274-.17-.276.75.18.75.18.762.588-.453-.752.847.325.168-.506 5.554-.06-1.577-.45-1.063.148-1.064.147.794-.564-1.689-.008-.258-.419 1.947.193-2.508-1.313-1.196.294.208-.225.209-.226 3.552.083-1.059-.467-1.693-.037-.236-.42-.235-.42-.217.084-1.529-.581.314-.314 2.009.413.661.133v-.389l-.86-.267-.86-.266 1.323.221 1.456.24 1.455.24 2.646-.065-3.88-.486-4.454-1.612-.146-.235-.145-.235 2.539-.016 1.18-.16.363-.364h-1.482l-2.028-.607.232-.376 7.216.162 5.632.322 1.19.236 1.19.236 4.763.332 5.556.729 10.054 1.054 8.732.588 7.144.77 16.132 1.052 4.505-.095-2.646-.169-8.996-.782-7.937-.558-9.26-.774-6.88-.549-.794-.123-.794-.123-9.567-.799-3.662-.494-10.054-1.304-6.285-.65-.259-.988h-.411l-1.644-1.535v-.304l1.316.5 4.045.502 1.122-.453-2.214-.033-6.156-1.588h-1.256l-.376-.608 2.858.37 2.065.319-.427-.692.683.422h2.416l.106-.316.105-.316.64.875 4.466.263.926.084.926.085 5.027.626.24.146.239.147-.189-.305-.189-.306 1.222.008-.793.54 1.058-.161 1.058-.162-.794.56.39.009 8.596.82 1.333-.083 1.588.093-1.059.502 1.985-.24v.45l3.836.302 6.35.27 12.156.823.14.185.14.185 4.762.154 1.587.464 11.642.315 3.628.331.233-.367.232-.368.004.316.005.317 3.307-.018 7.155.086.662-.166.662-.166.655.261.655.262-2.645.1 3.44.426 12.831.169v-.273l3.837.208 8.996-.012 5.953-.214v.423l-5.424.108 4.495.18.228.228.228.228-4.687-.269-.463-.247-.463-.247v.49l-.434-.037-.435-.037-.233.661h7.805l-.256.256-7.108.278-3.175.241-4.498.261-.926.023v.56l4.1-.036 3.44.21-2.91-.353 1.39-.125 1.391-.124.53.177-.35.566.335-.207.335-.207.417.675 2.055-.522.52.186.52.186.338-.525.325.2.325.201 4.172.084v-.434l-.397-.152-.397-.152v-.473l.331.066.33.066-.076-.363-.077-.363.43.165.428.164h1.121l-.502.489-1.588.23 1.19.401v.468l4.102-.008-.794-.513 1.19-.008v.588l6.88-.383v.62l-.294-.182-.295-.182-.47.73-.198-.274-.198-.273-1.456.018v.132l-.001.132h-5.908l-.11.33-.11.332-2.47-.08 2.382-.406-11.377.194-.577.172-.577.172-.117.305-.117.304h-11.393l.122.2.123.199 17.2-.057.319.32-1.544.051-8.354-.032.359.58 4.418-.276-.29.47 1.221-.008-.794-.57.485.157.485.157 3.793.042-.397.15-.397.152-.194.291-.195.291-.005-.265-.005-.264-16.445-.15.338.547h-.56v-.53l-21.564-.003-10.319-.513-5.556-.292-12.7-1.012-9.79-.582-9.26-.792-9.26-.762-6.35-.533-.662.026-.661.026 4.497.703 9.26.845 9.79 1 11.377.815 12.435.884 7.144.42 15.875.59 18.603.107-.098-.159-.098-.159 1.69-.048.276.436 5.688.207v-.38l-2.249-.226 12.171.2 3.44.243-.794-.254-3.969-.452 6.88.012-1.72.462v.16l5.424.124 1.058-.001 5.254-.027.225.225.634-.242.634-.24v.58l.662-.508 3.175.21 2.645-.048.926-.283v.496l-3.572.362-1.852.447 5.821-.23 6.788-.558.263.263-2.004.188-2.004.188v.45l-.755-.29-5.727.558-8.895.08.127.331.127.332-.593.593 5.53.101-5.028.296.53.194.529.194 6.614-.5 2.91-.263-3.968.727-4.498.322-2.381.326-.389.588-.008-.574-8.467-.103v.506l4.101.008.53.1-.927.195-.926.195 2.117.077 1.323.33-.265-.276-.264-.275-1.058-.254 1.72-.062v.577l5.423-.342 7.513-.15.345.223.344.224-1.587-.023-9.525.52-2.514.03v.529l4.895-.02 6.615-.497 2.381-.258-2.646.585-.194.293-.195.294-.008-.397-.008-.397-.467.738-.469-.18-.468-.18-.431.68-.004-.277-.004-.277-1.786.106-1.786.107-.53.537 8.996-.298 3.284-.612-.124-.833-.124-.834.76 1.852.04-.555 1.985.256-1.058.2-1.058.2-4.498.593-.397.141-.397.141-3.853.142-.38.402 9.26-.33 3.44-.229-1.191.266v1.022h-1.14l.99 1.093.34-.465.34-.465v.598l1.434-.1.09.432.09.432-2.012-.064-4.894.46v.328l-3.777.145-.5.31-7.495.253-.195.307-.196.308-.008-.662h-.513l.292.76-2.028.21 3.074.089-.327-.53 2.28-.028 5.82-.198-.932.267.151.244.152.245h1.027v-.53h.56l-.327.53h1.09v-.586l.926.404 2.636-.117-.133.132-.132.133-2.636.347-2.381-.043-.794.516 3.043.008v.529l.926-.008-.397-.257-.397-.256 1.222-.008-.304.492.24.15.242.148.135-.353.136-.353 2.405-.036.62.745h.545l-.478-.529-.48-.529 2.86-.062.53.106-.441-.44-.485-.067-.617-.066.304-.304 2.424.363-.138.224-.138.223-.777-.298v.586l3.043.086-2.91.335.926.372.793.248v-.462l2.198.295-.147-.239-.148-.238h1.232l1.231-.001 6.35-.415-.794.536-.926-.288v.564l-1.19.008.793.513-1.058.014-1.984.328v-.863h-.486l-.45.173-.45.172 1.253.736-1.322-.358-.142-.219-.142-.219-3.365.785-.114-.114-.114-.114-1.68.506-4.264.461-2.086.297 1.323-.505-2.381.26-6.615.509-1.222.012.172.278.172.278 3.524-.288 13.143-.266.191-.118.191-.118 3.409-.012 6.085-.063 1.458-.174-.15.242-.149.241-3.54.08.732.11.732.11-.153.247-.152.247h-2.381l.18.292.18.292 3.508-.371.297-.244.297-.243.43.165.43.166v.472l-1.19.09-1.852.097-7.346.619-.164.101-.164.101-2.38.158-.762.454-.762.454-.857-.3.264.27.265.269 3.175-.382.27.098.27.098.663 1.061-1.22-.306-3.423.558-1.575.296-.117.117-.116.116 1.279.042 14.023-.027 2.91-.255-1.455.287-1.455.287 1.058.393-3.175.352-1.587.5 3.175-.277 3.175-.227-1.059.254-1.322.252-1.323.252-6.086.789-6.879.62-1.564.128-.2.599h1.526l.55-.551 10.224.018.268.268-5.512.097-2.249-.03-2.249-.029 4.662.483.775.433 4.353-.462 1.124.167 1.125.168v.496l-.53.045-.949.022-.95.022-.18-.295-.183-.294-2.103.489-8.731.566-1.588.468-5.27.059-.242.241.22.192 7.938-.417 7.673-.255-2.381.207-9.79.782-5.027.285-7.276.051v.173l-.002.173-8.067.171-.522.51 1.451-.135 1.452-.135 15.346-.338 11.112-.248 3.125-.09.113.33.113.331-1.235-.037 1.059-.454h-2.117l-1.058.454 2.015.037-.362.586.513-.162.513-.163 5.258-.511.53-.006-.398.256-.396.257 1.221.008-.327.529h1.65l-.326-.528 3.867.09-.932.213.15.245.152.244-2.28.04-2.538.019.196.588 1.283.358-1.72.053v-.794l-3.836.063 1.323.334.116.612-.375.143-.375.144.294-.766h-1.115l-.037-.662-.455 1.058-.037-.661h-1.588v.594l-.893-.726.326.871-.658.126-.658.126.309-.804-3.85.324-9.79.68 8.467.264 4.308-.4 2.042.48-1.984.052-1.984.053-2.91.418 6.614-.128 6.283-.894.596.245-1.751.042.352.57-2.442-.366-.766.635-.504-.311-1.24.508 6.616-.321.088-.225.088-.226h.516l-.176.285-.176.285 1.512-.173-.116-.61.804-.31-.161.262-.162.261.957.008-.396.257-.397.256.895.008.15-.242.15-.243 5.161-.042.346.554.346.554-.266.266-.565-.349v-.82l-1.984.416-1.587.13-1.059.05.397.256.397.256-.627.008-1.49-.532.48.373.478.373-.28.173-.28.174v-.455l-1.758-.635-2.08.061.927.242v.49h-3.144l-.151.245-.151.245.466.122.466.121-1.486.062.163-.265.164-.265h-1.884v.794l-2.513-.08 2.381-.317-.264-.16-.265-.16-4.233.482-.662.059v.408l.926-.042.397.104.397.103-.132-.661 1.19.008-.793.545 6.35-.094 1.014.07-.349.348-7.194.139-.12.12-.122.122 5.448.37 5.291-.324 6.086-.487 5.8-.312-.201.202-.202.202-1.508.178-1.508.179-11.753 1.218.287.345.286.345h-.488l-.584-.583-2.83.26-5.796.343-.105.105-.104.105.18.29.179.29 4.124-.273 3.64-.526.692-.01-.163.264-.164.265.693.008-.397.257-.397.256 3.704-.078-1.455-.156-1.455-.156 3.914-.407.138.138.137.138h-1.5l.35.348-.265.319-.265.319 1.321-.253-.13-.21-.129-.21 1.178.309-2.297.765-.388-.627-4.564.37.165.267.165.268-1.376-.346-6.243 1.018-5.703.382-.109.176-.11.177 4.863-.173 6.086-.817 1.225-.602.201.326.202.326 3.264-.762.298.482 1.689.066-2.381.39-.331-.513-.159.257-.158.257-3.932.091-1.15.38-1.15.38 4.763-.273 2.324-.313-.192.311-.192.311-.441-.131-.44-.132-1.324.795 3.572-.33v.835h-3.44v.635l-.286-.287-.287-.287-1.014.266v.417l-1.042-.272-.868.312-.868.313-.913.122-.913.122.344-.344 1.747-.44-2.117.085-.219.275-.218.274-.134-.33-.135-.332h-.75v.594l-.447-.363-.448-.363.157.265.157.264-3.52.084-4.365.36v.376l3.794.13.286.16.286.159-.53-.57-1.852-.24 9.79.234 4.233.366-.182 1.058-.152.158-1.47-.369.98-.715h-1.134l-.211.33-.212.331-2.381.077-1.83.25-.199.6h1.589l.417.16.417.16-.155.25-.154.249-.614-.495-3.175.458-4.632.323.142.231.143.23 5.934-.211-2.91.481-4.763.299-6.28.006-.286-.286-.33.274-.33.274-4.283.14v-.459l-.638.394-7.961.394-9.525.36-.207.192-.208.19 7.351-.08 7.351-.08 23.812-.324.926-.077.926-.077 12.7-.383-.286.294-3.682.079-4.234.458-5.556.281-5.556.507-5.292.29-.087.26-.088.26-.538-.288-.538-.288-2.188.319-10.054.308-2.382.112-1.587.413.68-.482-4.517-.106v.413l-15.477-.075-.195.302-.194.302-.008-.609-3.837.238-13.67.106zm20.902-2.13-.177-.176-.176.176-.177.176h.706zm1.868.017-.16-.16-.694.278 1.014.041zm3.115-.105.163-.265h-2.412v.53h2.085zm26.06-1.72v-.132h-.264v.264h.265zm2.154-.368-.36-.229-1 .262v.203l1.72-.008zm3.138-.56.397-.258-3.44.334-.11.095-.11.096 2.866-.008zm-8.273-.158-.16-.16-.348.14-.347.138 1.014.042zm1.587-.264-.16-.16-.694.278 1.014.041zm.865.027V276h-.264v.264h.264zm1.235-.044-.176-.176-.177.176-.176.176h.706zm7.748-.085.913-.004-.503-.468-3.093.274.712.466.529-.132.53-.132zm-5.08-.186-.463-.12-.926.241h1.852zm8.468-.28.109-.33h-1.367v.564l-1.125-.357.19.307.19.308 1.895-.161zm-27.98-1.522v-.132h-.265v.265h.264zm1.124-.042-.33-.134-.662.267h1.323zm23.394-.001-.177-.177-.352.353h.705zm.529-.265-.176-.176v.705l.352-.353zm2.47.164.396-.268-1.587.355-.11.095-.11.095 1.013-.008zm1.234.1-.176-.176-.353.353h.705zm-11.626-.418-.117-.331-1.001.116-12.435.354-.22.191h13.89zm1.396.198v-.132h-.265v.264h.265zm.264-.794v-.132h-.264v.265h.264zm-138.47-.573-.176-.176-.353.352h.706zm141.11-.22v-.133h-.264v.265h.264zm3.352-.045-.177-.176-.176.176-.177.177h.706zm9.37-.44.684.094v-.8h-.944l-2.728.585 1.246.664 1.059-.638zm-7.237.192-.16-.16-.347.14-.348.138 1.015.042zm.777-.237v-.396l-1.632.072.596.114.595.115v.492h.441zm1.058.22-.176-.176-.353.353h.706zm.882-.087v-.265h-.529v.53h.53zm1.059.16v-.104l-.822-.315.162.262.162.261h.498zm-5.49-.336-.331-.133-.662.267h1.323zm-13.897-.513-.16-.16-.347.139-.347.139 1.014.042zm1.042-.017-.176-.176-.353.353h.706zm.882.044v-.132h-.264v.265h.264zm16.735-.054-.595-.115-1.19.23h2.38zm-10.84-.271-1.116-.101-2.53.199 4.763.002zm2.378.02-.325-.132-.936.244 1.587.02zm16.333-1.282v-.133h-.264v.265h.264zm-10.054-.53v-.132h-.264v.265h.264zm3.898-.556-.16-.16-.348.139-.347.139 1.014.042zm-27.004-.546-.177-.176v.705l.177-.176.176-.176zm9.48.174.53-.23-5.557.306-.22.191 4.718-.037zm10.98-.137 1.985-.127-1.058.494 2.645-.016-1.323-.424.927-.053v-.536l-6.218.35-1.058.119-5.16.068v.59l7.276-.34zm7.866.244-.16-.16-.694.278 1.014.042zm2.982-.104v-.265l-.661.008-.397.256-.397.257 1.455.008zm-35.454-.133v-.132h-.264v.265h.264zm5.892-.041-.325-.132-.936.244 1.587.02zm9.19.041v-.132h-.265v.265h.265zm20.902 0v-.132h-.265v.265h.265zm-26.657-1.895-.331-.133-.662.267h1.323zm1.433 0-.177-.177-.352.353h.705zm17.179-.049-.139-.224-5.84-.006v.456h6.118zm-14.241-.229-.723-.11-1.73.214 3.176.006zm3.765-.237v-.103l-3.042.053 1.285.359 1.757-.205zm2.448.25-.331-.133-.661.267h1.322zm8.665.044v-.133h-.265v.265h.265zm3.109-.06-.993-.105-1.984.208h3.969zm-2.58-.47v-.132h-.265v.265h.265zm-15.699-.308-.176-.177-.177.177-.176.176h.705zm8.652-.032.13-.209-1.336-.11-.875.511 1.953.016zm5.652.048-.16-.16-.694.278 1.014.042zm.777-.016-.176-.177-.177.177-.176.176h.706zm-12.17-.265-.177-.176-.353.353h.706zm1.322 0-.176-.176-.353.353h.706zm.794 0-.176-.176-.353.353h.705zm5.846-.005-.46-.12-1.197.23 2.117.01zm1.452.007-.33-.133-.662.267h1.323zm.728-.221v-.133h-.265v.265h.265zm1.394-.042-.326-.131-.468.122-.468.122 1.587.02zm-8.097-1.325-.177-.177-.352.353h.705zm1.477 0-.33-.133-.662.267h1.323zm1.169 0-.177-.177-.352.353h.705zm1.146.044v-.133h-.264v.265h.264zm4.234-.265v-.132h-.265v.264h.265zm3.836-.263.265-.092-3.175-.034-.667.423 1.656-.102 1.656-.102zm5.088.236-.16-.16-.347.139-.348.139 1.014.041zm1.306-.017-.176-.176-.177.176-.176.176h.705zm-31.331-.275-.595-.115-1.19.23h2.38zm2.05.055v-.133h-.264v.265h.265zm14.465-.045-.177-.176-.176.176-.177.177h.706zm1.61-.006-.464-.12-.926.241h1.852zm1.581.023-.16-.16-.694.278 1.014.042zm.777-.017-.176-.176-.176.176-.177.177h.706zm5.292 0-.176-.176-.177.176-.176.177h.705zm-15.919-.6 3.44-.19-5.821-.062-5.027.752 3.969-.31zm26.855.115v-.132h-.265v.265h.265zm-43.585-.305-.326-.132-.936.244 1.588.02zm24.337-.018-.86-.107-1.72.213h3.44zm-20.704-.206v-.132h-.265v.264h.265zm6.405-.064-1.93-.092-3.549.185 7.408-.002zm3.456-.242-.326-.131-.936.243 1.588.02zm3.015-.267-.176-.176-.353.352h.706zm11.201-1.545 1.191-.391-1.02.105-1.02.104-.29.29-.29.29.239-.008zm2.294-.043-.177-.176-.353.353h.706zm1.94-.307v-.218l-1.588.233v.204h1.588zm2.646.087v-.132h-.265v.264h.265zm2.45-.054-.591-.114-1.463.22 2.646.009zm2.048-.078-.397-.257-.958-.008.164.265.163.264 1.424-.008zm3.175.132v-.132h-.265v.264h.265zm-17.815-.309-.177-.176-.353.353h.706zm1.41.044v-.132h-.264v.265h.265zm6.615 0v-.132h-.264v.265h.264zm-50.535-.264v-.132h-.264v.264h.264zm4.234 0v-.132h-.265v.264h.265zm1.789-.05-.46-.12-1.197.23 2.117.01zm3.04.007-.332-.133-.661.267h1.323zm2.516-.007-.46-.12-1.197.23 2.117.01zm1.033.005-.176-.176-.353.353h.705zm.617.044v-.132h-.264v.265h.264zm3.704-.132v-.264l-1.72.052 1.324.424.396.053zm1.191 0 .164-.264h-1.121l.163.264.164.265h.467zm27.296.088-.176-.176-.353.353h.705zm3.456.017-.16-.16-.694.278 1.014.042zm-32.737-1.56v-.132h-.264v.264h.264zm14.288 0v-.132h-.264v.264h.264zm2.029-.044-.177-.177-.352.353h.705zm3.924-.088.164-.265h-.56v.53h.233zm-1.72-.133v-.132h-.264v.265h.264zm.706-.044-.176-.176-.353.353h.705zm3.748-1.696.441-.021-.665-.268.176-.284.175-.283-2.067.341-5.512.007.257.256 5.916.132v.462l.838-.321zm2.426.02v-.264h-.794v.53h.794zm3.573.003-.163-.263-2.104.19-.336.335h2.765zm3.57.009-1.72-.173-1.322.38 4.762-.035zm7.475.078-.33-.134-.662.267h1.323zm-45.508-.281-.86-.107-1.72.214h3.44zm4.96.059v-.132h-.264v.264h.265zm1.79-.05-.46-.12-.598.115-.599.115 2.117.01zm3.767.05v-.132h-.265v.264h.265zm.53 0v-.132h-.265v.264h.264zm1.322 0v-.132h-.264v.264h.264zm1.058-.265v-.132h-.264v.265h.264zm1.395-.04-.326-.133-.468.122-.468.122 1.587.02zm1.163-.004-.176-.176-.353.352h.705zm.617.044v-.132h-.264v.264h.264zm2.183-.054-.595-.115-1.19.23h2.38zm10.253-.21v-.133h-.264v.265h.264zm1.251-.028-.16-.16-.347.14-.347.138 1.014.042zm1.792-.105-.164-.264h-1.291v.529h1.618zm-12.127-1.764-.177-.176-.352.353h.705zm1.675.045v-.133h-.264v.265h.264zm.794 0v-.133h-.264v.265h.264zm.53 0v-.133h-.265v.265h.264zm1.394-.042-.326-.131-.468.121-.468.122 1.587.02zm.987.041v-.132h-.265v.265h.265zm1.251-.027-.16-.16-.347.139-.347.139 1.014.042zm1.886-.076.359-.227-.457-.282-.726.138-.726.14v.467l1.19-.008zm3.742.103v-.132h-.265v.265h.265zm.794 0v-.132h-.265v.265h.265zm1.653-.042-.33-.134-.662.267h1.323zm3.903-.222v-.132h-.265v.264h.265zm.705-.044-.176-.177-.176.177-.177.176h.706zm-8.973-.27-.463-.122-.463.121-.464.121h1.853zm1.268-.065-.153-.246.538-.332v.502l5.424-.177 9.918-.351-.107-.17-.107-.17-7.058.006-13.714.126.224.223 4.127.154.565.68h.495zm10.77.071-.331-.133-.662.267h1.323zm.727.043v-.132h-.264v.265h.264zm-19.145-.661h.391l-.163-.265-.164-.264h.56v.529h.75l.093-.278.092-.278 7.264-.106.002-.238.002-.238-8.863.422-11.906.357 5.291.13 5.027.07 1.323-.425-1.058.892.485-.154.484-.154zm.889-.397v-.132h.265v.264h-.265zm-13.317-.044-.176-.176v.705l.176-.176.176-.177zm14.552.264-.176-.176-.353.353h.705zm-31.926-1.278v-.133h-.265v.265h.265zm2.712-.043-.33-.134-.662.267h1.323zm.904-.001-.176-.177-.353.353h.705zm23.901-.225 6.747-.141 5.399-.591-.054-.277-.053-.277.995-.173.995-.174.195-.205.196-.206-2.117.333-2.778.326v.331l-2.249-.043-10.319.658-10.848.369-8.996.425 16.14-.213zm9.437.225-.177-.177-.352.353h.705zm4.826-.345 2.488-.267.157-.169.158-.169-4.498.356-2.514.31v.52l1.72-.315zm-9.236-1.463v-.133h-.264v.265h.264zm2.293-.309-.176-.176-.353.352h.706zm2.012-.262-.326-.131-.936.244 1.587.02zm2.111-.277-.595-.115-1.19.23h2.38zm3.704.011-.33-.133-.662.267H178zm-1.852-.264-.33-.134-.662.267h1.323zm6.813-.232 2.778-.357-5.556.247-1.852.463 1.852.004zm-24.606.01v-.132h-.264v.264h.264zm28.443-1.25.265-.26-1.19.19-1.191.189-.765.416 1.308-.138 1.309-.138zm-24.667.15-.325-.131-.468.121-.468.122 1.587.02zm17.568-.003-.176-.176-.176.176-.177.177h.706zm-24.325-.248-.16-.16-.347.14-.347.138 1.014.042zm26.596-.027-.595-.114-1.19.229h2.38zm-7.932-1.045-.326-.132-.936.244 1.588.02zm1.715-.273-.463-.121-.926.242h1.852zm10.52-.88.166-.27.287.178.287.178-.161-.262-.162-.261-1.664.244.357.227.358.226.365.008zm-48.29-.393v-.132h-.264v.264h.265zm30.764-.041-.326-.132-.468.122-.468.122 1.587.02zm3.5-.091-.163-.265h-.498v.53h.825zm.574-.177-.177-.176v.705l.177-.176.176-.176zm.882.177v-.265h-.56l.163.265.163.264h.234zm3.24.021.2-.021v-.53h-2.1l.153.402.154.402 1.395-.23zm-30.823-.284 1.389-.002v-.61l-6.218.39-.926-.012v.575l4.366-.34zm11.355-.178-.177-.177v.706l.177-.177.176-.176zm4.21.176h.64v-.53l-2.513.062 1.003.257-.739.526.97-.315zm-23.773-.16-.16-.16-.695.278 1.014.042zm1.058 0-.16-.16-.694.278 1.014.042zm11.978-.105v-.264h-2.91v.53h2.91zm.794 0v-.264h-.56l.163.264.163.265h.234zm2.276-.132-.502-.38-.549.34 1.024.4.529.02zm1.259 0-.152-.397h-.473v.794h.777zm3.537.237-.16-.16-.695.278 1.015.042zm6.421-.105-.396-.256-2.28-.008.163.265.163.264 2.747-.008zm.794-.132v-.397h-.512l.152.397.152.397h.208zm-13.317-.044-.176-.176-.353.352h.706zm6.88 0-.177-.176-.353.352h.706zm-28.31-.53-.177-.175v.705l.176-.176.177-.177zm25.487.31v-.133h-.264v.265h.264zm.706-.044-.177-.177-.352.353h.705zm1.075.016-.16-.16-.347.14-.348.138 1.015.042zm-30.55-.278-.325-.132-.936.244 1.587.02zm4.957-.254v-.102h-1.059v.48l.53-.139.529-.138zm-8.555-.014-.177-.176-.352.353h.705zm4.762 0-.176-.176-.353.353h.706zm4.498 0-.176-.176-.353.353h.706zm1.213.001-.33-.133-.662.267h1.323zm1.168 0-.176-.177-.353.353h.706zm2.14-.007-.464-.12-.463.12-.463.121h1.852zm1.124.05v-.132h-.265v.265h.265zm1.389-.042-.33-.134-.662.267h1.322zm10.385-.197.529-.085-9.26-.02-.638.178-.638.178 9.478-.166zm4.63-.2v-.252l-3.043.104-.529.162-.529.16 3.44.269.661-.192zm4.498.44v-.133h-.265v.265h.265zm.53 0v-.133h-.266v.265h.265zm.986-.028-.16-.16-.695.278 1.015.042zm2.651-.03-.727-.11-1.456.22h2.91zm1.582.03-.16-.16-.694.278 1.014.042zm-8.324-.543-.325-.132-.468.122-.468.122 1.587.02zm-2.452-1.282v-.132h-.265v.265h.265zm.53 0v-.132h-.265v.265h.264zm2.579-.057-.728-.11-1.455.22h2.91zm1.389-.207v-.133h-.265v.265h.265zm2.45-.054-.59-.114-.732.11-.731.11 2.646.009zm3.37-.239v-.104l-2.777.008.637.405 2.14-.204zm.97-.016-.176-.176-.352.353h.705zm1.677-.088v-.265h-.234l-.163.265-.164.265h.56zm2.028-.176-.176-.177-.353.353h.705zm2.665.01.592-.159-.29-.469h.56v.53h1.405l-1.14-.989v-.222l1.119-.084.301-.302-.494-.47-2.116.418.645.06-.153.398-.152.397h-.51l-.378.378-.378.378v.302l.397-.008zm-12.036-.285-.595-.115-1.191.23h2.381zm4.167-.304v-.226l-1.389.115-1.39.114-.528.18 3.307.043zm.926-.039.164-.264h-.857l.164.264.164.265h.202zm5.641-.198.35-.331h1.126l-.559-.559-4.706.592-.793.316-.397-.084v.574l4.63-.177zm-4.097.022.176-.177.353.353h-.706zm2.557-.22v-.133h.265v.265h-.265zm-148.43.264v-.132h-.264v.264h.264zm106.27-.044-.176-.177-.353.353h.706zm4.763 0-.177-.177-.353.353h.706zm.793-.265-.176-.176v.705l.176-.176.177-.176zm.618.044v-.132h-.265v.265h.265zm1.251-.027-.16-.16-.694.278 1.014.042zm.6.027v-.132h-.264v.265h.265zm1.66-.04-.326-.133-.936.244 1.587.02zm1.587 0-.326-.133-.936.244 1.588.02zm1.98-.01-.464-.12-.926.241h1.852zm3.168-.01-.998-.105-1.708.213 3.705-.004zm4.504 0-.992-.104-1.984.208h3.968zm1.654.076v-.117l-.265-.163-.264-.164v.56h.529zm2.778-.148-.164-.265h-2.116l.327.53h2.117zm2.658-.02.155-.25-2.416.091v.381l2.106.03zm1.107-.14-.16-.16-.695.278 1.015.042zm1.527-.105-.164-.264-.63.008.794.513.163.008zm5.32-.482-.134-.218-4.38.202-.116.117-.117.117h4.882zm-12.42-.223-.176-.177-.353.353h.706zm1.869-.248-.16-.16-.347.139-.347.139 1.014.042zm.777-.281-.176-.177v.706l.176-.177.176-.176zm1.279.176-.164-.265h-.529l.164.265.163.265h.53zm-10.12-.187-.595-.114-1.191.229h2.381zm2.844.055v-.133h-.264v.265h.264zm2.117-.133v-.264l-1.984.07.926.194.926.195.132.07zm10.582-.066v-.198h-4.793l.152.245.15.244 4.49-.092zm-27.058-.093-.16-.16-.694.278 1.014.041zm1.587 0-.16-.16-.694.278 1.014.041zm.866.027v-.132h-.265v.264h.265zm2.315-.05-.463-.12-.926.241h1.852zm1.582.023-.16-.16-.694.278 1.014.041zm11.515-.016-.33-.133-.662.267h1.323zm2.822-.522.11-.096h-2.173l-.296.478 2.249-.287zm-15.059-.229v-.132h-.264v.265h.264zm.53 0v-.132h-.265v.265h.264zm8.135-.065-2.58-.086-5.159.173h10.32zm7.607-.067-.164-.265h-.793l.327.53h.793zm-26.255-.174-.326-.131-.936.244 1.588.02zm13.504-.233 7.887-.195 1.689-.377-19.28.081-.199.598 1.752.18.264-.092zm11.031.171-.397-.22-2.646.385 3.44.055zm-21.323-.46.14-.362-6.202.001-8.467.396 4.498.264 9.892.064zm-6.723.035v-.133h.264v.265h-.264zm.617-.045.176-.176.177.176.176.177h-.705zm3.682-.006.463-.12.926.241h-1.852zm-13.163-.082-.529-.227h-1.852l-.53.227-.528.228h3.968zm-7.54-.132v-.132h-.265v.264h.265zm3.108-.057-.727-.11-1.455.22h2.91zm53.705.03-.16-.16-.347.139-.347.139 1.014.041zm-57.608-.238v-.132h-.264v.265h.264zm-73.378-.308-.176-.177-.353.353h.706zm100.1.044v-.132h-.264v.264H135zm1.852 0v-.132h-.264v.264h.264zm.794 0v-.132h-.264v.264h.264zm3.368-.028-.16-.16-.694.278 1.014.042zm5.165-.036-1.654-.094-3.307.188h6.615zm2.844-.068v-.265l-.397.008-.793.513 1.19.008zm-117.67-.44-.33-.134-.331.134-.33.133h1.322zm-1.99-.25-.16-.16-.694.279 1.014.041zm59.537-.032-.992-.104-1.984.207h3.969zm66.095-.047-.148-.24-1.058.277v.202h1.355zm2.763-.157v-.397h-1.354l.17-.276.17-.275.507.16.507.162v-1.17l-8.599.358-14.023.5-12.965.083 1.852.195 1.852.194 18.521-.068.577-.177.576-.178 7.05-.104-.133.596.662.008-.397.256-.397.257.964.008.794-.794h-.567v-.397l2.439.102.291.292-.48.53-.48.531h2.463zm-1.5-.045.177-.176.177.176.176.177h-.706zm.442-1.278v-.133h.264v.265h-.264zm2.028 1.543-.176-.176-.353.352h.706zm-130.81-.262-.325-.132-.936.244 1.587.02zm115.55.042v-.133h-.264v.265h.264zm2.183-.043-.33-.134-.662.267h1.323zm1.169-.001-.177-.177-.352.353h.705zm3.969 0-.177-.177-.353.353h.706zm1.058 0-.177-.177-.352.353h.705zm-126.65-.221v-.133h-.265v.265h.265zm1.251-.028-.16-.16-.694.278 1.014.042zm53.32-.015-.332-.134-.33.134-.331.133h1.323zm-55.894-.487-.926-.356-.926-.04v.492l1.19.23 1.588.031zm122.7.237-.16-.16-.694.278 1.014.042zm1.042-.016-.176-.177-.353.353h.705zm.617.044v-.132h-.264v.264h.264zm2.839-.06-.998-.105-1.708.213 3.704-.004zm-29.032-.176v-.103l-1.852-.216v.423h1.852zm-6.549-.356-1.389-.097-2.778.194h5.556zm3.31.013-.46-.12-.598.115-.598.115 2.117.01zm-16.737-.347-.53-.227-8.202.062 4.763.33 4.498.062zm7.077.068-2.182-.09-4.366.179h8.731zm-16.206-.312-.397-.227-7.143-.271 1.587.23 5.027.44 1.323.056zm-33.69-.462-.176-.176-.353.353h.706zm21.19-.27-.464-.121-.926.242h1.852zm1.984.007-.331-.134-.661.267h1.322zm1.323 0-.331-.134-.662.267h1.323zm-9.922-.537-.463-.12-.926.241h1.852zm81.822.05v-.132h-.265v.265h.265zm3.351-.044-.176-.176-.353.353h.706zm3.069-.01-.592-.114-1.463.221 2.646.008zm1.164.01-.176-.176-.353.353h.706zm-93.31-.22v-.132h-.264v.264h.264zm.706-.044-.176-.176-.353.352h.705zm.617.044v-.132h-.264v.264h.264zm76.2 0v-.132h-.264v.264h.264zm4.955-.06-.998-.105-1.708.213 3.704-.004zm-84.402-.232-.16-.16-.694.278 1.014.042zm70.517-.015-.33-.134-.331.134-.33.133h1.322zm.993.043v-.133h-.265v.265h.265zm1.058 0v-.133h-.265v.265h.265zm-117.21-.53v-.132h-.265v.265h.265zm36.714-.05-.46-.12-1.197.23 2.117.01zm-29.13-.523-.176-.176-.352.353h.705zm-1.234-.22v-.133h-.264v.265h.264zm94.522-.308-.33-.133-.331.133-.331.134h1.323zm2.58.043v-.132h-.265v.264h.265zm2.646 0v-.132h-.265v.264h.265zm3.704-.132v-.265h-2.381v.53h2.38zm-89.165-.133v-.132h-.265v.265h.265zm-1.395-.292-.16-.16-.347.14-.347.138 1.014.042zm75.147-.022-.463-.121-.926.242h1.852zm.86.05v-.132h-.264v.264h.264zm-92.34-.265v-.132h-.264v.265h.264zm14.48-.027-.16-.16-.694.278 1.014.042zm-1.974-.279-.325-.131-.936.244 1.587.02zm79.965-.224.265-.09-3.175-.003-.53.214-.528.214 3.704-.245zm3.506.205-.992-.103-1.985.207h3.97zm1.984.018-.33-.134-.662.267h1.323zm.993.043v-.133h-.265v.265h.265zm-88.434-.314-.46-.12-1.197.23 2.117.01zm55.626.05v-.133h-.265v.264h.265zm19.05 0v-.133h-.265v.264h.265zm24.408-.123 1.256-.01v-.524l-1.19.04-1.19-.372v.591l-.398-.063-9.79.156 1.853.152 1.852.152 6.35-.113zm-101.07-.184-.326-.132-.936.244 1.587.02zm81.553-.372-3.705-.181-18.785-.256 5.557.465 15.875.386 4.762-.233zm7.981.37-.176-.177-.353.353h.706zm-91.39-.264-.332-.133-.661.266h1.323zm89.432-.011-.591-.114-1.463.221 2.646.008zm-91.88-.375-1.455-.233-3.98-.793-1.312.047 2.646.77 3.704.434.926.004.926.005zm63.958-.657-.16-.16-.347.14-.347.138 1.014.042zm37.113.028v-.133h-.264v.265h.264zm-96.837-.265v-.132h-.264v.264h.264zm2.574-.028-.16-.16-.694.279 1.014.041zm-13.95-.237v-.132h-.265v.265h.264zm106.36-.072v-.204l-16.008.169-.793.178 16.8.062zm-98.16-.192v-.132h-.265v.264h.264zm77.714-.06-.998-.105-1.708.212 3.705-.004zm2.63.016-.176-.177-.353.353h.705zm-87.489-.22v-.133h-.264v.265h.264zm5.82.03v-.101l-1.058-.277.148.24.148.24h.763zm71.896-.058-.16-.16-.694.278 1.014.042zm1.924.027v-.132h-.265v.265h.265zm.529 0v-.132h-.265v.265h.265zm-65.545-.305-.326-.132-.936.244 1.587.02zm-1.73-.251-.16-.16-.348.139-.347.139 1.014.042zm-3.704-.529-.159-.159-3.342-.495-1.715-.302.145-.236.146-.236h-.56v.477l-1.852-.053v-.367l-.636-.16-.635-.159-1.283.194-1.283.194 3.175.325 6.35 1.116 1.588.164.22-.144zm1.592.242-.463-.121-.926.242h1.852zm57.552.009-.325-.132-.936.244 1.587.02zm4.361-.01-.463-.12-.926.242h1.852zm-7.408-.271-.728-.11-1.455.22h2.91zm43.945-.14.328-.328.216.35.216.349 3.296-.263.153-.154.154-.154-3.66-.065-3.704-.086-.265.14-.264.139-4.941.095-.154.153-.153.153h8.45zm-36.735-.614v-.413l1.455.113 1.323-.155-3.704-.386-.112.088.153.583.153.584h.732zm7.937.282v-.132h-.264v.264h.264zm1.516-.028-.16-.16-.694.278 1.014.042zm1.593-.022-.463-.121-.926.242h1.852zm.86.05v-.132h-.265v.264h.265zm12.37-.244.154-.153h-12.29l.148.24.15.241 11.686-.176zm2.116.194-.463-.121-.926.242h1.852zm-31.613-.52-.326-.132-.936.244 1.588.02zm3.368-.24v-.412l-.537.332.304.493h.233zm-1.058.016v-.132h-.265v.264h.265zm6.808-.027-.16-.16-.695.278 1.014.041zm.777-.017-.177-.176-.176.176-.176.176h.705zm4.057-.249v-.104l-2.514.07.926.177.926.176.662-.215zm1.323.16v-.264h-.498l-.164.265-.163.264h.825zm3.078.08-.185-.185-2.497.153-.22.217h3.087zm-82.382-.253-.326-.131-.936.243 1.587.02zm2.045.042v-.133h-.264v.265h.264zm57.084-.058-.727-.11-1.456.22h2.91zm-2.778-.261-.595-.115-1.19.23h2.38zm5.226.054v-.132h-.265v.264h.265zm2.186-.054-.592-.114-.73.11-.732.111 2.646.008zm-65.29-.343-.53-.227-.528-.03.794.514.793-.03zm48.495-.195-1.51-.095-3.329.188 6.35.002zm6.737.004-.86-.107-1.72.214h3.44zm-9.592-.876-1.72-.194-4.497.04 5.027.326 2.91.02zm-6.438-.167-.176-.177-.353.353h.706zm-2.091-.27-.46-.12-.599.114-.598.115 2.117.01zm-34.465-.612-.53-.228-1.058.016.662.212.661.212.794.016zm1.383.104-.16-.16-.347.14-.347.138 1.014.042zm21.68-.28-.177-.177-.176.176-.177.177h.706zm-10.568-.249-.16-.16-.694.278 1.014.042zm-2.905-.297-.992-.104-.992.104-.992.103h3.969zm-3.373-.174v-.101l-1.323-.253v.456h1.323zm-6.967-.34-.177-.176-.352.353h.705zm5.291 0-.176-.176-.353.353h.706zm-6.989-.263-.33-.133-.662.267h1.323zm4.873-.53-.177-.176-.352.353h.705zm-4.237-1.446-.489-.284-.584.584 1.561-.016zm132.91 64.462v-.133h.264v.265h-.264zm3.528-.31.176-.176.353.353h-.706zm28.222-.22v-.132h.264v.265h-.264zm1.94-.044.176-.176.177.176.176.177h-.705zm-17.103-1.05-.17-.17.126-.203.126-.203 1.102.289-.706.447-.309.008zm1.87-.283.598-.115.46.12.46.12-2.116-.01zm13.028.054v-.132h.265v.265h-.265zm1.96-.173-.19-.305.306.189.305.188v.234h-.233zm-13.337-.028.132-.141 2.778-.82v.44l-1.455.294-.793.184-.794.185zm7.938-.063v-.132h.264v.264h-.264zm.793 0v-.132h.265v.264h-.265zm-9.59-.572.33-.134.33.134.331.133h-1.322zm.462-.619-1.323-.181 2.778-.083v.529l-.132-.083zm5.11.084.347-.139.16.16.16.16-1.014-.042zm1.373.049v-.133h.264v.265h-.264zm-8.379-.31.176-.176.177.177.176.176h-.705zm9.916-.003.348-.14.32.32-1.015-.041zm1.588 0 .347-.14.32.32-1.014-.041zm1.108-.084v-.265h.825l-.327.53h-.498zm1.394-.183.468-.122.651.263-1.587-.02zm1.604.007.177-.177.353.353h-.706zm.97.044v-.132h.265v.264h-.264zm1.059-.413v-.28l.53.327v.234h-.53zm1.852.016v-.265h1.058v.53h-1.058zm-11.211-.32.13-.21h.995l.335.541-1.59-.12zm-2.212-.128.468-.122.652.264-1.588-.02zm5.485-.214v-.132h.265v.265h-.265zm-1.124-.307.33-.133.331.133.331.133h-1.323zm-8.665-.354v-.265h.56l-.163.265-.164.265h-.233zm1.13.081.467-.122.652.264-1.588-.02zm9.652.008.33-.133.331.133.33.134h-1.322zm1.604-.006.347-.139.16.16.16.16-1.015-.042zm-9.663-.249.165-.165 4.58.037.293.293h-5.204zm13.103-.28.347-.139.16.16.16.16-1.015-.042zm-7.006-.26.176-.177.353.353h-.706zm-1.411-.22v-.133h.264v.265h-.264zm2.452-.052.468-.122.651.264-1.587-.02zm1.582.001.463-.12.926.241h-1.852zm-3.505-.853v-.287h1.852v-.53l2.249.07-.926.195-.926.195 2.072.07-.11.1-.11.1-4.101.374zm6.879.11v-.133h.264v.265h-.264zm-1.323-.265v-.132h.265v.264h-.265zm-1.172-.367-.145-.234 1.162-.304.121.122.122.122h-.648l.163.264.164.265h-.794zm-5.022-.256-.14-.227 1.307.25v.203h-1.027zm6.811-.48.177-.176.176.177.177.176h-.706zm-4.384-.275.598-.115.92.241-2.117-.01zm2.444-.21v-.132h.265v.265h-.265zm-7.937-.529v-.132h.264v.265h-.264zm3.39-.048.347-.14.16.16.16.16-1.015-.041zm6.223-.26.176-.177.177.177.176.176h-.706zm-2.734-.864v-.283l.397.078 2.256-.411-.933-.708 2.91.067-1.72.214v.496l1.19.069-2.91.379-1.19.381zm-3.49-.993.348-.139.16.16.16.16-1.015-.042zm2.233-.002.463-.12.926.241h-1.852zm9.194-1.008v-.132h.265v.264h-.265zm-16.845-.838.177-.176.176.176.176.177h-.705zm4.777-.543.19-.19 1.786.153.586-1.096h-.724v-.793h.662l.824.316-.78.78v.491l1.72.061-1.059.219-1.058.219-2.338.03zm4.528-.339.163-.264h.763v.529h-1.09zm2.2.084.346-.139.16.16.16.16-1.014-.042zm2.166.048v-.132h.264v.265h-.264zm-.794-.264v-.132h.264v.264h-.264zm-11.29-.309.177-.176.177.176.176.177h-.706zm3.44 0 .177-.176.353.353h-.706zm9.388-.004.347-.139.16.16.16.16-1.015-.042zm-4.498-.264.347-.14.16.16.16.16-1.015-.041zm1.041.006.331-.134.33.134.332.133h-1.323zm2.271-.001.177-.177.353.353h-.706zm-.617-.75v-.132h.265v.264h-.265zm3.704-.397v-.265l1.72.008-.397.257-.397.256-.926.008zm2.381-.132v-.133h.265v.265h-.265zm1.323-.265v-.132h.265v.264h-.265zm-15.08-.264v-.133h.264v.265h-.265zm10.487-.265.153-.397 1.134.062-.926.242v.49h-.513zm-8.282-.044.176-.176.176.176.177.176h-.706zm-7.232-.485v-.132h.264v.264h-.264zm1.587 0v-.132h.265v.264h-.265zm15.875 0v-.132h.265v.264h-.265zm-16.669-.53v-.132h.265v.265h-.265zm3.44-.168v-.228h1.323v.203l-1.323.253zm12.17.169v-.133h.265v.265h-.264zm.14-1.445-.192-.31.284-.285.545.188-.223.359-.223.359zm-4.77-.275-.163-.265h1.12l-.163.265-.163.264h-.467zm2.373-.013-.177-.287.164-.163.163-.163.566.566-.538.333zm-7.003-.12v-.132h.265v.265h-.265zm-3.351-.573.176-.176.353.353h-.706zm1.852-.264.176-.177.177.177.176.176h-.705zm1.5.044v-.132h.264v.264h-.265zm-2.382-1.059v-.132h.265v.265h-.265zm3.969-.529v-.132h.264v.265h-.264zm-8.396-.315.468-.122.326.131.326.132-1.588-.02zm1.517.05v-.132h.264v.265h-.264zm1.058-.264v-.132h.265v.264h-.265zm12.965-.397v-.264h.53v.529h-.53zm-7.21-.44.33-.133.332.134.33.133h-1.323zm1.34-.005.347-.14.16.16.16.16-1.015-.042zm1.489-.11-.148-.239h1.354v.203l-1.058.277zm-8.451-1.562.163-.264h.234v.529h-.56zm7.893-1.235.176-.176.353.353h-.705zm.794 0 .176-.176.353.353h-.706zm-.945-.54.598-.115.46.12.46.121-2.117-.01zm1.981-.26.463-.12.926.242h-1.852zm2.266-.262.347-.14.16.16.16.16-1.015-.041zm1.036-.278.133-.349.433.329.432.329.222.15-1.354-.111zm1.395.326v-.132h.264v.264h-.264zm-22.225-.794v-.132h.264v.265h-.264zm16.14 0v-.132h.264v.265h-.264zm.744-.048.347-.139.32.32-1.015-.042zm.931.004.177-.176.352.352h-.705zm-14.11-.22v-.133h.264v.265h-.265zm.528-.144v-.253h2.205l-.18.18-.181.181-1.844.146zm2.542.056-.136-.22 2.885.043v.198l.001.199h-2.615zm13.863.088v-.133h.264v.265h-.264zm-10.583-.265v-.132h.264v.264h-.264zm1.13-.051.467-.122.652.263-1.588-.02zm5.308.007.176-.176.353.352h-.706zm2.508-.004.347-.14.16.16.16.16-1.014-.041zm4.812.048v-.132h.264v.265h-.264zm-8.996-.396.397-.257.661.015.662.014-1.058.455-1.059.029zm-11.112-.53-.661-.211 1.058-.045.397.256.397.257-.53-.045zm2.117.133v-.133h.264v.265h-.264zm1.058 0v-.133h.265v.265h-.265zm1.26-.055.598-.115.46.12.46.12-2.116-.01zm2.532.01.177-.176.353.353h-.706zm6.527.045v-.133h.264v.265h-.264zm-5.49-.315.463-.121.926.242h-1.852zm3.745-.917-.189-.305.61.377v.234h-.232zm1.04.13.176-.177.352.353h-.705zm-4.107-.27.347-.139.32.32-1.015-.042zm1.637.049v-.132h.264v.264h-.264zm.595-1.373.463-.121.926.242h-1.852zm1.786-.04.397-.244 3.313-.267.12.192.118.193-2.757.085-1.588.286zm-4.498-.175v-.132h.265v.265h-.265zm1.852-.264v-.133h.265v.265h-.265zm7.094-.049.348-.139.16.16.16.16-1.015-.042zm-6.366-.259.33-.133.662.267h-1.323zm1.455-.007.463-.12.926.241h-1.852zm1.521.05v-.132h.265v.265h-.265zm4.586-.044.177-.176.353.353h-.706zm-3.527-.22v-.133h.264v.265h-.264zm4.321-.044.177-.177.352.353h-.705zm-23.372-.221v-.133h.265v.265h-.265zm1.323.028v-.105l2.072-.198-.125.204-.126.203h-1.82zm14.461-.305.125-.326 1.025.268v.14l-.638.123-.637.121zm8.381.233.177-.177.353.353h-.706zm-18.275-.543.732-.11.591.114.592.114-2.646-.008zm-1.128-.207v-.132h.265v.264h-.265zm12.26-.044.176-.177.352.353h-.705zm1.184-.004.348-.14.16.16.16.16-1.015-.041zm-12.65-.216v-.133h.265v.265h-.265zm14.64-.044.177-.177.353.353h-.706zm4.94.044v-.133h.264v.265h-.265zm-12.486-.313.348-.14.16.16.16.16-1.015-.041zm8.517-.084v-.265h.498l.327.53h-.825zm-7.458-.18.347-.14.16.16.16.16-1.015-.042zm1.372.048v-.133h.265v.265h-.265zm.882-.31.177-.176.352.353h-.705zm1.235.045v-.132h.264v.264h-.264zm-13.23-.926v-.265h.561l-.163.265-.164.265h-.233zm9.879.088.176-.176.353.353h-.706zm-8.82-.485v-.397h.441l.33.33 2.416.123.17.17.171.17H181.3zm10.517.222.331-.134.33.134.331.133h-1.322zm-19.513-.222v-.132h.265v.264h-.265zm15.61 0v-.132h.265v.264h-.265zm5.38-.044.177-.176.352.352h-.705zm-13.102-.269.347-.139.32.32-1.014-.042zm6.223.004.177-.176.176.176.176.176h-.705zm-12.965-.265.177-.176.352.353h-.705zm.92-.004.348-.139.32.32-1.014-.042zm8.253.049v-.132h.264v.264h-.264zm1.058 0v-.132h.264v.264h-.264zm-15.61-.265v-.132h.264v.265h-.264zm23.283-.264v-.133h.264v.265h-.264zm-24.325-.234.115-.11 4.35-.29 1.04-.557h.33l-.164.265-.163.264 1.222.053-1.323.382-5.522.104zm5.539-.295v-.133h-.265v.265h.265zm1.323.19v-.207l.661-.055.662-.055v.523h-1.323zm3.919.026.347-.14.16.16.16.16-1.014-.041zm6.223.004.177-.177.176.177.176.176h-.705zm.97-.089-.397-.256.53.014.529.015 1.058.455-1.323.029zm3.704.133v-.133h.265v.265h-.265zm1.059 0v-.133h.264v.265h-.264zm-14.073-.313.347-.14.16.16.16.16-1.014-.041zm.95-.125-.189-.306.611.378v.233h-.233zm2.804.173v-.132h.264v.264h-.264zm1.058 0v-.132h.264v.264h-.264zm.801-.122-.389-.246.25-.25 1.027.75-.498-.008zm5.764.074.347-.14.16.16.16.16-1.014-.041zm-8.682-.216v-.133h.265v.265h-.265zm.53 0v-.133h.264v.265h-.265zm3.968 0v-.133h.265v.265h-.265zm-11.906-.265v-.132h.265v.264h-.265zm2.381-.132v-.265h.763l.327.53h-1.09zm2.646.132v-.132h.265v.264h-.265zm15.198-.28-.513-.41 1.19.576v.246h-.163zm1.56.236.176-.177.176.177.176.176h-.705zm-17.728-.265.177-.176.352.353h-.705zm2.117 0 .176-.176.353.353h-.705zm4.572-.04-.134-.217 1.56.23v.204h-1.292zm5.08.036.347-.139.16.16.16.16-1.014-.042zm2.036-.08-.162-.262.41.157.411.158v.208h-.498zm-9.395-.4v-.133h.265v.265h-.265zm11.112-.265v-.133h.265v.265h-.265zm3.175 0v-.133H194v.265h-.265zm-16.14-.425v-.237h8.233l-.314-.508 1.633.57-.18.18-9.372.232zm9.79-.193v-.22h.77l-.136.22-.136.22h-.498zm1.54-.079-.35-.221 1.953-.008.122.198.122.199-1.498.054zm2.894-.417.599-.115.92.241-2.117-.01zm5.09.003v-.272l-1.455.264.265-.286 2.117-.318-.265.203-.264.203-.199.239-.198.24zm-19.578-.213v-.132h.264v.265h-.264zm.529 0v-.132h.264v.265h-.264zm11.112 0v-.132h.264v.265h-.264zm4.834-.05.468-.123.325.132.326.132-1.588-.02zm-17.32-.263.348-.139.16.16.16.16-1.015-.042zm2.01-.124-.19-.306.306.189.305.189v.233h-.233zm1.215.173v-.133h.265v.265h-.265zm.53-.133v-.264h1.587v.53h-1.588zm18.19.09.33-.134.661.267H198.1zm-11.312-.222v-.132h.265v.264h-.265zm-7.673-.264v-.133h.265v.265h-.265zm16.492-.045.177-.176.176.176.177.177h-.706zm-18.609-.609v-.52l.839.321-.317.196-.317.196.721.286-.926.042zm6.086.389v-.132h.264v.264h-.264zm-12.435-.265v-.132h.264v.265h-.264zm.529 0v-.132h.265v.265h-.265zm5.027 0v-.132h.265v.265h-.265zm4.85-.044.177-.176.353.353h-.706zm7.056.044v-.132h.265v.265h-.265zm3.92-.048.347-.14.16.16.16.16-1.015-.041zm3.753.048v-.132h.265v.265h-.265zm-16.033-.437-.189-.306.306.189.305.189v.233h-.233zm7.302.173v-.132h.264v.264h-.264zm-12.171-.265v-.132h.264v.265h-.264zm1.008-.048.348-.14.16.16.16.16-1.015-.041zm2.696.048v-.132h.264v.265h-.264zm14.552 0v-.132h.264v.265h-.264zm-26.37-.308.176-.177.353.353h-.706zm.705.044v-.133h.265v.265h-.265zm.794 0v-.133h.265v.265h-.265zm13.097-.133-.164-.264.429.037 1.058.455-1.16.037zm7.629.089.176-.177.353.353h-.706zm-19.932-.193v-.104l.794-.304v.512h-.794zm1.587-.028v-.132h.265v.264h-.265zm9.632-.173-.189-.306.611.378v.233h-.233zm-3.15-.224.164-.264 1.16.008-.397.256-.397.257-.693.008zm9.393.132v-.132h.265v.265h-.265zm-15.08-.264v-.132h.264v.264h-.265zm8.554-.309.177-.176.352.353h-.705zm-10.738-.263.33-.134.332.134.33.133h-1.323zm4.035.043v-.133h.265v.265h-.265zm1.058 0v-.133h.265v.265h-.265zm-12.7-.794v-.132h.265v.264h-.265zm.618-.044.176-.177.177.177.176.176h-.706zm.793 0 .177-.177.176.177.177.176h-.706zm.706.044v-.132h.265v.264h-.265zm3.869-.1-.497-.195h2.78l-.993.39h-.793zm3.804.1v-.132h.265v.264h-.265zm1.852-.148v-.28l.265.163.264.164v.233h-.529zm-3.175-.117v-.132h.265v.265h-.265zm1.94-.044.177-.176.353.353h-.706zm7.585.044v-.132h.265v.265h-.265zm-8.731-.793v-.133h.265v.265h-.265zm-7.673-.265v-.132h.265v.264h-.265zm5.909-.044.176-.176.353.352h-.705zm1.077-.13-.189-.305.306.19.305.188v.233h-.233zm-5.53-.223.163-.264h.233v.529h-.56zm7.01.132v-.132h.265v.265h-.264zm-6.019-.314.463-.121.927.242h-1.853zm2.58.05v-.132h.265v.264h-.265zm4.432-.043.33-.133.662.266h-1.323zm-10.58-.281.866-.107 1.445.22-3.175-.007zm12.762.06v-.133h.265v.265h-.265zm1.94-.045.177-.176.352.353h-.705zm-4.057-.22v-.133h.265v.265h-.265zm14.288 0v-.133h.265v.265h-.265zm-13.494-.794v-.132h.265v.264h-.265zm6.439-.044.176-.176.353.352h-.706zm-.089-.75v-.132h.265v.265h-.265zm-1.653-.307.33-.134.662.267h-1.323zm1.124.043v-.133h.265v.265h-.265zm1.147-.044.176-.177.177.177.176.176h-.706zm2.293.044v-.133h.264v.265h-.264zm13.758 0v-.133h.264v.265h-.264zm-25.863-.315.463-.121.926.242h-1.852zm4.96.05v-.132h.265v.264h-.264zm22.755 0v-.132h.264v.264h-.264zm-67.8-.324.86-.106 1.72.213h-3.44zm26.79.06v-.133h.264v.265h-.264zm15.412-.05.463-.122.926.242h-1.852zm11.196-.16.18-.475.148.148.149.148-.658.653zm-165.69-.1.176-.176.353.353h-.706zm124.33-.005.463-.121.926.242h-1.852zm9.988.06v-.124l1.058-.566v.812h-1.058zm1.323-.158v-.28l.529.327v.233h-.53zm5.027.148v-.132h.264v.264h-.264zm.663-.13-.162-.26.822.314v.208h-.498zm3.412-.043-.188-.306.305.19.306.188v.233h-.234zm.952.04v-.264h.529v.53h-.53zm1.394.082.468-.122.651.263-1.587-.02zm1.402-.053-.147-.237.417-.16.417-.16h1.385l-.251.23-.252.23-1.422.335zm2.23-.293v-.53l.927.009-.397.26-.397.261.397.26.397.261-.926.008zm6.795.356-.173-.173-1.525-.001h-1.524l2.249-.212.004-.316.004-.315.194.28.194.281 1.853.575-1.103.054zm3.596-.01.468-.122.651.264-1.587-.02zm-24.462-.262.347-.139.32.32-1.015-.042zm1.46.004.177-.176.353.352h-.706zm.904.001.331-.133.33.133.332.133h-1.323zm4.25-.006.348-.139.16.16.16.16-1.015-.042zm8.781.078v-.102l.788-.115.787-.116.337.214.337.214-2.249.008zm15.717-.203-.189-.305.306.189.305.188v.234h-.233zm-42.97-.091v-.132h.265v.264h-.265zm2.861-.049.347-.139.16.16.16.16-1.014-.042zm2.232-.014 1.522-.096 3.042.191h-6.085zm31.328-.212.118-.308 1.297.248v.142l-1.533.225zm-8.97-.033.33-.133.662.267h-1.323zm-21.101-.354v-.352l.353.352-.353.353zm1.984 0-.163-.264h.856l-.163.264-.164.265h-.202zm1.67.084.348-.139.32.32-1.015-.042zm3.49.049v-.133h.264v.265h-.264zm.529-.096v-.228l1.402.268-.209-.337-.208-.338.35.117.352.117.21.629h-1.897zm3.44-.037v-.264h.825l-.328.529h-.497zm11.2.088.177-.176.176.176.177.177h-.706zm3.831-.004.348-.138.32.32-1.015-.043zm2.696-.083v-.265h.529v.53h-.53zm-156.37-.438-.662-.348h.794l.779.492-.25.205zm121.51.28.158-.158 2.741.021.294.295h-3.351zm4.164.025v-.132h.264v.265h-.264zm.881-.044.177-.176.353.353h-.706zm1.853 0 .176-.176.176.176.177.177h-.706zm4.497 0 .177-.176.353.353h-.706zm5.028 0 .176-.176.176.176.177.177h-.706zm3.037-.004.347-.139.16.16.16.16-1.014-.042zm1.306.006.33-.133.662.267h-1.323zm21.85-.265.177-.177.176.177.176.176h-.705zm-45.332-.221v-.132h.265v.264h-.265zm6.703-.044.176-.176.353.352h-.705zm.97.044v-.132h.265v.264h-.265zm31.221-.124v-.256l.794.304v.208h-.794zm-42.245-.185.177-.176.352.353h-.705zm1.57-.007.469-.122.651.264-1.587-.02zm42.087.007.176-.176.353.353h-.706zm-160.95-.22v-.132h.264v.264h-.264zm121.05 0 .264-.09 2.778-.229v.451l-3.307-.041zm20.417-.044-.177-.176v-.441h.441v.793h-.088zm-16.382-.275.595-.115 1.19.23h-2.38zm8.797.054v-.132h.265v.265h-.265zm.794 0v-.132h.264v.265h-.264zm1.852 0v-.132h.264v.265h-.264zm2.381 0v-.132h.265v.265h-.265zm1.676-.044.176-.176.177.176.176.177h-.706zm1.764.044v-.132h.264v.265h-.264zm.882-.044.176-.176.353.353h-.706zm-11.73-.22v-.132h.264v.264h-.264zm1.41-.044.177-.177.353.353h-.706zm11.29.044v-.132h.264v.264h-.264zM20.8 224.63l-.19-.305.306.188.306.19v.233h-.233zm142.24.173v-.132h.264v.265h-.264zm-2.25-.394-1.322-.143 2.577-.43.256.255.256.256-.443.206zm3.176-.385.793-.387 1.032-.024-.548.548-2.071.25zm25.003.25v-.132h.264v.264h-.264zm4.233-.264v-.133h.265v.265h-.265zm-51.814-.369-.353-.22.44-.168.442-.17 2.999.054-2.117.499-.45-.116-.45-.116-.08.228-.078.228zm3.66.104v-.132h.265v.264h-.265zm3.263-.044.177-.176.176.176.177.176h-.706zm1.235.044v-.132h.265v.264h-.265zm19.844 0v-.132h.265v.264h-.265zm5.115-.044.177-.176.176.176.177.176h-.706zm-35.592-.269.348-.139.16.16.16.16-1.015-.042zm1.042.006.331-.133.661.266h-1.322zm5.182-.266.176-.176.176.176.177.177h-.706zm5.683-.004.347-.139.16.16.16.16-1.015-.042zm-.745-.216v-.132h.265v.264h-.265zm2.382-.132-.397-.257.895-.008.163.265.164.264-.428-.008zm1.587 0v-.353l.177.176.176.177-.176.176-.177.177zm1.058.132v-.132h.265v.264h-.265zm.53-.132v-.265h.529v.53h-.53zm1.852.132v-.132h.264v.264h-.264zm4.85-.044.177-.176.353.352h-.706zm-142.3-.35-.161-.261.821.315v.208h-.498zm146.66.081.348-.139.16.16.16.16-1.015-.042zm2.696.049v-.133h.264v.265h-.264zm-20.108-.265v-.132h.264v.264h-.264zm4.233 0v-.132h.265v.264h-.265zm22.49 0v-.132h.265v.264h-.265zm-154.52-.265v-.133h.265v.265h-.265zm128.85 0v-.133h.265v.265h-.265zm24.184-.174-.189-.305.306.189.305.188v.234h-.233zm-29.476-.223v-.265l.662.008.396.257.397.256-1.455.008zm2.593-.053.318-.318.635.635h-1.27zm8.079.14.176-.176.353.353h-.706zm1.499-.087-.397-.257.926-.008v.53l-.132-.009zm14.817.132v-.132h.265v.264h-.265zm-25.135-.397v-.353l.176.177.177.176-.177.176-.176.177zm2.117.132v-.132h.264v.265h-.264zm-2.804-.437-.189-.306.611.378v.233h-.233zm3.73.04-.164-.264h.794l.163.265.164.264h-.794zm2.337.089.176-.177.177.177.176.176h-.706zm.812-.659-.188-.305.305.189.306.189v.233h-.234zm-39.622-.285-.304-.195 11.598-.008-.264.264-10.724.133zm14.644.194v-.132h.265v.264h-.265zm4.498 0v-.132h.265v.264h-.265zm7.232-.044.177-.176.352.352h-.705zm21.872.044v-.132h.265v.264h-.265zm5.38-.044.177-.176.352.352h-.705zm2.69-.088-.163-.265h.529l.163.265.164.264h-.53zm-44.632-.181.347-.139.16.16.16.16-1.014-.042zm1.037-.117.327-.328.296.296-.474.18-.475.181zm3.317.114.468-.122.652.264-1.588-.02zm3.986.007.176-.176.353.353h-.705zm3.969 0 .176-.176.353.353h-.706zm1.058 0 .176-.176.353.353h-.705zm16.316-.103v-.28l.53.326v.234h-.53zm1.058.148v-.133h.265v.265h-.265zm16.14-.133-.397-.256.63-.008.164.264.164.265-.164-.008zm2.314.109-.197-.197v-.309l2.95.084.313.313h-1.345l-.762.153-.763.152zm-39.884-.373-.397-.257 1.323.045.661.212.662.211-1.853.045zm5.38.088.176-.177.176.177.177.176h-.706zm.793 0 .177-.177.176.177.176.176h-.705zm16.316-.088v-.353l.353.353-.353.352zm3.704.008v-.257l.397.153.397.152v.208h-.794zm21.608.08-.176-.177v-.384l.434-.167.435-.167-.3.362-.3.36.174.175.174.174h-.264zm-72.036-.394-.188-.306.305.19.306.188v.233h-.234zm7.831-.092v-.396l-1.19-.032-10.32-.187-12.17-.574-13.132-.564-1.769-.13-1.769-.13-1.212-.251.364-.646-.328.302-.327.302-5.376-.22-8.467-.526-5.291-.231-10.502-1.352-6.51-.127.205-.338-5.419-.654-1.058-.197-1.72-.325v-.968l-.588-.364-.202.327-.202.327-1.04-.33-.605 1.2.062-.53.062-.53-3.012.176-7.572-1.876-1.058-.222 3.175-.03 1.323.257 1.323.257 5.291.585 1.934.06-.15.243-.15.244.506-.196.506-.196 1.588-.22-1.323.435 5.42-.045-.494-.166-4.133-.696 1.853-.101-1.059-.421-1.19.445v-.46l.837-.321h1.777l.327.53h1.588l-.164-.265-.163-.265h1.058l.323.523-.82-.315v.586h1.508l.767.243.767.243 6.837.317 1.827.283 1.828.284.156-.156.156-.156h-1.38l-.128-.207-.128-.207 6.844-.056.281.455-1.477.396-13.758-.088-5.424-.172v.481l3.043-.31-.495.2-.495.2 7.692.653.99.19 1.578.175 1.578.175.75.142.752.142-.52-.978 4.425-.032-1.875.644-.12.12-.12.122 2.755 1.185 12.21.208 6.307.25.545.545h-.635v.548l1.024-.548.696.008-.706.448.838.321v-1.041l2.514-.06 1.663.02 1.663.02-.174-.28-.173-.282 1.087.582h5.078l.153.397.152.396h.97l.307.496.915-.03 5.821.592 2.646-.036-.965-.38.03-.255.03-.254-.87-.164-.87-.164 1.984-.07.995.996 8.662.343 1.521.15 1.522.151v-.543l-.832-.832 4.139.102-3.252.187.138.528.138.527 2.182-.03 5.027.259 12.366.236.599.64-2.205-.331-.133.33-.134.33-.042-.66h-1.058l-.008.66-.21-.331-.21-.332-2.562.24-.555.556h-.455l.164-.265.163-.264h-5.587v.586l1.29-.324.164.266.165.265h-1.884zm-40.217-2.513v-.265h-.56l.163.265.164.264h.233zm5.556-.662v-.132h-.264v.265h.264zm2.315-.057-.727-.11-1.456.22h2.91zm-50.806-4.203-.16-.16-.694.278 1.014.041zm16.476.027v-.132h-.264v.264h.264zm77.523 7.673v-.132h.265v.264h-.265zm1.059 0v-.132h.264v.264h-.264zm14.023.028v-.104l.793-.304v.512h-.793zm18.099-.201-.19-.306.612.378v.233h-.234zm16.167.044-.162-.262.41.158.411.157v.208h-.498zm2.776-.003-.662-.212 1.456-.053v.53l-.067-.027-.066-.027zm3.572 0-.164-.265h1.386l-.327.53h-.732zm5.53-.041-.188-.306.61.378v.233h-.232zm-85.037-.092v-.132h.264v.265h-.264zm1.008-.048.348-.139.16.16.16.16-1.015-.042zm10.192.004.177-.176.353.352h-.706zm4.675.044v-.132h.264v.264h-.264zm.529 0v-.132h.265v.264h-.265zm6.35 0v-.132h.265v.264h-.265zm23.812 0v-.132h.265v.264h-.265zm15.875 0v-.132h.265v.264h-.265zm6.085 0v-.132h.265v.264h-.265zm14.023-.132-.397-.257 1.487-.008-.164.265-.163.264-.366-.008zm3.97 0-.398-.257 1.222-.008-.163.265-.164.264-.1-.008zm-91.679-.265.164-.264h.264l-.327.529h-.264zm1.357.055-.13-.209 1.948.193.53.184-2.218.042zm2.744.077v-.132h.265v.265h-.265zm28.31 0v-.132h.265v.265h-.265zm54.504 0v-.132h.265v.265h-.265zm-167.36-.543-.513-.412 1.19.577v.246h-.163zm111.93.147-.163-.265h.825v.53h-.498zm59.4.132v-.132h.264v.264h-.265zm2.116 0v-.132h.265v.264h-.265zm-60.06-.397-.662-.212 5.424-.053v.53l-4.1-.053zm5.027-.064v-.2h4.057l-.23.229-3.827.17zm25.135.196v-.132h.265v.265h-.265zm-139.04-.397-.794-.201 2.91-.026-1.058.455-.264-.025zm57.713.056-.13-.21.974.093.974.092.794.173-2.483.061zm3.868.015 1.257-.1 2.514.199H84.32zm58.473.012.463-.121.927.242h-1.853zm19.91-.083-.163-.264h.56v.53h-.233zm4.366 0-.397-.256 1.222-.008-.163.265-.164.264-.101-.008zm-92.869-.132v-.132h.265v.264h-.265zm.865-.05.468-.123.326.132.325.132-1.587-.02zm1.715-.004.595-.115 1.19.23h-2.38zm2.254.003.468-.122.326.132.325.132-1.587-.02zm65.81.051v-.132h.264v.264h-.264zm10.319 0v-.132h.264v.264h-.264zm.529 0v-.132h.265v.264h-.265zm-134.67-.264v-.132h.265v.264h-.265zm94.399-.194.604-.291.309.309.309.308-1.826-.035zm2.174.065-.397-.253 2.117.325.11.095.11.094-1.543-.008zm2.91-.003-.396-.256.63-.008.327.529-.164-.008zm1.588.133v-.133h.265v.265h-.265zm5.733-.045-.177-.176v-.391l1.053.275-.145.234-.145.235h-.41zm2.469.045v-.133h.265v.265h-.265zm8.202 0v-.133h.265v.265h-.265zm21.696 0v-.133h.265v.265h-.265zm10.054-.133v-.264h.794v.529h-.794zm5.953 0-.794-.202 1.424-.062.164.264.164.265-.164-.063zm-59.399-.132v-.132h.265v.264h-.265zm8.803-.051.468-.122.325.132.326.131-1.587-.02zm13.423.05v-.131h.264v.264h-.264zm21.96 0v-.131h.264v.264h-.264zm10.534-.048.347-.139.32.32-1.015-.042zm1.46.004.177-.176.176.176.177.177h-.706zm6.743-.128-.613-.172 2.513-.052v.473l-1.287-.077zm-74.476-.136.176-.177.353.353h-.705zm7.144 0 .176-.177.353.353h-.706zm9.04-.088-.164-.265.428.037 1.059.455-1.16.037zm1.984 0-.397-.257h.53l.793.513h-.529zm5.771.083.348-.139.32.32-1.015-.042zm4.665-.108-.148-.24h1.354v.203l-1.058.277zm43.804.157v-.132h.264v.264h-.264zm-156.9-.265v-.132h.264v.265h-.264zm85.314-.11.15-.241-.333-.134-.332-.134.926-.042v.497l1.984.208-2.545.089zm9.076.067.33-.133.662.267h-1.323zm11.314-.093.166-.27.493.305v.234h-.825zm3.834.136v-.132h.264v.265h-.264zm1.789-.054.598-.115.92.24-2.117-.01zm3.238.054v-.132h.264v.265h-.264zm.529 0v-.132h.264v.265h-.264zm1.455-.132.794-.202h.926l.926-.002-2.117.438-1.323-.032zm45.905.132v-.132h.265v.265h-.265zm1.852 0v-.132h.265v.265h-.265zm1.059 0v-.132h.264v.265h-.264zm-166.95-.264v-.133h.264v.265h-.264zm73.005-.016-.02-.249-.178-.926h1.011l-.008.199-.008.198-.777 1.027zm5.46-.257-.514-.389h1.688l.004-.33.004-.331.257.397.256.397.004-.265.004-.265 10.915.154-.295.295-6.783-.06-3.969.397 2.91.319-3.968.07zm1.367-.02-.16-.16-.694.279 1.014.042zm3.37.144-.154-.248h1.707l-.14.14-.142.141-1.118.216zm1.817.105.177-.177.176.177.176.176h-.705zm.97.044v-.132h.265v.264h-.265zm34.925-.132v-.265h.763l.327.53h-1.09zm2.117 0-.397-.257.926-.008v.53l-.066-.005-.066-.004zm.794.132v-.132h.264v.264h-.264zm-35.895-.309.176-.176.353.353h-.706zm37.483.044v-.132h.264v.265h-.264zm7.937-.132-.397-.257 1.222-.008-.163.265-.164.265-.1-.008zm-22.539-.18.348-.14.16.16.16.16-1.015-.042zm.844-.085v-.264h.56l-.163.264-.164.265h-.233zm.793.133v-.133h.265v.265h-.265zm5.557 0v-.133h.264v.265h-.264zm1.323-.124v-.257l.396.153.397.152v.208h-.793zm6.614.124v-.133h.265v.265h-.265zm9.878-.044.176-.177.177.177.176.176h-.705zm-135.03-.221v-.132h.264v.264h-.264zm90.487-.116v-.248l.992.154.992.153.22.19h-2.204zm8.202.116v-.132h.265v.264h-.265zm5.242-.048.347-.14.32.32-1.014-.042zm8.87.004.175-.177.177.177.176.176h-.705zm.97.044v-.133h.264v.265h-.265zm2.116 0v-.133h.265v.265h-.265zm.794 0v-.133h.264v.265h-.264zm-48.154-.265v-.132h.264v.264h-.264zm25.548-.108-.149-.24 1.06.277v.203h-.763zm7.26.108v-.132h.265v.264h-.265zm-38.898-.353-.26-.088v-.75h3l-.127-.126-.126-.126-3.672-.224-4.366-.053v-.504l2.513.246 5.689.147v-.418h-2.117v-.41l1.119.106 1.118.107-.671-.81.683-.276-.397-.28-.397-.281.927-.008v.794l1.19.033-.661.276-.662.276 1.059.436-.927.037v.605l4.879-.368-.297.297-4.714.453 6.615.133-.794.176-5.194.185-.181.252-.181.252h-2.788zm2.056-.498-.728-.11-1.455.22h2.91zm16.156.538.347-.139.16.16.16.16-1.015-.042zm1.108.049v-.133h.264v.265h-.264zm3.24-.264-.33-.376v-.237l1.058.277v.732l-.397-.02zm-28.84-.038-.33-.14v-.412l2.38.06-.127.529-1.591.102zm2.845-.095.397-.257h.53l-.795.513h-.529zm2.646.132v-.132h.264v.264h-.264zm16.555-.102-.145-.235 1.185-.317 1.688-.008.168.27.167.271-2.156-.344v.596h-.762zm7.786.102v-.132h.265v.264h-.265zm5.645-.044.176-.177.177.177.176.176h-.705zm4.939.044v-.132h.264v.264h-.264zm1.852 0v-.132h.264v.264h-.264zm-98.028-.321-.53-.127-.46-.437 1.958.442.155.155.156.156-.75-.062zm59.664-.076v-.265l.397.008.794.513-1.191.008zm14.22.078.596-.115 1.19.23h-2.38zm2.399.006.347-.139.16.16.16.16-1.015-.042zm.843.048v-.132h.265v.265h-.265zm4.057-.044.176-.176.177.176.176.177h-.705zm1.058 0 .177-.176.352.353h-.705zm4.675.044v-.132h.264v.265h-.264zm2.249-.132-.164-.264h.56v.529h-.233zm23.416.132v-.132h.264v.265h-.264zm-94.897-.308.176-.177.353.353h-.706zm23.609-.06-.181-.293h-1.821v-.581l3.307.358 1.997.511.52-.322-.332-.329-.333-.328-.892-.338-.166.367-.58-.543-.581-.543 5.615.18.308-.416 3.44.305-2.646.17 1.19.186 1.191.185-2.381.143-3.572.002v.463h3.627l3.252.34v.51l-.701-.269-3.664-.382.175.186.175.186 3.09.267.121.122.123.122-8.976-.081-.702-.57-.423.684zm6.2-.425v-.133h-.265v.265h.265zm10.848.529v-.133h.264v.265h-.264zm13.317-.044.176-.177.353.353h-.706zm.794 0 .176-.177.353.353h-.706zm18.52 0 .177-.177.176.177.177.176h-.706zm17.64.044v-.133h.264v.265h-.264zm.529 0v-.133h.264v.265h-.264zm-50.271-.265v-.132h.264v.264h-.264zm39.687 0v-.132h.264v.264h-.264zm-85.901-.309.176-.176.177.176.176.177h-.706zm24.854-.007.468-.121.326.131.325.132-1.587-.02zm34.854-.096v-.28l-.611.377.189-.305.188-.306h.763v.794h-.53zm41.628.103.176-.176.177.176.176.177h-.706zm-70.115-.264.176-.177.353.353h-.706zm32.059-.088.529-.228.428-.037-.163.265-.164.264-1.16-.037zm2.349-.033-.497-.195 2.513-.037v.205l-.76.111-.76.112zm4.133.165v-.132h.265v.264h-.265zm1.588 0v-.132h.264v.264h-.264zm7.515-.438-.189-.305.306.188.305.19.313-.194.313-.194-1.023-.4 1.19-.038v.737l-.418.161-.418.16h-.19zm8.756.041-.163-.265.693.008.793.513-1.159.008zm5.557-.176-.53-.424.97.335h.486v.53l-.397-.016zm7.276.338v-.102l.78-.114.78-.115-.269.434h-1.291zm-71.57-.441-.53-.213-1.94-.037-.42-.16-.418-.161v-.94l1.424-.272.545.207.545.208-1.968-.045-.185.185-.184.184.31.311 1.617.147 1.615.146.152.245.151.245-.185.163zm19.274-.052-.123-.198h1.619v.397H82.55zm6.258.199v-.132h.265v.264h-.265zm.53 0v-.132h.264v.264h-.265zm34.395 0v-.132h.265v.264h-.265zm6.615-.132v-.353l.176.176.177.177-.177.176-.176.176zm.794-.016v-.28l.529.327v.233h-.53zm-108.74-.116v-.133h.264v.265h-.264zm56.092 0v-.133h.264v.265h-.264zm1.014-.098-.088-.23-1.19-.37v.63l-.795-.659v-.53l.86.191.86.191.662.037v.661l.661.267-.882.042zm2.03-.365.063-.596.076-.264.236.373.236.372-.136.355-.136.355h-.4zm17.979.313-.175-.282.186-.176.34.37.342.37h-.519zm4.112.15v-.133h.264v.265h-.264zm4.498 0v-.133h.264v.265h-.264zm2.844-.043.33-.134.662.267h-1.323zm8.533.043v-.133h.264v.265h-.264zm12.965 0v-.133h.264v.265h-.264zm-104.25-.265v-.132h.264v.264h-.264zm56.709-.044.176-.176.176.176.177.176h-.706zm3.351-.088v-.265h.53v.53h-.53zm9.79 0-.662-.212 1.455-.053v.53l-.132-.054zm3.175.02v-.246l-.926-.242.963-.061.794.793h-.831zm4.183.064.348-.14.32.32-1.015-.042zm11.162.048v-.132h.265v.264h-.265zm1.147-.044.176-.177.177.177.176.176h-.706zm-59.002-.265.176-.176.353.353h-.706zm24.204-.004.347-.139.16.16.16.16-1.014-.042zm.843.049v-.133h.265v.265h-.265zm5.695-.142.17-.274 2.205.328.22.22h-2.765zm3.301.142v-.133h.265v.265h-.265zm1.411-.044.177-.177.352.353h-.705zm2.381 0 .177-.177.353.353h-.706zm5.998-.089-.662-.211 1.455-.053v.529l-.066-.026-.066-.027zm5.291.133v-.133h.265v.265h-.265zm1.059 0v-.133h.264v.265h-.264zm1.923-.051.468-.122.326.131.325.132-1.587-.02zm-37.18-.257.332-.133.661.267H73.21zm6.417.043v-.132h.265v.264h-.265zm.794 0v-.132h.264v.264h-.264zm24.01-.043.332-.133.661.267h-1.323zm-38.562-.354-.397-.256.53.029 1.057.455-.793.029zm10.319-.148v-.412l.538.332-.153.247-.152.246h-.233zm17.595.148-.164-.264h.56v.529h-.233zm4.1.133v-.133h.265v.265h-.264zm-35.19-.45v-.212h1.853v.207l-1.852.216zm6.35.053-.396-.257 1.222-.008-.164.265-.163.264-.101-.008zm1.381-.048-.454-.18 4.189-.037-.19.19-.191.191-2.9.016zm12.907.048v-.353l.353.353-.353.352zm3.285-.037-.191-.31.57.353.244-.932.03.447.031.447-.493.305zm2.536.169v-.132h.265v.264h-.265zm6.703-.044.176-.177.353.353h-.705zm-6.146-.39-.634-.239.118-.118.118-.118 1.54.412-.508.302zm2.883.17v-.133h.264v.265h-.264zm-27.087-.344L65.69 211l2.227-.087.145-.435 1.575.231v.337l-2.778.153-.882.265zm11.593-.08-.18-.29 1.95.263.318.318h-1.909zm3.786.116.33-.134.662.267h-1.323zm1.39-.105v-.28l.528.327v.233h-.529zm-52.036-.16.176-.177.353.352h-.705zm31.75 0 .176-.177.353.352h-.705zm8.114-.11-.661-.19 2.249-.054v.203l-.927.23zm2.734.11.176-.177.353.352h-.705zm12.435 0 .176-.177.177.176.176.176h-.705zm-54.063-.221v-.133h.265v.265h-.265zm29.369 0v-.133h.265v.265h-.265zm22.49 0v-.133h.265v.265h-.265zm-44.979-.397v-.353l.176.176.177.177-.177.176-.176.177zm10.296-.083.216-.216 1.16.088 1.16.088-1.376.128-1.376.127zm15.634.154-.926-.109-.26-.254-.26-.254 2.05.326 1.116.45-.794-.05zm2.205.017.176-.176.177.176.176.176h-.705zm.705.044v-.132h.265v.264h-.265zm-39.423-.397v-.353l.353.353-.353.353zm3.175 0v-.264h.825l-.163.264-.164.265h-.498zm4.713.084.348-.139.32.32-1.015-.042zm40.528-.22-.327-.393.462.008.718.455-.526.325zm2.516.136-.163-.264.428.008.794.512-.895.008zm2.464.084.348-.139.16.16.16.16-1.015-.042zm-60.805-.216v-.133h.265v.265h-.265zm27.076-.044.177-.177.352.353h-.705zm14.023 0 .177-.177.352.353h-.705zm6.262-.089v-.352l.176.176.177.176-.353.353zm1.735.025-.148-.24 1.059.277v.203h-.763zm1.574-.022-.161-.261.82.315v.208h-.497zm6.431.081.347-.139.16.16.16.16-1.014-.042zm-16.777-.39-.189-.305.306.19.305.188v.233h-.233zm4.216-.032.751-.25.561.25.561.25h-2.624zm2.115.162.176-.176.177.176.176.176h-.705zm6.328-.006.463-.121.926.242h-1.852zm-23.614-.214v-.133h.265v.265h-.265zm1.875-.067-.638-.114-.612-.613-.156-.596-.155-.596.48.297v.763h1.058v.442l2.093.082.523-.921.956.99-.794-.257-.794.384-1.322.252zm4.078-.066.164-.264h.529l-.164.264-.163.265h-.53zm3.572.133v-.133h.265v.265h-.265zm-27.45-.315.462-.121.926.242h-1.852zm25.485-.381-.51-.495h.558l.67.806-.209.184zm6.55.387.177-.177.353.353h-.706zm-29.985-.22v-.133h.264v.265h-.264zm12.583-.166-1.043-.244-.148-.15-.148-.15 2.042.382.353-.57.78.492-1.058.061.661.212.662.212h-1.059zm2.431.122.331-.133.662.267h-1.323zm7.74.043v-.132h.264v.265h-.265zm1.852 0v-.132h.264v.265h-.264zm1.165-.173-.189-.305.306.188.305.19v.233h-.233zm2.938.044-.162-.261.821.315v.208h-.498zm4.716.085.176-.176.177.176.176.177h-.705zm-42.157-.353v-.352l.353.352-.353.353zm1.72 0-.164-.264h.56v.53h-.233zm.75.089.176-.177.353.353h-.706zm2.293.044v-.133h.264v.265h-.264zm6.085-.133.661-.211 2.117.008-2.117.437-1.322-.022zm3.775.082.468-.122.652.263-1.588-.02zm4.56-.082-.53-.227 1.19-.037v.53l-.132-.038zm17.065.008v-.256l.794.305v.208h-.794zm-33.117-.195-.705-.108-.34-.895.666.661h1.217v.53l-.132-.08zm3.748-.077.397-.257-1.323-.016-.731-.463 1.154-.366 1.228.804 1.789.515-2.91.04zm9.26-.265.284-.53h.302l-.146.383-.147.383 2.221.2-2.797.093zm7.497.353.176-.177.353.353h-.705zm-26.13-.325-.51-.2.927-.356.792.793-.7-.038zm16.782.104v-.132h.265v.265h-.265zm-12.832-.397.164-.264h.264l-.163.264-.164.265h-.264zm10.186-.132-.33-.397-.86-.041.692-.278.994.9.322-.199.322-.199-.189.306-.188.305h-.434zm1.411.22.177-.176.176.177.176.176h-.705zm9.18-.077-.39-.246.154-.153.153-.153.434.167.435.166v.473l-.397-.008zm-23.82-.29v-.281l.53.327v.233h-.53zm5.556.147v-.132h.265v.264h-.265zm3.638-.043.331-.133.661.267h-1.322zm2.007 0 .176-.177.353.353h-.706zm-9.878-.221v-.133h.264v.265h-.264zm1.587-.265v-.132h.265v.264h-.265zm6.681-.05.463-.12.926.241h-1.852zm9.724-.214v-.133h.264v.265h-.264z"/>
</svg>
