<svg version="1.1" xmlns="http://www.w3.org/2000/svg" width="200%" height="200%" viewBox="0 0 180 60" preserveAspectRatio="none">
  <path fill="#F0974C" d="M51.211 63.73c0-.137.117-.249.26-.249s.258.112.258.249-.116.249-.259.249-.259-.112-.259-.249m-1.555-1.977c0-.129.117-.303.26-.388.142-.084.259.02.259.234s-.117.388-.26.388c-.142 0-.259-.105-.259-.234m8.292-.637c0-.068.058-.124.13-.124.07 0 .129.056.129.124a.127.127 0 0 1-.13.125.127.127 0 0 1-.13-.125m-7.755-3.423.018-.809.223.498c.307.688.307 1.12 0 1.12-.143 0-.251-.364-.241-.809m-13.63.3c-.168-.262.923-.735 1.693-.735h.485l-.04.513-.04.514-.296-.39c-.32-.42-.887-.527-.887-.166 0 .329-.736.541-.914.264m2.47.163c0-.054.174-.163.388-.242s.389-.034.389.098c0 .133-.175.241-.389.241s-.388-.044-.388-.097m17.41-.48c.102-.687.861-.856.913-.202.023.29-.167.533-.478.611l-.516.13zm-4.096-.597.03-.926-2.162-.155-.12.443-.12.443-.03-.462-.03-.462-.38.14c-.21.077-.45.033-.534-.098-.084-.13.1-.238.408-.238h.562l-.15-.373-.149-.374 1.15.008-.381.232-.382.232.463.17c.254.094.728.055 1.053-.088.331-.145.744-.167.94-.05.194.115.94.158 1.661.097 1.038-.087 13.905-.11 19.836-.033 2.304.03 25.524-.365 25.598-.434.127-.12-22.797-.713-23.785-.616-.767.075-4.516.079-5.441.005-.356-.029-1.214.02-1.907.108l-1.258.16.172-.269c.095-.148.05-.269-.101-.269s-.276.14-.279.311l-.004.312-.502-.747-.004.311c-.002.171-.237.311-.522.311s-.52-.14-.522-.311l-.004-.311-.19.272c-.105.15-.634.34-1.176.423l-.985.149-.127-.317-.127-.317-4.675.06-.478.726-.004-.312c-.002-.17-.302-.31-.667-.31-.364 0-.597.101-.517.226s-.583.27-1.475.321c-1.819.106-2.224.029-1.04-.199l.791-.152-1.048-1.007-1.633.126c-.898.07-2.107.043-2.687-.06l-1.056-.185v.313c0 .171.192.296.426.277s.474.097.533.257c.067.182-.08.245-.39.167-.305-.077-.558.027-.654.269-.087.216-.045.393.093.393.457 0 .26.746-.202.766-.289.013-.332.067-.119.15l.335.128-.302.35c-.166.191-.491.34-.723.329-.269-.013-.304-.065-.098-.145.371-.144.446-1.08.086-1.08-.506 0-1.048.311-.911.524.079.122.02.223-.131.223s-.275-.156-.275-.347c0-.21-.245-.333-.623-.312-.342.02-.569.12-.503.223s.003.187-.139.187-.33-.112-.419-.25c-.088-.136-.445-.248-.793-.248-.347 0-.632-.09-.632-.199s.699-.193 1.553-.186c.855.006 1.554.085 1.555.175.002.31 1.168-.114 1.658-.602l.491-.49-1.575.103c-.866.057-1.518.013-1.447-.096.07-.11.296-.199.5-.199a.37.37 0 0 0 .374-.365c0-.218-.152-.31-.376-.227a.93.93 0 0 1-.713-.068c-.481-.295-3.834-.361-3.834-.075 0 .13.343.237.762.237s.819.088.888.196c.069.107-.245.189-.697.182-.453-.007-.959.078-1.124.19-.167.113-.376.087-.469-.058-.092-.143.01-.26.228-.26.25 0 .34-.142.243-.383l-.152-.382-1.977.11c-1.087.06-1.773.056-1.524-.01.737-.193.518-.548-.325-.525-.428.011-.908.172-1.068.356-.16.185-.421.334-.582.332s-.117-.112.097-.245l.388-.241-.814-.004c-.503-.002-.875-.156-.973-.4l-.158-.397-1.444.117c-.795.065-1.348.024-1.228-.09.119-.115 1.01-.237 1.98-.271l1.765-.063.234-.383.234-.384.016.655 1.103-.09c.607-.048 1.248-.174 1.425-.28.177-.104.322-.09.322.033 0 .122.466.24 1.036.262l1.037.039.004-.31.004-.31.19.267c.122.17.822.212 1.94.119.961-.081 1.748-.08 1.748.003s.496.123 1.102.09l1.554-.082c.25-.012.454-.19.454-.396 0-.205.113-.373.25-.373.139 0 .185.168.103.373s-.012.373.156.373.267-.196.22-.435l-.086-.436-.995-.079-.996-.078.171.265c.094.146.048.266-.103.266s-.275-.1-.275-.223c0-.122-.495-.227-1.101-.234-.606-.006-2.938-.07-5.182-.141l-4.081-.13v.763l-.405-.39c-.223-.213-.322-.518-.22-.676l.184-.287-.751.173c-.414.095-.956.23-1.205.302s-.453.033-.453-.085-1.108-.178-2.462-.133l-2.462.082v-.258c0-.141.204-.271.454-.289s.745-.06 1.101-.097c.356-.036.784.04.95.17l.304.236.232-.399.232-.399.713.26c.391.144 1.433.26 2.315.257l1.602-.004-.388-.241c-.214-.133-1.176-.243-2.138-.245-.99-.002-1.75-.112-1.75-.253 0-.137.671-.258 1.49-.269l1.49-.02-.712-.25c-.84-.294-.916-.597-.194-.778.285-.072.461-.04.391.068-.15.233.992 1.002 1.478.996l.333-.004-.388-.241c-.234-.145-.266-.243-.08-.245a.62.62 0 0 1 .475.255c.091.142.378.195.636.116s.997-.153 1.642-.166l1.173-.022-.292-.615-.292-.615-4.546.149c-2.5.082-5.407.142-6.458.134l-1.912-.015.155.388c.085.213.042.387-.097.387-.138 0-.25-.168-.25-.373V47.3l-1.231-.031c-2.567-.066-3.316-.064-3.693.012-.213.043-.796.055-1.295.027l-.907-.05.777-.225c.428-.123 1.943-.236 3.367-.251s2.802-.136 3.061-.27l.472-.242.32.256c.354.282 1.46.095 1.46-.246 0-.31-1.015-.493-2.113-.38l-.947.097-1.474-.934 1.036-.035-.556-.216c-1.636-.634-.59-.965 2.826-.896 1.353.027 2.11-.04 1.876-.166-.216-.116-.526-.132-.69-.034-.18.107-.226.066-.117-.103.099-.154.496-.226.882-.16 1.334.226 2.633.291 2.79.14.086-.082.701-.167 1.367-.187.665-.02 1.56-.056 1.987-.08l.777-.044-.518-.2c-.285-.11-.617-.145-.737-.078-.12.068-1.548.112-3.172.099s-3.24.081-3.593.21l-.642.234-.169-.263c-.174-.271-1.154-.192-2.03.165-.3.123-.435.109-.342-.036.084-.13-.043-.253-.281-.27a7 7 0 0 1-.953-.16 6 6 0 0 0-.857-.145c-1.116-.062.248-.516 1.457-.484 1.497.04 2.366-.163 2.688-.627l.178-.257.49.426c.502.436.968.58.742.23-.07-.109 1.818-.234 4.195-.278 6.255-.118 6.46-.128 6.695-.355.118-.113-2.466-.176-5.743-.14s-6.425-.032-6.995-.15l-1.036-.216 1.295-.358-1.246-.025c-.685-.014-1.191-.11-1.125-.213.067-.104-.888-.188-2.122-.187l-2.243.001-.539.658-.693-.167c-.381-.092-.768-.395-.86-.673l-.168-.506-.201.314a.385.385 0 0 1-.513.129l-.311-.185.585-.283c.322-.155.64-.44.706-.632l.12-.349-.553.14c-.304.076-.553.037-.553-.087s.416-.226.924-.226h.924l-.153-.465-.153-.464 1.308.24v-.805l2.72.008-.388.242-.389.241 1.469.004c.808.002 1.653.072 1.879.155s.41.032.41-.112-.671-.304-1.49-.353l-1.49-.09 2.023-.047c3.239-.075 2.089-.436-1.617-.507l-3.386-.065v.898l-1.846-.051c-1.94-.055-2.402-.203-1.781-.571.206-.123.436-.139.51-.037.203.275 1.583.18 2.44-.17.412-.168.668-.382.57-.477-.273-.262-1.293-.22-1.509.062-.117.154-.191.13-.194-.062-.002-.172-.133-.312-.29-.312-.166 0-.215.184-.116.436l.171.436-.452-.43c-.739-.702-.403-.744 6.3-.78l6.424-.035.175-.871-3.536.094 1.49.09c1.911.115 1.946.443.044.42l-1.445-.017-.47-.712-.007.722-.622-.597h-5.178l1.006.799-.733-.419c-.404-.23-.905-.355-1.115-.278-.214.08-.312.033-.223-.105.087-.136.391-.246.676-.246s.447-.112.359-.25c-.089-.136-.435-.248-.771-.248s-.678-.14-.76-.311c-.082-.172-.088-.073-.014.218l.134.53-.655.12c-.738.136-.762.1-.387-.574l.268-.481h-.512c-.547 0-.965-.424-.684-.694.094-.09.253-.033.356.126s.558.279 1.013.266c.455-.012.773-.107.707-.21-.067-.104.112-.13.397-.058s.519.013.519-.13-.262-.31-.583-.37c-.32-.058.175-.129 1.101-.155l1.684-.048-.907-.306c-.498-.168-.978-.208-1.065-.09-.087.12-.495.19-.907.158a8 8 0 0 0-1.267.004l-.518.063.648.206c.388.124-.132.149-1.296.061-1.068-.08-2.147-.135-2.396-.122-.522.027-.612-.341-.13-.528.178-.069-.004-.134-.404-.145-.415-.011-.659-.127-.568-.269.088-.137.047-.249-.092-.249-.14 0-.302.14-.362.312l-.11.31-.43-.34c-.24-.191-.43-.229-.43-.085 0 .328-.85.219-.969-.125-.15-.434 3.184-.727 8.936-.786 1.746-.018 3.174-.117 3.174-.22 0-.102-2.274-.172-5.053-.153s-5.052-.066-5.052-.187c0-.12.168-.22.373-.22.556 0 .698-.378.412-1.099l-.254-.643h.252c.14 0 .253.112.253.249s.32.238.713.224l.712-.025-.648-.199c-.356-.11-.521-.21-.367-.224s.281-.193.281-.398c0-.451-.845-.5-1.058-.063l-.151.312-.151-.312c-.213-.438-.626-.387-.626.077 0 .214-.119.318-.264.232s-.196-.26-.114-.388c.085-.131-.419-.232-1.162-.232-.72 0-1.31-.112-1.31-.249s.113-.249.252-.249c.16 0 .166-.22.017-.594l-.235-.595 1.046.263-.315.186c-.434.258-.069.74.56.74.286 0 .461-.089.391-.198s-.02-.361.11-.56l.238-.362.004.311c.003.172.11.312.24.312.128 0 .167-.247.085-.547l-.149-.547.405.36c.223.198.36.434.303.524s.11.11.369.045c.26-.066.624.057.81.272.414.48.824.513.64.05l-.136-.339.856-.205.857-.205-1.592-.14-1.591-.14.322-.286c.177-.158.47-.198.653-.09.343.203 1.124.156 4.41-.269a59 59 0 0 1 3.887-.344c1.069-.052 2.001-.116 2.073-.142.07-.027.787-.027 1.592 0 .935.03 1.535-.064 1.662-.262l.2-.31-.424.157c-.232.085-.487.056-.565-.066-.079-.123.238-.268.704-.323l.847-.1-1.246-.04c-.686-.023-1.192.044-1.126.146.066.103-3.892.187-8.795.187H7.42v-.452c0-.249-.121-.669-.269-.934l-.268-.481 1.703.014-.454.33c-.562.41-.594 1.148-.05 1.148.223 0 .333-.112.245-.25-.088-.136-.047-.248.092-.248.14 0 .312.14.384.31.082.198.138.162.15-.097.02-.387 1.15-.869 1.706-.727 1.12.285 2.24.024 1.36-.317-.178-.07.004-.135.404-.145.418-.012.66.085.57.226-.088.135-.003.189.188.118.191-.07.81-.181 1.374-.247.565-.065 1.161-.137 1.326-.16.455-.061.095-.704-.392-.7l-.425.004.388.241.389.242-.962.008.157-.394c.086-.217.157-.437.157-.49 0-.205.89.245 1.34.678.6.575.979.584.825.019-.158-.58-1.266-1.058-2.447-1.058h-.956l.036.436c.02.24.21.511.425.604l.388.17-.601.017c-.331.01-.776-.15-.99-.355-.462-.444-1.597-.755-1.854-.508-.1.096.045.333.321.528l.503.353h-.445c-.246 0-.566-.306-.717-.685l-.272-.685-.333.436c-.387.507-1.073.573-1.29.125l-.152-.312-.151.313c-.084.172-.27.243-.414.157s-.746-.198-1.338-.252-1.222-.148-1.4-.211c-.178-.064-.324-.035-.325.063 0 .099-.42.208-.935.244l-.935.064.158-.396c.087-.218.158-.456.158-.53s.17 0 .377.166c.433.345 1.016.112.75-.3l-.175-.274.496.197c.272.108.67.2.884.204.214.005.462.115.55.246.25.367 1.263-.045 1.272-.517l.008-.418.355.448.354.45.135-.325.135-.324.02.31c.023.332.799.446.799.117 0-.106.379-.202.842-.211 3.68-.077 4.508-.475 1.101-.53l-2.202-.035v.758l-.815-.783H6.546c-1.173 0-2.249.113-2.392.25l-.26.25-.504-.366-.505-.367 1.555-.054c.855-.03 1.865-.062 2.245-.07.982-.023 1.246-.39.28-.39h-.8l-1.489-1.429 1.955-.16c1.075-.09 2.4-.2 2.943-.248s1.12-.214 1.283-.37l.294-.282-1.788-.033 1.154-.346 1.153-.345.333.265c.418.333 1.117.095 1.117-.38v-.356l-1.166.104c-.729.066-1.166.004-1.166-.164 0-.147.109-.204.241-.125.133.079.301.05.375-.064.073-.113.518-.197.99-.185.47.011.941-.093 1.046-.233.11-.146.192-.069.194.182l.004.435h.627c.344 0 .687.14.762.311l.136.312.287-.436c.369-.56 1.005-.56 1.229 0l.174.436.148-.6.147-.598.448.43.447.43v-1.07l-1.23.067c-.678.036-1.304.169-1.393.294-.095.133-.233.119-.331-.035-.32-.495.853-.788 3.497-.874l2.646-.086.637-.836.13.328c.073.18.57.356 1.104.391.536.035 1.182.17 1.438.302.701.36 1.017.288.854-.197-.093-.279-.066-.33.076-.144.121.16.54.368.931.462.39.094.71.327.71.518 0 .357.272.445 1.166.373 1.05-.083 1.14-.114.997-.337-.08-.125-.403-.166-.715-.09l-.569.136-.458-.514c-.252-.282-.394-.575-.316-.65.077-.075.375.132.661.46l.52.595.163-.552c.198-.676.86-.907 1.688-.59.34.132.467.246.28.255-.907.042.132.513 1.133.513h1.15v.374c0 .207.23.373.519.373.638 0 .685-.42.064-.575-.282-.07-.187-.125.251-.143l.705-.029-.14.349c-.076.191-.013.422.14.513s.349-.009.434-.223.256-.39.379-.39.156.168.074.374c-.082.205-.02.373.138.373s.287-.19.287-.42v-.422l.35.462.352.461.491-.202c.695-.285 2.434-.353 2.434-.095 0 .427.765.206 1.048-.303.322-.576.293-.654-.27-.731-.747-.102-1.037.008-1.037.397v.391l-.407-.391c-.45-.432-1.666-.536-1.666-.143 0 .137-.123.25-.274.25s-.21-.1-.131-.223c.207-.322-.446-.503-1.48-.411-1.087.097-1.556-.14-1.34-.678.173-.435.74-.338 1.453.247l.43.354.244-.419.244-.419.16.401c.218.545.718.512.522-.035l-.157-.436.443.498c.244.274.362.346.262.161l-.18-.337 1.381.87.561-.579.56-.578-.312-.1c-.172-.056-.313-.207-.313-.338 0-.14.212-.128.518.03.285.146.519.417.519.602 0 .348 1.372.738 1.494.424.038-.098.475-.133.971-.077l.903.101v-.324c0-.413.758.526.77.954.004.171-.19.311-.433.311h-.44l.293.282c.161.156.472.217.69.136l.397-.146-.28-.77c-.154-.425-.208-.84-.12-.925.088-.084.16.022.16.235 0 .214.174.453.388.532.214.078.389.034.389-.098 0-.133.214-.241.475-.241.695 0 .58.732-.142.907-.339.081-.543.219-.453.305.245.236 4.006.225 4.006-.011 0-.232-.29-.274-1.455-.214-.506.026-.863-.097-.956-.328-.184-.463.547-.76.994-.404l.33.263.113-.321.113-.322.811.643.205-.59 1.158.596-.182-.698-.18-.698.842.623c.937.692.975 1.145.086 1.033-.36-.045-.583.058-.583.27v.342l4.016.076-1.036-.442.583-.017c.32-.01.583.103.583.251 0 .167.284.209.752.11.432-.091.825-.047.923.105.243.379.657.324.657-.087v-.35l-1.276-.168c-.701-.093-1.69-.135-2.197-.093-.993.083-1.071-.04-.69-1.093.296-.814.88-.883 1.403-.165l.378.52.867-.076c.477-.042.847.032.824.165-.025.134.552.224 1.295.202.737-.021 1.028.013.649.077-.38.064-.75.262-.82.44l-.13.324 1.185-.243 1.185-.243.44.56c.266.34.507.458.608.3.093-.144.022-.319-.157-.388-.179-.07-.014-.135.366-.146s.743.12.806.292c.064.17.205.232.313.135.389-.347-.124-.945-.83-.97a7 7 0 0 1-1.323-.187l-.602-.162.819-.297.818-.297-.142.356-.142.356.516-.307.517-.308.215.334c.124.19.593.312 1.094.285.482-.026.936-.02 1.007.01.205.091 1.282.225 3.17.394 2.072.185 2.129.548.075.48-.787-.027-1.431.058-1.431.189 0 .13-.175.097-.39-.073l-.388-.31v.28c0 .354-.703.368-.825.016-.108-.31-.989-.041-.989.302 0 .129.554.22 1.231.202s3.738.14 6.802.352c6.629.458 11.773.52 13.733.163 1.838-.335 22.279-.629 21.813-.314l-.341.23 1.61.162c2.314.232 4.902.199 4.902-.063 0-.268 2.428-.076 4.042.32l1.145.28-4.99-.087c-9.093-.159-22.317-.016-24.553.264-2.855.359-9.903.476-11.401.19-1.414-.27-8.292-.47-8.292-.242 0 .09 2.47.3 5.488.469s6.021.398 6.672.512c1.29.226 7.421.17 12.572-.116l3.252-.18v.278c0 .316 1.064.363 2.364.106l.875-.173-1.037-.326-1.036-.325 1.034.148c.57.081 1.138.209 1.263.283.126.075 6.044.158 13.152.185 12.352.048 16.72.187 9.985.318-1.733.034-4.084.136-5.224.228l-2.073.166.648.183c.357.101 1.15.195 1.765.208l1.116.025-.17-.265-.17-.265.867.148c.477.08 4.074.195 7.993.254 8.108.122 18.946.515 21.636.785l1.814.183-.648.168c-.356.093-4.729.127-9.716.076-4.988-.052-8.93-.005-8.762.1.17.108-1.609.17-3.951.14-2.554-.032-4.26.04-4.26.182 0 .14 1.834.242 4.47.25 2.459.008 4.936.055 5.507.103.57.049 2.843.157 5.052.24s5.066.26 6.348.392 5.656.478 9.717.768c7.614.545 10.232.925 4.275.62-8.912-.455-11.802-.542-13.474-.406l-1.813.149 3.238.204c1.782.113 4.755.349 6.608.525l3.368.32-1.51.03c-.83.016-2.87-.078-4.534-.208-4.303-.336-15.292-.53-14.797-.26.223.122 2.613.244 5.311.272s5.78.146 6.85.261c1.068.116 4.625.314 7.902.44 6.701.259 15.042.94 15.711 1.284.243.125.947.186 1.564.136s.83-.04.475.021c-.357.062-.759.216-.894.342-.136.127-.887.23-1.67.23h-1.422l1.006-.73-1.944.008c-1.068.005-1.743.086-1.5.179.245.093-11.214.147-25.463.121s-25.848.045-25.775.158c.073.114 3.78.223 8.236.242 8.517.037 15.288.178 20.353.424 1.667.081 6.53.23 10.805.33l7.773.181-4.254.041c-5.537.054-5.24.205.756.385 6.08.182 8.802.375 9.458.67.285.13 3.55.318 7.255.42l6.737.185-1.04.574-7.218.135c-7.002.131-10.141.4-4.936.421 1.414.005 3.438.108 4.499.226l1.929.214.302.397c.166.219.61.397.986.397s.684.1.684.22c0 .3-.944.52-2.246.524-2.108.006-2.605.618-.722.89 1.545.222 1.365.33-.764.458-1.777.108-2.706.398-1.273.398.919 0 2.47.473 2.714.827.67.974-1.302 1.743-7.22 2.818l-.832.15.572.451.572.451-.517.37c-.726.517-.363.735 1.43.86 1.235.085 2.322.545 1.29.545-.143 0-.26.112-.26.25s.234.248.52.248c.744 0 .639.37-.309 1.083l-.825.62.303.352.303.35-.32.377c-.517.61-1.915 1.45-2.432 1.46l-.478.01.76.396.76.395-1.002.732-2.461-.146c-1.354-.08-4.386-.197-6.737-.26l-4.276-.115 2.456.245c2.909.29 6 .878 6.207 1.183.08.119.592.356 1.136.526s.916.38.828.465c-.09.086.515.403 1.343.705l1.504.549-3.887-.215 2.85.496c1.568.272 3.473.72 4.234.996s1.594.5 1.85.5c.258 0 .53.155.605.343s.65.416 1.277.507c.628.09 1.949.438 2.936.772.987.335 2.028.615 2.313.623.285.007.798.163 1.14.345l.621.33-.776.11c-.427.06-1.815.03-3.083-.069s-4.697-.23-7.618-.293l-5.312-.114 4.405.472c2.422.26 5.162.521 6.089.581.926.06 2.034.222 2.461.36l.778.25-1.814-.125c-.998-.069-2.339-.18-2.98-.248l-1.166-.123.894.682-5.477.164c-3.012.09-7.06.165-8.997.166-2.023.002-5.451.232-8.056.542l-4.534.539-28.502.042-.648.408c-.384.243-1.749.528-3.355.702l-2.708.294-14.394-.141c-7.916-.078-16.48-.215-19.03-.305l-4.638-.164.435.695-.427-.333c-.235-.183-.549-.26-.698-.172s-.27.033-.27-.124c0-.156-.146-.233-.324-.17s-.293.245-.255.405l.068.29-1.044-.536v.576l-.388-.31-.39-.31-.007.684-.51-.747-.454.675-.177-.275c-.098-.152-.52-.276-.94-.276h-.761v.388c0 .214-.119.318-.263.232s-.2-.254-.124-.373c.077-.12-1.274-.252-3.001-.294-2.989-.074-3.85.087-3.058.57l.357.216-.31.004c-.17.002-.478-.228-.685-.512-.235-.323-.44-.416-.548-.249-.095.147-.347.267-.56.267s-.328-.095-.253-.212-.588-.166-1.474-.11c-.887.057-1.728.102-1.87.1s-1.053-.021-2.023-.043c-1.934-.044-2.24.076-1.83.712.326.507.182 1.047-.28 1.047h-.332zm3.463-2.542c-.035-.127.169-.404.454-.615l.518-.383-1.788-.014.29.28c.16.153.23.433.154.622-.075.189-.008.343.15.343s.258-.104.222-.231zm8.027-.168c-.086-.083-.31-.092-.497-.02-.206.08-.145.139.157.15.273.011.426-.047.34-.13m.589.026a.127.127 0 0 0-.13-.125.127.127 0 0 0-.13.125c0 .068.059.124.13.124s.13-.056.13-.124m1.554 0a.127.127 0 0 0-.13-.125.127.127 0 0 0-.129.125c0 .068.058.124.13.124.071 0 .13-.056.13-.124m2.332 0a.127.127 0 0 0-.13-.125.127.127 0 0 0-.129.125c0 .068.058.124.13.124.07 0 .13-.056.13-.124m-20.47-.622.389-.242-.728-.004c-.42-.002-.66.102-.568.245.2.31.41.31.907 0zm6.996.124a.127.127 0 0 0-.13-.124.127.127 0 0 0-.129.124c0 .069.058.124.13.124.07 0 .13-.056.13-.124m2.332 0a.127.127 0 0 0-.13-.124.127.127 0 0 0-.129.124c0 .069.058.124.13.124.071 0 .13-.056.13-.124m2.073-.234c0-.06-.116-.18-.259-.264s-.26-.035-.26.11.117.264.26.264.26-.05.26-.11m1.037-.14.388-.24-.583-.005c-.32-.002-.583.108-.583.245 0 .312.275.312.778 0zm4.145.154c0-.052-.291-.149-.647-.214-.357-.066-.648-.023-.648.095s.291.214.648.214c.356 0 .647-.042.647-.095m.691-.07a.25.25 0 0 0-.345 0c-.095.09-.018.166.173.166s.267-.075.172-.166m.605.041a.127.127 0 0 0-.13-.124.127.127 0 0 0-.13.124c0 .068.059.124.13.124s.13-.056.13-.124m.69-.041a.25.25 0 0 0-.345 0c-.095.09-.017.166.173.166s.268-.075.173-.166m1.124.041a.127.127 0 0 0-.13-.124.127.127 0 0 0-.13.124c0 .068.059.124.13.124s.13-.056.13-.124m1.295 0a.127.127 0 0 0-.13-.124.127.127 0 0 0-.129.124c0 .068.058.124.13.124.071 0 .13-.056.13-.124m-6.807-.275c-.086-.083-.31-.091-.496-.02-.207.08-.146.139.156.15.273.012.426-.047.34-.13m.589.026a.127.127 0 0 0-.13-.124.127.127 0 0 0-.13.124c0 .069.059.125.13.125s.13-.056.13-.125m-7.644-.373c.102-.16-.57-.233-1.863-.205l-2.024.044 1.814.16c.997.09 1.836.181 1.863.206s.122-.068.21-.205m1.425-.151c0-.054-.175-.098-.389-.098s-.388.108-.388.24c0 .134.174.178.388.099.214-.08.389-.188.389-.241m.518.275a.127.127 0 0 0-.13-.124.127.127 0 0 0-.129.124c0 .069.058.125.13.125.07 0 .13-.056.13-.125m.777 0a.127.127 0 0 0-.13-.124.127.127 0 0 0-.129.124c0 .069.059.125.13.125s.13-.056.13-.125m-11.142-.47c.357-.043-1.37-.094-3.837-.115-2.466-.02-4.429.05-4.36.155.112.176 6.662.143 8.197-.04m1.296.221a.127.127 0 0 0-.13-.124.127.127 0 0 0-.129.124c0 .069.058.125.13.125.07 0 .13-.056.13-.125m2.4-.05c-.318-.06-.901-.061-1.295-.005-.394.058-.133.106.58.108.712.002 1.034-.045.715-.104zm117.38 0c-.318-.06-.901-.061-1.295-.005-.394.058-.133.106.58.108.712.002 1.034-.045.715-.104zm-132.15-.487c-.175-.068-.525-.072-.777-.009-.252.064-.109.12.319.124s.634-.046.458-.114zm1.291-.002a1.04 1.04 0 0 0-.648 0c-.178.07-.032.126.324.126s.502-.057.324-.126m14.705-1.27v-.34l-1.036.315-.004-.328-.004-.328-.199.3c-.113.172-.555.257-1.032.199l-.834-.102v.714l3.109-.09zm5.113.091c.086-.082-.126-.165-.47-.184l-1.663-.095c-1.213-.07-2.462.117-2.462.368 0 .21 4.371.126 4.595-.089m2.668-.03c-.136-.272-.79-.193-1.148.138-.134.124.087.193.518.161.414-.03.697-.165.63-.3m1.417.13c.089-.137.102-.25.031-.25s-.202.113-.29.25c-.088.136-.101.248-.03.248s.201-.112.29-.248m-3.498-.125a.127.127 0 0 0-.13-.124.127.127 0 0 0-.129.124c0 .069.059.125.13.125s.13-.056.13-.125m2.85 0a.127.127 0 0 0-.129-.124.127.127 0 0 0-.13.124c0 .069.059.125.13.125s.13-.056.13-.125m1.296 0a.127.127 0 0 0-.13-.124.127.127 0 0 0-.129.124c0 .069.058.125.13.125.071 0 .13-.056.13-.125m2.246-.041c-.095-.092-.25-.092-.346 0s-.017.166.173.166.268-.075.173-.166m2.677.041a.127.127 0 0 0-.13-.124.127.127 0 0 0-.129.124c0 .069.059.125.13.125s.13-.056.13-.125m.778 0a.127.127 0 0 0-.13-.124.127.127 0 0 0-.13.124c0 .069.059.125.13.125s.13-.056.13-.125m.518 0a.127.127 0 0 0-.13-.124.127.127 0 0 0-.13.124c0 .069.06.125.13.125.072 0 .13-.056.13-.125m2.262-.026c-.086-.083-.31-.092-.497-.02-.207.08-.145.139.157.15.273.012.426-.047.34-.13m102.33-1.26c-.095-.092-.25-.092-.346 0s-.017.166.173.166.268-.075.173-.166m-1.598-.332c-.428-.105-1.244-.205-1.814-.223l-1.036-.034.388-.266.39-.267-.649.143c-.356.078-.997.158-1.425.177-.885.04 2.957.646 4.146.654l.777.005zm-133.95-.238c-.084-.13-.324-.175-.534-.097-.535.197-.472.335.154.335.293 0 .464-.107.38-.238m1.159.114a.127.127 0 0 0-.13-.125.127.127 0 0 0-.13.125c0 .068.06.124.13.124.072 0 .13-.056.13-.124m1.727-.041a.25.25 0 0 0-.345 0c-.095.09-.017.166.173.166s.267-.075.172-.166m3.628-.25a.25.25 0 0 0-.346 0c-.095.092-.017.167.173.167s.268-.075.173-.166m1.64-.082c0-.137-.232-.25-.517-.25s-.519.113-.519.25.234.249.519.249.518-.112.518-.25m1.815-.055c0-.107-.292-.194-.648-.194s-.648.11-.648.246c0 .135.292.223.648.194s.648-.139.648-.246m-8.362-.096c-.086-.082-.31-.091-.497-.02-.206.08-.145.139.157.15.273.012.426-.047.34-.13m1.884-.076c0-.253-.662-.216-.943.054-.099.095.073.173.382.173.308 0 .561-.102.561-.227m1.684-.022c.088-.137.102-.25.03-.25-.07 0-.2.113-.289.25s-.102.249-.03.249c.07 0 .201-.112.29-.25m5.485.083c-.095-.092-.25-.092-.346 0s-.017.166.173.166.268-.075.173-.166m.604.041a.127.127 0 0 0-.13-.124.127.127 0 0 0-.129.124c0 .069.059.125.13.125s.13-.056.13-.125m1.728-.041a.25.25 0 0 0-.346 0c-.095.091-.017.166.173.166s.268-.075.173-.166m.604.041a.127.127 0 0 0-.13-.124.127.127 0 0 0-.129.124c0 .069.058.125.13.125.071 0 .13-.056.13-.125m114.07-.05c-.32-.06-.845-.06-1.166 0s-.058.107.583.107c.642 0 .904-.049.583-.108m-123.66-.199a.127.127 0 0 0-.13-.124.127.127 0 0 0-.129.124c0 .069.059.125.13.125s.13-.056.13-.125m119.97 0a.127.127 0 0 0-.13-.124.127.127 0 0 0-.129.124c0 .069.059.125.13.125s.13-.056.13-.125m6.219 0a.127.127 0 0 0-.13-.124.127.127 0 0 0-.13.124c0 .069.06.125.13.125.072 0 .13-.056.13-.125m-126.47-.809c.147-.242.268-.297.272-.124.004.17.191.31.415.31.513 0 1.275-.71 1.013-.945-.107-.096-.248-.034-.311.137-.137.369-.85.421-.85.062 0-.36-.714-.307-.843.062l-.11.311-.436-.346c-.24-.191-.519-.269-.618-.174-.1.096-.009.278.2.406.21.127.288.233.172.235s-.137.116-.05.253c.252.39.856.292 1.146-.187m6.704.138 1.65.045-.101-.291c-.065-.187-.728-.287-1.835-.278l-1.733.014-.004-.28c-.002-.155-.12-.113-.26.092l-.255.373-.195-.288c-.107-.16-.505-.271-.884-.25l-.69.04.547.634-.399-.147c-.22-.08-.474-.031-.565.11l-.165.258 1.418-.067c.854-.04 1.358.028 1.266.172-.092.143-.012.154.2.027.196-.115 1.098-.19 2.005-.164zm-3.47-.488c-.114-.178-.07-.22.115-.11.165.098.3.228.3.288 0 .208-.23.11-.414-.178m35.567.62a.25.25 0 0 0-.346 0c-.095.091-.017.166.173.166s.268-.075.173-.166m-29.193-.22c0-.03-.3-.244-.667-.475l-.667-.42.265.475c.203.364 1.069.704 1.069.42m.777.027c0-.06-.116-.179-.259-.264-.142-.084-.259-.035-.259.11s.117.264.26.264c.142 0 .258-.05.258-.11m3.11-.015a.127.127 0 0 0-.13-.124.127.127 0 0 0-.13.124c0 .069.059.125.13.125s.13-.056.13-.125m.966-.026c-.086-.082-.31-.091-.497-.02-.206.08-.145.14.157.151.273.01.426-.048.34-.13m5.252-.098c0-.137-.123-.25-.274-.25s-.203.113-.114.25c.088.137.211.249.274.249s.114-.112.114-.25m.691-.166c-.095-.091-.173-.017-.173.166s.078.257.173.166a.23.23 0 0 0 0-.332m3.066.166c.088-.137-.028-.25-.259-.25-.23 0-.347.113-.259.25s.205.249.26.249c.054 0 .17-.112.258-.25m10.494.124a.127.127 0 0 0-.13-.124.127.127 0 0 0-.129.124c0 .069.058.125.13.125.071 0 .13-.056.13-.125m-21.506-.249a.127.127 0 0 0-.13-.124.127.127 0 0 0-.129.124c0 .069.058.125.13.125.07 0 .13-.056.13-.125m3.8-.041a.25.25 0 0 0-.345 0c-.095.091-.017.166.173.166s.268-.075.173-.166m.864.041a.127.127 0 0 0-.13-.124.127.127 0 0 0-.129.124c0 .069.058.125.13.125.071 0 .13-.056.13-.125m1.555.027c0-.054-.175-.162-.389-.241-.213-.079-.388-.035-.388.098 0 .132.175.24.388.24s.389-.043.389-.097m3.692-.067c-.178-.07-.47-.07-.647 0-.179.069-.033.126.323.126s.502-.057.324-.126m2.008.04a.127.127 0 0 0-.13-.124.127.127 0 0 0-.129.124c0 .069.059.125.13.125s.13-.056.13-.125m1.555 0a.127.127 0 0 0-.13-.124.127.127 0 0 0-.129.124c0 .069.058.125.13.125.07 0 .13-.056.13-.125m.777 0a.127.127 0 0 0-.13-.124.127.127 0 0 0-.129.124c0 .069.059.125.13.125s.13-.056.13-.125m-11.66-.249a.127.127 0 0 0-.13-.124.127.127 0 0 0-.129.124c0 .069.059.125.13.125s.13-.056.13-.125m-5.182-.248a.127.127 0 0 0-.13-.125.127.127 0 0 0-.129.125c0 .068.058.124.13.124.071 0 .13-.056.13-.124m106.68-.026c-.086-.083-.31-.092-.496-.02-.207.08-.146.138.156.15.273.011.426-.048.34-.13M30.74 46.5l.771.11v-.304c0-.167.171-.24.38-.164.21.077.448.036.53-.09.081-.127-.236-.219-.705-.204s-1.44-.05-2.156-.147l-1.304-.176-.04.514c-.023.283.068.514.202.514s.243-.112.243-.249.262-.24.583-.23c.336.012.433.078.23.155l-.353.135.353.211c.194.116.385.122.424.014.04-.108.418-.148.842-.088m2.24-.362c-.095-.091-.173-.016-.173.166s.078.257.173.166a.23.23 0 0 0 0-.332m1.6-.229c-.23-.22-.683-.35-1.027-.292l-.617.103.648.276c.356.152.819.284 1.027.292l.38.016zm3.15.27a.127.127 0 0 0-.13-.124.127.127 0 0 0-.13.125c0 .068.06.124.13.124.072 0 .13-.056.13-.124m1.555 0a.127.127 0 0 0-.13-.124.127.127 0 0 0-.13.125c0 .068.059.124.13.124s.13-.056.13-.124m4.405 0a.127.127 0 0 0-.13-.124.127.127 0 0 0-.13.125c0 .068.059.124.13.124s.13-.056.13-.124m1.878-.04c-.178-.069-.47-.069-.648 0-.178.07-.032.126.324.126.357 0 .502-.057.324-.126m-9.652-.208a.127.127 0 0 0-.13-.125.127.127 0 0 0-.129.125c0 .068.058.124.13.124.07 0 .13-.056.13-.124m1.101-.04a1.04 1.04 0 0 0-.647 0c-.178.069-.033.125.324.125.356 0 .502-.056.323-.125m-11.277-.484c-.086-.083-.31-.091-.496-.02-.207.08-.145.139.156.15.273.012.427-.047.34-.13m1.107.04c0-.06-.117-.178-.26-.263-.142-.084-.258-.035-.258.11s.116.264.259.264.259-.05.259-.11m-1.814-.538c0-.054-.175-.098-.388-.098s-.39.108-.39.24c0 .133.176.177.39.099.213-.08.388-.188.388-.241m3.817.25c-.086-.084-.31-.092-.497-.02-.207.079-.145.138.157.15.273.01.426-.048.34-.13m.76-.016a.25.25 0 0 0-.345 0c-.095.091-.017.166.173.166s.268-.075.173-.166m1.313.015c-.087-.083-.31-.091-.497-.02-.207.08-.145.139.156.15.274.012.427-.047.34-.13m-4.853-.223a.127.127 0 0 0-.13-.124.127.127 0 0 0-.13.124c0 .069.059.125.13.125s.13-.056.13-.125m-2.591-.498a.127.127 0 0 0-.13-.124.127.127 0 0 0-.13.124c0 .069.059.125.13.125s.13-.056.13-.125m5.96-.498a.127.127 0 0 0-.13-.124.127.127 0 0 0-.13.124c0 .069.058.125.13.125.07 0 .13-.056.13-.125m7.184-.772c-.086-.083-.31-.092-.497-.02-.206.08-.145.138.157.15.273.011.426-.048.34-.13m1.107.026a.127.127 0 0 0-.13-.125.127.127 0 0 0-.13.125c0 .068.059.124.13.124s.13-.056.13-.124m2.002-.026c-.086-.083-.31-.092-.496-.02-.207.08-.146.138.156.15.273.011.426-.048.34-.13m1.43-.015a1.04 1.04 0 0 0-.647 0c-.178.07-.032.126.324.126s.502-.057.324-.126m1.815 0a1.04 1.04 0 0 0-.648 0c-.178.07-.033.126.324.126.356 0 .502-.057.324-.126m2.072 0a1.04 1.04 0 0 0-.647 0c-.178.07-.033.126.324.126.356 0 .502-.057.323-.126M40.58 41.76l.906-.105-1.216-.04c-.668-.022-1.277.057-1.353.175-.21.327.152.558.473.302.156-.125.692-.274 1.19-.332m2.201-.184c.204-.317-.396-.317-.907 0l-.388.24.567.005c.313.002.64-.108.728-.245zm8.335.083c-.095-.092-.25-.092-.346 0s-.017.165.173.165.268-.074.173-.165m1.641.04a.127.127 0 0 0-.13-.124.127.127 0 0 0-.13.125c0 .068.06.124.13.124.072 0 .13-.056.13-.124m-7.082-.29a.25.25 0 0 0-.346 0c-.095.092-.017.166.173.166s.268-.074.173-.166M30.967 40.8l.622-.02-.32-.19c-.442-.263-4.493-.023-4.812.285l-.259.25 2.073-.152c1.14-.084 2.353-.161 2.696-.173m1.908.113c-.175-.068-.525-.072-.777-.009s-.109.12.319.124c.427.005.633-.046.458-.114zm3.628-.249c-.176-.068-.526-.072-.778-.009s-.108.12.32.124c.427.005.633-.046.458-.114zm2.78.04a.127.127 0 0 0-.13-.125.127.127 0 0 0-.129.124c0 .069.058.125.13.125.07 0 .13-.056.13-.125m-12.956-.25a.127.127 0 0 0-.13-.124.127.127 0 0 0-.129.124c0 .069.058.125.13.125.07 0 .13-.056.13-.125m-7.6-.29a.25.25 0 0 0-.346 0c-.095.091-.017.166.173.166s.268-.075.173-.166m-1.07-.847c.28-.433-.038-.525-.394-.113-.204.236-.224.379-.052.379.152 0 .353-.12.447-.266m.731-.107c-.082-.206-.195-.374-.25-.374-.057 0-.102.168-.102.374 0 .205.113.373.25.373.139 0 .184-.168.102-.373m1.515.205-.334-.13.282-.326c.174-.202.188-.384.035-.474-.42-.25-.016-1.109.573-1.22l.556-.104-1.623-.067-.154.56c-.084.308-.04.597.1.643.139.045.252.253.252.462 0 .235-.148.325-.388.236-.214-.079-.39-.044-.39.077 0 .255.477.472 1.037.472h.389zm2.02-.828c0-.137-.285-.249-.633-.249s-.705.112-.793.25c-.093.144.17.248.633.248.436 0 .792-.112.792-.249m1.674.015c.082-.128-.086-.217-.374-.196s-.523.126-.523.234c0 .275.715.245.897-.038m.916-.14a.127.127 0 0 0-.13-.124.127.127 0 0 0-.129.125c0 .068.058.124.13.124.071 0 .13-.056.13-.124m4.081-.058c-.677-.051-1.784-.051-2.461 0s-.123.093 1.23.093c1.354 0 1.908-.042 1.231-.093m2.397.059a.127.127 0 0 0-.13-.125.127.127 0 0 0-.13.125c0 .068.06.124.13.124.072 0 .13-.056.13-.124m-10.45-.54a.25.25 0 0 0-.346 0c-.095.092-.018.166.172.166s.268-.074.173-.166m2.865-.233c-.086-.083-.31-.092-.496-.02-.207.08-.145.139.156.15.274.011.427-.048.34-.13m2.144.026a.127.127 0 0 0-.13-.125.127.127 0 0 0-.13.125c0 .068.059.124.13.124s.13-.056.13-.124m13.663-.275c-.087-.083-.31-.091-.497-.02-.207.08-.145.139.156.15.274.012.427-.047.34-.13m128.5-.015a.25.25 0 0 0-.346 0c-.095.09-.017.165.173.165s.268-.074.173-.165m-141.99-.25a.25.25 0 0 0-.346 0c-.095.092-.017.166.173.166s.268-.074.173-.166m3.908-.017a20 20 0 0 0-2.462 0c-.677.052-.123.094 1.231.094s1.908-.042 1.23-.094m2.762-.03c.076-.117-.15-.16-.503-.095-.352.065-.64.16-.64.213 0 .193 1.01.089 1.143-.117m9.394.047a.25.25 0 0 0-.345 0c-.095.092-.017.166.173.166s.267-.074.172-.166m-8.275-.233c-.086-.083-.31-.091-.497-.02-.206.08-.145.139.157.15.273.012.426-.047.34-.13m1.036 0c-.086-.083-.31-.091-.496-.02-.207.08-.145.139.156.15.274.012.427-.047.34-.13m1.884.026a.127.127 0 0 0-.13-.124.127.127 0 0 0-.129.124c0 .069.059.125.13.125s.13-.056.13-.125m8.465-.041a.25.25 0 0 0-.346 0c-.095.091-.017.166.173.166s.268-.075.173-.166m-16.238-.208a.127.127 0 0 0-.13-.124.127.127 0 0 0-.13.124c0 .069.059.125.13.125s.13-.056.13-.125m1.814 0a.127.127 0 0 0-.13-.124.127.127 0 0 0-.13.124c0 .069.059.125.13.125s.13-.056.13-.125m5.095-.041a.25.25 0 0 0-.345 0c-.095.091-.017.166.173.166s.267-.075.172-.166m3.196.041a.127.127 0 0 0-.13-.124.127.127 0 0 0-.13.124c.001.069.06.125.13.125.072 0 .13-.056.13-.125m.518 0a.127.127 0 0 0-.13-.124.127.127 0 0 0-.129.124c0 .069.058.125.13.125.071 0 .13-.056.13-.125m.519 0a.127.127 0 0 0-.13-.124.127.127 0 0 0-.13.124c0 .069.059.125.13.125s.13-.056.13-.125m-19.952-.747a.127.127 0 0 0-.13-.124.127.127 0 0 0-.13.124c0 .069.059.125.13.125s.13-.056.13-.125m1.554-.093c0-.12-.291-.218-.648-.218-.356 0-.647.098-.647.218s.291.218.647.218.648-.098.648-.218m.778.093a.127.127 0 0 0-.13-.124.127.127 0 0 0-.13.124c0 .069.059.125.13.125s.13-.056.13-.125m1.468-.041a.25.25 0 0 0-.346 0c-.095.091-.017.166.173.166s.268-.075.173-.166m1.123.041a.127.127 0 0 0-.13-.124.127.127 0 0 0-.13.124c0 .069.059.125.13.125s.13-.056.13-.125m7.091-.893c1.01.028 1.779-.003 1.71-.07-.07-.066-.883-.15-1.808-.187s-1.803-.151-1.951-.255c-.16-.11-.286.013-.309.303-.023.295.074.424.242.324.155-.091 1.107-.143 2.116-.115m3.98.12c-.086-.082-.31-.091-.496-.02-.207.08-.146.14.156.151.273.011.426-.048.34-.13m3.612-.015a.25.25 0 0 0-.346 0c-.095.091-.017.166.173.166s.268-.075.173-.166m6.305-.207a.127.127 0 0 0-.13-.125.127.127 0 0 0-.13.125c0 .068.059.124.13.124s.13-.056.13-.124m-2.16-.29a.25.25 0 0 0-.345 0c-.095.09-.017.165.173.165s.267-.075.172-.166m5.269.04a.127.127 0 0 0-.13-.124.127.127 0 0 0-.13.125c0 .068.06.124.13.124.072 0 .13-.056.13-.124m-14.251-.248a.127.127 0 0 0-.13-.125.127.127 0 0 0-.13.125c0 .068.06.124.13.124.072 0 .13-.056.13-.124m1.036 0a.127.127 0 0 0-.13-.125.127.127 0 0 0-.129.125c0 .068.059.124.13.124s.13-.056.13-.124m-14.25-.585c0-.116-.35-.22-.778-.232-.427-.012-.777.083-.777.211s.35.232.777.232.777-.095.777-.21m.431-.203c-.095-.092-.172-.017-.172.165 0 .183.077.258.172.166a.23.23 0 0 0 0-.331m3.339-.006.439-.422-.485-.17c-.617-.215-.851-.03-.349.276.422.256.348.276-1.238.328-1.463.048-1.422.41.046.41.733 0 1.306-.153 1.587-.422m1.282.172c.088-.137-.015-.249-.228-.249s-.461.112-.55.25c-.087.136.016.248.23.248s.46-.112.548-.249m3.498.125a.127.127 0 0 0-.13-.125.127.127 0 0 0-.129.125c0 .068.058.124.13.124.07 0 .13-.056.13-.124m1.555 0a.127.127 0 0 0-.13-.125.127.127 0 0 0-.13.125c0 .068.059.124.13.124s.13-.056.13-.124m.777 0a.127.127 0 0 0-.13-.125.127.127 0 0 0-.129.125c0 .068.058.124.13.124.07 0 .13-.056.13-.124m.518 0a.127.127 0 0 0-.13-.125.127.127 0 0 0-.129.125c0 .068.059.124.13.124s.13-.056.13-.124m.778 0a.127.127 0 0 0-.13-.125.127.127 0 0 0-.13.125c0 .068.059.124.13.124s.13-.056.13-.124m-9.955-.81c-.106-.102-1.02-.186-2.03-.186h-1.835l-.243-.702.424.156c.233.086.424.048.424-.084 0-.133-.233-.242-.518-.242h-.518v1.03l-.519-.158c-.297-.09-.518-.045-.518.107v.266h2.764c1.52 0 2.676-.084 2.57-.187zm3.473-.165-.255-.245-.511.49h1.022zm2.465.103c-.088-.137-.415-.24-.727-.231l-.568.017.518.214c.713.295.967.295.777 0m1.426.125a.127.127 0 0 0-.13-.125.127.127 0 0 0-.13.125c0 .068.059.124.13.124s.13-.056.13-.124m.518 0a.127.127 0 0 0-.13-.125.127.127 0 0 0-.13.125c0 .068.059.124.13.124s.13-.056.13-.124m-7.255-.25a.127.127 0 0 0-.13-.124.127.127 0 0 0-.13.125c0 .068.059.124.13.124s.13-.056.13-.124m3.627 0a.127.127 0 0 0-.13-.124.127.127 0 0 0-.129.125c0 .068.058.124.13.124.07 0 .13-.056.13-.124m6.024-.04c-.178-.068-.47-.068-.647 0-.178.07-.033.126.324.126.356 0 .502-.056.323-.125m-7.838-.208a.127.127 0 0 0-.13-.124.127.127 0 0 0-.129.124c0 .069.059.125.13.125s.13-.056.13-.125m5.614-.041a.25.25 0 0 0-.345 0c-.095.091-.017.166.173.166s.268-.075.172-.166m7.67-.01c-.32-.058-.902-.06-1.296-.003s-.133.105.58.107c.712.002 1.034-.045.715-.104zm-17.072-.441q.573.55.45-.193c-.062-.38 2.894-.286 3.04.096.051.136.244.113.453-.054l.364-.29.388.31.389.31v-.576l.502.258c.317.163.56.17.656.02.085-.131.327-.175.538-.097.21.077.546.011.746-.148.22-.176.422-.196.515-.051.084.13.388.179.675.107 1.405-.353.357-.474-3.71-.427-6.031.069-5.71.034-6.115.667l-.358.56 1.048-.895zm-.357.243a.127.127 0 0 0-.13-.125.127.127 0 0 0-.13.125c0 .068.059.124.13.124s.13-.056.13-.124m1.554-.25a.127.127 0 0 0-.13-.124.127.127 0 0 0-.129.125c0 .068.058.124.13.124.07 0 .13-.056.13-.124m1.485-.025c-.086-.083-.31-.092-.497-.02-.207.08-.145.139.157.15.273.011.426-.048.34-.13m8.102-.472c0-.208-.23-.374-.518-.374-.285 0-.518.119-.518.264s.116.194.259.11c.142-.085.26-.035.26.11s.116.263.258.263.26-.168.26-.373m1.21-.042c0-.182-.21-.332-.467-.332-.283 0-.415.131-.335.332.073.183.283.332.467.332s.335-.149.335-.332m.863.29a.127.127 0 0 0-.13-.124.127.127 0 0 0-.129.125c0 .068.058.124.13.124.07 0 .13-.056.13-.124m4.475-.038c-.176-.068-.525-.072-.778-.009-.252.063-.108.119.32.124.427.005.633-.047.458-.115zm-3.05-.335c.088-.136-.021-.249-.243-.249-.223 0-.404.113-.404.25s.11.248.243.248.316-.112.404-.249m-21.636-.249c0-.136-.204-.247-.453-.245l-.454.004.39.242c.488.303.517.303.517 0zm19.952.125a.127.127 0 0 0-.13-.125.127.127 0 0 0-.129.125c0 .068.059.124.13.124s.13-.055.13-.124m-19.174-.25a.127.127 0 0 0-.13-.124.127.127 0 0 0-.129.125c0 .068.059.124.13.124s.13-.056.13-.124m3.347-.523c.06-.054-.378-.098-.972-.098-.593 0-1.08.1-1.08.221 0 .206 1.81.097 2.052-.123m5.393.25c-.086-.084-.31-.092-.497-.02-.207.079-.145.138.157.15.273.01.426-.048.34-.131m1.106-.224a.127.127 0 0 0-.13-.124.127.127 0 0 0-.129.124c0 .069.059.125.13.125s.13-.056.13-.125m-1.381-1.286a.25.25 0 0 0-.346 0c-.095.091-.017.166.173.166s.268-.075.173-.166m1.052.015c-.086-.082-.31-.091-.497-.02-.206.08-.145.14.157.151.273.01.426-.048.34-.13m2.143-.223a.127.127 0 0 0-.13-.124.127.127 0 0 0-.129.124c0 .069.058.125.13.125.07 0 .13-.056.13-.125m.518 0a.127.127 0 0 0-.13-.124.127.127 0 0 0-.129.124c0 .069.059.125.13.125s.13-.056.13-.125m2.78-.026c-.086-.082-.31-.091-.496-.02-.207.08-.145.14.156.151.274.01.427-.048.34-.13m2.403.026a.127.127 0 0 0-.13-.124.127.127 0 0 0-.13.124c0 .069.059.125.13.125s.13-.056.13-.125m-8.637-.29a.25.25 0 0 0-.346 0c-.095.091-.017.166.173.166s.268-.075.173-.166m-10.348-.233c-.086-.083-.31-.092-.497-.02-.207.08-.145.138.157.15.273.011.426-.048.34-.13m7.843-.223a.127.127 0 0 0-.13-.125.127.127 0 0 0-.129.125c0 .068.058.124.13.124.07 0 .13-.056.13-.124m2.591-.25a.127.127 0 0 0-.13-.124.127.127 0 0 0-.129.124c0 .068.058.124.13.124.07 0 .13-.056.13-.124m1.555 0a.127.127 0 0 0-.13-.124.127.127 0 0 0-.13.124c0 .068.06.124.13.124.072 0 .13-.056.13-.124m-2.591-.773c0-.054-.175-.098-.389-.098s-.389.108-.389.24.175.178.39.099c.213-.08.388-.188.388-.241m142.59.216c-.885-.049-2.4-.05-3.369-.001-.967.048-.244.087 1.61.088 1.852 0 2.644-.04 1.759-.087zm-150.36-.19a.127.127 0 0 0-.13-.124.127.127 0 0 0-.13.124c0 .069.059.125.13.125s.13-.056.13-.125m2.902-.16.337-.205-.778.025a9 9 0 0 0-1.554.218l-.778.192 1.218-.012c.67-.006 1.37-.105 1.555-.218m2.02.175c0-.06-.134-.19-.298-.287-.186-.11-.229-.069-.114.11.184.286.413.385.413.177m1.037-.14c0-.136-.175-.248-.388-.248s-.389.112-.389.249.175.249.389.249.388-.112.388-.25m2.505.084a.25.25 0 0 0-.345 0c-.095.091-.018.166.172.166s.268-.075.173-.166m1.053.015c-.086-.082-.31-.091-.497-.02-.207.08-.145.14.157.151.273.01.426-.048.34-.13m1.538-.015a.25.25 0 0 0-.345 0c-.095.091-.018.166.172.166s.268-.075.173-.166m9.415.041a.127.127 0 0 0-.13-.124.127.127 0 0 0-.13.124c0 .069.059.125.13.125s.13-.056.13-.125m-16.67-.29a.25.25 0 0 0-.345 0c-.095.091-.017.166.173.166s.268-.075.173-.166m8.12.041a.127.127 0 0 0-.13-.124.127.127 0 0 0-.13.124c0 .069.059.125.13.125s.13-.056.13-.125m4.663 0a.127.127 0 0 0-.13-.124.127.127 0 0 0-.129.124c0 .069.059.125.13.125s.13-.056.13-.125m1.296 0a.127.127 0 0 0-.13-.124.127.127 0 0 0-.13.124c0 .069.06.125.13.125.072 0 .13-.056.13-.125m.777 0a.127.127 0 0 0-.13-.124.127.127 0 0 0-.129.124c0 .069.058.125.13.125.071 0 .13-.056.13-.125m4.146 0a.127.127 0 0 0-.13-.124.127.127 0 0 0-.129.124c0 .069.058.125.13.125.07 0 .13-.056.13-.125m.777 0a.127.127 0 0 0-.13-.124.127.127 0 0 0-.129.124c0 .069.059.125.13.125s.13-.056.13-.125m2.591 0a.127.127 0 0 0-.13-.124.127.127 0 0 0-.129.124c0 .069.059.125.13.125s.13-.056.13-.125m6.22 0a.127.127 0 0 0-.13-.124.127.127 0 0 0-.13.124c0 .069.058.125.13.125.07 0 .13-.056.13-.125m132.6-.056a12 12 0 0 0-1.944 0c-.535.053-.097.097.972.097s1.506-.044.971-.097m-151.08-.234a.25.25 0 0 0-.346 0c-.095.091-.018.166.172.166s.268-.075.173-.166m-15.029-.249a.25.25 0 0 0-.345 0c-.095.091-.018.166.172.166s.268-.075.173-.166m3.714.041a.127.127 0 0 0-.13-.124.127.127 0 0 0-.129.124c0 .069.058.125.13.125.07 0 .13-.056.13-.125m.518 0a.127.127 0 0 0-.13-.124.127.127 0 0 0-.129.124c0 .069.058.125.13.125.071 0 .13-.056.13-.125m130.14-.549c-.32-.059-.845-.059-1.166 0s-.058.108.583.108.904-.048.583-.108m9.726-.006a22 22 0 0 0-2.591 0c-.753.05-.204.092 1.222.092s2.04-.04 1.369-.091zm-145.89-.217c-.086-.083-.31-.092-.497-.02-.207.08-.145.139.157.15.273.011.426-.048.34-.13m5.77-.472a.127.127 0 0 0-.13-.125.127.127 0 0 0-.129.125c0 .068.058.124.13.124.07 0 .13-.056.13-.124m1.728-.042a.25.25 0 0 0-.346 0c-.095.092-.017.166.173.166s.268-.075.173-.166m1.97.003c-.176-.068-.526-.072-.778-.009s-.108.12.32.124c.427.005.633-.046.458-.115zm-4.415-.363c.246-.002.511-.101.589-.222.077-.12-.183-.182-.578-.137a24 24 0 0 1-1.56.11c-.464.016-.843.115-.843.22s.437.155.972.111c.534-.043 1.173-.08 1.42-.082zm1.408-.137a.25.25 0 0 0-.345 0c-.095.091-.018.166.172.166s.268-.075.173-.166m.778-.25a.25.25 0 0 0-.346 0c-.095.092-.017.167.173.167s.268-.075.173-.166m1.685-.14-.254-.243-.906.487h1.414zm.733-.067a.127.127 0 0 0-.13-.124.127.127 0 0 0-.13.124c0 .069.06.125.13.125.072 0 .13-.056.13-.125m1.036 0a.127.127 0 0 0-.13-.124.127.127 0 0 0-.129.124c0 .069.058.125.13.125.071 0 .13-.056.13-.125m2.143-.039c-.176-.068-.525-.072-.777-.009-.253.064-.109.12.319.124.427.005.633-.046.458-.114zm87.639-.334c.203-.315-.14-.315-.648 0l-.389.241.439.004c.24.002.51-.108.598-.245zm2.958-.16c.06-.049-.196-.09-.568-.09s-.75.117-.842.26l-.166.259.734-.17c.404-.093.783-.21.842-.259m-28.567-.255a.25.25 0 0 0-.345 0c-.095.091-.018.166.172.166s.268-.075.173-.166m3.908-.015a12 12 0 0 0-1.943 0c-.534.053-.097.097.972.097s1.506-.044.971-.097m4.02.005c-.319-.06-.902-.061-1.296-.004-.393.057-.133.105.58.107.712.002 1.035-.045.716-.104zm-67.404-.51.356-.435-.413.309c-.227.17-.489.235-.583.145s-.17-.033-.17.126c0 .427.403.354.81-.145m49.905.285c-.086-.082-.31-.091-.497-.02-.206.08-.145.14.157.151.273.01.426-.048.34-.13m2.99-.012c-.175-.069-.525-.073-.777-.01-.252.064-.109.12.319.125.427.005.634-.047.458-.115zm3.882-.017c-.463-.055-1.221-.055-1.684 0s-.085.1.842.1 1.305-.045.842-.1m-51.996-.26c1.134-.209.656-.441-1.057-.515l-1.684-.073v.591l-.395-.314c-.218-.174-.47-.243-.562-.155-.091.088-.001.17.2.184.203.014.076.118-.28.232l-.648.207 1.9-.021c1.044-.012 2.18-.073 2.526-.136zm-2.272-.228c.187-.071.41-.063.497.02s-.067.142-.34.13c-.302-.011-.364-.07-.157-.15m6.53.049c.121.071.293.016.383-.123.09-.14-.076-.253-.371-.253h-.534l.02.435c.013.263.073.312.152.123.073-.172.23-.254.35-.182m31.538.22c-.086-.083-.31-.091-.497-.02-.207.08-.145.139.157.15.273.012.426-.047.34-.13m3.508-.013c-.175-.068-.525-.072-.777-.009s-.109.12.319.124c.427.005.633-.046.458-.114zm4.076.04a.127.127 0 0 0-.13-.125.127.127 0 0 0-.129.124c0 .069.058.125.13.125.07 0 .13-.056.13-.125m-40.066-.321c.072-.112-.27-.228-.76-.26s-.89.034-.89.146c0 .27 1.484.372 1.65.114m5.475-.053.518-.214-1.604-.017c-.882-.01-1.676.094-1.764.231-.197.307 2.107.307 2.85 0m1.814 0c.09-.139-.104-.247-.438-.245l-.598.004.388.241c.482.3.456.3.648 0zm5.053 0c0-.137-.525-.249-1.166-.249-.642 0-1.166.112-1.166.249s.524.249 1.166.249 1.166-.112 1.166-.249m1.295 0c-.213-.133-.563-.241-.777-.241h-.389l.389.241c.214.133.564.241.777.241h.389zm.778.124a.127.127 0 0 0-.13-.124.127.127 0 0 0-.13.124c0 .069.059.125.13.125s.13-.056.13-.125m3.109.015c0-.263-.497-.373-.645-.143-.09.14.019.253.241.253s.404-.05.404-.11m.777-.015a.127.127 0 0 0-.13-.124.127.127 0 0 0-.129.124c0 .069.059.125.13.125s.13-.056.13-.125m1.469-.04a.25.25 0 0 0-.346 0c-.095.09-.017.165.173.165s.268-.075.173-.166m2.418.04a.127.127 0 0 0-.13-.124.127.127 0 0 0-.13.124c0 .069.06.125.13.125.072 0 .13-.056.13-.125m1.884-.038c-.176-.069-.526-.073-.778-.01-.252.064-.108.12.32.125.427.005.633-.047.458-.115zm2.845-.013c-.32-.06-.845-.06-1.166 0s-.058.108.583.108.903-.048.583-.108m1.403.01a.25.25 0 0 0-.345 0c-.095.09-.017.165.173.165s.267-.075.172-.166m1.555 0a.25.25 0 0 0-.345 0c-.095.09-.018.165.172.165s.268-.075.173-.166m1.123.04a.127.127 0 0 0-.13-.124.127.127 0 0 0-.13.125c0 .068.059.124.13.124s.13-.056.13-.124m-28.848-.29a.25.25 0 0 0-.346 0c-.095.092-.017.166.173.166s.268-.075.173-.166m94.597-1.509a12 12 0 0 0-1.943 0c-.535.054-.098.098.971.098s1.506-.044.972-.098m3.174.057a.127.127 0 0 0-.13-.124.127.127 0 0 0-.13.124c0 .069.06.125.13.125.072 0 .13-.056.13-.125m-118.15-.497a.127.127 0 0 0-.13-.124.127.127 0 0 0-.13.124c0 .068.06.124.13.124.072 0 .13-.055.13-.124m2.214-.106c-.081-.127-.512-.186-.957-.132-1.229.15-1.222.362.01.362.606 0 1.03-.103.947-.23m1.154.106a.127.127 0 0 0-.13-.124.127.127 0 0 0-.129.124c0 .068.059.124.13.124s.13-.055.13-.124m1.296 0a.127.127 0 0 0-.13-.124.127.127 0 0 0-.13.124c0 .068.06.124.13.124.072 0 .13-.055.13-.124m1.036 0a.127.127 0 0 0-.13-.124.127.127 0 0 0-.129.124c0 .068.059.124.13.124s.13-.055.13-.124m120.23-.373c-.213-.133-1.03-.228-1.813-.21l-1.425.031 1.036.179c.57.098 1.386.192 1.814.21l.777.03zm-39.903-.125a.127.127 0 0 0-.13-.124.127.127 0 0 0-.129.124c0 .069.059.125.13.125s.13-.056.13-.125m3.304-.054a6 6 0 0 0-1.425 0c-.392.057-.071.104.713.104s1.104-.047.712-.104m3.502.003c-.319-.059-.902-.06-1.296-.004-.394.057-.133.106.58.108.712.002 1.034-.045.716-.104zm11.592-.115c4.09-.027 6.353-.114 5.311-.204-2.606-.227-14.05-.02-14.722.266l-.565.241 1.425-.128c.784-.071 4.631-.15 8.55-.175zm15.417.056 1.036-.206-4.405.02-4.405.022 2.98.15c1.639.082 3.155.165 3.368.184.214.02.856-.057 1.426-.17zm8.226.059c-.32-.06-.845-.06-1.166 0s-.058.108.583.108c.642 0 .904-.049.583-.108m-132.47-.322c0-.137-.116-.25-.259-.25s-.259.113-.259.25.117.249.26.249.258-.112.258-.25m4.535 0c-.088-.137-.357-.248-.598-.245l-.439.004.39.24c.507.316.85.316.647 0zm1.063-.062c.102-.172.09-.229-.026-.127-.117.101-.398.045-.625-.125l-.412-.309.355.436c.424.52.467.527.708.125m1.658.2c0-.06-.135-.189-.3-.286-.185-.11-.228-.069-.114.11.185.286.414.385.414.177m2.497-.062c-.217-.208-1.98-.26-1.98-.057 0 .11.473.192 1.05.185s.995-.065.93-.128m1.972-.003c-.32-.06-.845-.06-1.166 0s-.058.108.583.108c.642 0 .904-.049.583-.108m72.66.009c-.096-.091-.251-.091-.346 0s-.017.166.173.166.267-.075.172-.166m-81.016-.208a.127.127 0 0 0-.13-.124.127.127 0 0 0-.129.124c0 .069.058.125.13.125.071 0 .13-.056.13-.125m76.092-.041a.25.25 0 0 0-.345 0c-.095.091-.017.166.173.166s.267-.075.172-.166m.605.041a.127.127 0 0 0-.13-.124.127.127 0 0 0-.13.124c0 .069.059.125.13.125s.13-.056.13-.125m-37.571-.497a.127.127 0 0 0-.13-.125.127.127 0 0 0-.13.125c0 .068.059.124.13.124s.13-.056.13-.124m13.474 0a.127.127 0 0 0-.13-.125.127.127 0 0 0-.13.125c0 .068.059.124.13.124s.13-.056.13-.124m3.8-.042a.25.25 0 0 0-.345 0c-.095.091-.018.166.172.166s.268-.075.173-.166m1.571.016c-.086-.083-.31-.092-.497-.02-.206.08-.145.138.157.15.273.011.426-.048.34-.13m1.884.026a.127.127 0 0 0-.13-.125.127.127 0 0 0-.13.125c0 .068.06.124.13.124.072 0 .13-.056.13-.124m3.541-.042a.25.25 0 0 0-.345 0c-.095.092-.018.166.173.166s.267-.074.172-.166m16.93-.332c-.215-.132-.856-.227-1.426-.21l-1.036.032 1.036.178c.57.098 1.211.193 1.425.21l.389.032zm3.303.078a2.2 2.2 0 0 0-.907 0c-.25.062-.045.113.454.113.498 0 .702-.05.453-.113m-85.527-.74c-.077-.074-.276-.053-.443.046l-.304.18.351.21c.346.207.68-.163.396-.436m.992.414c.088-.137-.021-.25-.244-.25-.222 0-.404.113-.404.25 0 .136.11.248.244.248s.316-.112.404-.248m1.166.124a.127.127 0 0 0-.13-.124.127.127 0 0 0-.129.124c0 .068.058.124.13.124.07 0 .13-.055.13-.124m91.38-.042a.25.25 0 0 0-.345 0c-.095.092-.018.166.172.166s.268-.074.173-.166m-90.037-.634c-.186-.179-.306-.194-.306-.038 0 .333.306.627.479.46.074-.07-.004-.26-.173-.422m71.925.374c-.39-.057-1.089-.058-1.555-.003s-.147.101.708.103c.855 0 1.236-.044.847-.1zm26.49-.071c-.357-.11-.882-.203-1.167-.207l-.518-.007.518.214c.285.117.81.21 1.166.206l.648-.007zm3.038.098c-.086-.083-.31-.092-.496-.02-.207.08-.146.139.156.15.273.012.426-.047.34-.13m2.85 0c-.086-.083-.309-.092-.496-.02-.207.08-.145.139.156.15.274.012.427-.047.34-.13m-39.902-.249c-.087-.083-.31-.092-.497-.02-.207.08-.145.139.156.15.274.012.427-.047.34-.13m1.106.026a.127.127 0 0 0-.13-.124.127.127 0 0 0-.129.124c0 .069.058.125.13.125.07 0 .13-.056.13-.125m-67.698-.275c-.086-.082-.31-.091-.496-.02-.207.08-.146.139.156.15.273.012.426-.047.34-.13m2.92.026a.127.127 0 0 0-.129-.124.127.127 0 0 0-.13.124c0 .069.059.125.13.125s.13-.056.13-.125m54.414 0a.127.127 0 0 0-.13-.124.127.127 0 0 0-.13.124c0 .069.059.125.13.125s.13-.056.13-.125m1.554 0a.127.127 0 0 0-.13-.124.127.127 0 0 0-.129.124c0 .069.058.125.13.125.071 0 .13-.056.13-.125m2.267-.047a2.2 2.2 0 0 0-.906 0c-.25.063-.046.114.453.114s.703-.051.453-.114M8.641 17.51c-.095-.09-.172-.016-.172.166s.077.258.172.166a.23.23 0 0 0 0-.332m1.452.252c-.175-.068-.525-.072-.777-.009s-.109.119.319.124c.427.005.633-.047.458-.115zm1.226-.086a.247.247 0 0 0-.244-.249c-.134 0-.316.112-.404.25-.088.136.022.248.244.248s.404-.112.404-.249m3.001.034c-.129-.2-1.447-.091-1.447.12 0 .052.357.095.793.095s.73-.097.654-.215m31.46.09a.127.127 0 0 0-.13-.124.127.127 0 0 0-.13.125c0 .068.06.124.13.124.072 0 .13-.056.13-.124m1.814 0a.127.127 0 0 0-.13-.124.127.127 0 0 0-.13.125c0 .068.059.124.13.124s.13-.056.13-.124m9.652-.04a1.04 1.04 0 0 0-.648 0c-.178.07-.032.126.324.126s.502-.056.324-.125m1.42.015c-.087-.083-.31-.091-.497-.02-.207.08-.145.139.156.15.274.012.427-.047.34-.13m1.538-.015a.25.25 0 0 0-.346 0c-.095.09-.017.166.173.166s.268-.075.173-.166m1.296 0a.25.25 0 0 0-.346 0c-.095.09-.017.166.173.166s.268-.075.173-.166m.777 0a.25.25 0 0 0-.346 0c-.095.09-.017.166.173.166s.268-.075.173-.166m3.903.015c-.086-.083-.31-.091-.497-.02-.207.08-.145.139.157.15.273.012.426-.047.34-.13m1.106.026a.127.127 0 0 0-.13-.124.127.127 0 0 0-.129.124c0 .069.058.125.13.125.071 0 .13-.056.13-.125m1.037 0a.127.127 0 0 0-.13-.124.127.127 0 0 0-.13.124c0 .069.059.125.13.125s.13-.056.13-.125m.69-.041a.25.25 0 0 0-.345 0c-.095.091-.017.166.173.166s.268-.075.173-.166m.605.041a.127.127 0 0 0-.13-.124.127.127 0 0 0-.129.124c0 .069.058.125.13.125.071 0 .13-.056.13-.125m.691-.041a.25.25 0 0 0-.345 0c-.095.091-.018.166.172.166s.268-.075.173-.166m-23.493-.208a.127.127 0 0 0-.13-.124.127.127 0 0 0-.129.124c0 .069.058.125.13.125.07 0 .13-.056.13-.125m-40.16-.311c.001-.103.284-.313.63-.466l.626-.28.278.267.278.267v-.325c0-.187.165-.265.389-.182.213.079.388.035.388-.098 0-.318-.802-.305-2.217.037-1.115.27-1.34.454-.978.8.232.224.604.211.606-.02m92.414.02c-.095-.09-.25-.09-.345 0s-.017.166.172.166c.19 0 .268-.074.173-.165m3.196-.082c-.214-.133-.739-.236-1.166-.228l-.777.014.518.214c.285.117.81.22 1.166.227l.648.014zm24.875.124a.127.127 0 0 0-.13-.124.127.127 0 0 0-.13.124c0 .068.06.124.13.124.072 0 .13-.056.13-.124m-21.01-.532c.06-.05-.757-.089-1.814-.087l-1.922.004.39.239c.34.209 3.06.082 3.346-.156zm-94.907-.415c.099-.095-.072-.173-.381-.173s-.562.102-.562.227c0 .253.663.215.943-.054m.612.2a.127.127 0 0 0-.13-.124.127.127 0 0 0-.13.124c0 .069.06.125.13.125.072 0 .13-.056.13-.125m.691-.041a.25.25 0 0 0-.346 0c-.095.091-.017.166.173.166s.268-.075.173-.166m99.131 0c-.178-.068-.47-.068-.648 0-.178.07-.032.126.324.126s.502-.056.324-.125m-97.749-.208a.127.127 0 0 0-.13-.124.127.127 0 0 0-.13.124c0 .069.06.125.13.125.072 0 .13-.056.13-.125m2.72-.124c.089-.137.102-.25.031-.25s-.201.113-.29.25-.101.249-.03.249.202-.112.29-.25m-.906-.197c0-.048-.195-.275-.433-.503l-.432-.416-.108.31c-.06.171-.215.248-.345.17-.268-.16-.325.219-.07.464.168.161 1.388.14 1.388-.025m2.85.099c0-.054-.175-.162-.389-.241-.213-.08-.388-.035-.388.098 0 .132.175.24.388.24s.389-.043.389-.097m-4.792-.398c-.176-.274-2.162-.27-2.338.005-.103.159.318.235 1.142.207.717-.024 1.255-.12 1.196-.213zm6.52.08a.25.25 0 0 0-.346 0c-.095.092-.017.167.173.167s.267-.075.172-.166m-3.024-.456a.127.127 0 0 0-.13-.124.127.127 0 0 0-.129.124c0 .069.059.125.13.125s.13-.056.13-.125m2.175-.082c.158-.244-.788-.212-1.047.036-.097.094.068.17.369.17.3 0 .605-.092.679-.206m.935.082a.127.127 0 0 0-.13-.124.127.127 0 0 0-.13.124c0 .069.059.125.13.125s.13-.056.13-.125m.777-.124c0-.137-.051-.249-.114-.249s-.187.112-.275.249-.036.249.115.249c.15 0 .274-.112.274-.25m.777 0c0-.137-.116-.249-.259-.249s-.259.112-.259.249.117.249.26.249.258-.112.258-.25m.905.003c.091-.141-.013-.183-.243-.098-.45.166-.531.344-.159.344.134 0 .315-.11.402-.246m2.723-.003c0-.137-.262-.247-.583-.245l-.583.004.389.241c.502.312.777.312.777 0zm1.166 0c.088-.137-.022-.249-.244-.249s-.404.112-.404.249.11.249.244.249.316-.112.404-.25m2.461 0c0-.137-.123-.249-.274-.249-.15 0-.202.112-.114.249s.211.249.274.249.114-.112.114-.25m34.203.027c0-.123-.184-.29-.41-.374-.633-.234-.717-.183-.367.222.358.414.777.496.777.152m4.924-.072c0-.112-.525-.204-1.166-.204s-1.166.084-1.166.187c0 .102.525.194 1.166.204s1.166-.075 1.166-.187m-44.394-.121a.25.25 0 0 0-.346 0c-.095.091-.017.166.173.166s.268-.075.173-.166m7.082-.083a.255.255 0 0 0-.26-.249.255.255 0 0 0-.258.249c0 .137.116.249.259.249.142 0 .259-.112.259-.249m2.591 0c.474-.294.065-.294-.648 0l-.518.214.389.014c.214.007.563-.095.777-.228m20.73 0c0-.137-.124-.249-.275-.249s-.203.112-.115.249.212.249.275.249.114-.112.114-.249m11.018-.2c-.08-.078-.289-.001-.465.17l-.32.308.466-.17c.255-.093.399-.232.32-.309m-51.44-.327c0-.137-.117-.18-.259-.095s-.26.266-.26.402c0 .137.117.18.26.096.142-.085.26-.266.26-.403m.777.154c0-.206-.116-.374-.259-.374s-.259.168-.259.374c0 .205.117.373.26.373s.258-.168.258-.373m15.201.207a.25.25 0 0 0-.345 0c-.095.091-.017.166.173.166s.267-.075.172-.166m1.9.041a.127.127 0 0 0-.13-.124.127.127 0 0 0-.129.124c0 .069.059.125.13.125s.13-.056.13-.125m2.764-.041a.25.25 0 0 0-.345 0c-.095.091-.017.166.173.166s.267-.075.172-.166m1.053.016c-.086-.083-.31-.092-.497-.02-.206.08-.145.138.157.15.273.011.426-.048.34-.13m1.56-.022c-.25-.062-.657-.062-.907 0s-.045.114.454.114c.498 0 .702-.051.453-.114m1.274.005a.25.25 0 0 0-.345 0c-.095.092-.018.166.172.166s.268-.074.173-.166m2.354-.005a2.2 2.2 0 0 0-.907 0c-.25.063-.046.114.453.114s.703-.051.454-.114m2.202.006c-.178-.069-.47-.069-.648 0-.178.07-.032.126.324.126s.502-.057.324-.126m1.23-.076c0-.132-.174-.176-.388-.098-.214.08-.389.188-.389.241 0 .054.175.098.39.098.213 0 .388-.108.388-.24m1.226.09c-.086-.082-.31-.09-.496-.019-.207.08-.146.139.156.15.273.011.426-.047.34-.13m5.195-.03a13.5 13.5 0 0 0-2.073-.002c-.61.053-.175.097.965.098 1.14 0 1.638-.043 1.108-.096zm2.195.016c-.178-.069-.47-.069-.647 0-.179.07-.033.126.323.126.357 0 .502-.057.324-.126m2.856.002c-.176-.068-.526-.072-.778-.009s-.108.12.32.124c.427.005.633-.046.458-.114zm1.94-.007c-.247-.062-.713-.064-1.035-.005-.323.06-.12.11.45.114.57.003.834-.046.586-.109m3.237-.009c-.463-.055-1.221-.055-1.684 0s-.085.1.842.1 1.305-.044.842-.1m1.23.056a.127.127 0 0 0-.129-.124.127.127 0 0 0-.13.124c0 .069.059.124.13.124s.13-.055.13-.124m1.814 0a.127.127 0 0 0-.13-.124.127.127 0 0 0-.129.124c0 .069.059.124.13.124s.13-.055.13-.124m-42.494-1.056c0-.172.124-.313.275-.313.15 0 .202.112.114.249s-.043.249.099.249.339-.124.436-.276l.178-.275.207.321.207.322.458-.357c.252-.197.378-.23.28-.072-.098.156-.011.346.193.421.203.075.417.003.474-.16l.104-.298.862.684v-.306c0-.17.173-.243.389-.163.214.079.388.02.388-.128v-.272l.39.31.388.31v-.757l-.928.042c-.511.023-.973-.027-1.027-.11s-.481-.112-.95-.062c-1.377.148-2.142.091-2.232-.165-.048-.137-.23-.109-.426.065-.188.167-.29.388-.225.49.065.103.004.187-.135.187s-.312-.14-.384-.311l-.132-.311-.597.746-.131-.31c-.126-.298-1.384-.458-1.384-.177 0 .442.757.746 1.852.743l1.257-.004zm9.647-.113c.247.009.516-.088.598-.216.084-.13-.314-.233-.901-.233h-1.052v.8l.453-.184c.25-.102.656-.177.902-.167m10.371-.303c.08.077.505.194.946.26.839.127 1.136-.286.349-.483l-.454-.114.568-.03c.312-.015.652-.16.755-.32l.187-.29-.452.166c-.249.092-.618.167-.82.167s-.367.176-.367.391v.391l-.833-.8-.36.289c-.2.158-.358.47-.354.693l.008.405.341-.432c.188-.237.407-.369.486-.293zm17.813.352c0-.137-.123-.25-.274-.25s-.203.113-.114.25c.088.137.211.249.274.249s.114-.112.114-.25m3.498 0c.088-.137.037-.25-.114-.25s-.274.113-.274.25.05.249.114.249c.063 0 .186-.112.274-.25m-12.567-.25c0-.136-.182-.248-.404-.248s-.332.112-.244.249.27.249.404.249.244-.112.244-.25M32.48 13.28a.25.25 0 0 0-.345 0c-.095.091-.018.166.172.166s.268-.075.173-.166m30.726-.248c-.178-.07-.47-.07-.648 0-.178.069-.032.125.324.125.357 0 .502-.056.324-.125m-9.393-1.08c0-.137-.181-.249-.404-.249-.222 0-.331.112-.243.249s.27.249.404.249a.247.247 0 0 0 .243-.249m10.505 45.822c-.191-.298.296-.593.641-.388.29.172.1.62-.263.62-.126 0-.296-.105-.378-.232m-24.238-.266c0-.183.078-.257.173-.166a.23.23 0 0 1 0 .332c-.095.091-.173.016-.173-.166m2.332-.125c0-.068.059-.124.13-.124s.13.056.13.124a.127.127 0 0 1-.13.125.127.127 0 0 1-.13-.125m25.911 0c0-.068.059-.124.13-.124s.13.056.13.124a.127.127 0 0 1-.13.125.127.127 0 0 1-.13-.125m-19.952-.249c0-.068.059-.124.13-.124s.13.056.13.124a.127.127 0 0 1-.13.125.127.127 0 0 1-.13-.125m25.393 0c0-.068.059-.124.13-.124s.13.056.13.124a.127.127 0 0 1-.13.125.127.127 0 0 1-.13-.125m-36.012-.543.004-.452.55.747-.105-.374c-.058-.205-.504-.432-.991-.504l-.887-.13.648-.178c.952-.26 2.332-.221 2.332.066 0 .136-.204.25-.453.252l-.454.004.381.232c.441.268.36.38-.446.618l-.583.172zm3.628.01c-.004-.582-.557-.902-1.17-.676-.214.079-.389.02-.389-.132s.32-.285.713-.296a14 14 0 0 0 1.45-.137l.739-.115-.119.323c-.065.177-.31.307-.543.288-.235-.02-.426.065-.426.187 0 .121.175.22.389.22s.388.12.388.265-.13.186-.288.092-.39-.017-.514.172l-.226.343zm1.81.285c0-.068.058-.124.13-.124.07 0 .129.056.129.124a.127.127 0 0 1-.13.125.127.127 0 0 1-.13-.125m1.036 0c0-.068.058-.124.13-.124.07 0 .13.056.13.124a.127.127 0 0 1-.13.125.127.127 0 0 1-.13-.125m.518 0c0-.068.059-.124.13-.124s.13.056.13.124a.127.127 0 0 1-.13.125.127.127 0 0 1-.13-.125m9.328 0c0-.068.059-.124.13-.124s.13.056.13.124a.127.127 0 0 1-.13.125.127.127 0 0 1-.13-.125m.605-.041a.25.25 0 0 1 .345 0c.095.091.018.166-.172.166s-.268-.075-.173-.166m-19.52-.208c0-.068.058-.124.13-.124.07 0 .129.056.129.124a.127.127 0 0 1-.13.125.127.127 0 0 1-.13-.125m2.073 0c0-.068.058-.124.13-.124.07 0 .129.056.129.124a.127.127 0 0 1-.13.125.127.127 0 0 1-.13-.125m3.455-.041a.25.25 0 0 1 .345 0c.095.091.017.166-.173.166s-.267-.075-.172-.166m8.464.041c0-.068.058-.124.13-.124.07 0 .129.056.129.124a.127.127 0 0 1-.13.125.127.127 0 0 1-.13-.125m9.487-.17c.075-.116.244-.147.377-.068.339.201.3.28-.136.28-.208 0-.316-.095-.241-.212m-26.718-.203c.088-.137.27-.25.404-.25s.244.113.244.25-.182.249-.404.249-.332-.112-.244-.25m2.265.083c-.408-.158-.16-.581.341-.581.205 0 .373.168.373.373 0 .384-.148.427-.714.208m-6.195-.25a.25.25 0 0 1 .345 0c.095.092.018.167-.172.167s-.268-.075-.173-.166m7.291-.093c-.084-.131.087-.238.38-.238.626 0 .69.138.154.336-.21.077-.45.033-.534-.098m-9.668-.487c0-.342.058-.482.13-.311a.93.93 0 0 1 0 .622c-.072.171-.13.031-.13-.311m1.772.226c0-.125.234-.226.519-.226s.518.043.518.095-.233.154-.518.226-.519.029-.519-.095m2.85-.226c0-.137.124-.249.275-.249s.202.112.114.249-.211.249-.274.249-.114-.112-.114-.25m.778-.249c0-.183.078-.257.173-.166a.23.23 0 0 1 0 .332c-.095.091-.173.017-.173-.166m1.296.124c0-.068.058-.124.13-.124.07 0 .129.056.129.124a.127.127 0 0 1-.13.125.127.127 0 0 1-.13-.125m1.036 0c0-.068.058-.124.13-.124.07 0 .13.056.13.124a.127.127 0 0 1-.13.125.127.127 0 0 1-.13-.125m18.224-.29a.25.25 0 0 1 .345 0c.095.091.018.166-.172.166s-.268-.075-.173-.166m.901-.004c.187-.072.411-.063.497.02s-.067.141-.34.13c-.302-.011-.363-.07-.157-.15m12.745.046c0-.069.059-.125.13-.125s.13.056.13.125a.127.127 0 0 1-.13.124.127.127 0 0 1-.13-.124m-29.798-.25c0-.068.059-.124.13-.124s.13.056.13.124a.127.127 0 0 1-.13.125.127.127 0 0 1-.13-.125m1.555 0c0-.068.058-.124.13-.124.071 0 .13.056.13.124a.127.127 0 0 1-.13.125.127.127 0 0 1-.13-.125m1.91-.187.147-.435-.705-.025a48 48 0 0 0-1.61-.021l-.908.005.907-.18c.499-.1 1.198-.142 1.555-.094.356.048.88.088 1.162.088h.515l-.35.209a2.5 2.5 0 0 0-.605.549l-.253.34zm2.236.187c0-.068.058-.124.13-.124.07 0 .13.056.13.124a.127.127 0 0 1-.13.125.127.127 0 0 1-.13-.125m5.182 0c0-.068.058-.124.13-.124.071 0 .13.056.13.124a.127.127 0 0 1-.13.125.127.127 0 0 1-.13-.125m12.437 0c0-.068.058-.124.13-.124.071 0 .13.056.13.124a.127.127 0 0 1-.13.125.127.127 0 0 1-.13-.125m-8.55-.373c0-.146.781-.239 1.878-.224l1.879.025-.648.199c-.944.29-3.11.29-3.11 0zm-17.88-.125c0-.068.059-.124.13-.124s.13.056.13.124a.127.127 0 0 1-.13.125.127.127 0 0 1-.13-.125m1.123-.041a.25.25 0 0 1 .346 0c.095.091.017.166-.173.166s-.268-.075-.173-.166m.82-.083c.089-.137.212-.25.275-.25s.115.113.115.25-.124.249-.275.249c-.15 0-.202-.112-.114-.25m.649-.264c0-.145.116-.194.259-.11.142.085.259.204.259.264s-.117.11-.26.11-.258-.119-.258-.264m8.42.015c-.087-.137-.036-.249.115-.249.15 0 .274.112.274.249s-.051.249-.114.249-.186-.112-.274-.25m.875-.187-.356-.435.453.341c.25.188.454.384.454.436 0 .205-.213.073-.551-.342m-20.437-.568c0-.132.174-.24.388-.24s.389.043.389.097-.175.162-.389.241-.388.035-.388-.098m8.032.007-.907-.183 1.555-.03c.855-.015 1.73.08 1.943.213l.389.242-1.037-.03a14 14 0 0 1-1.943-.212zm4.491.083a.25.25 0 0 1 .346 0c.095.092.017.166-.173.166s-.268-.074-.173-.166m-11.297-.362c.176-.17.385-.247.465-.17s-.064.215-.32.309l-.464.17zm4.474.155c0-.069.059-.125.13-.125s.13.056.13.125a.127.127 0 0 1-.13.124.127.127 0 0 1-.13-.124m.778 0c0-.069.058-.125.13-.125.07 0 .129.056.129.125a.127.127 0 0 1-.13.124.127.127 0 0 1-.13-.124m-10.624-.373c0-.137.24-.25.533-.25s.462.113.373.25c-.088.137-.328.249-.533.249s-.373-.112-.373-.25m8.55-.25c0-.273.15-.497.334-.497.183 0 .35.224.372.498.023.284-.12.498-.333.498-.205 0-.373-.224-.373-.498m-9.328.125c0-.068.059-.124.13-.124s.13.056.13.124a.127.127 0 0 1-.13.125.127.127 0 0 1-.13-.125m10.761-.274c-.268-.189-.403-.425-.299-.525s.288-.029.409.158c.12.187.405.272.633.187s.415-.056.415.062c0 .397-.665.464-1.158.118m2.907.234a1.04 1.04 0 0 1 .648 0c.178.069.032.125-.324.125s-.502-.056-.324-.125m-5.636-.956c0-.068.059-.124.13-.124s.13.056.13.124a.127.127 0 0 1-.13.125.127.127 0 0 1-.13-.125m4.664-.124c0-.183.078-.257.173-.166a.23.23 0 0 1 0 .332c-.095.091-.173.017-.173-.166m-.69-.166a.25.25 0 0 1 .345 0c.095.091.017.166-.173.166s-.268-.075-.173-.166m2.634-.332c-.203-.315.14-.315.648 0l.388.241-.438.004c-.24.002-.51-.108-.598-.245zm2.548.083a.25.25 0 0 1 .345 0c.095.091.017.166-.173.166s-.267-.075-.172-.166m.95.042c0-.069.058-.125.13-.125.07 0 .129.056.129.125a.127.127 0 0 1-.13.124.127.127 0 0 1-.13-.124m-4.794-.374c-.088-.137-.036-.249.114-.249.151 0 .275.112.275.25 0 .136-.052.248-.114.248s-.187-.112-.275-.249m-2.008-.165c.178-.069.47-.069.648 0 .178.07.032.126-.324.126s-.502-.057-.324-.126m150.18 0a.25.25 0 0 1 .346 0c.095.09.017.165-.173.165s-.268-.074-.173-.166m-152.49-.254c.187-.072.41-.063.497.02.086.083-.067.141-.34.13-.302-.011-.364-.07-.157-.15m1.085.046c0-.069.058-.125.13-.125.07 0 .13.056.13.125a.127.127 0 0 1-.13.124.127.127 0 0 1-.13-.124m150.24-.046c.187-.072.41-.063.497.02s-.067.141-.34.13c-.302-.011-.364-.07-.157-.15m-2.197-.245c.095-.091.25-.091.346 0s.017.166-.173.166-.268-.074-.173-.166m-161.77-.207c0-.069.058-.125.13-.125.07 0 .13.056.13.125a.127.127 0 0 1-.13.124.127.127 0 0 1-.13-.124m8.55-.125c0-.136.38-.247.843-.245l.842.004-.389.242c-.509.316-1.295.316-1.295 0zm151.65.077c.253-.063.603-.06.778.009s-.03.12-.458.115-.571-.061-.32-.124zm-157.09-.375c0-.11.409-.2.908-.2s.907.044.907.098-.408.143-.907.199-.907.012-.907-.097m8.292.174c0-.069.059-.125.13-.125s.13.056.13.125a.127.127 0 0 1-.13.124.127.127 0 0 1-.13-.124m1.296-.498c0-.068.058-.124.13-.124.07 0 .129.056.129.124a.127.127 0 0 1-.13.125.127.127 0 0 1-.13-.125m-24.875-.373c0-.183.078-.258.173-.166a.23.23 0 0 1 0 .332c-.095.09-.173.016-.173-.166m22.802.124c0-.068.058-.124.13-.124.07 0 .129.056.129.124a.127.127 0 0 1-.13.125.127.127 0 0 1-.13-.125m3.32-.045c.187-.072.41-.063.496.02s-.066.14-.34.13c-.301-.012-.363-.071-.156-.15m1.085-.204c.374-.433.777-.49.777-.11 0 .145-.116.195-.259.11-.142-.084-.26-.035-.26.11s-.13.264-.29.264h-.29zm-17.62-.124c0-.183.078-.258.173-.166a.23.23 0 0 1 0 .332c-.095.091-.173.016-.173-.166m5.7-.012c0-.164.357-.198.972-.091q2.016.35.108.352c-.594 0-1.08-.118-1.08-.26m2.332.012c0-.137.124-.25.275-.25.15 0 .202.113.114.25s-.212.249-.275.249c-.062 0-.114-.112-.114-.25m2.966-.022c-.08-.125.347-.227.949-.227 1.251 0 1.268.143.038.328-.463.069-.907.024-.987-.101m-1.93-.103c0-.068.059-.124.13-.124s.13.056.13.124a.127.127 0 0 1-.13.125.127.127 0 0 1-.13-.125m4.535-.124c.088-.137.219-.25.29-.25s.057.113-.03.25c-.089.137-.22.249-.29.249-.072 0-.058-.112.03-.25m1.754-.023c.253-.141.704-.182 1.004-.09l.546.166-.198-.308c-.127-.197-.074-.268.145-.198.19.06.39.243.447.406l.102.296-2.504-.014zm-5.511-.102c0-.068.058-.124.13-.124.07 0 .13.056.13.124a.127.127 0 0 1-.13.125.127.127 0 0 1-.13-.125m9.433-.163c-.115-.178-.071-.22.114-.11.299.178.401.398.185.398-.063 0-.197-.13-.3-.288m4.04-.086c0-.068.06-.124.13-.124.072 0 .13.056.13.124a.127.127 0 0 1-.13.125.127.127 0 0 1-.13-.125m1.037-.498c0-.068.059-.124.13-.124s.13.056.13.124a.127.127 0 0 1-.13.125.127.127 0 0 1-.13-.125m.864-.041a.25.25 0 0 1 .345 0c.095.091.018.166-.172.166s-.268-.075-.173-.166m-28.59-.477c0-.44.559-.363.719.098.056.163-.082.296-.308.296a.404.404 0 0 1-.41-.394m4.007.128c-.257-.398.03-.548.673-.352l.572.174-.358.218c-.475.29-.682.28-.887-.04m-1.544-1.228c.088-.137.218-.249.29-.249.07 0 .057.112-.031.25-.088.136-.219.248-.29.248s-.058-.112.03-.249m9.935-.18.849-.394.364.35.364.35-2.425.09zm-7.02-.24c-.483-.121-.642-1.073-.18-1.073.151 0 .203.112.115.249s-.05.249.086.249.314.168.396.373.124.36.093.344a6 6 0 0 0-.51-.142m4.728-.202c0-.069.059-.125.13-.125s.13.056.13.125a.127.127 0 0 1-.13.124.127.127 0 0 1-.13-.124m.778-.125c0-.136.123-.248.274-.248s.202.112.114.248c-.088.137-.211.25-.274.25s-.114-.113-.114-.25m-12.265-.165c-.298-.287-.189-.581.216-.581.213 0 .388.168.388.373 0 .389-.306.494-.604.208m8.771-.076c-.199-.31 1.027-.614 1.453-.361l.322.19-.501.19c-.709.266-1.094.26-1.274-.019m5.825.117c0-.068.059-.124.13-.124s.13.056.13.124a.127.127 0 0 1-.13.125.127.127 0 0 1-.13-.125m-1.295-.373c0-.137.175-.25.388-.25s.389.113.389.25-.175.249-.389.249c-.213 0-.388-.112-.388-.25m-1.62-.165c.178-.07.47-.07.648 0 .178.069.032.126-.324.126s-.502-.057-.324-.126m-.885-.25a.25.25 0 0 1 .345 0c.095.091.018.166-.172.166s-.268-.075-.173-.166m-4.232-.332c0-.183.078-.257.173-.166a.23.23 0 0 1 0 .332c-.095.091-.173.017-.173-.166m7.255.124c0-.068.058-.124.13-.124.07 0 .13.056.13.124a.127.127 0 0 1-.13.125.127.127 0 0 1-.13-.125m-1.75-.341c-.143-.089-.163-.372-.047-.654l.206-.498.022.373.022.374.503-.747.004.415c.002.228.146.46.32.516s.072.164-.23.24c-.3.075-.66.067-.8-.02m-10.947-.251c0-.137.117-.319.26-.403.142-.085.258-.042.258.095s-.116.318-.259.403c-.142.084-.259.042-.259-.095m13.042.053a.25.25 0 0 1 .346 0c.095.092.017.166-.173.166s-.268-.075-.173-.166m-9.932-.58c0-.183.077-.258.172-.167a.23.23 0 0 1 0 .332c-.095.092-.172.017-.172-.166m6.477 0c0-.138.168-.25.374-.25s.445.112.533.25c.088.136-.08.248-.373.248s-.534-.112-.534-.249m2.479-.177-.177-.446.322.307c.177.169.256.37.177.446s-.225-.061-.322-.307m-16.47-.073c0-.182.077-.257.172-.166a.23.23 0 0 1 0 .332c-.095.092-.172.017-.172-.166m2.332.125c0-.069.058-.125.13-.125.07 0 .129.056.129.125a.127.127 0 0 1-.13.124.127.127 0 0 1-.13-.124m7.255-.498c0-.069.058-.124.13-.124.07 0 .129.056.129.124a.127.127 0 0 1-.13.124.127.127 0 0 1-.13-.124m5.7-.249c0-.068.058-.124.13-.124.071 0 .13.056.13.124a.127.127 0 0 1-.13.125.127.127 0 0 1-.13-.125m1.9-.236c0-.198.335-.493.744-.656l.744-.296 1.147.52-.778-.068c-.983-.087-1.425.072-1.425.514 0 .19-.097.347-.216.347s-.216-.163-.216-.36m-2.073-.801a.25.25 0 0 1 .346 0c.095.091.017.166-.173.166s-.268-.075-.173-.166m1.42-.004c.187-.072.41-.063.497.02.086.082-.067.14-.34.13-.302-.012-.364-.07-.157-.15m-7.466-.204c0-.068.059-.124.13-.124s.13.056.13.124a.127.127 0 0 1-.13.125.127.127 0 0 1-.13-.125m.988-.045c.187-.072.41-.063.497.02s-.067.141-.34.13c-.302-.012-.363-.07-.157-.15m1.555 0c.187-.072.41-.063.497.02s-.067.141-.34.13c-.302-.012-.364-.07-.157-.15m-1.679-.494a.25.25 0 0 1 .346 0c.095.091.017.166-.173.166s-.268-.075-.173-.166m-.604-.58-.389-.242.453-.004c.25-.002.454.108.454.245 0 .304-.03.304-.518 0zm1.382.082a.25.25 0 0 1 .345 0c.095.091.017.166-.173.166s-.267-.075-.172-.166m-3.455-.207c0-.069.058-.125.13-.125.07 0 .129.056.129.125a.127.127 0 0 1-.13.124.127.127 0 0 1-.13-.124m.648-.125c.088-.137.211-.249.274-.249s.114.112.114.25-.123.248-.274.248-.203-.112-.114-.249m-1.166-.124c0-.069.058-.125.13-.125.07 0 .129.056.129.125a.127.127 0 0 1-.13.124.127.127 0 0 1-.13-.124m-8.292-.498c0-.069.058-.125.13-.125.07 0 .13.056.13.125a.127.127 0 0 1-.13.124.127.127 0 0 1-.13-.124m12.265-.29a.25.25 0 0 1 .345 0c.095.09.018.165-.172.165s-.268-.074-.173-.166m-2.591-.25a.25.25 0 0 1 .345 0c.095.092.018.167-.172.167s-.268-.075-.173-.166m1.036 0a.25.25 0 0 1 .346 0c.095.092.017.167-.173.167s-.268-.075-.173-.166m2.4-.428c.086-.214.35-.293.69-.207l.553.138-.504.19c-.753.283-.891.26-.739-.121m-1.59-.418c-.094-.146-.115-.319-.047-.384s.192.054.277.266c.175.438.026.515-.23.118m-6.976-.562.786-.292-.059-.498-.059-.498.134.435c.074.24.27.44.439.445.167.005.013.169-.343.364-.357.196-.881.352-1.166.346l-.519-.01zm4.095-.044c0-.136.505-.251 1.122-.255.645-.004 1.122.11 1.122.266 0 .159-.47.266-1.122.256-.618-.01-1.123-.13-1.122-.267m-1.643 0c0-.068.059-.124.13-.124s.13.056.13.124a.127.127 0 0 1-.13.125.127.127 0 0 1-.13-.125m.519 0c0-.068.058-.124.13-.124.07 0 .129.056.129.124a.127.127 0 0 1-.13.125.127.127 0 0 1-.13-.125m-4.146-.87c0-.138.175-.25.388-.25s.39.112.39.25-.176.248-.39.248c-.213 0-.388-.112-.388-.249m4.858.07c-1.023-.149-.88-.569.194-.569h.907v.374c0 .205-.087.356-.194.336s-.515-.084-.907-.141m1.879.054c0-.069.058-.125.13-.125.07 0 .129.056.129.125a.127.127 0 0 1-.13.124.127.127 0 0 1-.13-.124m.13-.374-.778-.19.987-.03c.598-.017.924.07.827.22-.088.137-.183.236-.21.22s-.4-.115-.827-.22m1.813 0c-.088-.137-.044-.249.099-.249.142 0 .331.112.42.25.087.136.043.248-.1.248-.142 0-.33-.112-.419-.249m5.57-.746c0-.183.079-.258.174-.166a.23.23 0 0 1 0 .331c-.095.092-.173.017-.173-.165m.52 0c0-.137.116-.25.258-.25s.26.113.26.25c0 .136-.117.248-.26.248s-.259-.112-.259-.248m.776 0c0-.183.078-.258.173-.166a.23.23 0 0 1 0 .331c-.095.092-.173.017-.173-.165m.648 0c.088-.137.219-.25.29-.25s.057.113-.03.25c-.089.136-.22.248-.29.248-.072 0-.058-.112.03-.248m.907 0c-.233-.145-.265-.243-.08-.246a.61.61 0 0 1 .469.246c.199.309.109.309-.389 0m-10.397-.048c-.183-.427-.091-1.197.143-1.197.363 0 .472.928.133 1.13-.134.079-.258.11-.276.067m11.261-.119a.25.25 0 0 1 .346 0c.095.092.017.166-.173.166s-.268-.074-.173-.166M8.738 34.48c0-.069.058-.125.13-.125.07 0 .13.056.13.125a.127.127 0 0 1-.13.124.127.127 0 0 1-.13-.124m2.073-.126c-.653-.2-.562-.28.389-.34.285-.017.556.077.602.21.113.327-.21.369-.991.13m4.923.069c-.402-.147-.766-.557-.773-.869-.002-.098.176-.112.396-.031.22.08.338.206.263.278s.065.28.312.46c.48.349.428.39-.198.162m-1.036-.192c0-.069.058-.125.13-.125.07 0 .129.056.129.125a.127.127 0 0 1-.13.124.127.127 0 0 1-.13-.124m-8.292-.374c0-.137.175-.249.389-.249s.389.112.389.25c0 .136-.175.248-.39.248-.213 0-.388-.112-.388-.249m9.674-.166a.25.25 0 0 1 .345 0c.095.092.017.166-.173.166s-.267-.074-.172-.166M3.297 33.36c0-.137.181-.25.404-.25.222 0 .332.113.243.25-.088.136-.27.248-.403.248a.247.247 0 0 1-.244-.248m9.069.124c0-.068.058-.124.13-.124.07 0 .129.055.129.124a.127.127 0 0 1-.13.124.127.127 0 0 1-.13-.124m-6.22-.249c0-.068.06-.124.13-.124.072 0 .13.055.13.124a.127.127 0 0 1-.13.125.127.127 0 0 1-.13-.125m-.517-.249c0-.068.058-.124.13-.124.07 0 .129.056.129.124a.127.127 0 0 1-.13.125.127.127 0 0 1-.13-.125m5.51-.054c.395-.057.655-.2.579-.319-.076-.118-.02-.285.125-.371.412-.245.31-.625-.168-.625-.238 0-.363-.066-.279-.147s.407-.07.717.025l.564.172-.285.274c-.157.15-.286.475-.286.722v.448l-1.684-.075zm1.377-.156c.122-.306 2.825-.374 3.132-.08.203.195.142.205-1.775.298l-1.473.07zm-5.85-.288c-.18-.208-.209-.373-.064-.373.142 0 .404.168.581.373.18.209.208.374.064.374-.143 0-.404-.168-.582-.374m2.85-.124c0-.183.077-.257.172-.166a.23.23 0 0 1 0 .332c-.095.091-.173.016-.173-.166m-1.037-.125c0-.068.058-.124.13-.124.07 0 .13.056.13.124a.127.127 0 0 1-.13.125.127.127 0 0 1-.13-.125m-2.591-.249c0-.068.058-.124.13-.124.07 0 .129.056.129.124a.127.127 0 0 1-.13.125.127.127 0 0 1-.13-.125m4.664-.11c0-.128.116-.303.259-.387s.26.02.26.234-.117.388-.26.388-.26-.106-.26-.234m-.777-.139c0-.068.058-.124.13-.124.07 0 .129.056.129.124a.127.127 0 0 1-.13.125.127.127 0 0 1-.13-.125m-6.867-.87c-.09-.142.127-.25.503-.25.365 0 .663.112.663.25s-.226.248-.503.248c-.276 0-.575-.112-.663-.249m4.19-.167c-.299-.286-.19-.58.215-.58.214 0 .389.167.389.373 0 .389-.307.494-.605.207m3.713-.877c0-.13-.232-.164-.517-.078l-.516.158.146-.365.146-.366 1.59.241-.162-.406c-.102-.256-.06-.346.116-.242.153.091.223.372.154.624-.068.251.009.503.172.558s-.024.102-.416.105-.713-.1-.713-.23m-2.332-.575c0-.068.058-.124.13-.124.07 0 .13.055.13.124a.127.127 0 0 1-.13.125.127.127 0 0 1-.13-.125m.518-.373c0-.137.117-.25.26-.25.142 0 .259.113.259.25a.255.255 0 0 1-.26.249.255.255 0 0 1-.259-.25m1.555-.125c0-.068.058-.124.13-.124.07 0 .13.056.13.124a.127.127 0 0 1-.13.125.127.127 0 0 1-.13-.125m1.296-.66v-.537l.518.45c.285.248.518.49.518.537s-.233.086-.518.086h-.518zm-2.438 0c.102-.158-.03-.438-.293-.622l-.478-.336h.41c.226 0 .482.177.568.394.231.577.193.85-.117.85-.15 0-.191-.128-.09-.286m1.272.038c-.088-.137.014-.25.228-.25s.46.113.549.25c.088.137-.015.249-.229.249-.213 0-.46-.112-.548-.25m173.35-.134c.427-.188.931-.347 1.12-.353l.342-.011-.389.373c-.214.206-.718.365-1.12.354l-.73-.02zm-181.35-.265c-.093-.23-.11-.475-.039-.544.072-.068.205.065.298.296.092.23.11.475.038.544-.071.068-.205-.065-.297-.296m1.787.15c-.092-.144.148-.248.568-.245l.728.004-.389.241c-.497.31-.708.31-.907 0zm2.462-.25c0-.136.233-.248.518-.248s.519.112.519.249-.234.249-.519.249-.518-.112-.518-.25m1.555.125c0-.068.058-.124.13-.124.07 0 .129.056.129.124a.127.127 0 0 1-.13.125.127.127 0 0 1-.13-.125m1.558-.31c-.002-.309.113-.56.256-.56.324 0 .324.263 0 .746l-.252.373zm-6.74-.16c0-.237.775-.356.913-.141.085.13-.086.238-.38.238-.293 0-.533-.044-.533-.098m7.514-.028c0-.068.058-.124.13-.124.07 0 .129.056.129.124a.127.127 0 0 1-.13.125.127.127 0 0 1-.13-.125m-4.837-.29a.25.25 0 0 1 .346 0c.095.091.017.166-.173.166s-.268-.075-.173-.166m1.987.042c0-.069.058-.125.13-.125.07 0 .129.056.129.125a.127.127 0 0 1-.13.124.127.127 0 0 1-.13-.124m-1.037-.498c0-.069.058-.125.13-.125.071 0 .13.056.13.125a.127.127 0 0 1-.13.124.127.127 0 0 1-.13-.124m.518 0c0-.069.059-.125.13-.125s.13.056.13.125a.127.127 0 0 1-.13.124.127.127 0 0 1-.13-.124m1.037 0c0-.069.058-.125.13-.125.07 0 .129.056.129.125a.127.127 0 0 1-.13.124.127.127 0 0 1-.13-.124m-3.444-.623c.075-.273.239-.497.365-.497s.229.224.229.497-.164.498-.365.498h-.364zm1.89-.249c0-.136.174-.248.388-.248s.389.112.389.248-.175.25-.39.25c-.213 0-.388-.113-.388-.25m3.368-.373c0-.068.058-.124.13-.124.07 0 .129.056.129.124a.127.127 0 0 1-.13.125.127.127 0 0 1-.13-.125m-.065-.538a1.04 1.04 0 0 1 .648 0c.178.069.032.125-.324.125s-.502-.056-.324-.125m165.06-.26c.322-.06.789-.058 1.036.005.248.062-.016.11-.586.108s-.773-.054-.45-.113m5.762-.086c1.655-.283 2.85-.278 2.85.013 0 .147-.82.236-2.008.217l-2.008-.03zm-172.31-.859c0-.068.058-.124.13-.124.07 0 .13.056.13.124a.127.127 0 0 1-.13.125.127.127 0 0 1-.13-.125m.518-.249c0-.068.059-.124.13-.124s.13.056.13.124a.127.127 0 0 1-.13.125.127.127 0 0 1-.13-.125m-2.332-.249c0-.068.059-.124.13-.124s.13.056.13.124a.127.127 0 0 1-.13.125.127.127 0 0 1-.13-.125m-4.146-.373c0-.182.078-.257.173-.166a.23.23 0 0 1 0 .332c-.095.091-.173.017-.173-.166m162.59-.249-1.036-.178 1.036-.032c.57-.017 1.212.077 1.426.21l.388.241-.388-.031a24 24 0 0 1-1.426-.21m-6.93-.429a8.6 8.6 0 0 1 1.683 0c.464.055.085.1-.842.1s-1.305-.045-.842-.1m-149.44-.442c0-.069.058-.125.129-.125s.13.056.13.125a.127.127 0 0 1-.13.124.127.127 0 0 1-.13-.124m-1.296-.996c0-.068.058-.124.13-.124.07 0 .129.056.129.124a.127.127 0 0 1-.13.125.127.127 0 0 1-.13-.125m6.737-.249c0-.068.058-.124.13-.124.07 0 .129.056.129.124a.127.127 0 0 1-.13.125.127.127 0 0 1-.13-.125m-12.544-.337c-.076-.117.15-.16.502-.096.352.065.64.16.64.213 0 .193-1.01.089-1.142-.117m-1.708-.908v-.373l1.684.016-.647.356c-.835.458-1.037.458-1.037 0zm1.987.208a.67.67 0 0 1-.173-.423c0-.156.12-.142.307.037.168.162.246.353.172.423-.073.071-.211.054-.306-.037m5.01-.208c0-.068.057-.124.129-.124.071 0 .13.056.13.124a.127.127 0 0 1-.13.125.127.127 0 0 1-.13-.125m155.03-.29c.094-.091.25-.091.345 0s.017.166-.173.166-.268-.075-.173-.166m2.072 0c.095-.091.25-.091.346 0s.017.166-.173.166-.268-.075-.173-.166m2.764-.09-.389-.249 1.166.163c1.452.202 1.658.343.497.338-.487-.002-1.06-.116-1.274-.252m-6.024-.158c.178-.069.47-.069.647 0 .178.07.033.126-.324.126-.356 0-.502-.057-.323-.126m-9.005-.706-.906-.336.682-.019c.376-.01 1.075.145 1.555.345l.872.364-.648-.01c-.356-.004-1.056-.16-1.555-.344zM.11 17.517c-.241-.232.05-.588.484-.588.205 0 .373.169.373.374 0 .375-.547.512-.857.214m2.67-.182v-.406h2.436l-.268.258c-.148.142-.696.325-1.218.406l-.95.148zm-.517-.032c0-.069.058-.125.13-.125.07 0 .129.056.129.125a.127.127 0 0 1-.13.124.127.127 0 0 1-.13-.124m139.85-.304c.46-.055 1.276-.056 1.813-.002.538.054.162.099-.836.1-.997 0-1.437-.043-.977-.098m-140.11-.443c0-.068.058-.124.13-.124.07 0 .129.056.129.124a.127.127 0 0 1-.13.125.127.127 0 0 1-.13-.125m136.23-.55c.322-.059.788-.057 1.036.006s-.016.11-.586.108-.773-.054-.45-.113M5.373 15.56c0-.068.058-.124.13-.124.07 0 .129.056.129.124a.127.127 0 0 1-.13.125.127.127 0 0 1-.13-.125m131.5-.161c-.428-.134-1.944-.332-3.369-.44l-2.59-.196 1.942-.033c1.784-.03 4.723.43 5.108.8q.322.31-1.091-.131m-31.741-.088c0-.068.058-.124.13-.124.07 0 .129.056.129.124a.127.127 0 0 1-.13.125.127.127 0 0 1-.13-.125m22.432-.098-.5-.188.47-.173c.55-.203 2.156.044 2.36.363.171.265-1.624.264-2.33-.002zm.801-.192a.25.25 0 0 0-.345 0c-.095.091-.017.166.172.166.19 0 .268-.075.173-.166m-120.4-.06c0-.124.22-.17.49-.103.268.068.566.002.66-.144l.173-.268-.467.168-.467.168.38-.447c.223-.265.417-.335.473-.173l.095.274.39-.374c.402-.387.988-.265.721.15a.29.29 0 0 1-.384.098c-.128-.076-.382.09-.563.37-.325.5-1.5.72-1.5.281m111.16-.032-.648-.19h1.426c.783 0 1.716.085 2.072.19l.648.19h-1.425c-.784 0-1.717-.086-2.073-.19m4.489.07c-.547-.088-1.414-.814-.958-.802.125.003 1.043.215 2.04.471l1.814.466-1.166-.023c-.641-.012-1.42-.063-1.73-.113m-119.79-.28c0-.265 1.038-.556 1.34-.377.47.28.171.596-.563.596-.428 0-.777-.099-.777-.22m2.073-.426v-.412l.816.652.214-.332c.119-.186.403-.261.644-.172.657.242.284.549-.75.616l-.924.06zm-3.887-.226c0-.069.058-.125.13-.125.07 0 .129.056.129.125a.127.127 0 0 1-.13.124.127.127 0 0 1-.13-.124m110.21-.042c.095-.091.25-.091.345 0s.018.166-.172.166-.268-.074-.173-.166M8.23 13.693c0-.182.078-.257.173-.166a.23.23 0 0 1 0 .332c-.095.092-.173.017-.173-.166m60.949-.024-.447-.15.518-.136c.863-.225 3.887-.08 3.887.186 0 .27-3.216.35-3.958.1m5.254-.225c.258-.273.666-.497.906-.497.241 0 .65.224.907.497l.47.498h-2.752zm2.628.128c-.196-.49.12-.663.572-.312l.397.309-.19-.304-.19-.304.709-.17.708-.172.711.392.711.392-.132-.329-.131-.33.798.054c.438.029.936.186 1.106.35l.31.296h-.528c-.29 0-.593.064-.674.142-.082.079-1.025.18-2.097.228l-1.95.085zm1.388-.501a.127.127 0 0 0-.13-.124.127.127 0 0 0-.13.124c0 .069.059.124.13.124s.13-.056.13-.124m-75.66.466c0-.017.16-.159.354-.314l.354-.283.543.629h-.625c-.345 0-.626-.014-.626-.032m2.073-.092c.213-.133.505-.242.647-.242s.085.109-.13.242c-.213.132-.504.24-.647.24s-.084-.108.13-.24m101.4.083c.095-.092.25-.092.345 0s.017.165-.173.165-.267-.074-.172-.165M14.19 13.32c0-.068.058-.124.13-.124.07 0 .129.056.129.124a.127.127 0 0 1-.13.125.127.127 0 0 1-.13-.125m37.83 0c0-.068.058-.124.13-.124.07 0 .129.056.129.124a.127.127 0 0 1-.13.125.127.127 0 0 1-.13-.125m1.036 0c0-.068.058-.124.13-.124.071 0 .13.056.13.124a.127.127 0 0 1-.13.125.127.127 0 0 1-.13-.125m2.073 0c0-.068.058-.124.13-.124.07 0 .13.056.13.124a.127.127 0 0 1-.13.125.127.127 0 0 1-.13-.125m27.984-.373c0-.575.415-.623 1.84-.212 1.305.375 1.041.71-.56.71h-1.28zm3.951.322c-1.168-.216-.449-.82.978-.82.844 0 1.273.446.74.77-.369.225-.717.235-1.718.05m18.418.009c.095-.091.25-.091.346 0s.017.166-.173.166-.268-.075-.173-.166m4.319-.083-.389-.241h1.037c.57 0 1.21.108 1.425.24l.388.242h-1.036c-.57 0-1.211-.108-1.425-.241m-102.61-.196c0-.107.233-.212.518-.233.285-.02.518.068.518.196s-.233.233-.518.233-.518-.088-.518-.196m5.441-.052c0-.137.117-.25.26-.25s.258.113.258.25-.116.248-.259.248-.259-.112-.259-.248m26.9.079c.186-.072.41-.063.496.02.086.082-.067.14-.34.13-.302-.012-.364-.071-.157-.15m51.351-.047c0-.119.436-.284.969-.367l.969-.151.764.735h-1.35c-.744 0-1.352-.098-1.352-.217m4.413-.026c-.697-.418-.051-.567 1.685-.388.944.097 1.678.207 1.631.244-.271.217-2.998.335-3.316.144zm-86.81-.241c0-.13.249-.189.553-.132.837.155.917.366.138.366-.38 0-.691-.105-.691-.234m5.077.025c-.09-.14-.036-.329.118-.42.398-.237.655.087.323.406l-.278.267zm85.438.044c.095-.092.25-.092.346 0s.017.166-.173.166-.268-.075-.173-.166m.691-.055c0-.37 1.486-.455 2.255-.128l.725.308-1.49.02c-.82.011-1.49-.079-1.49-.2m-68.664-.132c0-.049.305-.28.678-.515l.678-.427-.108.313c-.095.274-1.248.855-1.248.629m1.296-.02c0-.07.058-.125.13-.125.07 0 .129.056.129.124a.127.127 0 0 1-.13.125.127.127 0 0 1-.13-.125m.777 0c0-.07.058-.125.13-.125.071 0 .13.056.13.124a.127.127 0 0 1-.13.125.127.127 0 0 1-.13-.125m-17.1-.499c0-.205.167-.373.373-.373.548 0 .726.421.251.596-.577.213-.625.196-.625-.223m3.972-.041a.25.25 0 0 1 .346 0c.095.091.017.166-.173.166s-.268-.075-.173-.166m.902-.004c.187-.072.41-.063.496.02.086.082-.067.141-.34.13-.302-.012-.363-.07-.156-.15m36.065-.357c0-.121.145-.222.324-.223.178-.002.601-.075.941-.163l.618-.158-.119.342c-.13.373-1.764.56-1.764.202m-16.324-.095c0-.069.058-.125.13-.125.07 0 .129.056.129.125a.127.127 0 0 1-.13.124.127.127 0 0 1-.13-.124m13.908-.04c-.234-.224.324-.832.763-.832.44 0 .46.3.046.697-.351.338-.562.373-.81.135m-13.131-.21c0-.068.058-.124.13-.124.07 0 .129.056.129.125a.127.127 0 0 1-.13.124.127.127 0 0 1-.13-.124m1.295 0c0-.068.059-.124.13-.124s.13.056.13.125a.127.127 0 0 1-.13.124.127.127 0 0 1-.13-.124m-14.769-.58c0-.35.292-.512.673-.371.541.2.44.578-.155.578-.285 0-.518-.093-.518-.207m14.251.083c0-.069.059-.125.13-.125s.13.056.13.125a.127.127 0 0 1-.13.124.127.127 0 0 1-.13-.124m147.95-8.464c0-.069.059-.125.13-.125s.13.056.13.125a.127.127 0 0 1-.13.124.127.127 0 0 1-.13-.124m-.777-.249c0-.069.058-.124.13-.124.07 0 .13.055.13.124a.127.127 0 0 1-.13.124.127.127 0 0 1-.13-.124m-27.725-.249c0-.068.058-.124.13-.124.07 0 .13.055.13.124a.127.127 0 0 1-.13.125.127.127 0 0 1-.13-.125m14.51-.498c0-.068.058-.124.13-.124.07 0 .13.056.13.124a.127.127 0 0 1-.13.125.127.127 0 0 1-.13-.125m4.923 0c0-.068.058-.124.13-.124.07 0 .13.056.13.124a.127.127 0 0 1-.13.125.127.127 0 0 1-.13-.125m-2.85-.996c0-.068.058-.124.13-.124.07 0 .129.056.129.124a.127.127 0 0 1-.13.125.127.127 0 0 1-.13-.125m-20.47-.249c0-.068.058-.124.13-.124.07 0 .129.056.129.124a.127.127 0 0 1-.13.125.127.127 0 0 1-.13-.125"/>
</svg>
